<svg xmlns="http://www.w3.org/2000/svg" width="410.842" height="407.068" viewBox="0 0 410.842 407.068">
  <g id="Workshop_Operations" data-name="Workshop Operations" transform="translate(-1085.08 -175.34)">
    <path id="Path_3257" data-name="Path 3257" d="M1406.465,586.153l-14.457-17.375a2.568,2.568,0,0,0-2.337-1.618,2.688,2.688,0,0,0-2.3,1.712l-26.14,34.451-18.907-18.385a2.277,2.277,0,0,0-3.424.111l-18.462,19.909H1216.519c-1.515,0-1.515,7.053,0,7.053h104.919a2.388,2.388,0,0,0,1.763-.856l17.555-18.924,19.575,19.036a2.319,2.319,0,0,0,2.166.659,2.85,2.85,0,0,0,1.823-1.626l25.447-33,13.327,15.116a2.445,2.445,0,0,0,3.33,1.361" transform="translate(-18.416 -56.453)" fill="#e1f3ff"/>
    <path id="Path_3258" data-name="Path 3258" d="M1544.669,514.9c-1.24-.856-2.156-.6-3.412-.146a8.812,8.812,0,0,0-3.049,2.191l-60.527,61.361-19.794-18.385a2.47,2.47,0,0,0-3.586.111l-19.391,19.917h2.251c-1.58,0-2.978,4.28-1.39,4.28l.19,1.857c.671,0,1.327.608,1.848.077l18.412-18.933,20.536,19.036a2.5,2.5,0,0,0,2.267.659,2.957,2.957,0,0,0,1.919-1.626l59.8-59.914c2.7-2.936,4.36-5.136,4.621-6.693C1545.87,515.581,1545.633,515.709,1544.669,514.9Z" transform="translate(-49.701 -48.843)" fill="#e1f3ff"/>
    <g id="Plant" transform="translate(1085.08 206.513)">
      <path id="Path_3259" data-name="Path 3259" d="M1146,454.19a229.152,229.152,0,0,1,12.9,34.785,365.819,365.819,0,0,1,8.5,36.188l1.489,9.175c.531,3.056.933,6.137,1.3,9.21l1.138,9.244.856,9.27.411,4.63.248,4.648.479,9.3c.24,6.205.205,12.411.317,18.625l-3.526-.06c0-6.163.214-12.325.128-18.488l-.257-9.235-.137-4.622-.3-4.613-.6-9.235-.916-9.2c-.291-3.073-.616-6.146-1.07-9.193l-1.276-9.167a366.2,366.2,0,0,0-7.609-36.24A240.394,240.394,0,0,0,1146,454.19Z" transform="translate(-1093.857 -246.689)" fill="#00aeef" opacity="0.7"/>
      <path id="Path_3260" data-name="Path 3260" d="M1085.08,334.16s41.641,23.7,59.213,45.749,17.572,81.492,17.572,90.163c0,0-20.748-66.505-34.1-76.8S1092.843,366.445,1085.08,334.16Z" transform="translate(-1085.08 -229.395)" fill="#00aeef" opacity="0.7"/>
      <path id="Path_3261" data-name="Path 3261" d="M1104.7,357.12c4.545,2.9,8.936,5.991,13.232,9.3s8.559,6.6,12.548,10.271a87.426,87.426,0,0,1,11.255,12.128,33.956,33.956,0,0,1,2.328,3.646c.377.625.659,1.344.984,2.029l.787,1.849,3.158,7.421a286.34,286.34,0,0,1,17.615,62.482,290.918,290.918,0,0,1,3.809,32.268c.8,10.776,1.053,21.561,1.267,32.328q.539,32.294-1.361,64.528h-.342q.394-32.208-.753-64.434c-.428-10.733-1.01-21.458-1.883-32.157a315.135,315.135,0,0,0-4.091-31.926c-3.783-21.124-9.141-42-17.042-61.986l-2.919-7.506a28.791,28.791,0,0,0-3.612-7.1,85.789,85.789,0,0,0-10.553-12.086,253.95,253.95,0,0,0-24.591-20.747Z" transform="translate(-1087.884 -232.703)" fill="#e1f3ff"/>
      <path id="Path_3262" data-name="Path 3262" d="M1200.648,339.376s-19.412,25.233-19.738,53.067-6.146,63.989-4.528,80.525c0,0,11-53.127,17.469-67.96s41.495-85.686,73.481-95.718C1267.333,309.281,1225.555,309.607,1200.648,339.376Z" transform="translate(-1098.194 -225.812)" fill="#00aeef" opacity="0.6"/>
      <path id="Path_3263" data-name="Path 3263" d="M1237.58,324.4a65.265,65.265,0,0,0-16.536,13.13,100.356,100.356,0,0,0-12.676,16.8c-7.575,11.923-11.692,25.438-15.407,39.1q-2.747,10.271-5.016,20.645c-1.592,6.907-2.979,13.866-4.391,20.816s-2.739,13.934-4.023,20.927-2.568,13.977-3.852,20.979q1.652-21.287,5.136-42.4c2.268-14.063,5.084-28.057,8.748-41.872a213.015,213.015,0,0,1,6.565-20.465c1.335-3.347,2.765-6.659,4.442-9.886l2.645-4.7c.856-1.566,1.917-3.047,2.867-4.579a92.786,92.786,0,0,1,13.772-16.545C1225.135,331.547,1230.9,327.07,1237.58,324.4Z" transform="translate(-1098.133 -227.989)" fill="#e1f3ff"/>
      <path id="Path_3264" data-name="Path 3264" d="M1145.592,238.5c-5.512,9.056-8.029,22.87-3.15,42.283s23.427,69.886,23.863,88c0,0,3.877-49.643,0-76.785s1.37-67.729,4.571-80.234C1170.876,211.76,1150.385,230.65,1145.592,238.5Z" transform="translate(-1092.97 -211.76)" fill="#00aeef" opacity="0.8"/>
      <path id="Path_3265" data-name="Path 3265" d="M1162.06,231.41a59.761,59.761,0,0,0-7.771,27.056,63.665,63.665,0,0,0,.856,14.037c.128,1.164.471,2.294.7,3.424s.471,2.277.779,3.424c.582,2.32,1.19,4.639,1.712,6.976a481.137,481.137,0,0,1,9.561,56.585c1,9.526,1.712,19.087,1.909,28.708s.488,19.036.77,28.562q1.018,28.588,1.755,57.227-2.748-28.519-4.5-57.1-.916-14.285-1.361-28.631c-.265-9.458-1.019-18.942-2.08-28.391s-2.26-18.882-3.706-28.245-3.133-18.77-5.016-28.091c-.462-2.328-1-4.648-1.506-6.967s-1.01-4.742-1.292-7.147a64.2,64.2,0,0,1-.257-14.5,61.262,61.262,0,0,1,3.09-14.1,50.955,50.955,0,0,1,6.36-12.83Z" transform="translate(-1094.768 -214.591)" fill="#e1f3ff"/>
      <path id="Path_3266" data-name="Path 3266" d="M1186.95,545.69q-.471,14.867-.111,29.735c.24,9.9.771,19.789,1.866,29.572l-3.509.3c-.522-9.989-.462-19.943-.12-29.88S1186.043,555.567,1186.95,545.69Z" transform="translate(-1099.449 -259.872)" fill="#00aeef" opacity="0.7"/>
      <path id="Path_3267" data-name="Path 3267" d="M1191.508,645.609H1162.15a4.767,4.767,0,0,1-4.716-4.22L1154.07,614h45.561l-3.364,27.39a4.768,4.768,0,0,1-4.759,4.22Z" transform="translate(-1095.02 -269.714)" fill="#5968f6"/>
      <rect id="Rectangle_3788" data-name="Rectangle 3788" width="51.852" height="14.876" rx="2.63" transform="translate(56.012 334.922)" fill="#5968f6"/>
      <path id="Rectangle_21" data-name="Rectangle 21" d="M1197.473,633.3h-41.05l-1.583-12.847h44.208l-1.575,12.847" transform="translate(-1095.131 -270.643)" fill="#e1f3ff"/>
    </g>
    <g id="Window" transform="translate(1190.513 175.34)">
      <rect id="Rectangle_3789" data-name="Rectangle 3789" width="305.256" height="277.901" rx="7.4" fill="#e1f3ff"/>
      <g id="Group_24789" data-name="Group 24789" transform="matrix(0.966, -0.259, 0.259, 0.966, 6.156, 57.152)">
        <path id="Path_63342" data-name="Path 63342" d="M126.549,33.723l-18.2,69.024a6.991,6.991,0,0,1-8.55,4.983L5.217,82.792A7,7,0,0,1,.233,74.24l18.2-69.023A6.994,6.994,0,0,1,26.984.234l94.582,24.935A7,7,0,0,1,126.549,33.723Z" transform="translate(2.448 4.376)" fill="#87d8f9" opacity="0.421"/>
        <path id="Path_63343" data-name="Path 63343" d="M112.153,33.723l-4.038,15.312L0,20.53,4.036,5.217A6.994,6.994,0,0,1,12.588.234L107.17,25.169A7,7,0,0,1,112.153,33.723Z" transform="translate(16.844 4.376)" fill="#87d8f9"/>
        <rect id="Rectangle_5522" data-name="Rectangle 5522" width="111.811" height="5.15" transform="translate(16.844 24.905) rotate(14.771)" fill="#fff"/>
        <path id="Path_63344" data-name="Path 63344" d="M16.47,10.508A8.372,8.372,0,1,1,10.509.278,8.371,8.371,0,0,1,16.47,10.508Z" transform="translate(37.495 9.349)" fill="#afe6ff"/>
        <path id="Path_63345" data-name="Path 63345" d="M16.467,10.507A8.37,8.37,0,1,1,10.507.279,8.372,8.372,0,0,1,16.467,10.507Z" transform="translate(94.875 24.479)" fill="#afe6ff"/>
        <g id="Group_23307" data-name="Group 23307" transform="translate(40.144 0)">
          <path id="Path_63346" data-name="Path 63346" d="M5.779,23.445a5.558,5.558,0,0,1-1.511-.189A5.717,5.717,0,0,1,.191,16.266L3.352,4.274A5.722,5.722,0,1,1,14.419,7.189L11.259,19.18A5.716,5.716,0,0,1,5.779,23.445Z" transform="translate(0 0)" fill="#fff"/>
          <path id="Path_63347" data-name="Path 63347" d="M5.781,23.45A5.726,5.726,0,0,1,.191,16.264l3.163-12A5.724,5.724,0,0,1,14.424,7.191l-3.163,12A5.728,5.728,0,0,1,5.781,23.45Z" transform="translate(57.377 15.128)" fill="#fff"/>
        </g>
        <rect id="Rectangle_5523" data-name="Rectangle 5523" width="10.878" height="9.238" transform="matrix(0.967, 0.255, -0.255, 0.967, 25.748, 41.745)" fill="#fff"/>
        <rect id="Rectangle_5524" data-name="Rectangle 5524" width="10.879" height="9.238" transform="matrix(0.967, 0.255, -0.255, 0.967, 98.392, 60.898)" fill="#fff"/>
        <rect id="Rectangle_5525" data-name="Rectangle 5525" width="10.877" height="9.237" transform="matrix(0.967, 0.255, -0.255, 0.967, 80.231, 56.11)" fill="#5968f6"/>
        <rect id="Rectangle_5526" data-name="Rectangle 5526" width="10.878" height="9.238" transform="matrix(0.967, 0.255, -0.255, 0.967, 62.069, 51.322)" fill="#fff"/>
        <rect id="Rectangle_5527" data-name="Rectangle 5527" width="10.879" height="9.238" transform="translate(43.909 46.534) rotate(14.77)" fill="#e1f3ff"/>
        <rect id="Rectangle_5528" data-name="Rectangle 5528" width="10.878" height="9.237" transform="translate(21.92 56.261) rotate(14.763)" fill="#e1f3ff"/>
        <rect id="Rectangle_5529" data-name="Rectangle 5529" width="10.878" height="9.237" transform="matrix(0.967, 0.255, -0.255, 0.967, 94.565, 75.414)" fill="#5968f6"/>
        <rect id="Rectangle_5530" data-name="Rectangle 5530" width="10.878" height="9.238" transform="translate(76.404 70.625) rotate(14.772)" fill="#fff"/>
        <rect id="Rectangle_5531" data-name="Rectangle 5531" width="10.878" height="9.238" transform="matrix(0.967, 0.255, -0.255, 0.967, 58.243, 65.836)" fill="#fff"/>
        <rect id="Rectangle_5532" data-name="Rectangle 5532" width="10.878" height="9.238" transform="translate(40.082 61.048) rotate(14.772)" fill="#fff"/>
        <rect id="Rectangle_5533" data-name="Rectangle 5533" width="10.878" height="9.237" transform="matrix(0.967, 0.255, -0.255, 0.967, 18.094, 70.775)" fill="#fff"/>
        <rect id="Rectangle_5534" data-name="Rectangle 5534" width="10.878" height="9.238" transform="translate(90.739 89.927) rotate(14.771)" fill="#fff"/>
        <rect id="Rectangle_5535" data-name="Rectangle 5535" width="10.878" height="9.238" transform="translate(72.576 85.14) rotate(14.763)" fill="#fff"/>
        <rect id="Rectangle_5536" data-name="Rectangle 5536" width="10.878" height="9.238" transform="translate(54.416 80.352) rotate(14.772)" fill="#5968f6"/>
        <rect id="Rectangle_5537" data-name="Rectangle 5537" width="10.878" height="9.237" transform="translate(36.255 75.563) rotate(14.772)" fill="#fff"/>
      </g>
      <path id="Path_3268" data-name="Path 3268" d="M1507.7,209.286V184.918a9.578,9.578,0,0,0-9.578-9.578h-286.1a9.578,9.578,0,0,0-9.578,9.578v24.368Z" transform="translate(-1202.44 -175.34)" fill="#afe6ff"/>
      <path id="Path_3269" data-name="Path 3269" d="M1507.7,204.15V184.918a9.578,9.578,0,0,0-9.578-9.578h-286.1a9.578,9.578,0,0,0-9.578,9.578V204.15Z" transform="translate(-1202.44 -175.34)" fill="#5968f6"/>
      <circle id="Ellipse_501" data-name="Ellipse 501" cx="4.451" cy="4.451" r="4.451" transform="translate(18.051 9.929)" fill="#44c8f5"/>
      <circle id="Ellipse_502" data-name="Ellipse 502" cx="4.451" cy="4.451" r="4.451" transform="translate(33.663 9.929)" fill="#44c8f5"/>
      <circle id="Ellipse_503" data-name="Ellipse 503" cx="4.451" cy="4.451" r="4.451" transform="translate(49.275 9.929)" fill="#44c8f5"/>
      <rect id="Rectangle_3791" data-name="Rectangle 3791" width="125.102" height="25.489" rx="5.66" transform="translate(157.721 54.728)" fill="#00aeef" opacity="0.4"/>
      <path id="Path_3270" data-name="Path 3270" d="M1501.543,319.116H1396.385a11.752,11.752,0,0,1-11.735-11.735v-5.546a11.752,11.752,0,0,1,11.735-11.735h105.159a11.752,11.752,0,0,1,11.735,11.735v5.546a11.752,11.752,0,0,1-11.735,11.735Zm-105.159-25.489a8.217,8.217,0,0,0-8.208,8.208v5.546a8.217,8.217,0,0,0,8.208,8.208h105.159a8.217,8.217,0,0,0,8.208-8.208v-5.546a8.217,8.217,0,0,0-8.208-8.208Z" transform="translate(-1228.692 -191.874)" fill="#00aeef" opacity="0.4"/>
      <path id="Path_3271" data-name="Path 3271" d="M1501.543,372.117H1396.385a11.743,11.743,0,0,1-11.735-11.726v-5.555a11.743,11.743,0,0,1,11.735-11.726h105.159a11.743,11.743,0,0,1,11.735,11.726v5.555a11.743,11.743,0,0,1-11.735,11.726Zm-105.159-25.489a8.217,8.217,0,0,0-8.208,8.208v5.555a8.217,8.217,0,0,0,8.208,8.2h105.159a8.217,8.217,0,0,0,8.208-8.2v-5.555a8.217,8.217,0,0,0-8.208-8.208Z" transform="translate(-1228.692 -199.512)" fill="#00aeef" opacity="0.4"/>
    </g>
    <g id="Character_2" data-name="Character 2" transform="translate(1192.346 223.212)">
      <path id="Path_3272" data-name="Path 3272" d="M1344.614,329.37c-1.635,1.121-3.92,1.969-4.519,2.482-.154.137-2.225,2.217-3.672,3.672a8.4,8.4,0,0,0-2.208,3.877,5.418,5.418,0,0,0-.154,2.816s2.106,1.558,3.629.745l1.378-3.227a9.8,9.8,0,0,1,3.989-.8c2.8-.214,4.939-3.133,6.976-4.776a7.051,7.051,0,0,0,2.465-5.709,7.755,7.755,0,0,0-2.568,1.977,9.759,9.759,0,0,1-5.135,2.405c-.214,0-.77.043-.856-.205-.317-.728,1.267-1.506,1.934-2.174.924-.933,1.07-1.9.762-2.337S1345.769,328.566,1344.614,329.37Z" transform="translate(-1016.698 -653.426) rotate(20)" fill="#fab9af"/>
      <path id="Path_3274" data-name="Path 3274" d="M1265.514,380s6.847-6.959,38.8-11.495L1324.444,338a4.425,4.425,0,0,1,4.28,3.15s-11.178,27.886-20.182,38.106-33.9,15.141-40.759,13.455S1260.815,383.2,1265.514,380Z" transform="translate(-1006.501 -651.247) rotate(20)" fill="#fff"/>
      <path id="Path_66723" data-name="Path 66723" d="M283.746,262.69a24.368,24.368,0,0,1-4.151,8.185c-2.926,3.542,1.325,6.844,2.318,9.256s-.239,5.99,2.535,7.627,10.669,2.071,11.921-.811S292.654,261.039,283.746,262.69Z" transform="matrix(0.995, -0.105, 0.105, 0.995, -289.739, -123.941)" fill="#0f1446"/>
      <path id="Path_66724" data-name="Path 66724" d="M315,265.667c.427,15.847-14.319,18.889-22.894,18.889s-4.244-17.5-4.244-24.34,5.479-6.555,14.055-6.555c6.757,0,9.73,2.366,12.359,7.385A10.834,10.834,0,0,1,315,265.667Z" transform="matrix(0.995, -0.105, 0.105, 0.995, -290.665, -120.624)" fill="#0f1446"/>
      <path id="Path_3279" data-name="Path 3279" d="M1247.34,352.886c-6.736,1.6-8.1,6.993-6.111,15.886a18.476,18.476,0,0,0,4.725,8.071,6.848,6.848,0,0,1,1.849,4.981l-.282,5.358c.1,4.879,2.91,6.9,6.385,7.044a6.505,6.505,0,0,0,4.759-1.986c1.412-1.481.993-3.843.214-5.735l-.719-1.335a3.646,3.646,0,0,1,1.489-5.024c1.429-.685,3.03-.779,3.963-1.806s1.626-9.7-1.626-17.9C1258.621,352.03,1254.068,351.285,1247.34,352.886Z" transform="translate(-1214.435 -248.694)" fill="#fab9af"/>
      <path id="Path_66725" data-name="Path 66725" d="M308.106,254.347,299.849,252c-4.976,0-13.2,2.81-12.153,9.988l.913,5.07a4.577,4.577,0,0,0,4.114,3.723h0a1.608,1.608,0,0,0,3.165-.427h0a4.874,4.874,0,0,1,3.846-4.744,17.9,17.9,0,0,1,8.691.065C314.139,267.2,309.618,254.8,308.106,254.347Z" transform="matrix(0.995, -0.105, 0.105, 0.995, -291.914, -120.828)" fill="#0f1446"/>
      <path id="Path_3280" data-name="Path 3280" d="M1264.7,372.574a1.583,1.583,0,0,1-1.173,2.174h0a1.592,1.592,0,0,1-1.832-1.181l-1.233-6.625a.933.933,0,0,1,.753-1.1.77.77,0,0,1,.856.454Z" transform="translate(-1217.324 -250.656)" fill="#fa968c"/>
      <path id="Path_3282" data-name="Path 3282" d="M1244.494,371.812c.5,2.054,1.061,4.648-.736,5.076s-4.511-2.876-5-4.93.548-2.842,2.345-3.27S1244.006,369.8,1244.494,371.812Z" transform="translate(-1214.182 -251.059)" fill="#fab9af"/>
      <path id="Path_66730" data-name="Path 66730" d="M211.375,211.626v9.252a20.612,20.612,0,0,1-.812,5.518l-.812,2.922a3.756,3.756,0,0,0,3.571,4.707h19.964a.909.909,0,0,0,.974-.812c.162-2.759-7.629-4.545-13.472-6.817-4.545-1.785-4.693-10.063-4.206-14.77.162-1.785-.826-3.084-2.611-2.922h0A2.855,2.855,0,0,0,211.375,211.626Z" transform="translate(-157.804 123.75)" fill="#fab9af"/>
      <path id="Path_66731" data-name="Path 66731" d="M189.712,209.624l-4.141,10.814a3.263,3.263,0,0,1-.649,1.3l-2.272,3.408a3.9,3.9,0,0,0,2.11,5.843s4.545,1.623,9.252,3.084c4.869,1.623,10.875.325,10.875-.974,0-2.759-2.6-.649-7.142-3.571-1.461-.974-3.084-2.11-4.382-3.084-3.733-2.922-.8-10.522,1.471-14.742a2.45,2.45,0,0,0-1.471-3.761l-1.136-.162C190.927,207.129,190.2,208,189.712,209.624Z" transform="translate(-182.011 123.054)" fill="#fab9af"/>
      <path id="Path_3283" data-name="Path 3283" d="M1273.6,462.854a13.036,13.036,0,0,1,11.486,10.913,203.637,203.637,0,0,1-1.018,66.933l-8.388,65.05a11.016,11.016,0,0,1-5.067-.591s-9.791-94.495-13.669-114.292,2.841-29.3,2.841-29.3Z" transform="translate(-1217.018 -264.451)" fill="#00aeef"/>
      <path id="Path_3284" data-name="Path 3284" d="M1270.52,517.76c-1.481-23.966-7.823-31.156-4.725-55.156v-.591l-5.991-.454s-3.518,9.133.36,28.9c1.4,7.147.943,25.322,2.613,44.075C1264.958,559.147,1270.982,525.189,1270.52,517.76Z" transform="translate(-1217.021 -264.45)" fill="#5968f6"/>
      <path id="Path_3285" data-name="Path 3285" d="M1249.081,461.1a14.439,14.439,0,0,0-14.5,10.271c-2.85,9.415-5.581,22.511-3.022,45.707,0,0-.043,13.988-2.012,22.1s-12.539,62.487-12.539,62.487a7.959,7.959,0,0,0,4.793,2.174s24.846-42.923,30.341-59.066,11.967-67.91,10.041-82.512Z" transform="translate(-1211.066 -264.381)" fill="#00aeef"/>
      <path id="Path_3286" data-name="Path 3286" d="M1280.1,417.536c-.2-3.253-5.555-11.324-8.337-15.312,0,0-3.321-8.7-8.782-9.612a32.3,32.3,0,0,0-16.588.993l-2.568.77a9.167,9.167,0,0,0-6.377,10.382l9.064,51.167c8.294,5.863,19.84,7.746,34.091,6.325.718-.071-.405-.828,0-1.425s-.306-1.442-.505-2.136l-4.887-25.147a13.4,13.4,0,0,1,2.944-10.271,7.969,7.969,0,0,0,1.943-5.735Z" transform="translate(-1213.99 -254.423)" fill="#fff"/>
      <path id="Path_66729" data-name="Path 66729" d="M1280.1,417.536c-.2-3.253-5.555-11.324-8.337-15.312a89.98,89.98,0,0,0-7.165-7.8c-2.734-2.4-3.772-1.809-3.772-1.809s6.111,9.813,8.175,12.087c.718-.071,11.23,14.93,11.1,12.837Z" transform="translate(-1211.99 -254.423)" fill="#5968f6"/>
      <path id="Path_3287" data-name="Path 3287" d="M1256.133,408.156c29.66,5.5,20.815,36.095,22.692,48.881.259,1.764-.056,3.171,0,6.557-5.361,9.782-31.078,16.031-34.8,27.844-1.832,5.812,4.5-23.162-2.375-27.844-1.917-1.31-4.967,10.337-5.17-6.557s-2.2-52.014-2.2-52.014-2.422-10.1,8.936-11.127C1255.277,392.749,1255.927,403.816,1256.133,408.156Z" transform="translate(-1210.825 -254.689)" fill="#00aeef"/>
      <rect id="Rectangle_3792" data-name="Rectangle 3792" width="17.307" height="5.641" rx="1.47" transform="matrix(0.959, 0.283, -0.283, 0.959, 11.746, 206.916)" fill="#5968f6"/>
      <path id="Path_3288" data-name="Path 3288" d="M1242.438,408.366c1.447.616,16.186,8.422,17.444,23.35,1.216-8.919.052-17.264-.257-23.564-.214-4.34-.856-15.407-12.916-14.285C1235.351,394.919,1240.315,407.459,1242.438,408.366Z" transform="translate(-1214.308 -254.685)" fill="#5968f6"/>
      <g id="Group_24790" data-name="Group 24790" transform="translate(-376.218 -181.514) rotate(-21)">
        <g id="Group_24429" data-name="Group 24429" transform="translate(336.694 438.042)">
          <rect id="Rectangle_5776" data-name="Rectangle 5776" width="23.839" height="9.087" rx="4.544" transform="matrix(-0.321, -0.947, 0.947, -0.321, 7.641, 25.494)" fill="#2e404b"/>
          <path id="Path_65897" data-name="Path 65897" d="M561.107,528.359q5.763-.1,11.526-.09c1.088,0,1.2,1.7.1,1.7q-5.763-.013-11.526.09C560.115,530.076,560.009,528.378,561.107,528.359Z" transform="translate(-556.938 -511.406)" fill="#435b6e"/>
          <path id="Path_65898" data-name="Path 65898" d="M557.018,516.274q5.763-.1,11.526-.09c1.088,0,1.2,1.7.1,1.7q-5.763-.013-11.526.089C556.025,517.99,555.919,516.293,557.018,516.274Z" transform="translate(-554.561 -504.382)" fill="#435b6e"/>
          <path id="Path_65899" data-name="Path 65899" d="M554.641,505.293q5.763-.1,11.526-.09c1.088,0,1.2,1.7.1,1.7q-5.764-.013-11.526.09C553.649,507.01,553.543,505.312,554.641,505.293Z" transform="translate(-553.18 -498)" fill="#435b6e"/>
        </g>
        <path id="Path_65900" data-name="Path 65900" d="M556.1,493.29q3.219-.453,6.453-.815c1.59-.175,3.985-.895,5.557-.051,1.5.806,2.27,3.09,2.961,4.546a52.087,52.087,0,0,1,2.474,6.208,54.475,54.475,0,0,1,1.519,5.776c.317,1.524.565,3.04-.7,4.083C571.6,515.3,566.7,515,563.287,514.95c-2.031-.028-2.345-3.277-.3-3.25a25.715,25.715,0,0,0,8.326-.823c1.007-.324.881-.356.664-1.454-.163-.825-.362-1.647-.576-2.463q-.564-2.146-1.315-4.247t-1.68-4.13a19.059,19.059,0,0,0-1.117-2.274c-.6-.94-.617-.832-1.563-.883a26.561,26.561,0,0,0-4.316.46q-2.513.3-5.016.652C554.4,496.821,554.108,493.57,556.1,493.29Z" transform="translate(-216.994 -52.298)" fill="#afbdc6"/>
        <path id="Path_65901" data-name="Path 65901" d="M536.411,497.914c1.519-.43,3.065-.634,4.58-1.08.235-.08.469-.155.7-.226,2.007-.609,3.23,2.4,1.211,3.117q-.783.278-1.576.513c-1.231.476-2.308,1.2-2.241,2.717a19.369,19.369,0,0,0,1.624,5.965,27.3,27.3,0,0,0,2.967,5.521c.711,1.019.634,1.24,1.83,1.092,1.065-.132,2.128-.279,3.191-.419a1.544,1.544,0,0,1,1.773,1.517,1.453,1.453,0,0,1-.446,2.037c-2.371,1.59-5.6,3.155-8.249,1.033-1.362-1.089-1.9-3.034-2.557-4.567l-2.384-5.521c-1.123-2.6-3.681-6.362-2.919-9.315A3.31,3.31,0,0,1,536.411,497.914Z" transform="translate(-204.808 -54.917)" fill="#2e414c"/>
        <path id="Path_65902" data-name="Path 65902" d="M606.508,512.036c4.42-.464,8.719-1.263,13.071-2.156a80.876,80.876,0,0,0,8.606-2.017c2.787-.9,5.549-1.873,8.365-2.676,2.105-.6,8.692-3.126,10.042-.392.816,1.654-.862,3.665-1.843,4.84-1.454,1.74-2.98,3.508-4.538,5.136a78.521,78.521,0,0,1-15.728,12.668,47.562,47.562,0,0,1-14.677,6.236q-.9.192-1.812.334a1.346,1.346,0,0,1-.761-.033,1.38,1.38,0,0,1-.609-.917,150.215,150.215,0,0,1-4.476-17.829,3.507,3.507,0,0,1,.1-2.3C602.849,511.815,605.428,512.149,606.508,512.036Z" transform="translate(-244.463 -58.997)" fill="#afbdc6"/>
        <g id="Group_24430" data-name="Group 24430" transform="translate(185.991 402.036)">
          <path id="Path_65903" data-name="Path 65903" d="M338.708,461.862a1.381,1.381,0,0,0-1.086,1.882l5.589,16.149a1.583,1.583,0,0,0,1.68,1.076l7.1-1.03,5.243,15.348h0c-.168-.229-2.348-.246-3.1-.549a13.631,13.631,0,0,0-3.974-.856c-9.251-.924-19.079-1.208-26.965,4.525-12.684,9.221-25.149,18.777-37.617,28.288-12.647,9.648-25.193,19.432-37.515,29.494l-.739.6c-6.093,4.985-12.132,10.036-18.186,15.068q-4.722,3.925-9.466,7.823c-3.4,2.789-5.512,5.705-10.316,4.206a25.136,25.136,0,0,1-11.384-7.84,22.885,22.885,0,0,1-4.6-9.745c-.821-3.862-2.311-8.667,1.659-11.193,1.741-1.108,3.463-2.21,5.126-3.436,25.619-17.408,51.691-34.745,76.939-52.889q2.684-1.929,5.373-3.852c6.631-4.736,17.645-13.227,24.12-18.18,12.616-9.652,14.083-16.779,21.346-28.5,2.933-4.731,5.674-9.58,8.285-14.5l9.31,27.255Z" transform="translate(-192.398 -420.473)" fill="#435b6e"/>
          <path id="Path_65904" data-name="Path 65904" d="M557.347,402.224c9.544-1.8,33.02,9.9,39.2,12.474s2.156,7.443,2.156,7.443c-1.107.167-2.211.347-3.316.529q-4.481.74-8.942,1.6-3.26.63-6.51,1.307c-1.083.224-2.169.443-3.25.68-.864.19-1.657.633-2.513.9-.953.295-1.907.59-2.831.965a18.021,18.021,0,0,0-5.1,3c-.5.448-1.279,1.613-1,2.376l15.04,41.832a.771.771,0,0,1-.709,1.031l-23.346.5s1.078-.832.813-3.773a42.173,42.173,0,0,0-1.051-5.967c-.488-2.051-1.083-4.072-1.693-6.089l5.906-.857a2.856,2.856,0,0,0,2.141-3.973l-5.346-13.931a1.584,1.584,0,0,0-1.634-1.029l-6.886.856q-5.089-15.179-11.673-29.8-.789,1.524-1.6,3.039l-.419-1.226C538.5,409.459,547.8,404.027,557.347,402.224Z" transform="translate(-391.385 -402.036)" fill="#c1d0db"/>
          <path id="Path_65905" data-name="Path 65905" d="M576.76,542.871c.61,2.017,1.2,4.038,1.693,6.089a42.157,42.157,0,0,1,1.051,5.967c.264,2.941-.81,3.771-.813,3.773l-5.243-15.349Z" transform="translate(-413.856 -483.887)" fill="#c1d0db"/>
          <path id="Path_65906" data-name="Path 65906" d="M549.052,456.305l-3.959.492-9.31-27.255q.805-1.516,1.6-3.039Q543.954,441.1,549.052,456.305Z" transform="translate(-391.967 -416.256)" fill="#c1d0db"/>
        </g>
        <g id="Group_24431" data-name="Group 24431" transform="translate(181.375 484.424)">
          <path id="Path_65907" data-name="Path 65907" d="M281.308,622.471l-.685.522c-13.472,10.277-26.835,20.7-39.96,31.417l-.787.643c-6.49,5.31-12.923,10.691-19.372,16.051q-5.03,4.18-10.083,8.333c-3.625,2.971-5.871,6.077-10.988,4.481a26.774,26.774,0,0,1-12.126-8.352,24.381,24.381,0,0,1-4.9-10.38c-.874-4.114-2.461-9.232,1.767-11.922,1.855-1.18,3.689-2.354,5.461-3.66,24.321-16.527,50.073-33.784,74.2-50.852Z" transform="translate(-181.375 -598.751)" fill="#1b295d"/>
          <circle id="Ellipse_1403" data-name="Ellipse 1403" cx="6.812" cy="6.812" r="6.812" transform="matrix(0.664, -0.748, 0.748, 0.664, 9.174, 66.551)" fill="#fff"/>
        </g>
        <path id="Path_65908" data-name="Path 65908" d="M407.593,550.914l-5.323-7.224a3.041,3.041,0,0,1,.643-4.254c8.656-6.376,37.376-27.636,39.142-30.349,1.562-2.4,3.223-4.736,4.866-7.078.94-1.341,4.023-7.463,5.493-7.88,3.3-.937,4.862,8.239,5.6,10.384,1.463,4.256,2.868,8.53,4.251,12.813a2.133,2.133,0,0,1-1.922,2.787c-3.1.161-8.15.817-11.9,3.238-4.835,3.122-28.718,21.973-36.515,28.146A3.041,3.041,0,0,1,407.593,550.914Z" transform="translate(-128.035 -53.483)" fill="#fff" opacity="0.08"/>
        <g id="Group_24432" data-name="Group 24432" transform="translate(193.094 543.308)">
          <path id="Path_65909" data-name="Path 65909" d="M212.3,740.756a7.247,7.247,0,1,1-1.536,10.134A7.256,7.256,0,0,1,212.3,740.756Zm.454.616a6.482,6.482,0,1,0,9.064,1.373A6.489,6.489,0,0,0,212.755,741.373Z" transform="translate(-209.355 -739.346)" fill="#435b6e"/>
        </g>
      </g>
      <path id="Path_3292" data-name="Path 3292" d="M1294.193,318.434c-1.19,1.575-3.09,3.107-3.492,3.783-.111.18-1.412,2.8-2.328,4.648a8.3,8.3,0,0,0-.856,4.365,5.335,5.335,0,0,0,.736,2.722s2.491.813,3.681-.437l.282-3.5a9.9,9.9,0,0,1,3.535-2.011c2.568-1.087,3.7-4.528,5.135-6.736a7.148,7.148,0,0,0,.539-6.2,7.7,7.7,0,0,0-1.832,2.7,9.744,9.744,0,0,1-4.108,3.9c-.2.094-.719.282-.856.086-.522-.6.736-1.832,1.147-2.679.582-1.181.419-2.14,0-2.457S1295.049,317.278,1294.193,318.434Z" transform="matrix(0.695, 0.719, -0.719, 0.695, -551.908, -1018.85)" fill="#fab9af"/>
      <path id="Path_3293" data-name="Path 3293" d="M1240.542,386.788s9.244-6.282,38.576-19.815L1289.654,332c2.089-1.019,3.895-1.036,5.384,0,0,0-1.318,28.622-7,41s-35.838,26.9-42.882,27.253S1234.062,390.468,1240.542,386.788Z" transform="matrix(0.695, 0.719, -0.719, 0.695, -551.46, -1021.738)" fill="#fff"/>
      <path id="Path_66726" data-name="Path 66726" d="M547.518,169.77a16.426,16.426,0,0,0-32.818,0Z" transform="translate(-495.677 -58.203)" fill="#1e2d64"/>
      <path id="Path_66727" data-name="Path 66727" d="M532.365,170.4H508.122a3.628,3.628,0,0,0-3.622,3.622h31.487A3.627,3.627,0,0,0,532.365,170.4Z" transform="translate(-476.608 -62.455)" fill="#0f1446"/>
      <path id="Path_66728" data-name="Path 66728" d="M537.974,153.9c0,.591-1.183.517-2.587.517s-2.587.074-2.587-.517,1.183-1.7,2.587-1.7C536.791,152.125,537.974,153.234,537.974,153.9Z" transform="translate(-499.512 -57.706)" fill="#0f1446"/>
    </g>
    <g id="Character_1" data-name="Character 1" transform="translate(1324.216 322.062)">
      <path id="Path_97" data-name="Path 97" d="M1464.44,624.656l2.568,10.023.505,1.019,1.874,2.713a2.97,2.97,0,0,1-.7,4.126,3.13,3.13,0,0,1-1,.462s-3.732,1.352-7.472,2.568c-3.9,1.19-8.662.171-8.662-.856,0-2.208,2.037-.505,5.606-2.884l3.569-2.568c3.056-2.38.334-8.491-1.524-11.889-.685-1.181,0-4.28,1.352-4.579l.856-.171A2.97,2.97,0,0,1,1464.44,624.656Z" transform="translate(-1376.314 -386.504)" fill="#fab9af"/>
      <path id="Path_98" data-name="Path 98" d="M1462.41,521.863c-.676-1.866-1.352-3.732-1.712-4.579a7.537,7.537,0,0,0-1.018-1.19,8.628,8.628,0,0,1-1.524-2.208l-.514-3.235c-.171-1.523-1.19-2.713-2.713-2.371h0c-1.712.334-2.208,1.866-1.866,3.561l.334,2.379a8.217,8.217,0,0,1-.171,4.074,15.367,15.367,0,0,0,1.874,8.32c.676,1.524,2.885,2.208,5.769,2.893,1.361.334,3.74.505,2.568-1.027-.856-1.181-5.264-2.568-4.588-6.959,0-.171.171-.856.342-.856.856-.171,1.19,1.524,1.712,2.38.685,1.19,1.712,1.524,2.208,1.352C1463.625,523.9,1462.949,523.224,1462.41,521.863Z" transform="translate(-1376.517 -370.023)" fill="#fab9af"/>
      <path id="Path_99" data-name="Path 99" d="M1461.858,403c-4.588,14.26-16.134,41.084-33.278,50.6-11.555,6.454-39.569,15.963-39.569,15.963s-.856-1.19-1.524-2.208a9.122,9.122,0,0,1-1.027-2.568s34.819-17.837,39.569-23.11c4.588-5.093,20.208-38.208,24.967-43.3C1456.252,392.451,1464.409,395.019,1461.858,403Z" transform="translate(-1420.687 -15.228) rotate(-13)" fill="#fff"/>
      <path id="Path_100" data-name="Path 100" d="M1456.89,471.749l10.87-77.435,29.718-4.074,15.621,80.833Z" transform="translate(-1377.084 -353.025)" fill="#fab9af"/>
      <path id="Path_101" data-name="Path 101" d="M1528.78,622.193l3.055,10.023a8.495,8.495,0,0,0,.514,1.181l2.208,3.235a3.6,3.6,0,0,1-.976,5,4.088,4.088,0,0,1-.856.437s-4.28,1.524-8.662,2.885c-4.588,1.524-10.194.171-10.194-1.019,0-2.722,2.568-.514,6.625-3.424a34.968,34.968,0,0,0,4.074-2.884c3.569-2.893.514-9.852-1.712-13.926a2.4,2.4,0,0,1,.907-3.287,2.627,2.627,0,0,1,.788-.282l1.018-.171a3.116,3.116,0,0,1,3.21,2.234Z" transform="translate(-1385.293 -386.121)" fill="#fab9af"/>
      <path id="Path_102" data-name="Path 102" d="M1487.519,485.812l-32.944-2.722s-11.718,41.778-14.773,60.454c-2.208,13.421,18.171,65.384,18.171,65.384,2.037.856,3.9-.171,6.111-.685,0,0-6.111-45.843-4.074-57.056,2.208-11.709,19.686-35.315,20.885-41.435A132.721,132.721,0,0,1,1487.519,485.812Z" transform="translate(-1374.597 -366.402)" fill="#00aeef"/>
      <path id="Path_103" data-name="Path 103" d="M1486.789,485.506c-3.424,18.171-11.033,45.509,3.569,71.153s30.06,52.305,30.06,52.305a9.184,9.184,0,0,0,5.435-1.866s-2.568-11.555-6.282-25.138c-4.28-15.407-9.68-33.792-8.148-43.3,2.884-17.829,6.111-41.606,5.093-53.153C1515.659,473.789,1488.492,475.826,1486.789,485.506Z" transform="translate(-1380.663 -365.592)" fill="#00aeef"/>
      <path id="Path_104" data-name="Path 104" d="M1457.021,472.775a2.645,2.645,0,0,1-1.524-3.056l12.223-75.407,29.718-4.083,15.963,79.644a2.714,2.714,0,0,1-2.106,3.21h-.1a193.7,193.7,0,0,1-33.792,3.235C1466.188,476.336,1459.905,474.127,1457.021,472.775Z" transform="translate(-1376.872 -353.023)" fill="#fff"/>
      <path id="Path_105" data-name="Path 105" d="M1496.437,410.2c3.569,9.852-5.984,27.754-9.211,44.761-4.579,23.966,4.624,35.08,12.438,40.686s18.429-4.005,18.951-7.07,1.275-40.99-2.457-57.458-14.268-40.228-14.268-40.228l-5.435.505C1496.265,391.181,1494.742,405.62,1496.437,410.2Z" transform="translate(-1382.667 -353.118)" fill="#00aeef"/>
      <path id="Path_106" data-name="Path 106" d="M1471.653,394.21s-2.38,10.7-.514,26.833c1.875,15.963,5.949,64.7-8.653,72.171-4.588,2.371-15.115-9.68-15.115-11.889,0-3.911,3.561-16.648,6.787-28.365,2.722-9.338,5.435-40.579,6.282-52.639a5.786,5.786,0,0,1,5.093-5.264Z" transform="translate(-1375.712 -353.596)" fill="#00aeef"/>
      <g id="Group_121" data-name="Group 121" transform="translate(83.744)">
        <path id="Path_107" data-name="Path 107" d="M1498.657,355.907a11.616,11.616,0,0,0,2.208,7.815c2.713,3.227-1.19,6.274-2.208,8.491-.856,2.208.163,5.6-2.38,7.13s-9.852,1.866-11.033-.685C1484.047,375.773,1490.329,354.375,1498.657,355.907Z" transform="translate(-1464.891 -348.066)" fill="#0f1446"/>
        <path id="Path_108" data-name="Path 108" d="M1466.609,360.54c-.342,14.6,13.241,17.5,21.227,17.5s8.32-17.5,8.32-23.966c0-6.282-6.282-7.31-14.1-7.31-6.274,0-12.223,4.93-14.6,9.509A7.514,7.514,0,0,0,1466.609,360.54Z" transform="translate(-1462.226 -346.76)" fill="#0f1446"/>
        <path id="Path_109" data-name="Path 109" d="M1481.7,353.34c6.625,0,9.175,4.75,9.175,13.412a19.309,19.309,0,0,1-2.568,8.662,6.7,6.7,0,0,0-.676,5.093l1.524,4.93c1.018,4.579-1.19,7.13-4.417,7.986a5.7,5.7,0,0,1-4.922-.856c-1.712-1.019-1.866-3.424-1.523-5.264l.334-1.352a3.543,3.543,0,0,0-2.422-4.382h-.12c-5.093-1.19-5.777-6.454-7.138-14.773C1467.785,358.262,1475.086,353.34,1481.7,353.34Z" transform="translate(-1462.547 -347.708)" fill="#fab9af"/>
        <path id="Path_110" data-name="Path 110" d="M1465.2,348.609l3.732,1.181a6.042,6.042,0,0,0,4.28,0l7.643-2.2c4.588,0,12.231,2.568,11.2,9.167l-.856,4.75a4.143,4.143,0,0,1-3.732,3.424h0a1.412,1.412,0,0,1-1.361,1.019,1.524,1.524,0,0,1-1.523-1.524h0a4.691,4.691,0,0,0-3.569-4.417,18.958,18.958,0,0,0-8.148,0c-5.264,1.361-10.87-1.866-11.375-7.3V351.69C1461.627,349.79,1463.33,348.095,1465.2,348.609Z" transform="translate(-1461.49 -346.88)" fill="#0f1446"/>
        <path id="Path_111" data-name="Path 111" d="M1490.42,368.606c0,2.037.676,3.732,2.722,3.732,1.866,0,3.227-2.713,3.227-4.75s-1.19-2.568-3.227-2.568C1491.267,365,1490.42,366.569,1490.42,368.606Z" transform="translate(-1465.658 -349.391)" fill="#fab9af"/>
        <path id="Path_112" data-name="Path 112" d="M1471.564,375.179a1.54,1.54,0,0,0,1.164,1.832,1.713,1.713,0,0,0,.368.043h0a1.506,1.506,0,0,0,1.523-1.361v-6.454a1.25,1.25,0,0,0-.342-.676.855.855,0,0,0-.676-.342c-.343,0-.685.171-.685.5Z" transform="translate(-1462.936 -349.852)" fill="#fa968c"/>
      </g>
      <path id="Path_66722" data-name="Path 66722" d="M6.7,15.778c-1.19-1.575-3.09-3.107-3.492-3.783C3.1,11.815,1.8,9.2.881,7.347A8.3,8.3,0,0,1,.025,2.982,5.335,5.335,0,0,1,.761.26S3.252-.553,4.442.7l.282,3.5A9.9,9.9,0,0,0,8.259,6.209c2.568,1.087,3.7,4.528,5.135,6.736a7.148,7.148,0,0,1,.539,6.2,7.7,7.7,0,0,1-1.832-2.7,9.745,9.745,0,0,0-4.108-3.9c-.2-.094-.719-.282-.856-.086-.522.6.736,1.832,1.147,2.679.582,1.181.419,2.14,0,2.456S7.557,16.933,6.7,15.778Z" transform="translate(49.104 124.626) rotate(94)" fill="#fab9af"/>
      <g id="Group_122" data-name="Group 122" transform="translate(121.579 32.293)">
        <g id="Group_24340" data-name="Group 24340" transform="translate(-116.587 1.105)">
          <g id="Group_24337" data-name="Group 24337" transform="translate(0)">
            <g id="Group_24329" data-name="Group 24329" transform="translate(51.003)">
              <rect id="Rectangle_5749" data-name="Rectangle 5749" width="11.565" height="4.119" fill="#1e2d64"/>
              <rect id="Rectangle_5750" data-name="Rectangle 5750" width="11.565" height="4.119" transform="translate(0 109.451)" fill="#1e2d64"/>
            </g>
            <g id="Group_24330" data-name="Group 24330" transform="translate(0 51.003)">
              <rect id="Rectangle_5751" data-name="Rectangle 5751" width="11.564" height="4.119" transform="translate(0 11.564) rotate(-90)" fill="#1e2d64"/>
              <rect id="Rectangle_5752" data-name="Rectangle 5752" width="11.564" height="4.119" transform="translate(109.451 11.564) rotate(-90)" fill="#1e2d64"/>
            </g>
            <g id="Group_24331" data-name="Group 24331" transform="translate(12.543 12.543)">
              <rect id="Rectangle_5753" data-name="Rectangle 5753" width="11.565" height="4.119" transform="matrix(0.707, -0.707, 0.707, 0.707, 0, 8.177)" fill="#1e2d64"/>
              <rect id="Rectangle_5754" data-name="Rectangle 5754" width="11.565" height="4.119" transform="matrix(0.707, -0.707, 0.707, 0.707, 77.393, 85.571)" fill="#1e2d64"/>
            </g>
            <g id="Group_24332" data-name="Group 24332" transform="translate(12.543 12.543)">
              <rect id="Rectangle_5755" data-name="Rectangle 5755" width="11.565" height="4.119" transform="matrix(-0.707, -0.707, 0.707, -0.707, 8.177, 88.484)" fill="#1e2d64"/>
              <rect id="Rectangle_5756" data-name="Rectangle 5756" width="11.565" height="4.119" transform="matrix(-0.707, -0.707, 0.707, -0.707, 85.571, 11.09)" fill="#1e2d64"/>
            </g>
            <g id="Group_24333" data-name="Group 24333" transform="translate(30.265 1.933)">
              <rect id="Rectangle_5757" data-name="Rectangle 5757" width="11.564" height="4.119" transform="translate(10.732 109.704) rotate(-158.129)" fill="#1e2d64"/>
              <rect id="Rectangle_5758" data-name="Rectangle 5758" width="11.564" height="4.119" transform="translate(51.505 8.131) rotate(-158.129)" fill="#1e2d64"/>
            </g>
            <g id="Group_24334" data-name="Group 24334" transform="translate(29.163 2.293)">
              <rect id="Rectangle_5759" data-name="Rectangle 5759" width="11.564" height="4.119" transform="translate(55.245 104.442) rotate(156.872)" fill="#1e2d64"/>
              <rect id="Rectangle_5760" data-name="Rectangle 5760" width="11.564" height="4.119" transform="translate(12.253 3.788) rotate(156.872)" fill="#1e2d64"/>
            </g>
            <g id="Group_24335" data-name="Group 24335" transform="translate(1.933 30.265)">
              <rect id="Rectangle_5761" data-name="Rectangle 5761" width="11.564" height="4.119" transform="translate(109.704 42.308) rotate(111.871)" fill="#1e2d64"/>
              <rect id="Rectangle_5762" data-name="Rectangle 5762" width="11.564" height="4.119" transform="translate(8.131 1.535) rotate(111.872)" fill="#1e2d64"/>
            </g>
            <g id="Group_24336" data-name="Group 24336" transform="translate(2.293 29.163)">
              <rect id="Rectangle_5763" data-name="Rectangle 5763" width="11.564" height="4.119" transform="translate(104.442 0) rotate(66.871)" fill="#1e2d64"/>
              <rect id="Rectangle_5764" data-name="Rectangle 5764" width="11.564" height="4.119" transform="translate(3.788 42.992) rotate(66.871)" fill="#1e2d64"/>
            </g>
          </g>
          <g id="Group_24338" data-name="Group 24338" transform="translate(2.447 2.835)">
            <path id="Path_65771" data-name="Path 65771" d="M298.114,46.037a54.337,54.337,0,1,0,54.338,54.338A54.338,54.338,0,0,0,298.114,46.037Zm0,94a39.661,39.661,0,1,1,39.662-39.66A39.661,39.661,0,0,1,298.114,140.035Z" transform="translate(-243.776 -46.037)" fill="#1e2d64"/>
            <path id="Path_65772" data-name="Path 65772" d="M292.732,55.331a39.661,39.661,0,1,0,39.662,39.662A39.661,39.661,0,0,0,292.732,55.331Zm0,73.049A33.389,33.389,0,1,1,326.12,94.993,33.389,33.389,0,0,1,292.732,128.38Z" transform="translate(-238.393 -40.654)" fill="#0f1446"/>
            <path id="Path_65773" data-name="Path 65773" d="M290.431,59.3a33.389,33.389,0,1,0,33.388,33.389A33.389,33.389,0,0,0,290.431,59.3Zm-27.365,41.021c-3.281-1.538-2.634-15.817.726-16.251,4.81-.621,12.557,5.15,12.5,8.617S266.325,101.855,263.066,100.324Zm19.439,20.74c-3.03,1.987-14.85-6.051-13.457-9.138,1.994-4.422,10.97-7.994,13.9-6.129S285.517,119.092,282.505,121.065Zm.439-41.61c-2.926,1.865-11.9-1.707-13.9-6.129-1.393-3.087,10.427-11.125,13.457-9.14C285.517,66.16,285.869,77.589,282.944,79.454ZM298.1,64.186c3.032-1.985,14.85,6.053,13.457,9.14-1.994,4.422-10.97,7.994-13.895,6.129S295.085,66.16,298.1,64.186Zm0,56.879c-3.011-1.972-3.364-13.4-.437-15.267s11.9,1.707,13.895,6.129C312.946,115.014,301.128,123.051,298.1,121.065Zm19.855-20.74c-3.259,1.53-13.176-4.164-13.23-7.634s7.694-9.238,12.5-8.617C320.584,84.508,321.232,98.786,317.951,100.324Z" transform="translate(-236.093 -38.354)" fill="#7d85a0"/>
          </g>
          <circle id="Ellipse_1394" data-name="Ellipse 1394" cx="12.126" cy="12.126" r="12.126" transform="translate(44.659 44.982)" fill="#293a77"/>
          <g id="Group_24339" data-name="Group 24339" transform="translate(47.391 46.674)">
            <path id="Path_65774" data-name="Path 65774" d="M280.709,75.439a1.642,1.642,0,1,1-1.642-1.641A1.643,1.643,0,0,1,280.709,75.439Z" transform="translate(-269.232 -73.798)" fill="#0f1446"/>
            <path id="Path_65775" data-name="Path 65775" d="M280.709,86.693a1.642,1.642,0,1,1-1.642-1.641A1.642,1.642,0,0,1,280.709,86.693Z" transform="translate(-269.232 -67.28)" fill="#0f1446"/>
            <path id="Path_65776" data-name="Path 65776" d="M274.764,77a1.641,1.641,0,1,1-2.268.5A1.64,1.64,0,0,1,274.764,77Z" transform="translate(-272.237 -72.092)" fill="#0f1446"/>
            <path id="Path_65777" data-name="Path 65777" d="M273.2,82.687a1.641,1.641,0,1,1-.54,2.257A1.64,1.64,0,0,1,273.2,82.687Z" transform="translate(-272.132 -68.791)" fill="#0f1446"/>
            <path id="Path_65778" data-name="Path 65778" d="M284.545,77a1.641,1.641,0,1,1-2.268.5A1.64,1.64,0,0,1,284.545,77Z" transform="translate(-266.572 -72.092)" fill="#0f1446"/>
            <path id="Path_65779" data-name="Path 65779" d="M282.985,82.687a1.641,1.641,0,1,1-.54,2.257A1.64,1.64,0,0,1,282.985,82.687Z" transform="translate(-266.466 -68.791)" fill="#0f1446"/>
            <path id="Path_65780" data-name="Path 65780" d="M286.088,82.526a5.782,5.782,0,1,1-5.781-5.783A5.782,5.782,0,0,1,286.088,82.526Z" transform="translate(-270.913 -72.092)" fill="#0f1446"/>
          </g>
        </g>
      </g>
      <path id="Path_121" data-name="Path 121" d="M1433.983,407.564a2.662,2.662,0,0,0,.334-3.74l-1.018-1.352a8.969,8.969,0,0,1-2.037-5.435c0-1.361-.856-5.264-2.208-4.93-1.19.171,0,4.93-1.19,4.759-.5,0-2.568-3.424-4.074-5.435-.856-1.019-2.38-1.712-2.568-.676-.171.676-.856.676-1.532,1.19s-.334,3.9-.334,4.922c0,1.19-.342,1.523,1.352,3.424,1.361,1.524,7.138,5.264,7.138,5.264l2.568,1.712a2.482,2.482,0,0,0,3.492.4l.077-.06Z" transform="translate(-1371.663 -353.025)" fill="#fab9af"/>
      <path id="Path_122" data-name="Path 122" d="M1434.745,402.292s23.966,23.11,29.555,24.959,21.732-31.412,24.616-34.81c4.759-5.769,15.116.171,13.25,10.7-2.208,13.25-33.963,39.056-37.866,39.372s-33.8-35.153-33.8-35.153C1431.013,405.691,1432.374,403.987,1434.745,402.292Z" transform="translate(-1373.281 -353.017)" fill="#fff"/>
    </g>
    <g id="Group_24791" data-name="Group 24791" transform="translate(789.642 -399.763)">
      <path id="Path_65875" data-name="Path 65875" d="M558.128,1012.919c.635-.3,1.21-.672,1.311-1.06.11-.425-.239-.852-.668-1.089-1.224-.677-4.036-.346-5.454-.358-2.553-.021-5.106,0-7.656.082-1.17.036-13.95.368-12.748,2.558,1.053,1.92,7.879,2.349,9.769,2.311a64.68,64.68,0,0,0,9.281-.657,26.35,26.35,0,0,0,4.586-1.156C556.906,1013.421,557.542,1013.2,558.128,1012.919Z" transform="translate(-10.005 -33.518)" fill="#e1f3ff"/>
      <g id="Group_24419" data-name="Group 24419" transform="translate(518.077 960.912)">
        <circle id="Ellipse_1401" data-name="Ellipse 1401" cx="10.31" cy="10.31" r="10.31" fill="#373c67"/>
        <path id="Path_65876" data-name="Path 65876" d="M530.75,985.367l-3.33-6.51,3.972-6.139,7.3.371,3.33,6.51-3.972,6.139Z" transform="translate(-524.412 -968.918)" fill="#0e1e57"/>
        <circle id="Ellipse_1402" data-name="Ellipse 1402" cx="3.776" cy="3.776" r="3.776" transform="translate(6.534 6.534)" fill="#001048"/>
      </g>
    </g>
    <g id="Group_24794" data-name="Group 24794" transform="translate(717.556 -311.377)">
      <g id="Group_24421" data-name="Group 24421" transform="translate(596.359 808.493)">
        <path id="Path_65877" data-name="Path 65877" d="M599.343,848.857l10.939-20.865,9.1,5.57-13.5,19.3-3.6-.564a1.355,1.355,0,0,1-.9-.555Z" transform="translate(-598.377 -827.992)" fill="#0e1e57"/>
        <path id="Path_65878" data-name="Path 65878" d="M602.53,878.128q4.5,1.628,9.261,3.157c1.356.436,2.2-1.665.789-2.1q-4.938-1.542-9.589-3.189C601.707,875.537,601.29,877.68,602.53,878.128Z" transform="translate(-600.03 -860.419)" fill="#373c67"/>
        <path id="Path_65879" data-name="Path 65879" d="M597.073,889.288q4.2,1.576,8.621,3.068a.988.988,0,1,0,.661-1.862q-4.576-1.506-8.9-3.1C596.255,886.95,595.915,888.853,597.073,889.288Z" transform="translate(-596.359 -868.128)" fill="#373c67"/>
        <path id="Path_65880" data-name="Path 65880" d="M614.77,852.6q5.2,1.589,10.779,3.031c1.6.412,2.971-2.533,1.294-2.944q-5.852-1.434-11.271-3.031C614.081,849.214,613.343,852.16,614.77,852.6Z" transform="translate(-608.295 -842.615)" fill="#373c67"/>
        <path id="Path_65881" data-name="Path 65881" d="M608.75,865.379q4.852,1.678,10,3.243c1.47.446,2.48-1.952.948-2.4q-5.36-1.573-10.385-3.269C607.93,862.485,607.415,864.918,608.75,865.379Z" transform="translate(-604.215 -851.601)" fill="#373c67"/>
      </g>
      <path id="Path_65882" data-name="Path 65882" d="M617.785,867.53l10.089-17.716,1.6,1.613-11.193,16.118Z" transform="translate(-14.494 -34.261)" fill="#fff" opacity="0.15"/>
      <g id="Group_24423" data-name="Group 24423" transform="translate(604.311 799.166)">
        <path id="Path_65883" data-name="Path 65883" d="M641.6,812.911c.138-3.567-2.633-7.422-6.152-9.576s-8.213-2.868-11.326-1.122c-4.721,2.647-4.584,9.872,3.094,14.572S641.389,818.32,641.6,812.911Z" transform="translate(-620.937 -800.564)" fill="#898cad"/>
        <g id="Group_24422" data-name="Group 24422" transform="translate(1.047)">
          <path id="Path_65884" data-name="Path 65884" d="M630.784,813.13c-7.679-4.7-8.25-11.214-3.866-13.311,2.891-1.383,7.453-.454,10.973,1.7s6.422,5.794,6.506,9C644.524,815.375,638.463,817.83,630.784,813.13Z" transform="translate(-624.173 -799.166)" fill="#373c67"/>
          <path id="Path_65885" data-name="Path 65885" d="M640.689,803.892l5.486,1.819,3.844,4.226-1.114,4.4-8.066-1.417-4.024-6.55Z" transform="translate(-632.724 -802.363)" fill="#0e1e57"/>
          <path id="Path_65886" data-name="Path 65886" d="M650.868,814.693c-2.046-1.253-2.832-3.145-1.9-4.081.8-.8,2.632-.607,4.188.346s2.566,2.494,2.213,3.572C654.958,815.784,652.914,815.946,650.868,814.693Z" transform="translate(-640.682 -806.57)" fill="#001048"/>
        </g>
      </g>
    </g>
  </g>
</svg>
