<svg xmlns="http://www.w3.org/2000/svg" width="452.142" height="428.191" viewBox="0 0 452.142 428.191">
  <g id="Workshop_Employees" data-name="Workshop Employees" transform="translate(1559.975 18180.526)">
    <g id="_599" data-name="599" transform="translate(-1748.959 -18283.594)">
      <g id="OBJECTS" transform="translate(178.984 127)">
        <g id="Group_126" data-name="Group 126">
          <g id="Group_125" data-name="Group 125" transform="translate(10)">
            <g id="Group_118" data-name="Group 118" transform="translate(20.133)">
              <path id="Path_52" data-name="Path 52" d="M446.948,207.714c-1.126,0-4.022-.161-8.2-.483a217,217,0,0,1-83.487-22.842c-22.038-11.1-51.315-15.764-67.24-11.582h-.161a10.756,10.756,0,0,1-13.191-7.721c-3.7-13.673-22.038-23.486-41.341-23.486-23.164,0-41.824,13.03-41.824,28.955,0,6.756,3.378,13.03,9.008,17.856,15.925,13.995,24.773,34.424,22.842,55.658a56.835,56.835,0,0,0,.8,16.569,40.9,40.9,0,0,0,2.252,7.56c6.113,15.6,30.081,34.746,31.529,49.224C269.2,429.06,298.473,469.6,405.928,485.522c107.295,15.925,203.651-33.459,214.911-110.351C632.1,298.6,613.762,209.966,446.948,207.714Z" transform="translate(-191.5 -118.114)" fill="#e1f3ff"/>
              <path id="Path_53" data-name="Path 53" d="M281.8,135.365a9.125,9.125,0,0,1-5.791-2.9A18.91,18.91,0,0,0,262.334,127c-9.652,0-17.534,6.6-17.534,14.638s7.882,14.638,17.534,14.638a19.353,19.353,0,0,0,12.225-4.182,7.877,7.877,0,0,1,5.63-1.448,7.638,7.638,0,0,0,8.365-7.561A7.818,7.818,0,0,0,281.8,135.365Z" transform="translate(-159.061 -127)" fill="#e1f3ff"/>
              <path id="Path_54" data-name="Path 54" d="M285.86,151.382c0,2.252-2.574,4.182-5.63,4.182-3.217,0-5.63-1.769-5.63-4.182,0-2.252,2.574-4.182,5.63-4.182C283.447,147.2,285.86,149.13,285.86,151.382Z" transform="translate(-140.924 -114.706)" fill="#e1f3ff"/>
              <path id="Path_55" data-name="Path 55" d="M427.529,182.239c0,4.022-5.469,7.239-12.065,7.239S403.4,186.26,403.4,182.239,408.869,175,415.465,175C422.221,175,427.529,178.217,427.529,182.239Z" transform="translate(-72.534 -97.786)" fill="#e1f3ff"/>
              <path id="Path_56" data-name="Path 56" d="M427.8,172.9a3.7,3.7,0,1,1-3.7-3.7A3.742,3.742,0,0,1,427.8,172.9Z" transform="translate(-62.188 -101.316)" fill="#e1f3ff"/>
              <g id="Group_25134" data-name="Group 25134" transform="translate(191.246 84.453)">
                <g id="Group_6895" data-name="Group 6895" transform="translate(12.979 128.352)">
                  <path id="Path_68235" data-name="Path 68235" d="M25.664,3.982l-.112,8.3a6.6,6.6,0,0,0,.816,1.745l3,4.453a5.073,5.073,0,0,1-2.732,7.683S20.593,28.293,14.4,30.34C8.025,32.436,0,30.683,0,29c0-3.743,3.491-.816,9.33-4.681,1.957-1.3,3.98-2.675,5.774-4.078,3.151-5.027,3.58-9.073,3.434-13.752-.517-.957,1.707-2.945,2.165-3.932S19.581.728,20.646.5L23.3.056C25.43-.389,25.03,1.9,25.664,3.982Z" transform="translate(1.838 160.671) rotate(-16)" fill="#fab9af"/>
                  <path id="Path_5075" data-name="Path 5075" d="M390.878,289.865l-1.463-8.778a52.719,52.719,0,0,1-.549-10.789c5.669-70.587-16.641-73.878-13.715-43.157,2.194,23.773,5.12,44.071,6.218,51.751a27.692,27.692,0,0,1,.183,6.766h0l-1.28,8.229a23.379,23.379,0,0,1-1.1,4.206c0,.366-.183.549-.183.914v.549a3.472,3.472,0,0,0,3.475,3.474H390.7A3.54,3.54,0,0,0,393.8,301.2a3.492,3.492,0,0,0,0-3.292A47.47,47.47,0,0,1,390.878,289.865Z" transform="translate(-337.845 -112.791)" fill="#fab9af"/>
                  <path id="Path_68230" data-name="Path 68230" d="M331.187,428.574l-37.268-4.45s-7.234,30.483,2.983,83.747c4.792,24.98,15.024,77.768,15.024,77.768,2.363,1.091,6.025-1.286,8.551-1.915,0,0,.033-22.4,0-46.147.444-21.75.559-44.987,1.948-52.607C325.236,469.451,331.187,428.574,331.187,428.574Z" transform="translate(-291.434 -423.234)" fill="#1e2d64"/>
                  <path id="Path_68231" data-name="Path 68231" d="M298.827,576.771c-.625-4.661-3.62-42.3-7.047-54.779-4.661-16.974,8.713-36,4.595-48.284-12.108-36.077-2.91-43.984-2.91-43.984l16.119-.534s-5.951,40.877-8.779,56.413c-1.389,7.6-1.5,30.841-1.948,52.607C298.529,553.976,299.082,569.11,298.827,576.771Z" transform="translate(-269.831 -423.851)" fill="#0f1446"/>
                  <path id="Path_68232" data-name="Path 68232" d="M247.772,427.242c-8.768,25.321-.124,54.98,2.026,87.861s8.825,69.936,8.825,69.936c2.435.039,7.435,1.551,9.313,0,0,0,6.587-44.853,7.256-63.5,3.08-35.718.29-66.1-1.52-82.549S249.967,415.463,247.772,427.242Z" transform="translate(-216.37 -421.392)" fill="#1e2d64"/>
                </g>
                <g id="Group_25129" data-name="Group 25129" transform="translate(0 0)">
                  <path id="Path_68188" data-name="Path 68188" d="M348.286,227.455c1.349,7.817,8.519,35.353,15.793,46.879,1.1,1.736,3.176,3.592,4.795,3.312,6.183-1.068,1.829-40.25,0-50.839s-6.227-18.025-12.409-16.957S346.457,216.868,348.286,227.455Z" transform="translate(-287.889 -156.516)" fill="#fff"/>
                  <path id="Path_68193" data-name="Path 68193" d="M374.6,287.356l9.411-65.875c0-3.935-1.688-7.826-5.112-9.766l-5.251-1.573a91.552,91.552,0,0,0-43.854-2.157l-8.363,2.092c-3.71,1.961-7.067,5.609-6.907,9.8,0,0-2.046,50.607,12.973,67.477S374.6,287.356,374.6,287.356Z" transform="translate(-307.208 -158.521)" fill="#dfe6f2"/>
                  <path id="Path_68194" data-name="Path 68194" d="M363.625,303.938c2.179-8.97,6.026-83.046,6.026-83.046.684-4.366-.914-7.774-6.026-9.766l-5.251-1.573a88.726,88.726,0,0,0-9.363-2.252c-.084,4.436-4.595,29.491-6.07,48.522-.853,8.117-6.539,35.318-4.127,45.838C339.178,303.266,361.446,312.909,363.625,303.938Z" transform="translate(-291.932 -157.933)" fill="#fac855"/>
                  <path id="Path_68195" data-name="Path 68195" d="M344.236,302.565c.477-27.242-1.37-72.207-6.054-95.971-2.812.27-5.616.668-8.4,1.211l-8.363,2.092c-3.71,1.961-7.067,5.609-6.907,9.8,0,0-.418,62.525,2.688,80.868S344.236,302.565,344.236,302.565Z" transform="translate(-307.192 -158.342)" fill="#fac855"/>
                  <g id="Group_25123" data-name="Group 25123" transform="translate(30.606)">
                    <path id="Path_68192" data-name="Path 68192" d="M343.775,178.78c-8.147.519-18.472-4-14.78,17.135.155.885.349,1.751.565,2.6h-.01l1.548,6.436a2.726,2.726,0,0,0,2.1,2.014c2.539,3.7,6.07,6.08,10.573,6.08s7.925-2.4,10.427-6.108a2.739,2.739,0,0,0,1.89-1.893l1.671-6.012h0c.3-1.017.566-2.057.794-3.12C361.923,180.219,357.075,177.932,343.775,178.78Z" transform="translate(-328.071 -171.722)" fill="#0f1446"/>
                    <path id="Path_68196" data-name="Path 68196" d="M348.025,196.316H334.1a11.08,11.08,0,0,1,.651,6.15l-1.335,7.168c-.818,6.616,2.215,12.872,6,13.887,1.874.5,3.722-3.033,5.265-4.436,1.835-1.667,1.827-4.951,1.332-7.692l-.538-1.974C344.753,206.779,348.025,196.316,348.025,196.316Z" transform="translate(-325.897 -164.107)" fill="#fab9af"/>
                    <path id="Path_68197" data-name="Path 68197" d="M333.992,190.851c.136,2.176.258,4.914-1.654,5.033s-4.076-3.725-4.211-5.9,1.059-2.788,2.97-2.907S333.858,188.675,333.992,190.851Z" transform="translate(-328.117 -168.088)" fill="#fa968c"/>
                    <path id="Path_68198" data-name="Path 68198" d="M345.817,190.851c-.134,2.176-.257,4.914,1.654,5.033s4.076-3.725,4.211-5.9-1.059-2.788-2.97-2.907S345.953,188.675,345.817,190.851Z" transform="translate(-320.525 -168.088)" fill="#fa968c"/>
                    <path id="Path_68199" data-name="Path 68199" d="M345.216,209.215c-.535-2.91,2.584-12.9,2.584-12.9H333.874a11.081,11.081,0,0,1,.651,6.15l-.73,3.92a12.461,12.461,0,0,0,1.678,1.85C337.533,210.048,342.305,210.07,345.216,209.215Z" transform="translate(-325.672 -164.107)" fill="#fa968c"/>
                    <path id="Path_68200" data-name="Path 68200" d="M355.61,194.467c0,13.57-6.266,19.552-7.429,20.207-2.432,1.373-8.716,1.739-11.164-.413-3.691-3.247-6.811-10.945-6.811-19.648,0-11.27,6.127-15.879,12.8-15.879S355.61,183.2,355.61,194.467Z" transform="translate(-327.217 -171.676)" fill="#fab9af"/>
                    <path id="Path_68201" data-name="Path 68201" d="M341.618,197.775a2.043,2.043,0,0,1-2.242,2.257h0a2.045,2.045,0,0,1-1.83-2.126l.894-8.629a1.218,1.218,0,0,1,1.336-1.084.982.982,0,0,1,.874.867Z" transform="translate(-324.058 -167.607)" fill="#fa968c"/>
                    <path id="Path_68202" data-name="Path 68202" d="M363.388,176.4a2.075,2.075,0,0,0-2.17-2.6l-2.838.223a2.226,2.226,0,0,0-1.914,1.446l-.687,1.858a.448.448,0,0,1-.834.016l-.715-1.727a2.225,2.225,0,0,0-2.214-1.368l-11.753.84c-.3.009-.589,0-.916.029-.119.011-.213.046-.328.062l-.253.017-.01.03a7.577,7.577,0,0,0-5.419,3.785,18.142,18.142,0,0,0-1.565,1.266,11.059,11.059,0,0,0-3.058,5.38,10.332,10.332,0,0,0,1.719,8.381,3.46,3.46,0,0,1,.544,1.958v3.669a.636.636,0,0,0,1.27.029l.106-2.3c.116-2.478,2.668-8.516,3.835-9.573a1.993,1.993,0,0,1,2.3-.27l3.3,1.812a5.019,5.019,0,0,0,3.951.379l3.5-1.124a4.242,4.242,0,0,1,4.675,1.365,2,2,0,0,1,.163.242,10.635,10.635,0,0,1,1.3,5.173v4.553a.635.635,0,1,0,1.27,0v-2.306a3.433,3.433,0,0,1,.754-2.133,12.913,12.913,0,0,0,2.31-5.108h0Z" transform="translate(-327.987 -173.8)" fill="#0f1446"/>
                    <g id="Group_25111" data-name="Group 25111" transform="translate(5.102 22.546)">
                      <g id="Group_25110" data-name="Group 25110">
                        <path id="Rectangle_6090" data-name="Rectangle 6090" d="M.485,0H8.021a.485.485,0,0,1,.485.485V3.11A2.143,2.143,0,0,1,6.363,5.252H1.3A1.3,1.3,0,0,1,0,3.954V.485A.485.485,0,0,1,.485,0Z" fill="none" stroke="#fff" stroke-miterlimit="10" stroke-width="0.29"/>
                        <path id="Rectangle_6091" data-name="Rectangle 6091" d="M1.3,0H6.363A2.143,2.143,0,0,1,8.506,2.143V4.767a.485.485,0,0,1-.485.485H.485A.485.485,0,0,1,0,4.767V1.3A1.3,1.3,0,0,1,1.3,0Z" transform="translate(20.855 5.252) rotate(180)" fill="none" stroke="#fff" stroke-miterlimit="10" stroke-width="0.29"/>
                      </g>
                      <path id="Path_68203" data-name="Path 68203" d="M337.377,192.434a2.283,2.283,0,1,1,4.566,0" transform="translate(-329.233 -189.307)" fill="none" stroke="#fff" stroke-linecap="round" stroke-miterlimit="10" stroke-width="0.29"/>
                    </g>
                  </g>
                  <path id="Path_68206" data-name="Path 68206" d="M327.731,266.283c-1.848-.453-2.337-2.606-1.712-4.4,2.964-8.51,8.212-30.185,9.164-35.633,1.851-10.584-1.963-16.542-8.144-17.622s-10.593,6.348-12.442,16.932c-1.435,8.2-4.619,47.4-4.644,47.985,3.505,5.415,9.058,4.239,16.067,4.624,4.117.226,10.7-9.831,21.461-9.643.715-2.031.7,2.84,0,.673C339.045,266.643,333.846,267.782,327.731,266.283Z" transform="translate(-309.829 -157.226)" fill="#fff"/>
                  <path id="Path_68207" data-name="Path 68207" d="M342.63,218.234c-3.706-3.319-5.491-8.686-6.585-13l-5.839,1.976c1.241,6.453,2.629,12.954,7.122,16.853a.712.712,0,0,0,1.026-.123Z" transform="translate(-298.095 -159.163)" fill="#fff"/>
                  <path id="Path_68208" data-name="Path 68208" d="M338.048,217.922a16.412,16.412,0,0,0,6.029-12.206l5.865,1.865c-.995,5.393-2.978,11.866-6.836,15.74a.71.71,0,0,1-1.061-.09Z" transform="translate(-293.553 -158.851)" fill="#fff"/>
                  <path id="Path_68209" data-name="Path 68209" d="M339.122,216.582s-3.94,30.992-4.472,35.784c-.39,3.507,2.187,9.012,3.6,11.711a.9.9,0,0,0,1.617-.057l3.6-8.06a5.589,5.589,0,0,0,.474-2.618l-2.258-36.76Z" transform="translate(-295.545 -152.558)" fill="#1e2d64"/>
                  <rect id="Rectangle_6099" data-name="Rectangle 6099" width="17.746" height="3.664" rx="1.47" transform="matrix(1, 0.007, -0.007, 1, 54.855, 74.949)" fill="#ffa50a"/>
                  <path id="Path_68212" data-name="Path 68212" d="M340.543,218.789h-3.018a.709.709,0,0,1-.711-.709v-3.515a.709.709,0,0,1,.711-.709l1.278-.411,1.74.411a.709.709,0,0,1,.709.709v3.515A.709.709,0,0,1,340.543,218.789Z" transform="translate(-294.268 -154.375)" fill="#0f1446"/>
                  <path id="Path_68233" data-name="Path 68233" d="M1.656,0h11.67a1.656,1.656,0,0,1,1.656,1.656v9.028c0,.915-4.288,4.778-5.2,4.778l-5.645-.45C3.22,15.013,0,11.6,0,10.684V1.656A1.656,1.656,0,0,1,1.656,0Z" transform="matrix(0.994, 0.112, -0.112, 0.994, 53.391, 125.1)" fill="#ffa50a"/>
                  <path id="Path_68234" data-name="Path 68234" d="M1.656,0h11.67a1.656,1.656,0,0,1,1.656,1.656v9.028c0,.915-4.288,4.778-5.2,4.778l-5.645-.45C3.22,15.013,0,11.6,0,10.684V1.656A1.656,1.656,0,0,1,1.656,0Z" transform="matrix(0.995, -0.097, 0.097, 0.995, 14.584, 126.654)" fill="#ffa50a"/>
                  <path id="Path_68228" data-name="Path 68228" d="M409.8,109.2c-7.066-1.413-52.487-7.873-53.295-3.836s43.4,16.755,50.468,18.169,11.1-1.211,11.911-5.249S417.067,110.609,409.8,109.2Z" transform="translate(-336.556 0.965)" fill="#fa968c"/>
                  <path id="Path_68229" data-name="Path 68229" d="M414.007,109.583a22.075,22.075,0,0,0-3.028-6.258c-1.211-1.413-6.662-.2-9.69.807a19.911,19.911,0,0,1-4.845.606c-11.911-.606-34.722-.2-39.971.807-7.066,1.413-10.7,7.066-9.69,10.9,1.413,6.258,5.249,7.671,12.314,6.258,5.047-1.009,26.042-7.671,37.548-12.92a17.133,17.133,0,0,1,9.488-1.413Z" transform="translate(-346.618 -0.432)" fill="#fab9af"/>
                </g>
              </g>
            </g>
            <g id="Group_119" data-name="Group 119" transform="translate(0 201.56)">
              <path id="Path_57" data-name="Path 57" d="M224.372,326.5c-1.126-8.043-2.735-20.751-10.617-30.725C201.53,280.335,179.17,277.6,179.17,277.6s-2.413,22.36,10.134,37.8c6.756,8.365,20.912,14.478,28.794,17.051a8.111,8.111,0,0,1,5.63,7.721c-.8,53.728-9.008,79.466-9.008,79.466l7.882-.965C229.359,360.444,225.981,337.762,224.372,326.5Z" transform="translate(-178.984 -236.902)" fill="#e1f3ff"/>
              <path id="Path_58" data-name="Path 58" d="M225.925,315.493c2.091-6.6,5.469-17.212,13.673-24.29,12.708-11.26,31.851-10.3,31.851-10.3s-1.448,19.143-14.156,30.4c-6.917,6.113-19.786,9.169-26.864,9.973a7,7,0,0,0-5.952,5.791c-7.4,45.524-4.182,68.366-4.182,68.366l-6.6-1.93C216.6,343.322,223.03,324.662,225.925,315.493Z" transform="translate(-157.856 -234.901)" fill="#e1f3ff"/>
              <path id="Path_59" data-name="Path 59" d="M217.444,297.985c1.77-8.043,4.5-20.751,13.191-30.081,13.673-14.638,36.194-15.6,36.194-15.6s.643,22.681-13.191,37.159c-7.56,7.882-22.2,12.869-30.4,14.8a8.034,8.034,0,0,0-6.274,7.4,655.282,655.282,0,0,0,.965,98.126l-7.882-1.609C207.953,349.139,215.031,309.084,217.444,297.985Z" transform="translate(-160.313 -252.3)" fill="#00aeef"/>
              <path id="Path_60" data-name="Path 60" d="M213.394,341a26.678,26.678,0,0,0-4.665-11.26,16.575,16.575,0,0,0-4.022-4.182c-6.917-4.826-16.408-3.378-16.408-3.378s1.609,9.491,8.365,14.317c4.022,2.9,9.008,3.539,12.386,3.539a3.742,3.742,0,0,1,3.7,3.7c-.161,10.939-2.413,25.9-2.413,25.9l4.343-.8C215.968,358.693,214.52,347.111,213.394,341Z" transform="translate(-173.315 -209.896)" fill="#00aeef"/>
              <path id="Path_61" data-name="Path 61" d="M235.825,313s-8.847,3.7-12.065,11.582c-1.769,4.343-.8,10.939-.483,13.351a4.59,4.59,0,0,1,0,2.091L219.9,369.141h5.308a119.02,119.02,0,0,1-.322-24.934,7.67,7.67,0,0,1,2.9-5.308c2.735-1.93,6.756-5.308,8.365-9.33C239.525,321.847,235.825,313,235.825,313Z" transform="translate(-154.082 -215.357)" fill="#00aeef"/>
              <path id="Path_62" data-name="Path 62" d="M211.864,396h21.073a4.283,4.283,0,0,0,1.93-.483,26.084,26.084,0,0,0,13.673-23V352.082a4.259,4.259,0,0,0-4.182-4.182H200.282a4.259,4.259,0,0,0-4.182,4.182v20.429a26.208,26.208,0,0,0,13.673,23A4.453,4.453,0,0,0,211.864,396Z" transform="translate(-168.567 -194.116)" fill="#5968f6"/>
              <rect id="Rectangle_21" data-name="Rectangle 21" width="52.441" height="12.547" transform="translate(27.533 165.687)" fill="#e1e1ff"/>
              <rect id="Rectangle_22" data-name="Rectangle 22" width="52.441" height="3.056" transform="translate(27.533 165.687)" fill="#fff0f2"/>
            </g>
            <g id="Group_23284" data-name="Group 23284" transform="translate(236.095 -23.933)">
              <g id="_599-2" data-name="599" transform="translate(0 0)">
                <g id="OBJECTS-2" data-name="OBJECTS" transform="translate(0 0)">
                  <g id="Group_126-2" data-name="Group 126">
                    <g id="Group_125-2" data-name="Group 125">
                      <path id="Path_62868" data-name="Path 62868" d="M0,84.879H5.03L5.512,0H.482Z" transform="matrix(-0.983, 0.184, -0.184, -0.983, 90.448, 89.125)" fill="#f2f2f2"/>
                      <path id="Path_63" data-name="Path 63" d="M300.585,214.939c20.956-13.412,47.99,6.5,68.527-9.64a3.6,3.6,0,0,0,1.257-3.143l-7.544-40.027a3.2,3.2,0,0,0-4.82-2.1c-20.956,13.412-47.99-6.5-68.527,9.64a3.6,3.6,0,0,0-1.257,3.143c2.515,13.412,5.029,26.824,7.544,40.027A3.112,3.112,0,0,0,300.585,214.939Z" transform="translate(-288.181 -159.587)" fill="#f37434"/>
                      <path id="Path_64" data-name="Path 64" d="M288.93,205.39a3.638,3.638,0,0,1,1.886,2.305c.21.419.21.629,0,.838a2.691,2.691,0,0,0,.838,2.1,4.562,4.562,0,0,1,1.048,1.677,5.23,5.23,0,0,1,.21,3.563,5.98,5.98,0,0,0,0,2.724,2.365,2.365,0,0,1-.21,1.677,2.442,2.442,0,0,1-3.353,1.048,2.259,2.259,0,0,1-1.257-2.305,2.246,2.246,0,0,0-.419-1.257l-.21-.21a3.115,3.115,0,0,1-.419-1.886,1.4,1.4,0,0,0-.629-1.676,4.262,4.262,0,0,1-1.257-1.886,1.773,1.773,0,0,1,0-1.467,1.4,1.4,0,0,0-.629-1.677,2.656,2.656,0,0,1-.838-1.886C284.11,205.181,287.673,204.552,288.93,205.39Z" transform="translate(-208.016 -139.766)" fill="#fab9af"/>
                      <path id="Path_65" data-name="Path 65" d="M296.067,213.473h0c-.629-1.048-1.257-2.1-1.886-2.934l-2.724-2.934c-1.886-1.886-2.934-3.353-5.239-3.563-3.772-.419-8.8-.629-9.011,1.467-.21,1.886,4.61,3.143,7.544,3.563a2.558,2.558,0,0,1,1.886,1.677s-1.467,10.9,4.4,11.316l1.467,3.982L299.211,225l-1.467-6.706A32.579,32.579,0,0,0,296.067,213.473Z" transform="translate(-200.483 -141.143)" fill="#fab9af"/>
                      <path id="Path_72" data-name="Path 72" d="M244.927,260.141c-2.515-12.574-5.029-45.056-5.029-45.056,1.257-1.677,6.5-3.982,8.173-1.677l10.269,44.637c11.107,14.041,20.328,26.824,24.519,33.111a10.18,10.18,0,0,0,7.125,4.191,110.383,110.383,0,0,1,18.022,2.724c27.453,7.125,16.136,17.184,16.136,17.184-3.353,3.353-56.163,2.305-54.7-.21a10.113,10.113,0,0,0-.838-11.736C259.6,291.994,247.232,271.876,244.927,260.141Z" transform="translate(-149.552 -131.647)" fill="#fdfdfd"/>
                      <g id="Group_25133" data-name="Group 25133" transform="translate(100.789 113.141)">
                        <path id="Path_5248" data-name="Path 5248" d="M767.336,282.45s-2.353,5.04-.441,9.9-3.842,6.952-5.755,9.214-1.854,6.57-5.43,7.376-12.291-1.514-12.632-5.073S758.264,277.535,767.336,282.45Z" transform="translate(-695.08 -263.439)" fill="#0f1446"/>
                        <path id="Path_68242" data-name="Path 68242" d="M702.272,319.586s-5.229,7.665-6.9,11.249-3.591,6.419.833,7.141,16.531,4.678,19.649,3.96c2.127-.49,8-16.665,8.768-22.35,1.312-1.224-3.485-.156-6.367-.485C709.189,318.065,704.91,317,702.272,319.586Z" transform="translate(-665.129 -267.861)" fill="#fff"/>
                        <path id="Path_5249" data-name="Path 5249" d="M727.817,275.2c-6.037,17.023,8.873,25.5,18.17,28.524s16.341-17.463,18.752-24.865-4.515-10.96-13.813-13.971c-7.318-2.378-16.083,1.048-20.707,5.563C728.973,271.67,728.374,273.649,727.817,275.2Z" transform="translate(-692.276 -260.467)" fill="#0f1446"/>
                        <path id="Path_5250" data-name="Path 5250" d="M748.5,272.676c7.775,2.495,8.316,8.923,5.122,19.21a17.04,17.04,0,0,1-5.206,8.125,11.011,11.011,0,0,0-3.177,6.7l-.175,6.337c-.574,5.738-4.075,7.85-8.183,7.692-1.339-.05-5.53-2.42-5.938-2.952-1.53-1.871-.291-4.441.832-6.6l.981-1.505a4.316,4.316,0,0,0-1.281-6.054c-5.563-3.252-4.4-9.763-2.852-19.958C730.2,273.009,740.721,270.157,748.5,272.676Z" transform="translate(-692.431 -261.765)" fill="#fab9af"/>
                        <path id="Path_5251" data-name="Path 5251" d="M731.456,260.27l4.016,2.8a9.223,9.223,0,0,0,4.99,1.663l9.738.308c5.389,1.755,13.306,7.684,9.655,15.1l-2.778,5.181a5.2,5.2,0,0,1-5.763,2.586h0a1.84,1.84,0,1,1-3.326-1.572h0a5.563,5.563,0,0,0-2.495-6.495c-2.753-1.663-6.719-.948-10.337-1.048-9.813-.266-11.152-8.249-9.7-14.827a11.6,11.6,0,0,1,.341-1.247C726.707,260.154,729.443,258.948,731.456,260.27Z" transform="translate(-692.031 -259.729)" fill="#0f1446"/>
                        <path id="Path_5252" data-name="Path 5252" d="M754.332,293.9c-.765,2.378-.507,4.59,1.78,5.33s4.807-2.046,5.58-4.424-.507-3.435-2.794-4.158S755.105,291.526,754.332,293.9Z" transform="translate(-696.911 -264.906)" fill="#fab9af"/>
                        <path id="Path_5253" data-name="Path 5253" d="M725.488,300.783a3.434,3.434,0,0,1,1.389-2.761,3.559,3.559,0,0,1,3.177-.2c2.2.715,5.688,3.7,4.8,6.437s-5.281,2.694-7.418,2.029h0C726.328,305.931,725.147,304.692,725.488,300.783Zm2.42-1.2a1.871,1.871,0,0,0-.557,1.356h0c-.208,2.4.266,3.434.632,3.559h0c1.721.532,4.682.416,5.081-.832s-2-3.559-3.593-4.075a1.929,1.929,0,0,0-1.563-.008Z" transform="translate(-692.109 -266.096)" fill="#0f1446"/>
                        <path id="Path_5254" data-name="Path 5254" d="M728.706,294.209a1.871,1.871,0,0,0,1.031,2.744h0a1.871,1.871,0,0,0,2.328-1.106l2.495-7.567a1.131,1.131,0,0,0-.066-.832,1.156,1.156,0,0,0-.649-.557.907.907,0,0,0-1.056.408Z" transform="translate(-692.616 -264.296)" fill="#fa968c"/>
                        <path id="Path_5255" data-name="Path 5255" d="M725.548,300.04a1.264,1.264,0,0,0,.457-.74.832.832,0,0,1,.333-.491.557.557,0,0,1,.5-.067c.166.058.4.208.341.374-.566,1.555-.99,3.676,1.355,4.341,3.218.906,7.484-.324,8.6-1.464a3.6,3.6,0,0,1,2.1-1.189,3.826,3.826,0,0,0,2.844-1.838h0a3.593,3.593,0,0,1,2.794-1.746l.449-.042a.74.74,0,0,1,.732,1.056c-.657,1.364-1.663,3.584-1.663,4.865a7.085,7.085,0,0,1-1.821,4.674,8.666,8.666,0,0,1-3.16,1.2,6.8,6.8,0,0,0-3.385,2.079,5.272,5.272,0,0,1-3.518,1.771,3.235,3.235,0,0,1-3.326-2.728,1.9,1.9,0,0,0-.965-1.38,3.809,3.809,0,0,1-1.663-3v-.042s-1.663,0-1.871-2.836a3.418,3.418,0,0,1,.865-2.794Z" transform="translate(-691.977 -266.035)" fill="#0f1446"/>
                        <path id="Path_5256" data-name="Path 5256" d="M693.593,334.441a132.425,132.425,0,0,0-6.028,32.583c-.779,17.2-8.773,63.21-4.349,66.594s21.713-11.2,24.831-14.563c2.127-2.3,19.841-61.128,20.609-87.773.109-3.781.572,2.305-8.858,5.784a22.632,22.632,0,0,1-16.962-2.937c-2.086-1.117,6.282-10.9,8.842-14.689-.428-1.5-2.673-1.236-2.673-1.236s-6.025,4.146-7.669,6.978A84.341,84.341,0,0,0,693.593,334.441Z" transform="translate(-672.805 -268.827)" fill="#00aeef"/>
                        <path id="Path_5258" data-name="Path 5258" d="M724.523,608.942l2.844,11.144a4.342,4.342,0,0,0,.557,1.173l2.013,2.994a3.4,3.4,0,0,1-1.83,5.164s-4.058,1.43-8.249,2.8-9.688.233-9.688-.9c0-2.495,2.345-.516,6.278-3.143,1.314-.881,2.669-1.8,3.884-2.753,3.376-2.644.424-9.364-1.663-13.147-.748-1.356.042-4.748,1.555-5.073l.981-.208A2.819,2.819,0,0,1,724.523,608.942Z" transform="translate(-689.539 -318.199)" fill="#fab9af"/>
                        <path id="Path_5259" data-name="Path 5259" d="M739.247,423.507,698.15,423s-10.6,53.97-12.732,77.737c-1.538,17.222,28.515,81.172,28.515,81.172,2.586.94,5.148-.707,7.692-1.555,0,0-8.782-57.663-7.2-72,1.663-14.969,17.9-46.295,18.736-54.228A183.582,183.582,0,0,1,739.247,423.507Z" transform="translate(-685.361 -287.224)" fill="#00aeef"/>
                        <path id="Path_5260" data-name="Path 5260" d="M729.049,440.56c.141,4.258,3.094,22.9,1.78,37.738-.141,1.613-2.886,7.16-5.3,13.563-1.281,3.409-1.771,4.565-2.9,7.775-.59,1.663-.832,1.863-1.663,1.888-1.738.05-2.112-15.135-.632-28.274.358-3.16.607-5.306.832-7.659.832-7.318,2.037-17.131,3.326-28.981" transform="translate(-691.096 -289.517)" fill="#5968f6"/>
                        <path id="Path_5261" data-name="Path 5261" d="M789.885,606.529l3.326,11.06a5.312,5.312,0,0,0,.649,1.372l2.362,3.509a3.983,3.983,0,0,1-2.146,6.046s-4.757,1.663-9.671,3.326-11.335.266-11.335-1.056c0-2.944,2.744-.607,7.343-3.684,1.538-1.031,3.135-2.112,4.549-3.227,3.958-3.11.5-10.977-1.921-15.4a2.711,2.711,0,0,1,1.829-3.95l1.148-.249A3.326,3.326,0,0,1,789.885,606.529Z" transform="translate(-700.132 -317.74)" fill="#fab9af"/>
                        <path id="Path_5262" data-name="Path 5262" d="M742.135,403.176c7.958-.358,16.74,4.4,17.464,12.333,1.272,13.829,1.871,28.274,1.871,56.216a174.614,174.614,0,0,0,1.78,27.268c2.087,12.815,19.01,73.38,19.01,73.38-1.505,1.38-5.156,2.636-7.609,2.877,0,0-36.208-52.781-42.836-72.265s-7.767-80.9-5.439-98.494Z" transform="translate(-692.082 -283.883)" fill="#00aeef"/>
                        <path id="Path_5267" data-name="Path 5267" d="M745.4,332.027c-6.062,29.538-22.147,31.95-18.687,52.457,2.844,16.8-3.528,23.474,6.667,35.515,4.358,5.131,24.135,13.018,26.971,3.7,2.794-9.148.832-36.326,0-51.76-1.031-17.979-1.2-39.917-1.2-39.917s3.453-8.767-10.269-9.923C747.414,330.8,746.362,327.354,745.4,332.027Z" transform="translate(-691.518 -269.831)" fill="#00aeef"/>
                        <g id="Group_25132" data-name="Group 25132" transform="matrix(0.998, -0.07, 0.07, 0.998, 17.599, 110.039)">
                          <path id="Path_68236" data-name="Path 68236" d="M29.562,3.1C27.755,2.84,1.879-1.855,1.6.822s-3.457,17.172,0,17.862,28.117,5.067,27.962,2.031S31.369,3.367,29.562,3.1Z" transform="translate(0.62 2.677)" fill="#5968f6"/>
                          <path id="Path_68240" data-name="Path 68240" d="M2.313,0A2.313,2.313,0,0,1,4.626,2.313C4.626,3.59,3.59,3.83,2.313,3.83S0,3.59,0,2.313A2.313,2.313,0,0,1,2.313,0Z" transform="translate(28.91 3.461)" fill="#fff"/>
                          <path id="Path_68241" data-name="Path 68241" d="M2.313,0A2.313,2.313,0,0,1,4.626,2.313c0,1.277-1.035,1.459-2.313,1.459S0,3.59,0,2.313A2.313,2.313,0,0,1,2.313,0Z" transform="translate(0 0)" fill="#fff"/>
                        </g>
                      </g>
                      <path id="Path_96" data-name="Path 96" d="M248.431,258c-2.354-2.354-6.879-3.146-12.283-2.512-.5.057-1.656,6.5-4.816,12.422,3.7,13.282,12.682,34.32,19.823,46.043a7.97,7.97,0,0,1,1.048,6.5l-11.945,42.332c1.467,2.934,3.982,3.353,6.706,3.772l20.118-44.009a20.489,20.489,0,0,0,1.257-13.2C264.567,295.725,256.394,266.387,248.431,258Z" transform="translate(-77.051 -90.873)" fill="#fff"/>
                      <path id="Path_77" data-name="Path 77" d="M245.376,318.793a38.544,38.544,0,0,1,3.143-4.82c.21-.21,1.257-.838,1.467-1.048.838-.629,2.1-1.257,2.305-2.305l1.467-3.772c.629-1.886,2.1-2.934,3.982-2.1h0c1.886.838,2.305,2.724,1.257,4.61l-1.048,2.724a9.419,9.419,0,0,0-.838,4.82c-.21,3.353-2.305,6.706-4.4,9.221-1.257,1.676-3.982,1.886-7.544,1.886-1.677,0-4.61-.419-2.934-1.886,1.467-1.257,6.706-1.676,7.335-7.125,0-.21,0-.838-.21-1.048-.838-.419-1.886,1.677-2.515,2.305a2.986,2.986,0,0,1-2.724,1.048C243.49,320.889,244.538,320.26,245.376,318.793Z" transform="translate(-89.504 -36.821)" fill="#fab9af"/>
                      <g id="Group_124" data-name="Group 124" transform="translate(22.217 10.505)">
                        <path id="Path_124" data-name="Path 124" d="M317,166.067h0a7.857,7.857,0,0,0-2.305.21,15.791,15.791,0,0,0-13.412,18.232,16.2,16.2,0,0,0,15.927,13.622,7.858,7.858,0,0,0,2.305-.21A16.019,16.019,0,0,0,317,166.067m0-1.467a17.493,17.493,0,0,1,2.724,34.788,11.071,11.071,0,0,1-2.724.21,17.493,17.493,0,0,1-2.724-34.788A12.889,12.889,0,0,1,317,164.6Z" transform="translate(-299.404 -164.6)" fill="#fff"/>
                      </g>
                      <g id="Enerpize_Mark_SVG" transform="translate(32.971 17.141)">
                        <path id="Path_49" data-name="Path 49" d="M597.8,227.553h5.594V219Z" transform="translate(-594.081 -219)" fill="#fff"/>
                        <path id="Path_50" data-name="Path 50" d="M613,395.2v8.553l5.594-8.553Z" transform="translate(-608.052 -380.956)" fill="#fff"/>
                        <path id="Path_51" data-name="Path 51" d="M562.342,330.491l3.719-5.691H555.519l-3.719,5.691h10.542Z" transform="translate(-551.8 -316.247)" fill="#fff"/>
                      </g>
                      <path id="Path_68247" data-name="Path 68247" d="M751.043,340.537c-6.062,29.538-16.442,23.44-12.983,43.947,11.969-5.687,21.585-13.755,20.753-29.189-1.031-17.979,2.991-28.616,2.991-28.616a2.6,2.6,0,0,0-.5-2.775C752.73,322.5,756.07,336.35,751.043,340.537Z" transform="translate(-599.079 -159.69)" fill="#00aeef"/>
                    </g>
                  </g>
                </g>
              </g>
            </g>
          </g>
          <g id="Group_25135" data-name="Group 25135" transform="translate(56.629 88.551)">
            <path id="Path_5213" data-name="Path 5213" d="M407.583,426.368a1.481,1.481,0,0,0,.814.041l3.973-.912a4.477,4.477,0,0,1,4.257,1.3c1.815,1.889,4.144,4.673,3.175,5.65s-3.883-1.685-5.291-3.077a1.49,1.49,0,0,0-1.742-.277l-1.083.423a11.4,11.4,0,0,0-4.591,4.314l-.6,1.408L401.1,430.1a1.628,1.628,0,0,1-.244-2.076l1.433-2.255a1.5,1.5,0,0,1,1.775-.635Z" transform="matrix(0.94, 0.342, -0.342, 0.94, -102.631, -377.964)" fill="#fab9af"/>
            <path id="Path_5215" data-name="Path 5215" d="M316.81,319.324c.358,41.2,30.006,67.249,30.006,67.249C359.507,396.651,386,409.854,386,409.854a22.606,22.606,0,0,0,2.255-2.344,16.479,16.479,0,0,0,1.7-2.784s-33.067-24.674-37.666-31.8c-13.171-20.4-6.708-48.7-21.467-56.9-1.579-.879-8.759-4.884-12.154-2.222C318.324,314.032,316.777,315.343,316.81,319.324Z" transform="matrix(0.94, 0.342, -0.342, 0.94, -95.123, -353.041)" fill="#fab9af"/>
            <path id="Path_65426" data-name="Path 65426" d="M316.81,319.324c.358,41.2,29.6,67.6,29.6,67.6,5.3-10.876,4.987-9.819,6.424-14.621-13.171-20.4-7.249-48.068-22.008-56.274-1.579-.879-8.759-4.884-12.154-2.222C318.324,314.032,316.777,315.343,316.81,319.324Z" transform="matrix(0.94, 0.342, -0.342, 0.94, -95.123, -353.041)" fill="#fff"/>
            <path id="Path_5216" data-name="Path 5216" d="M335.321,374.418c1.539,2.792,12.17,14.287,12.17,14.287,1.172-.741-1.726-8.613-5.91-17.193-1.376-4.949-3.313-12.593-3.867-15.06-4.07-17.909-3.452-20.693-6.968-25.057-6.512-8.059-10.07-6.976-10.07-6.976-1.14,2.011,2.174,8.694,3.346,11.649a295.218,295.218,0,0,1,11.3,38.35Z" transform="translate(-79.231 -361.702) rotate(22)" fill="#dfe6f2"/>
            <path id="Path_5217" data-name="Path 5217" d="M323.963,405.44l-13.391-94.113-36.136-4.958-18.8,98.386Z" transform="translate(-213.597 -261.125)" fill="#fab9af"/>
            <g id="Group_25136" data-name="Group 25136" transform="translate(77.738 96.396)">
              <g id="Group_24455" data-name="Group 24455" transform="translate(0)">
                <path id="Path_66035" data-name="Path 66035" d="M43.228,85.78c1.034,14.99,5.049,27.3,18.425,33.856,5.8,2.842,22.029,2.975,28.589,1.312,18.624-4.72,30.663-18.594,29.12-40.925C118.4,66.067,109.3,54.085,98.9,47.5c-6.239-3.95-16.746-5.406-30.429-3.669C48.043,46.42,41.684,63.452,43.228,85.78Z" transform="translate(-40.401 -43.111)" fill="#232121"/>
                <path id="Path_66036" data-name="Path 66036" d="M49.055,83.456c1.35,19.549,13.634,33.7,33.652,32.312,20.818-1.437,30.372-17.091,29.022-36.638S95.252,44.7,77.946,45.9,47.7,63.907,49.055,83.456Z" transform="translate(-48.958 -38.428)"/>
              </g>
              <path id="Path_66037" data-name="Path 66037" d="M53.419,75.627C55.1,88.235,65.3,97.28,76.205,95.826S94.578,82.968,92.9,70.357,81.009,48.7,70.108,50.157,51.734,63.016,53.419,75.627Z" transform="translate(-41.735 -31.243)" fill="#232121"/>
              <path id="Path_66038" data-name="Path 66038" d="M56.589,69.875c1.113,8.348,7.867,14.334,15.083,13.373s12.165-8.512,11.051-16.863S74.856,52.051,67.637,53.012,55.473,61.524,56.589,69.875Z" transform="translate(-40.326 -26.237)"/>
              <path id="Path_66039" data-name="Path 66039" d="M51.3,60.129c.2,2.817,3.076,4.916,6.438,4.682s5.926-2.706,5.732-5.523S60.4,54.375,57.034,54.6,51.111,57.309,51.3,60.129Z" transform="translate(-6.948 -23.351)"/>
              <path id="Path_66040" data-name="Path 66040" d="M55.1,58.159c1.451,2.42,4.97,2.981,7.858,1.252s4.053-5.1,2.6-7.526S60.584,48.9,57.7,50.635,53.643,55.736,55.1,58.159Z" transform="translate(-18.291 -31.887)"/>
              <path id="Path_66041" data-name="Path 66041" d="M51.762,63.56c-.847,2.695,1.072,5.7,4.284,6.707s6.506-.357,7.352-3.051-1.072-5.7-4.282-6.707S52.609,60.865,51.762,63.56Z" transform="translate(-7.792 -13.727)"/>
              <path id="Path_66042" data-name="Path 66042" d="M56.531,65.418c-2.012,1.982-1.723,5.534.64,7.935s5.912,2.733,7.921.751,1.728-5.539-.634-7.935S58.542,63.434,56.531,65.418Z" transform="translate(-20.507 -6.927)"/>
              <path id="Path_66043" data-name="Path 66043" d="M65.908,64.707c-2.825-.076-5.18,2.6-5.267,5.964S62.777,76.825,65.6,76.9s5.183-2.6,5.267-5.969S68.73,64.775,65.908,64.707Z" transform="translate(-39.767 -5.927)"/>
              <path id="Path_66044" data-name="Path 66044" d="M73.542,63.51c-2.3-1.647-5.749-.759-7.709,1.973s-1.7,6.293.6,7.937,5.749.762,7.711-1.973S75.84,65.157,73.542,63.51Z" transform="translate(-54.92 -9.412)"/>
              <path id="Path_66045" data-name="Path 66045" d="M78.405,62.32c-.68-2.744-3.884-4.309-7.153-3.5s-5.365,3.694-4.685,6.435,3.882,4.306,7.151,3.5S79.086,65.058,78.405,62.32Z" transform="translate(-63.22 -16.426)"/>
              <path id="Path_66046" data-name="Path 66046" d="M78.5,60.519c.757-2.722-1.258-5.662-4.5-6.565s-6.492.572-7.246,3.291,1.258,5.659,4.5,6.563S77.742,63.238,78.5,60.519Z" transform="translate(-63.758 -24.9)"/>
              <path id="Path_66047" data-name="Path 66047" d="M73.635,60.089c2.188-1.788,2.227-5.354.093-7.959s-5.637-3.264-7.823-1.478-2.227,5.354-.093,7.959S71.452,61.877,73.635,60.089Z" transform="translate(-54.003 -31.857)"/>
              <path id="Path_66048" data-name="Path 66048" d="M65.212,59.762c2.825-.005,5.109-2.738,5.1-6.108s-2.3-6.092-5.126-6.089-5.109,2.744-5.1,6.111S62.387,59.768,65.212,59.762Z" transform="translate(-37.702 -35.442)"/>
            </g>
            <path id="Path_5218" data-name="Path 5218" d="M304.822,606.458l.041,10.583a23.17,23.17,0,0,1-.871,6.382l-.928,3.256a4.2,4.2,0,0,0,4.07,5.34h22.753a1.026,1.026,0,0,0,1.075-.863c.269-3.1-8.678-5.177-15.41-7.782-5.137-1.986-4.884-11.21-4.233-16.6a3.256,3.256,0,0,0-3.492-3.6h0A3.256,3.256,0,0,0,304.822,606.458Z" transform="translate(-222.386 -316.314)" fill="#fab9af"/>
            <path id="Path_5219" data-name="Path 5219" d="M242.5,602.959,238.844,615.1a5.446,5.446,0,0,1-.716,1.506l-2.589,3.818a4.388,4.388,0,0,0,2.353,6.643s5.226,1.832,10.583,3.606c5.511,1.807,12.447.293,12.447-1.156,0-3.256-3.02-.668-8.067-4.07-1.685-1.132-3.435-2.312-4.99-3.533-4.347-3.411-.554-12.048,2.108-16.908a2.98,2.98,0,0,0-1.986-4.282l-1.254-.268A3.639,3.639,0,0,0,242.5,602.959Z" transform="translate(-209.72 -315.794)" fill="#fab9af"/>
            <path id="Path_5220" data-name="Path 5220" d="M290.12,428.422l40.043-3.362s4.03,29.143-6.089,81.894c-4.746,24.739-14.653,72.019-14.653,72.019a11.322,11.322,0,0,1-7.481.708s-.749-20.856-1.213-43.308c-.44-21.54-.554-44.553-1.929-52.1C296.014,468.9,290.12,428.422,290.12,428.422Z" transform="translate(-220.008 -283.195)" fill="#25377a"/>
            <path id="Path_5221" data-name="Path 5221" d="M301.777,575.207c.619-4.616,2.581-41.753,5.975-54.11,4.616-16.81-8.629-35.656-4.551-47.818,11.991-35.729,2.882-43.56,2.882-43.56l-15.964-.529s5.894,40.483,8.694,55.868c1.376,7.53,1.49,30.543,1.929,52.1C301.069,552.771,301.525,567.62,301.777,575.207Z" transform="translate(-220.008 -283.963)" fill="#1e2d64"/>
            <path id="Path_5222" data-name="Path 5222" d="M289.419,427.592c4.127,22.191,13.367,55.356-4.42,86.534s-36.51,63.569-36.51,63.569a10.135,10.135,0,0,1-6.618-2.32s3.118-14.124,7.628-30.625c5.161-18.878,11.69-41.077,9.834-52.653-3.492-21.686-7.5-50.585-6.285-64.611S287.245,415.926,289.419,427.592Z" transform="translate(-211.036 -281.86)" fill="#25377a"/>
            <path id="Path_5223" data-name="Path 5223" d="M323.251,406.775c1.4-.677-.513-2-.769-3.533l-12.069-91.915-36.136-4.958-19.423,96.872a3.321,3.321,0,0,0,2.637,3.932,231.188,231.188,0,0,0,41.118,3.908C312.172,411.082,319.792,408.444,323.251,406.775Z" transform="translate(-213.438 -261.125)" fill="#dfe6f2"/>
            <path id="Path_5226" data-name="Path 5226" d="M316.375,311.39s9.321,7.475,4.4,23.816c-.308,1.023-9.9.556-10.448,2.027-7.3,19.612-19.976,66.05-2.27,75,5.609,2.833,28.65,9.153,28.65,6.548,0-.958.121-7.881,0-10.565-.4-8.91-1.738-21.743-3.28-33.972-3.312-17.138-2.4-40.879-3.593-55.4a7.131,7.131,0,0,0-6.138-6.512Z" transform="translate(-225.741 -262.058)" fill="#25377a"/>
            <path id="Path_5227" data-name="Path 5227" d="M247.912,397.267s-4.884,5.446-4.2,6.325,3.378-1.587,3.818-1.425-3.777,5.2-4.632,6.057-.374,1.449.521,1.742c.578.187.252,1.7.578,2.247s.863,1.514,2,1.294,6.871-7.522,6.708-10.46S250.363,396.339,247.912,397.267Z" transform="translate(-211.144 -278)" fill="#ea9f96"/>
            <path id="Path_5224" data-name="Path 5224" d="M282.862,332.706s16.127,4.354,24.8,1.884c5.7,29.143-8.63,78.864-18.438,82.168s-35.176-6.956-35.7-10.733-.784-28.349,3.562-49.9,6.991-40.581,7.89-46.517,16.222-1.927,16.222-1.927Z" transform="translate(-211.955 -261.322)" fill="#25377a"/>
            <path id="Path_5225" data-name="Path 5225" d="M271.115,334.272a57.245,57.245,0,0,0,2.126-19.217h0a2.79,2.79,0,0,0-2.955-1.74,3.772,3.772,0,0,0-2.5,2.92c-2.553,9.434-6.773,26-8.769,38.923C256.083,374.336,269.526,339.544,271.115,334.272Z" transform="translate(-214.147 -260.101)" fill="#1e2d64"/>
            <path id="Path_5228" data-name="Path 5228" d="M253.217,393.879a26.792,26.792,0,0,1-2.8-1.742l-4.673-3.427a3.256,3.256,0,0,0-5.112,1.766h0a3.256,3.256,0,0,0,1.758,3.834c2.442,1.172,4.469,2.125,5.633,2.7a4.314,4.314,0,0,1,2.011,1.8c.586.977.651,1.71.6,4.42s-1.563,3.639-2.442,4.966c-1.563,2.442-4.347,3.59-2.849,4.388,1.2.643,4.07-.676,5.991-3.093a20.038,20.038,0,0,0,3-5.275C256.994,397.192,254.683,394.709,253.217,393.879Z" transform="translate(-210.783 -276.313)" fill="#fab9af"/>
            <path id="Path_5229" data-name="Path 5229" d="M282.325,262.5s.684,5.446-2.6,9.427,1.49,7.693,2.6,10.4-.269,6.732,2.849,8.572,11.991,2.328,13.4-.912S292.338,260.642,282.325,262.5Z" transform="translate(-217.863 -252.95)" fill="#32285f"/>
            <path id="Path_5230" data-name="Path 5230" d="M318.941,267.511c.48,17.811-16.094,21.231-25.732,21.231S283.18,267.388,283.18,259.7s7.571-8.906,17.209-8.906c7.6,0,14.783,5.886,17.738,11.527C318.933,263.839,318.892,265.874,318.941,267.511Z" transform="translate(-218.718 -250.79)" fill="#32285f"/>
            <path id="Path_5231" data-name="Path 5231" d="M302.315,259.24c-8.067,0-11.079,5.739-11.226,16.362-.057,3.973,1.726,7.913,3.167,10.428a7.872,7.872,0,0,1,.757,6.154l-1.775,5.991c-1.2,5.56,1.441,8.613,5.332,9.72a7.587,7.587,0,0,0,5.935-.969c2-1.294,2.165-4.07,1.8-6.439l-.456-1.71a4.249,4.249,0,0,1,3.044-5.291c6.211-1.36,7.1-7.831,8.759-17.909C319.386,265.126,310.375,259.24,302.315,259.24Z" transform="translate(-220.188 -252.361)" fill="#fab9af"/>
            <path id="Path_5232" data-name="Path 5232" d="M320.489,253.229l-4.632,1.408a9.15,9.15,0,0,1-5.21,0L301.367,252c-5.593,0-14.832,3.159-13.66,11.226l1.026,5.7a5.145,5.145,0,0,0,4.624,4.184h0a1.807,1.807,0,0,0,3.557-.48h0a5.479,5.479,0,0,1,4.323-5.332,20.123,20.123,0,0,1,9.769.073c6.423,1.718,13.188-2.255,13.839-8.873a12.67,12.67,0,0,0,.057-1.27C324.933,254.564,322.735,252.6,320.489,253.229Z" transform="translate(-219.541 -251.015)" fill="#32285f"/>
            <path id="Path_5233" data-name="Path 5233" d="M294.917,278.561c0,2.442-.92,4.453-3.256,4.453s-3.891-3.387-3.891-5.845,1.522-3.069,3.891-3.069S294.917,276.094,294.917,278.561Z" transform="translate(-219.571 -255.124)" fill="#fab9af"/>
            <path id="Path_5234" data-name="Path 5234" d="M319.965,286.688a1.848,1.848,0,0,1-1.807,2.239h0a1.856,1.856,0,0,1-1.848-1.742v-7.856a1.083,1.083,0,0,1,1.1-1.1.9.9,0,0,1,.871.7Z" transform="translate(-224.878 -255.892)" fill="#fa968c"/>
            <path id="Path_5235" data-name="Path 5235" d="M254.315,307.965c-14.409,7.831-27.759,18.87-49.2,44.651a4.8,4.8,0,0,0,.228,6.415c4.591,4.705,14.1,11.95,34.475,21.98,1.541-2.114,3.02-2,3.275-4.6,0,0-19.719-20.968-20.932-22,0,0,27.784-17.4,33.752-25.368s9.735-15.919,7.155-19.24S258.117,305.9,254.315,307.965Z" transform="translate(-203.993 -261.011)" fill="#fab9af"/>
            <path id="Path_65427" data-name="Path 65427" d="M254.315,307.978c-14.409,7.831-27.759,18.87-49.2,44.651a4.8,4.8,0,0,0,.228,6.415c4.591,4.705,18.031-3.59,16.818-4.624,0,0,26.086-14.3,34.528-21.586,4.685-4.044,6.869-11.673,7.261-15.593.259-2.507.545-6.273-.6-7.751C260.766,306.169,258.117,305.91,254.315,307.978Z" transform="translate(-203.993 -261.023)" fill="#fff"/>
            <path id="Path_5239" data-name="Path 5239" d="M292.663,306.16l-5.853,1.026s1.164,9.451,5.837,16.525a.871.871,0,0,0,1.433,0l4.152-5.772a2.035,2.035,0,0,0,.1-2.247Z" transform="translate(-219.393 -261.086)" fill="#fff"/>
            <path id="Path_5240" data-name="Path 5240" d="M308.791,309.23l5.853,1.921s.179,5.845-4.323,12.561a.855.855,0,0,1-1.425,0l-3.4-5.275a2.125,2.125,0,0,1-.13-2.043Z" transform="translate(-222.805 -261.657)" fill="#fff"/>
            <g id="Group_24174" data-name="Group 24174" transform="translate(51.883 68.039)">
              <path id="Path_65354" data-name="Path 65354" d="M427.46,246.317l18.589-.913h.054l2.2-.107a1,1,0,0,1,1.074,1.021v13a1.047,1.047,0,0,1-.967,1.021l-18.374.913h-.054l-2.471.107a.9.9,0,0,1-.913-.86V247.284A.945.945,0,0,1,427.46,246.317Z" transform="translate(-426.6 -243.792)" opacity="0.06"/>
              <g id="Group_24141" data-name="Group 24141">
                <path id="Path_10846" data-name="Path 10846" d="M432.113,258.745l18.589-.913a.837.837,0,0,0,.806-.86V243.756a.861.861,0,0,0-.913-.86l-18.589.913a.837.837,0,0,0-.806.86v13.217A.861.861,0,0,0,432.113,258.745Z" transform="translate(-431.2 -242.681)" fill="#afe6ff"/>
                <path id="Path_10847" data-name="Path 10847" d="M427.674,258.457l18.374-.913a1.047,1.047,0,0,0,.967-1.021v-13a1.033,1.033,0,0,0-1.074-1.021l-18.374.913a1.048,1.048,0,0,0-.967,1.021v13A1.1,1.1,0,0,0,427.674,258.457Z" transform="translate(-424.236 -242.5)" fill="#fff"/>
                <text id="Bob" transform="translate(6.709 8.27) rotate(-1.808)" fill="#1e2d64" font-size="5" font-family="SourceSansPro-Bold, Source Sans Pro" font-weight="700"><tspan x="0" y="0">Bob</tspan></text>
              </g>
            </g>
            <rect id="Rectangle_5671" data-name="Rectangle 5671" width="15.921" height="4.403" rx="1.47" transform="translate(107.745 76.712) rotate(179.59)" fill="#1e2d64"/>
            <path id="Path_5214" data-name="Path 5214" d="M417.386,430.33a2.532,2.532,0,0,0-1.832.814,1.522,1.522,0,0,0-.358.562,1.669,1.669,0,0,1-1.091,1.026,3,3,0,0,0-1.188.716,4.884,4.884,0,0,0-1.327,2.174,4.558,4.558,0,0,1-.863,1.8,1.847,1.847,0,0,0-.407,1.156,1.766,1.766,0,0,0,1.726,1.8,1.693,1.693,0,0,0,1.547-1.042,1.384,1.384,0,0,1,.7-.692l.114-.065a1.913,1.913,0,0,0,.814-1.05,1.278,1.278,0,0,1,.944-.952,2.491,2.491,0,0,0,1.359-.814,2.018,2.018,0,0,0,.488-.814,1.286,1.286,0,0,1,.936-.928,1.449,1.449,0,0,0,1.05-.936C420.43,431.828,418.436,430.3,417.386,430.33Z" transform="matrix(0.94, 0.342, -0.342, 0.94, -103.995, -379.506)" fill="#fab9af"/>
            <g id="Group_25137" data-name="Group 25137" transform="matrix(-0.998, -0.07, 0.07, -0.998, 98.308, 135.089)">
              <path id="Path_68236-2" data-name="Path 68236" d="M29.562,18.672C27.755,18.935,1.879,23.63,1.6,20.953S-1.856,3.782,1.6,3.091,29.718-1.975,29.562,1.061,31.369,18.408,29.562,18.672Z" transform="translate(0.62 0)" fill="#1e2d64"/>
              <path id="Path_68240-2" data-name="Path 68240" d="M2.313,3.83A2.313,2.313,0,0,0,4.626,1.517C4.626.239,3.59,0,2.313,0S0,.239,0,1.517A2.313,2.313,0,0,0,2.313,3.83Z" transform="translate(28.91 17.162)" fill="#fff"/>
              <path id="Path_68241-2" data-name="Path 68241" d="M2.313,3.772A2.313,2.313,0,0,0,4.626,1.459C4.626.182,3.59,0,2.313,0S0,.182,0,1.459A2.313,2.313,0,0,0,2.313,3.772Z" transform="translate(0 20.681)" fill="#fff"/>
            </g>
          </g>
        </g>
      </g>
    </g>
  </g>
</svg>
