<svg xmlns="http://www.w3.org/2000/svg" xmlns:xlink="http://www.w3.org/1999/xlink" width="396.707" height="405.434" viewBox="0 0 396.707 405.434">
  <defs>
    <linearGradient id="linear-gradient" x1="0.751" y1="0.019" x2="0.079" y2="0.685" gradientUnits="objectBoundingBox">
      <stop offset="0" stop-color="#fff"/>
      <stop offset="1" stop-color="#fff" stop-opacity="0"/>
    </linearGradient>
    <linearGradient id="linear-gradient-3" x1="0.67" y1="0.283" x2="0.149" y2="0.949" xlink:href="#linear-gradient"/>
  </defs>
  <g id="Workshop_Sales" data-name="Workshop Sales" transform="translate(-1126.851 -206.068)">
    <g id="Group_25101" data-name="Group 25101" transform="translate(1126.851 206.068)">
      <g id="Group_24548" data-name="Group 24548" transform="translate(0)">
        <g id="Group_24547" data-name="Group 24547" transform="translate(0 3.334)">
          <g id="Group_24546" data-name="Group 24546" transform="translate(0 0.182)">
            <g id="Group_24545" data-name="Group 24545" transform="translate(3.04)">
              <rect id="Rectangle_5797" data-name="Rectangle 5797" width="17.302" height="398.624" transform="translate(23.161)" fill="#e1f3ff"/>
              <path id="Path_66227" data-name="Path 66227" d="M133.07,419.382l-23.268,37.9h44.1V427.1Z" transform="translate(-109.802 -55.845)" fill="#e1f3ff"/>
            </g>
            <rect id="Rectangle_5798" data-name="Rectangle 5798" width="50.749" height="9.481" transform="translate(0 391.952)" fill="#e1f3ff"/>
          </g>
          <path id="Path_66228" data-name="Path 66228" d="M126.091,727.578l-4.677,2.632V335.317l4.677,2.805Z" transform="translate(-78.204 -335.317)" fill="#5968f6"/>
        </g>
        <path id="Rectangle_5799" data-name="Rectangle 5799" d="M.648,0H40.057a.649.649,0,0,1,.649.649V14.79a.648.648,0,0,1-.648.648H.648A.648.648,0,0,1,0,14.79V.648A.648.648,0,0,1,.648,0Z" transform="translate(21.462)" fill="#4b59d3"/>
      </g>
      <g id="Group_24552" data-name="Group 24552" transform="translate(334.191)">
        <g id="Group_24551" data-name="Group 24551" transform="translate(10.754 3.334)">
          <g id="Group_24550" data-name="Group 24550" transform="translate(0 0.182)">
            <g id="Group_24549" data-name="Group 24549" transform="translate(4.726)">
              <rect id="Rectangle_5800" data-name="Rectangle 5800" width="17.304" height="398.624" transform="translate(3.534)" fill="#e1f3ff"/>
              <path id="Path_66229" data-name="Path 66229" d="M218.5,419.382l23.218,37.9h-44V427.1Z" transform="translate(-197.717 -55.845)" fill="#e1f3ff"/>
            </g>
            <rect id="Rectangle_5801" data-name="Rectangle 5801" width="51.763" height="9.481" transform="translate(0 391.952)" fill="#e1f3ff"/>
          </g>
          <path id="Path_66230" data-name="Path 66230" d="M196.705,727.578l4.669,2.632V335.317l-4.669,2.805Z" transform="translate(-192.822 -335.317)" fill="#4b59d3"/>
        </g>
        <path id="Rectangle_5802" data-name="Rectangle 5802" d="M.648,0h39.4A.649.649,0,0,1,40.7.649V14.79a.648.648,0,0,1-.648.648H.648A.648.648,0,0,1,0,14.79V.648A.648.648,0,0,1,.648,0Z" fill="#4b59d3"/>
      </g>
      <g id="Group_24553" data-name="Group 24553" transform="translate(44.616 94.046)">
        <path id="Path_66231" data-name="Path 66231" d="M122.2,356.283l14.5,39.768h21.523l10.293,15.676H121.739Z" transform="translate(-121.739 -356.283)" fill="#5968f6"/>
        <path id="Path_66232" data-name="Path 66232" d="M232.776,356.283,218.27,396.051H196.749l-10.291,15.676h46.787Z" transform="translate(73.419 -356.283)" fill="#4b59d3"/>
        <rect id="Rectangle_5803" data-name="Rectangle 5803" width="286.345" height="15.435" transform="translate(8.852 48.336)" fill="#e1f3ff"/>
      </g>
      <g id="Group_24565" data-name="Group 24565" transform="translate(90.89 27.173)">
        <path id="Rectangle_5804" data-name="Rectangle 5804" d="M1.523,0H38.348A1.521,1.521,0,0,1,39.87,1.521V59.683a1.52,1.52,0,0,1-1.52,1.52H1.52A1.52,1.52,0,0,1,0,59.683V1.523A1.523,1.523,0,0,1,1.523,0Z" transform="translate(5.755 88.148)" fill="#1e2d64"/>
        <path id="Rectangle_5805" data-name="Rectangle 5805" d="M1.523,0H38.347a1.521,1.521,0,0,1,1.521,1.521V59.683a1.52,1.52,0,0,1-1.52,1.52H1.52A1.52,1.52,0,0,1,0,59.683V1.523A1.523,1.523,0,0,1,1.523,0Z" transform="translate(170.813 88.148)" fill="#1e2d64"/>
        <g id="Group_24555" data-name="Group 24555" transform="translate(34.179 3.758)">
          <path id="Path_66233" data-name="Path 66233" d="M139.453,383.836l151.471,2.282-16.693-40.8-60.276-8.353-61.2,9.277Z" transform="translate(-139.453 -336.967)" fill="#e1f3ff"/>
          <path id="Path_68147" data-name="Path 68147" d="M267.976,234.63,250.55,252.05V267.4h.041l32.771-32.771Z" transform="translate(-225.527 -231.659)" opacity="0.51" fill="url(#linear-gradient)"/>
          <path id="Path_68150" data-name="Path 68150" d="M267.976,234.63,250.55,252.05V267.4h.041l32.771-32.771Z" transform="translate(-186.372 -231.659)" opacity="0.51" fill="url(#linear-gradient)"/>
          <path id="Path_68148" data-name="Path 68148" d="M258.79,267.4h9.561l32.771-32.771h-9.561Z" transform="translate(-188.041 -231.659)" opacity="0.51" fill="url(#linear-gradient-3)"/>
          <path id="Path_68149" data-name="Path 68149" d="M321.945,279.22l6.145-6.145V263.52l-15.7,15.7Z" transform="translate(-186.135 -243.479)" fill="#fff" opacity="0.51"/>
        </g>
        <path id="Path_66235" data-name="Path 66235" d="M328.9,387.3c-1.075-.819-4.973-2.3-11.04-3.993-4.633-11.281-14.173-36.183-20.7-38.658-14.045-5.332-49.369-8.275-59.253-8.71h-3.883c-9.88.435-45.8,3.379-59.856,8.71-6.524,2.475-16.067,27.378-20.7,38.658-6.07,1.689-9.968,3.174-11.04,3.993-4.022,3.094-13.46,9.891-10.919,31.224,1.539,12.9,7.35,44.2,7.35,44.2H325.761s11.061-29.67,11.061-44.2C336.822,396.26,332.913,390.394,328.9,387.3ZM235.66,373.574a310.872,310.872,0,0,0-71.543,7.087c4.52-11.1,11.4-27.345,16.353-29.221,12.608-4.787,44.889-7.332,53.761-7.723h3.481c8.867.391,40.531,2.936,53.135,7.723,4.951,1.876,11.833,18.122,16.356,29.221A310.688,310.688,0,0,0,235.66,373.574Z" transform="translate(-127.532 -335.939)" fill="#00aeef"/>
        <path id="Path_66236" data-name="Path 66236" d="M207.643,346.418l-9.5-1.54c-4.713-.761-9.017,1.708-9.281,5.631a4.039,4.039,0,0,1-1.861,2.4l-5.225,1.108a2.857,2.857,0,0,0-2.2,3.393c.329,1.543,2.852,3.712,4.4,3.39l7.471-1.591c1.73,1.916,3.627,1.883,6.7,1.678l9.5-.625a5.774,5.774,0,0,0,5.595-5.573v-2.168A6.5,6.5,0,0,0,207.643,346.418Z" transform="translate(1.154 -312.554)" fill="#1e2d64"/>
        <path id="Path_66237" data-name="Path 66237" d="M135.7,346.418l9.5-1.54c4.717-.761,9.025,1.708,9.284,5.631a4.069,4.069,0,0,0,1.861,2.4l5.225,1.108a2.855,2.855,0,0,1,2.2,3.393c-.325,1.543-2.245,3.748-3.792,3.419l-7.471-1.583c-1.73,1.913-4.234,1.847-7.306,1.642l-9.5-.625a5.773,5.773,0,0,1-5.591-5.573v-2.168A6.5,6.5,0,0,1,135.7,346.418Z" transform="translate(-130.106 -312.554)" fill="#1e2d64"/>
        <g id="Group_24558" data-name="Group 24558" transform="translate(49.515 101.129)">
          <g id="Group_24557" data-name="Group 24557">
            <path id="Path_66239" data-name="Path 66239" d="M161.261,380.284h82A17.8,17.8,0,0,0,260.873,363.6H143.647A17.8,17.8,0,0,0,161.261,380.284Z" transform="translate(-143.647 -363.595)" fill="#1e2d64"/>
          </g>
        </g>
        <g id="Group_24560" data-name="Group 24560" transform="translate(64.074 66.822)">
          <g id="Group_24559" data-name="Group 24559">
            <path id="Path_66240" data-name="Path 66240" d="M149.832,362.627c-3.2-5.4-3.2-8.414,1.9-8.414H235.19c6.03.23,4.549,3.73,2.263,8.293l-2.216,4.428c-2.278,4.564-6.461,8.293-11.562,8.293H163.091c-5.1,0-9.171-3.785-11.314-8.41Z" transform="translate(-147.628 -354.213)" fill="#1e2d64"/>
          </g>
        </g>
        <g id="Group_24561" data-name="Group 24561" transform="translate(28.935 100.435)">
          <path id="Path_66241" data-name="Path 66241" d="M138.019,369.9a6.492,6.492,0,1,1,6.494,6.487A6.493,6.493,0,0,1,138.019,369.9Z" transform="translate(-138.019 -363.405)" fill="#1e2d64"/>
          <path id="Path_66242" data-name="Path 66242" d="M138.717,368.044a3.938,3.938,0,1,1,3.942,3.938A3.941,3.941,0,0,1,138.717,368.044Z" transform="translate(-136.165 -361.553)" fill="#fff"/>
        </g>
        <g id="Group_24562" data-name="Group 24562" transform="translate(172.204 100.435)">
          <path id="Path_66243" data-name="Path 66243" d="M177.2,369.9a6.489,6.489,0,1,1,6.491,6.487A6.492,6.492,0,0,1,177.2,369.9Z" transform="translate(-177.199 -363.405)" fill="#1e2d64"/>
          <path id="Path_66244" data-name="Path 66244" d="M177.9,368.044a3.942,3.942,0,1,1,3.942,3.938A3.941,3.941,0,0,1,177.9,368.044Z" transform="translate(-175.347 -361.553)" fill="#fff"/>
        </g>
        <g id="Group_24563" data-name="Group 24563" transform="translate(11.475 59.881)">
          <path id="Path_66245" data-name="Path 66245" d="M174.2,368.065c.073,3.243-6.721,3.36-10.561,3.36H140.192a6.945,6.945,0,0,1-6.948-6.94v-2.322c0-3.832,2.242-4.852,6.8-6.366l19.867-3.481c8.465-.106,14.44,9.6,14.44,13.427Z" transform="translate(-133.244 -352.315)" fill="#1e2d64"/>
          <path id="Path_66246" data-name="Path 66246" d="M171.025,366.926c0,3.488-6.253,3.057-9.741,3.057h-21.34a6.317,6.317,0,0,1-6.319-6.315v-2.11c0-3.485,2.04-4.41,6.194-5.792l18.068-3.163c7.7-.1,13.138,8.725,13.138,12.217Z" transform="translate(-132.235 -351.552)" fill="#fff"/>
        </g>
        <g id="Group_24564" data-name="Group 24564" transform="translate(164.939 59.881)">
          <path id="Path_66247" data-name="Path 66247" d="M175.366,368.065c-.08,3.243,6.721,3.36,10.561,3.36h23.45a6.948,6.948,0,0,0,6.948-6.94v-2.322c0-3.832-2.242-4.852-6.805-6.366l-19.867-3.481c-8.465-.106-14.44,9.6-14.44,13.427Z" transform="translate(-175.212 -352.315)" fill="#1e2d64"/>
          <path id="Path_66248" data-name="Path 66248" d="M175.846,366.926c0,3.488,6.257,3.057,9.745,3.057h21.337a6.317,6.317,0,0,0,6.315-6.315v-2.11c0-3.485-2.037-4.41-6.187-5.792L188.985,352.6c-7.7-.1-13.139,8.725-13.139,12.217Z" transform="translate(-173.528 -351.552)" fill="#fff"/>
        </g>
      </g>
    </g>
    <g id="Group_6896" data-name="Group 6896" transform="translate(1262.082 478.708)">
      <g id="Group_5928" data-name="Group 5928" transform="translate(103.48 0)">
        <ellipse id="Ellipse_545" data-name="Ellipse 545" cx="19.616" cy="19.616" rx="19.616" ry="19.616" transform="translate(0 38.193) rotate(-76.785)" fill="#fac855"/>
        <path id="Path_5091" data-name="Path 5091" d="M335.716,146A19.674,19.674,0,0,0,316.1,165.616h19.616Z" transform="translate(-312.207 -141.994)" fill="#ffdc64"/>
        <ellipse id="Ellipse_546" data-name="Ellipse 546" cx="14.222" cy="14.222" rx="14.222" ry="14.222" transform="translate(6.464 34.176) rotate(-76.767)" fill="#ffa50a"/>
        <g id="Group_5927" data-name="Group 5927" transform="translate(17.624 11.363)">
          <path id="Path_5092" data-name="Path 5092" d="M334.635,157.039a1.492,1.492,0,0,1-1.8.327,3.285,3.285,0,0,0-2.125-.654c-1.308,0-2.125.49-2.125,1.8,0,2.615,7.356,2.452,7.356,7.683a5.1,5.1,0,0,1-3.433,5.068,1.424,1.424,0,0,0-.981,1.308v.49a1.289,1.289,0,0,1-1.308,1.308h0a1.289,1.289,0,0,1-1.308-1.308v-.327a1.387,1.387,0,0,0-1.144-1.308,7.511,7.511,0,0,1-2.616-1.144,1.515,1.515,0,0,1-.49-1.962l.327-.49a1.315,1.315,0,0,1,1.8-.49,5.273,5.273,0,0,0,2.942.981c1.635,0,2.289-.654,2.289-1.962,0-2.779-7.356-2.779-7.356-7.847a5.032,5.032,0,0,1,3.269-4.9,1.424,1.424,0,0,0,.981-1.308v-.49a1.289,1.289,0,0,1,1.308-1.308h0a1.289,1.289,0,0,1,1.308,1.308v.327a1.424,1.424,0,0,0,.981,1.308,5.383,5.383,0,0,1,2.125,1.144,1.335,1.335,0,0,1,.164,1.962Z" transform="translate(-324.5 -150.5)" fill="#ffdc64"/>
        </g>
      </g>
      <path id="Path_5093" data-name="Path 5093" d="M330.3,173.807c4.25,4.25,3.27,12.26,3.27,12.26s-8.01.981-12.26-3.269-3.269-12.26-3.269-12.26S326.048,169.557,330.3,173.807Z" transform="translate(-207.56 -126.482)" fill="#00aeef" opacity="0.42"/>
      <path id="Path_5094" data-name="Path 5094" d="M332.307,173.807c-4.25,4.25-3.269,12.26-3.269,12.26s8.01.981,12.26-3.269,3.269-12.26,3.269-12.26S336.721,169.557,332.307,173.807Z" transform="translate(-200.578 -126.482)" fill="#00aeef" opacity="0.42"/>
      <path id="Path_5095" data-name="Path 5095" d="M330.7,185c4.9,4.9,3.76,14.058,3.76,14.058s-9.154,1.144-14.058-3.76-3.76-14.058-3.76-14.058S325.8,180.1,330.7,185Z" transform="translate(-208.455 -119.697)" fill="#00aeef" opacity="0.717"/>
      <path id="Path_5096" data-name="Path 5096" d="M332.9,185c-4.9,4.9-3.76,14.058-3.76,14.058s9.154,1.144,14.058-3.76,3.76-14.058,3.76-14.058S337.809,180.1,332.9,185Z" transform="translate(-200.521 -119.697)" fill="#00aeef" opacity="0.717"/>
      <path id="Path_5097" data-name="Path 5097" d="M330.945,197.1c5.558,5.558,4.25,15.693,4.25,15.693s-10.135,1.308-15.693-4.25-4.25-15.693-4.25-15.693S325.387,191.544,330.945,197.1Z" transform="translate(-209.351 -112.342)" fill="#00aeef"/>
      <path id="Path_5098" data-name="Path 5098" d="M333.5,197.1c-5.558,5.558-4.25,15.693-4.25,15.693s10.135,1.308,15.693-4.25,4.25-15.693,4.25-15.693S338.9,191.544,333.5,197.1Z" transform="translate(-200.465 -112.342)" fill="#00aeef"/>
      <path id="Path_5099" data-name="Path 5099" d="M340.932,234.265H326.874a4.724,4.724,0,0,1-4.577-3.76l-3.6-21.9h30.405l-3.6,21.9A4.723,4.723,0,0,1,340.932,234.265Z" transform="translate(-207.077 -102.262)" fill="#5968f6"/>
      <path id="Path_5100" data-name="Path 5100" d="M326,208.5c7.193,6.7,6.539,20.27-1.8,25.665h13.4a4.724,4.724,0,0,0,4.577-3.76l3.6-21.9Z" transform="translate(-203.586 -102.325)" fill="#3e56e5"/>
      <path id="Path_5101" data-name="Path 5101" d="M349.694,215.139H320.269A3.279,3.279,0,0,1,317,211.869h0a3.279,3.279,0,0,1,3.269-3.269h29.425a3.279,3.279,0,0,1,3.269,3.269h0A3.086,3.086,0,0,1,349.694,215.139Z" transform="translate(-208.156 -102.262)" fill="#5968f6"/>
      <g id="Group_5930" data-name="Group 5930" transform="translate(50.134 21.088)">
        <ellipse id="Ellipse_547" data-name="Ellipse 547" cx="19.616" cy="19.616" rx="19.616" ry="19.616" transform="translate(0 37.938) rotate(-75.238)" fill="#fac855"/>
        <path id="Path_5102" data-name="Path 5102" d="M303.316,159.1A19.674,19.674,0,0,0,283.7,178.716h19.616Z" transform="translate(-279.425 -154.767)" fill="#ffdc64"/>
        <ellipse id="Ellipse_548" data-name="Ellipse 548" cx="14.222" cy="14.222" rx="14.222" ry="14.222" transform="translate(6.591 34.089) rotate(-75.215)" fill="#ffa50a"/>
        <g id="Group_5929" data-name="Group 5929" transform="translate(18.17 11.689)">
          <path id="Path_5103" data-name="Path 5103" d="M302.335,170.139a1.492,1.492,0,0,1-1.8.327,3.286,3.286,0,0,0-2.125-.654c-1.308,0-2.125.49-2.125,1.8,0,2.616,7.356,2.452,7.356,7.683a5.1,5.1,0,0,1-3.433,5.068,1.424,1.424,0,0,0-.981,1.308v.49a1.289,1.289,0,0,1-1.308,1.308h0a1.289,1.289,0,0,1-1.308-1.308v-.327a1.387,1.387,0,0,0-1.144-1.308,7.51,7.51,0,0,1-2.615-1.144,1.514,1.514,0,0,1-.49-1.962l.327-.49a1.315,1.315,0,0,1,1.8-.49,5.274,5.274,0,0,0,2.943.981c1.635,0,2.289-.654,2.289-1.962,0-2.779-7.356-2.779-7.356-7.846a5.032,5.032,0,0,1,3.269-4.9,1.424,1.424,0,0,0,.981-1.308v-.49a1.289,1.289,0,0,1,1.308-1.308h0a1.289,1.289,0,0,1,1.308,1.308v.327a1.424,1.424,0,0,0,.981,1.308,5.382,5.382,0,0,1,2.125,1.144,1.335,1.335,0,0,1,.164,1.962Z" transform="translate(-292.2 -163.6)" fill="#ffdc64"/>
        </g>
      </g>
      <path id="Path_5104" data-name="Path 5104" d="M298,187.021c4.25,4.25,3.269,12.26,3.269,12.26s-8.01.981-12.26-3.269-3.269-12.26-3.269-12.26S293.585,182.608,298,187.021Z" transform="translate(-228.06 -118.118)" fill="#00aeef" opacity="0.42"/>
      <path id="Path_5105" data-name="Path 5105" d="M300.007,187.021c-4.25,4.25-3.269,12.26-3.269,12.26s8.01.981,12.26-3.269,3.269-12.26,3.269-12.26S304.258,182.608,300.007,187.021Z" transform="translate(-221.079 -118.118)" fill="#00aeef" opacity="0.42"/>
      <path id="Path_5106" data-name="Path 5106" d="M298.3,198.1c4.9,4.9,3.76,14.058,3.76,14.058s-9.154,1.144-14.058-3.76-3.76-14.058-3.76-14.058S293.4,193.2,298.3,198.1Z" transform="translate(-229.019 -111.383)" fill="#00aeef" opacity="0.717"/>
      <path id="Path_5107" data-name="Path 5107" d="M300.5,198.1c-4.9,4.9-3.76,14.058-3.76,14.058s9.154,1.144,14.058-3.76,3.76-14.058,3.76-14.058S305.409,193.2,300.5,198.1Z" transform="translate(-221.086 -111.383)" fill="#00aeef" opacity="0.717"/>
      <path id="Path_5108" data-name="Path 5108" d="M308.532,234.265H294.474a4.724,4.724,0,0,1-4.577-3.76l-3.6-21.9h30.405l-3.6,21.9A4.591,4.591,0,0,1,308.532,234.265Z" transform="translate(-227.642 -102.262)" fill="#5968f6"/>
      <path id="Path_5109" data-name="Path 5109" d="M293.6,208.5c7.193,6.7,6.539,20.27-1.8,25.665h13.4a4.724,4.724,0,0,0,4.577-3.76l3.6-21.9Z" transform="translate(-224.151 -102.325)" fill="#3e56e5"/>
      <path id="Path_5110" data-name="Path 5110" d="M317.457,215.139H287.869a3.279,3.279,0,0,1-3.269-3.269h0a3.279,3.279,0,0,1,3.269-3.269h29.588a3.279,3.279,0,0,1,3.269,3.269h0A3.279,3.279,0,0,1,317.457,215.139Z" transform="translate(-228.721 -102.262)" fill="#5968f6"/>
      <g id="Group_5932" data-name="Group 5932" transform="translate(0 41.124)">
        <ellipse id="Ellipse_549" data-name="Ellipse 549" cx="19.616" cy="19.616" rx="19.616" ry="19.616" transform="translate(0 38.723) rotate(-80.747)" fill="#fac855"/>
        <path id="Path_5111" data-name="Path 5111" d="M271.816,170.5A19.674,19.674,0,0,0,252.2,190.116h19.616Z" transform="translate(-249.285 -167.568)" fill="#ffdc64"/>
        <ellipse id="Ellipse_550" data-name="Ellipse 550" cx="14.222" cy="14.222" rx="14.222" ry="14.222" transform="translate(6.172 34.27) rotate(-80.758)" fill="#ffa50a"/>
        <g id="Group_5931" data-name="Group 5931" transform="translate(16.81 10.288)">
          <path id="Path_5112" data-name="Path 5112" d="M270.835,181.539a1.492,1.492,0,0,1-1.8.327,3.285,3.285,0,0,0-2.125-.654c-1.308,0-2.125.49-2.125,1.8,0,2.616,7.356,2.452,7.356,7.683a5.1,5.1,0,0,1-3.433,5.068,1.424,1.424,0,0,0-.981,1.308v.49a1.289,1.289,0,0,1-1.308,1.308h0a1.289,1.289,0,0,1-1.308-1.308v-.327a1.387,1.387,0,0,0-1.144-1.308,7.51,7.51,0,0,1-2.616-1.144,1.514,1.514,0,0,1-.49-1.962l.327-.49a1.315,1.315,0,0,1,1.8-.49,5.274,5.274,0,0,0,2.942.981c1.635,0,2.289-.654,2.289-1.962,0-2.779-7.356-2.779-7.356-7.847a5.032,5.032,0,0,1,3.269-4.9,1.424,1.424,0,0,0,.981-1.308v-.49A1.289,1.289,0,0,1,266.421,175h0a1.289,1.289,0,0,1,1.308,1.308v.327a1.424,1.424,0,0,0,.981,1.308,5.384,5.384,0,0,1,2.125,1.144,1.335,1.335,0,0,1,.163,1.962Z" transform="translate(-260.7 -175)" fill="#ffdc64"/>
        </g>
      </g>
      <path id="Path_5113" data-name="Path 5113" d="M266.5,198.307c4.25,4.25,3.269,12.26,3.269,12.26s-8.01.981-12.26-3.269-3.269-12.26-3.269-12.26S262.248,194.057,266.5,198.307Z" transform="translate(-248.053 -110.932)" fill="#00aeef" opacity="0.42"/>
      <path id="Path_5114" data-name="Path 5114" d="M268.507,198.307c-4.25,4.25-3.269,12.26-3.269,12.26s8.01.981,12.26-3.269,3.269-12.26,3.269-12.26S272.758,194.057,268.507,198.307Z" transform="translate(-241.072 -110.932)" fill="#00aeef" opacity="0.42"/>
      <path id="Path_5115" data-name="Path 5115" d="M277.132,234.265H263.073a4.723,4.723,0,0,1-4.577-3.76l-3.6-21.9h30.405l-3.6,21.9A4.866,4.866,0,0,1,277.132,234.265Z" transform="translate(-247.571 -102.262)" fill="#5968f6"/>
      <path id="Path_5116" data-name="Path 5116" d="M262.1,208.5c7.193,6.7,6.539,20.27-1.8,25.665h13.4a4.724,4.724,0,0,0,4.577-3.76l3.6-21.9Z" transform="translate(-244.144 -102.325)" fill="#3e56e5"/>
      <path id="Path_5117" data-name="Path 5117" d="M285.957,215.139H256.369a3.279,3.279,0,0,1-3.269-3.269h0a3.279,3.279,0,0,1,3.269-3.269h29.588a3.279,3.279,0,0,1,3.269,3.269h0A3.279,3.279,0,0,1,285.957,215.139Z" transform="translate(-248.714 -102.262)" fill="#5968f6"/>
    </g>
    <g id="Group_25128" data-name="Group 25128" transform="translate(1276.144 313.039)">
      <g id="Group_6997" data-name="Group 6997" transform="translate(0 3.304)">
        <path id="Path_9842" data-name="Path 9842" d="M86,99.849,5.482,97.976a2.794,2.794,0,0,0-2.861,2.732L0,213.309l.82-.783,2.5,2.618,2.618-2.5,2.5,2.618,2.618-2.5,2.5,2.618,2.618-2.5,2.5,2.618,2.618-2.5,2.5,2.618,2.618-2.5,2.5,2.618,2.618-2.5,2.5,2.618,2.618-2.5,2.5,2.618,2.618-2.5,2.5,2.618,2.618-2.5,2.5,2.618,2.618-2.5,2.5,2.618,2.618-2.5,2.5,2.618,2.618-2.5,2.5,2.618,2.618-2.5,2.5,2.618,2.618-2.5,2.5,2.618,2.618-2.5,2.5,2.618,2.618-2.5,2.5,2.618.891-.85,2.641-113.491A2.792,2.792,0,0,0,86,99.849Z" transform="translate(0 -97.976)" fill="#c6e4ef"/>
        <path id="Path_9843" data-name="Path 9843" d="M147.963,105.248a2.794,2.794,0,0,0-2.732-2.861L68.418,100.6,61.3,212.587l.853-.749,2.392,2.715,2.715-2.392,2.392,2.715,2.715-2.392,2.392,2.715,2.716-2.392,2.392,2.716,2.716-2.392,2.392,2.715,2.715-2.392,2.392,2.716,2.716-2.392,2.392,2.715.611-.536.074-.071,0,0,2.031-1.788,2.321,2.635.762-.729.1.111,1.919-1.69,2.226,2.527.867-.826.209.219,1.808-1.592,2.132,2.419.971-.928.31.324,1.7-1.494,2.037,2.314,1.073-1.025.415.432,1.585-1.4,1.943,2.206,1.177-1.123.516.54,1.474-1.3,1.849,2.1,1.278-1.221.617.648,1.363-1.2,1.754,1.99,1.383-1.319.722.756,1.251-1.1,1.66,1.886,1.488-1.42.823.864,1.14-1,1.565,1.778,1.589-1.518.928.972,1.029-.9,1.437,1.629Z" transform="translate(-59.232 -100.511)" fill="#bddce5"/>
        <path id="Path_68237" data-name="Path 68237" d="M147.963,105.248a2.794,2.794,0,0,0-2.732-2.861L68.418,100.6,61.3,212.587l.853-.749,2.392,2.715,2.715-2.392,2.392,2.715,2.715-2.392,2.392,2.715,2.716-2.392,2.392,2.716,2.716-2.392,2.392,2.715,2.715-2.392,2.392,2.716,2.716-2.392,2.392,2.715.611-.536.074-.071,0,0,2.031-1.788,2.321,2.635.762-.729.1.111,1.919-1.69,2.226,2.527.867-.826.209.219,1.808-1.592,2.132,2.419.971-.928.31.324,1.7-1.494,2.037,2.314,1.073-1.025.415.432,1.585-1.4,1.943,2.206,1.177-1.123.516.54,1.474-1.3,1.849,2.1,1.278-1.221.617.648,1.363-1.2,1.754,1.99,1.383-1.319.722.756,1.251-1.1,1.66,1.886,1.488-1.42.823.864,1.14-1,1.565,1.778,1.589-1.518.928.972,1.029-.9,1.437,1.629Z" transform="translate(-53.189 -100.511)" fill="#bddce5"/>
      </g>
      <path id="Path_9844" data-name="Path 9844" d="M135.55,114.307l2.392,2.715,2.715-2.392,2.392,2.716,2.715-2.392,2.392,2.715,2.716-2.392,2.392,2.716,2.716-2.392,2.392,2.715,2.715-2.392,2.392,2.716,2.715-2.392,2.392,2.716,2.715-2.392,2.392,2.716,2.716-2.392,2.392,2.716,2.715-2.392,2.392,2.715,2.716-2.392,2.392,2.716,2.715-2.392,2.392,2.716,2.715-2.392,2.392,2.716,2.715-2.392,2.392,2.715,2.715-2.392,2.392,2.715,2.716-2.392,2.392,2.715,2.715-2.392,2.392,2.716.924-.813L227.783,8.1a2.8,2.8,0,0,0-2.614-2.968L144.817.036a2.8,2.8,0,0,0-2.969,2.614l-7.148,112.4Z" transform="translate(-130.156 -0.031)" fill="#fff"/>
      <path id="Path_9845" data-name="Path 9845" d="M374.459,1394.836l-6.595-.418-19.12-1.218-.159,2.493-.091,1.407-2.149,33.811-.246,3.9,3.9.25,15.22.965,6.595.422,45.327,2.88,3.9.246.246-3.9,2.149-33.807.091-1.407.159-2.493Z" transform="translate(-334.425 -1346.204)" fill="#83b9fd"/>
      <path id="Path_9846" data-name="Path 9846" d="M456.719,1474.919l-48.957-3.114-7.121-.452-16.441-1.046,2.493-39.208,16.441,1.046,7.121.452,48.957,3.114Z" transform="translate(-371.24 -1382.826)" fill="#fff"/>
      <rect id="Rectangle_4365" data-name="Rectangle 4365" width="1.501" height="75.093" transform="translate(16.151 18.162) rotate(-86.362)" fill="#83b9fd"/>
      <rect id="Rectangle_4366" data-name="Rectangle 4366" width="1.501" height="75.093" transform="translate(13.54 59.289) rotate(-86.362)" fill="#83b9fd"/>
      <rect id="Rectangle_4367" data-name="Rectangle 4367" width="3.906" height="25.769" transform="translate(15.093 34.801) rotate(-86.362)" fill="#83b9fd"/>
      <rect id="Rectangle_4368" data-name="Rectangle 4368" width="3.906" height="25.769" transform="translate(14.657 41.716) rotate(-86.362)" fill="#83b9fd"/>
      <rect id="Rectangle_4369" data-name="Rectangle 4369" width="3.906" height="37.295" transform="translate(20.536 69.069) rotate(-86.362)" fill="#83b9fd"/>
      <rect id="Rectangle_4370" data-name="Rectangle 4370" width="3.906" height="8.106" transform="translate(72.435 72.366) rotate(-86.362)" fill="#83b9fd"/>
      <rect id="Rectangle_4371" data-name="Rectangle 4371" width="3.906" height="25.769" transform="translate(20.099 75.982) rotate(-86.362)" fill="#83b9fd"/>
      <g id="Group_7006" data-name="Group 7006" transform="translate(16.822 9.427)">
        <g id="Group_6998" data-name="Group 6998" transform="translate(22.631 1.434)">
          <path id="Path_9847" data-name="Path 9847" d="M1172.338,326.95l-1.95-.125.1-1.626,1.174.074a.392.392,0,0,0,.415-.368.4.4,0,0,0-.368-.418l-1.174-.074.1-1.626,1.95.125a.392.392,0,0,0,.415-.368.4.4,0,0,0-.368-.418l-2.328-.148h-.013a.392.392,0,0,0-.415.368l-.307,4.817a.4.4,0,0,0,.368.418h.013l2.328.148a.393.393,0,0,0,.415-.368A.387.387,0,0,0,1172.338,326.95Z" transform="translate(-1169.577 -321.977)" fill="#5968f6"/>
        </g>
        <g id="Group_6999" data-name="Group 6999" transform="translate(18.341 1.239)">
          <path id="Path_9848" data-name="Path 9848" d="M1044.274,316.988a.883.883,0,0,1,.823.938.4.4,0,0,0,.368.418.392.392,0,0,0,.415-.368,1.668,1.668,0,1,0-3.329-.213l-.145,2.274a1.668,1.668,0,1,0,3.329.213.392.392,0,0,0-.368-.415.4.4,0,0,0-.418.368.882.882,0,1,1-1.761-.111l.145-2.273A.891.891,0,0,1,1044.274,316.988Z" transform="translate(-1042.402 -316.202)" fill="#5968f6"/>
        </g>
        <g id="Group_7000" data-name="Group 7000">
          <path id="Path_9849" data-name="Path 9849" d="M499.4,279.478a.392.392,0,0,0-.415.368l-.307,4.817a.392.392,0,0,0,.368.415.4.4,0,0,0,.418-.368l.307-4.817A.4.4,0,0,0,499.4,279.478Z" transform="translate(-498.677 -279.477)" fill="#5968f6"/>
        </g>
        <g id="Group_7001" data-name="Group 7001" transform="translate(16.128 1.025)">
          <path id="Path_9850" data-name="Path 9850" d="M977.5,309.878a.4.4,0,0,0-.418.368l-.307,4.817a.4.4,0,0,0,.368.418.392.392,0,0,0,.415-.368l.307-4.817A.388.388,0,0,0,977.5,309.878Z" transform="translate(-976.777 -309.877)" fill="#5968f6"/>
        </g>
        <g id="Group_7003" data-name="Group 7003" transform="translate(11.737 0.821)">
          <g id="Group_7002" data-name="Group 7002">
            <path id="Path_9851" data-name="Path 9851" d="M848.522,303.806a1.673,1.673,0,0,0-1.771,1.559l-.145,2.274a1.668,1.668,0,0,0,3.329.209l.145-2.274A1.668,1.668,0,0,0,848.522,303.806Zm-.307,4.817a.88.88,0,0,1-.823-.934l.145-2.274a.882.882,0,1,1,1.761.115l-.145,2.274A.885.885,0,0,1,848.215,308.623Z" transform="translate(-846.602 -303.802)" fill="#5968f6"/>
          </g>
        </g>
        <g id="Group_7004" data-name="Group 7004" transform="translate(2.311 0.153)">
          <path id="Path_9852" data-name="Path 9852" d="M570.49,289.387l.307-4.814a.392.392,0,1,0-.783-.047l-.206,3.225-1.569-3.522a1.066,1.066,0,0,1-.007-.007c0-.01-.01-.02-.014-.03v0a.375.375,0,0,0-.2-.165h0a.558.558,0,0,0-.071-.02h-.007a.139.139,0,0,0-.037,0h-.057c-.01,0-.02,0-.03,0l-.014,0c-.01,0-.02,0-.03.007l-.014,0-.03.01s-.007,0-.01,0h0s-.007,0-.013.007a.083.083,0,0,0-.024.014h0a.39.39,0,0,0-.152.162.4.4,0,0,0-.027.067s0,0,0,.007h0a.725.725,0,0,0-.013.078l-.307,4.817a.392.392,0,0,0,.368.415.4.4,0,0,0,.418-.368L568.17,286l1.569,3.522a0,0,0,0,0,0,0,0,0,0,0,0,0,0,.138.138,0,0,0,.017.03v0a.376.376,0,0,0,.2.165h0a.558.558,0,0,0,.071.02h.007a.138.138,0,0,0,.037,0h.057c.01,0,.02,0,.03,0l.013,0c.01,0,.02,0,.03-.007l.014,0,.03-.01s.007,0,.01,0h0s.007,0,.01-.007a.085.085,0,0,0,.024-.014h0a.4.4,0,0,0,.165-.192l.01-.03A.291.291,0,0,0,570.49,289.387Z" transform="translate(-567.177 -284)" fill="#5968f6"/>
        </g>
        <g id="Group_7005" data-name="Group 7005" transform="translate(7.085 0.428)">
          <path id="Path_9853" data-name="Path 9853" d="M712.532,292.414a.4.4,0,0,0-.125-.03.394.394,0,0,0-.388.243L710.5,296.28l-1.039-3.815a.4.4,0,0,0-.354-.29.406.406,0,0,0-.128.014.384.384,0,0,0-.236.186.4.4,0,0,0-.037.3l1.343,4.922s0,.007,0,.01,0,0,0,.007l.01.03a0,0,0,0,0,0,0c0,.01.01.02.013.03h0a.318.318,0,0,0,.041.061l.007.007c.007.007.01.013.017.02s.007.007.007.01.014.01.017.017.007,0,.007.007l.027.02s.007,0,.007.007a.154.154,0,0,0,.024.013s.007,0,.01.007.017.01.027.013a0,0,0,0,1,0,0h0a.048.048,0,0,0,.02.007.012.012,0,0,1,.007,0c.007,0,.017,0,.024.007s.007,0,.007,0a.058.058,0,0,0,.024,0h.007c.01,0,.02,0,.03,0h.067l.024,0s.007,0,.007,0a.063.063,0,0,0,.024-.007h.007l.027-.01s.007,0,.01,0l.024-.01s.007,0,.01,0,.02-.01.03-.017.007,0,.007-.007.013-.01.02-.014.007,0,.01-.007.013-.01.02-.017l.007-.007a.363.363,0,0,0,.047-.054h0l.02-.03a0,0,0,0,1,0,0,.1.1,0,0,0,.013-.027s0,0,0-.007,0-.007,0-.01l1.953-4.713a.387.387,0,0,0,0-.3A.358.358,0,0,0,712.532,292.414Z" transform="translate(-708.696 -292.174)" fill="#5968f6"/>
        </g>
      </g>
      <g id="Group_7008" data-name="Group 7008" transform="translate(54.175 90.453)">
        <g id="Group_7007" data-name="Group 7007" transform="translate(6.273 2.7)">
          <path id="Path_9854" data-name="Path 9854" d="M1928.625,2784.589a.425.425,0,0,0-.425-.243c-.007,0-.013,0-.024,0a.417.417,0,0,0-.378.323l-.6,2.6a.427.427,0,0,0-.03.132l-.6,2.6a.4.4,0,0,0,.054.317.412.412,0,0,0,.263.185.472.472,0,0,0,.138.01.419.419,0,0,0,.368-.324l.55-2.375,1.2-.121,1.019,2.213a.42.42,0,0,0,.425.243.382.382,0,0,0,.135-.037.431.431,0,0,0,.219-.236.417.417,0,0,0-.013-.324Zm.135,2.3-.624.064.219-.944Z" transform="translate(-1922.011 -2783.574)" fill="#ef8f28"/>
          <path id="Path_9855" data-name="Path 9855" d="M2145.677,2761.528l-1.362.139a.421.421,0,0,0-.378.462l.53,5.157a.423.423,0,0,0,.462.378l1.363-.139a1.793,1.793,0,0,0,1.6-1.963l-.25-2.432A1.793,1.793,0,0,0,2145.677,2761.528Zm.527,5.158-.945.1-.442-4.318.941-.1a.949.949,0,0,1,1.039.846l.249,2.432A.943.943,0,0,1,2146.2,2766.685Z" transform="translate(-2132.061 -2761.518)" fill="#ef8f28"/>
          <path id="Path_9856" data-name="Path 9856" d="M2070.315,2773.437a.421.421,0,0,0-.378.462l.53,5.158a.422.422,0,1,0,.84-.084l-.53-5.158A.421.421,0,0,0,2070.315,2773.437Z" transform="translate(-2060.557 -2773.033)" fill="#ef8f28"/>
          <path id="Path_9857" data-name="Path 9857" d="M1794.926,2799.23a1.769,1.769,0,0,0-1.272-.371l-1.339.138a.421.421,0,0,0-.378.462l.52,5.077a.422.422,0,1,0,.84-.084l-.213-2.085.921-.094a1.809,1.809,0,0,0,1.184-.587,1.639,1.639,0,0,0,.408-1.211.112.112,0,0,0,0-.034l0-.033c0-.01,0-.024,0-.034A1.772,1.772,0,0,0,1794.926,2799.23Zm-1.009,2.2-.921.094-.179-1.734.921-.095a.928.928,0,0,1,1.012.81A.859.859,0,0,1,1793.917,2801.433Z" transform="translate(-1791.935 -2797.592)" fill="#ef8f28"/>
        </g>
        <path id="Path_9858" data-name="Path 9858" d="M1632.656,2691.671l-23.792,2.439a2.047,2.047,0,0,1-2.243-1.825l-.627-6.113a2.047,2.047,0,0,1,1.825-2.243l23.792-2.435a2.047,2.047,0,0,1,2.243,1.825l.628,6.113A2.046,2.046,0,0,1,1632.656,2691.671Zm-24.777-7.192a1.492,1.492,0,0,0-1.332,1.636l.627,6.112a1.492,1.492,0,0,0,1.636,1.332l23.792-2.439a1.492,1.492,0,0,0,1.333-1.636l-.628-6.113a1.492,1.492,0,0,0-1.636-1.333Z" transform="translate(-1605.983 -2681.483)" fill="#ef8f28"/>
      </g>
      <g id="Group_7009" data-name="Group 7009" transform="translate(15.172 87.834)">
        <path id="Path_9859" data-name="Path 9859" d="M536.086,2684.5a5.579,5.579,0,1,0,5.586,5.579A5.583,5.583,0,0,0,536.086,2684.5Zm0,10.305a4.726,4.726,0,1,1,4.733-4.726A4.728,4.728,0,0,1,536.086,2694.805Z" transform="translate(-527.777 -2681.779)" fill="#5968f6"/>
        <path id="Path_9860" data-name="Path 9860" d="M581.018,2731a4.012,4.012,0,1,0,4.018,4.01A4.015,4.015,0,0,0,581.018,2731Z" transform="translate(-572.708 -2726.711)" fill="#5968f6"/>
        <path id="Path_9861" data-name="Path 9861" d="M465.907,2612.149c-.044-.361.459-.627.466-.944.01-.411-.5-.361-.675-.854-.125-.341.3-.715.233-1.026-.084-.4-.57-.236-.853-.675-.2-.3.128-.766-.01-1.052-.175-.371-.611-.1-.985-.459-.266-.246-.054-.772-.253-1.021-.256-.321-.617.043-1.066-.219-.314-.179-.229-.739-.482-.937-.324-.253-.587.185-1.086.03-.347-.1-.395-.668-.685-.8-.374-.172-.53.317-1.049.28-.361-.021-.54-.557-.853-.621-.4-.081-.442.428-.958.516-.358.064-.651-.418-.972-.408-.412.013-.331.52-.813.722-.331.145-.732-.256-1.042-.172-.4.108-.2.584-.624.89-.29.219-.772-.081-1.052.071-.361.2-.064.615-.4,1.009-.233.28-.769.1-1.009.311-.307.273.081.611-.159,1.073-.162.324-.725.273-.907.536-.233.338.219.577.095,1.083-.081.355-.644.432-.762.729-.148.381.348.509.341,1.029,0,.361-.526.57-.57.884-.057.405.455.418.57.924.084.351-.381.675-.351.992.037.408.54.3.769.769.165.324-.216.746-.111,1.046.132.388.594.169.924.57.236.277-.037.772.132,1.046.219.348.617.027,1.032.341.293.216.142.762.371.985.293.29.607-.115,1.083.094.334.142.314.708.587.874.351.213.563-.253,1.076-.156.358.061.469.618.772.716.391.128.489-.374,1.012-.4.361-.024.6.492.918.52.408.034.391-.479.89-.621.347-.1.7.341,1.012.294.408-.064.27-.557.722-.81.314-.182.756.172,1.052.051.381-.156.132-.6.516-.955.263-.25.776-.007,1.036-.192.334-.236-.01-.617.28-1.049.2-.3.752-.186.965-.425.273-.307-.152-.6.034-1.086.121-.341.688-.354.84-.638.192-.364-.287-.546-.219-1.062.04-.361.59-.506.671-.813C466.47,2612.736,465.961,2612.666,465.907,2612.149Zm-7.829,6.814a6.821,6.821,0,1,1,6.831-6.821A6.826,6.826,0,0,1,458.077,2618.964Z" transform="translate(-449.768 -2603.843)" fill="#5968f6"/>
        <path id="Path_9862" data-name="Path 9862" d="M562.877,2716.974a.145.145,0,0,0,0-.206.15.15,0,0,0-.209,0,.145.145,0,0,0,0,.206A.149.149,0,0,0,562.877,2716.974Z" transform="translate(-558.818 -2712.917)" fill="#5968f6"/>
        <path id="Path_9863" data-name="Path 9863" d="M542.711,2740.763a.145.145,0,1,0,.169-.236.149.149,0,0,0-.206.034A.146.146,0,0,0,542.711,2740.763Z" transform="translate(-539.516 -2735.89)" fill="#5968f6"/>
        <path id="Path_9864" data-name="Path 9864" d="M510.02,2829.976a.146.146,0,1,0-.135-.155A.147.147,0,0,0,510.02,2829.976Z" transform="translate(-507.857 -2822.067)" fill="#5968f6"/>
        <path id="Path_9865" data-name="Path 9865" d="M526.394,2768.773a.147.147,0,1,0-.071-.2A.15.15,0,0,0,526.394,2768.773Z" transform="translate(-523.728 -2762.939)" fill="#5968f6"/>
        <path id="Path_9866" data-name="Path 9866" d="M526.178,2921.923a.147.147,0,1,0,.2.071A.151.151,0,0,0,526.178,2921.923Z" transform="translate(-523.519 -2911.181)" fill="#5968f6"/>
        <path id="Path_9867" data-name="Path 9867" d="M510.179,2860.82a.147.147,0,1,0-.135.159A.148.148,0,0,0,510.179,2860.82Z" transform="translate(-507.857 -2852.02)" fill="#5968f6"/>
        <path id="Path_9868" data-name="Path 9868" d="M542.311,2950.132a.146.146,0,1,0,.2.037A.142.142,0,0,0,542.311,2950.132Z" transform="translate(-539.129 -2938.424)" fill="#5968f6"/>
        <path id="Path_9869" data-name="Path 9869" d="M515.57,2892.76a.147.147,0,1,0,.179.1A.145.145,0,0,0,515.57,2892.76Z" transform="translate(-513.245 -2883.009)" fill="#5968f6"/>
        <path id="Path_9870" data-name="Path 9870" d="M562.268,2973.968a.146.146,0,1,0,.206,0A.145.145,0,0,0,562.268,2973.968Z" transform="translate(-558.432 -2961.441)" fill="#5968f6"/>
        <path id="Path_9871" data-name="Path 9871" d="M515.838,2797.759a.146.146,0,1,0-.074.283.146.146,0,0,0,.179-.1A.149.149,0,0,0,515.838,2797.759Z" transform="translate(-513.432 -2791.213)" fill="#5968f6"/>
        <path id="Path_9872" data-name="Path 9872" d="M796.469,2696.571a.147.147,0,0,0,.206-.037.142.142,0,0,0-.037-.2.147.147,0,0,0-.206.037A.143.143,0,0,0,796.469,2696.571Z" transform="translate(-784.712 -2693.186)" fill="#5968f6"/>
        <path id="Path_9873" data-name="Path 9873" d="M769.578,2680.973a.147.147,0,1,0-.071-.2A.149.149,0,0,0,769.578,2680.973Z" transform="translate(-758.708 -2678.101)" fill="#5968f6"/>
        <path id="Path_9874" data-name="Path 9874" d="M739.07,2669.849a.146.146,0,1,0-.1-.178A.147.147,0,0,0,739.07,2669.849Z" transform="translate(-729.206 -2667.344)" fill="#5968f6"/>
        <path id="Path_9875" data-name="Path 9875" d="M821.574,2717.474a.146.146,0,1,0-.206,0A.145.145,0,0,0,821.574,2717.474Z" transform="translate(-808.791 -2713.401)" fill="#5968f6"/>
        <path id="Path_9876" data-name="Path 9876" d="M614.8,2680.673a.147.147,0,1,0-.2-.071A.15.15,0,0,0,614.8,2680.673Z" transform="translate(-609.034 -2677.811)" fill="#5968f6"/>
        <path id="Path_9877" data-name="Path 9877" d="M645.345,2669.649a.147.147,0,1,0-.179-.1A.147.147,0,0,0,645.345,2669.649Z" transform="translate(-638.57 -2667.15)" fill="#5968f6"/>
        <path id="Path_9878" data-name="Path 9878" d="M708.3,2664.447v.044l0,0v0l0,0v0l0,0h0l0,0v0l0,0a0,0,0,0,0,0,0l0,0,0,0,0,0,0,0,0,0,0,0,0,0,0,0,0,0,0,0,0,0h0l0,0,0,0a0,0,0,0,1,0,0l0,0,0,0,0,0,0,0h.007l0,0h.01l.041.01h.081a0,0,0,0,0,0,0l0,0h0l0,0,0,0,0,0,0,0,0,0,0,0,0,0,0,0,0,0,0,0,0,0a0,0,0,0,1,0,0l0,0,0,0,0,0,0,0a0,0,0,0,1,0,0v0a0,0,0,0,1,0,0l0,0v0l0,0v-.007l0,0v-.115l0,0v0l0,0v0l0,0,0,0v0l0,0,0,0,0,0,0,0,0,0,0,0,0,0,0,0,0,0,0,0,0,0,0,0,0,0,0,0,0,0,0,0,0,0,0,0,0,0,0,0,0,0h-.142a0,0,0,0,0,0,0h0l0,0,0,0,0,0,0,0,0,0,0,0,0,0,0,0,0,0,0,0,0,0,0,0,0,0,0,0,0,0,0,0,0,0v0l0,0,0,0,0,0,0,0v0l0,0v.068h0Z" transform="translate(-699.58 -2662.256)" fill="#5968f6"/>
        <path id="Path_9879" data-name="Path 9879" d="M675.9,2664.157v.041l0,0v0l0,0v0l0,0v0l0,0,0,0,0,0,0,0,0,0,0,0,0,0,0,0,0,0,0,0,0,0,0,0s0,0,0,0l0,0,0,0,0,0,0,0,0,0,0,0h0l0,0h.135a0,0,0,0,0,0,0l0,0h0l0,0h0l0,0,0,0,0,0,0,0,0,0,0,0,0,0,0,0,0,0,0,0a0,0,0,0,0,0,0l0,0,0,0v0l0,0,0,0,0,0v0l0,0v0l0,0v-.01h0v0h0v-.091h0v-.024l0,0v0l0,0,0,0v0l0,0,0,0,0,0,0,0,0,0,0,0,0,0,0,0,0,0,0,0,0,0,0,0,0,0,0,0,0,0,0,0h0l0,0h-.007l0,0h0l0,0h-.067A.126.126,0,0,0,676,2664h-.017l0,0,0,0h-.007l0,0,0,0,0,0,0,0,0,0,0,0,0,0,0,0,0,0,0,0,0,0,0,0,0,0,0,0,0,0,0,0,0,0,0,0v0l0,0,0,0,0,0v0l0,0v.014h0v.054Z" transform="translate(-668.271 -2661.967)" fill="#5968f6"/>
        <path id="Path_9880" data-name="Path 9880" d="M587.934,2696.214a.144.144,0,0,0,.037-.2.147.147,0,0,0-.2-.037.143.143,0,0,0-.037.2A.15.15,0,0,0,587.934,2696.214Z" transform="translate(-583.052 -2692.842)" fill="#5968f6"/>
        <path id="Path_9881" data-name="Path 9881" d="M873.585,2830.544a.147.147,0,1,0,.135-.158A.148.148,0,0,0,873.585,2830.544Z" transform="translate(-859.288 -2822.743)" fill="#5968f6"/>
        <path id="Path_9882" data-name="Path 9882" d="M873.744,2861.485a.146.146,0,1,0,.132.158A.145.145,0,0,0,873.744,2861.485Z" transform="translate(-859.288 -2852.794)" fill="#5968f6"/>
        <path id="Path_9883" data-name="Path 9883" d="M857.3,2922.607a.147.147,0,1,0,.071.2A.144.144,0,0,0,857.3,2922.607Z" transform="translate(-843.353 -2911.841)" fill="#5968f6"/>
        <path id="Path_9884" data-name="Path 9884" d="M868.244,2798.649a.146.146,0,1,0-.179-.1A.145.145,0,0,0,868.244,2798.649Z" transform="translate(-853.951 -2791.799)" fill="#5968f6"/>
        <path id="Path_9885" data-name="Path 9885" d="M857.6,2769.474a.147.147,0,1,0-.2-.071A.151.151,0,0,0,857.6,2769.474Z" transform="translate(-843.643 -2763.616)" fill="#5968f6"/>
        <path id="Path_9886" data-name="Path 9886" d="M841.48,2741.313a.146.146,0,0,0,.037-.2.15.15,0,0,0-.206-.038.147.147,0,1,0,.169.24Z" transform="translate(-828.043 -2736.42)" fill="#5968f6"/>
        <path id="Path_9887" data-name="Path 9887" d="M867.964,2893.642a.147.147,0,0,0,.074-.284.147.147,0,1,0-.074.284Z" transform="translate(-853.751 -2883.587)" fill="#5968f6"/>
        <path id="Path_9888" data-name="Path 9888" d="M841.032,2950.727a.147.147,0,1,0-.172.239.147.147,0,0,0,.206-.037A.145.145,0,0,0,841.032,2950.727Z" transform="translate(-827.609 -2938.999)" fill="#5968f6"/>
        <path id="Path_9889" data-name="Path 9889" d="M614.2,3010.507a.147.147,0,1,0,.071.2A.147.147,0,0,0,614.2,3010.507Z" transform="translate(-608.454 -2996.776)" fill="#5968f6"/>
        <path id="Path_9890" data-name="Path 9890" d="M707.8,3027.086a.146.146,0,1,0,.027.29.147.147,0,0,0,.135-.159A.152.152,0,0,0,707.8,3027.086Z" transform="translate(-698.968 -3012.808)" fill="#5968f6"/>
        <path id="Path_9891" data-name="Path 9891" d="M675.343,3027.085a.146.146,0,1,0,.131.158A.144.144,0,0,0,675.343,3027.085Z" transform="translate(-667.58 -3012.808)" fill="#5968f6"/>
        <path id="Path_9892" data-name="Path 9892" d="M644.738,3021.659a.146.146,0,1,0-.074.283.146.146,0,1,0,.074-.283Z" transform="translate(-637.984 -3007.561)" fill="#5968f6"/>
        <path id="Path_9893" data-name="Path 9893" d="M587.238,2994.832a.147.147,0,0,0-.206.037.143.143,0,0,0,.037.2.147.147,0,1,0,.169-.24Z" transform="translate(-582.376 -2981.617)" fill="#5968f6"/>
        <path id="Path_9894" data-name="Path 9894" d="M795.869,2995.274a.143.143,0,0,0-.037.2.147.147,0,0,0,.206.037.144.144,0,0,0,.037-.2A.15.15,0,0,0,795.869,2995.274Z" transform="translate(-784.132 -2982.045)" fill="#5968f6"/>
        <path id="Path_9895" data-name="Path 9895" d="M820.868,2974.468a.144.144,0,0,0,0,.205.149.149,0,0,0,.209,0,.144.144,0,0,0,0-.205A.148.148,0,0,0,820.868,2974.468Z" transform="translate(-808.308 -2961.924)" fill="#5968f6"/>
        <path id="Path_9896" data-name="Path 9896" d="M768.978,3010.723a.147.147,0,1,0,.2.071A.15.15,0,0,0,768.978,3010.723Z" transform="translate(-758.129 -2996.985)" fill="#5968f6"/>
        <path id="Path_9897" data-name="Path 9897" d="M738.37,3021.765a.147.147,0,1,0,.179.105A.148.148,0,0,0,738.37,3021.765Z" transform="translate(-728.529 -3007.663)" fill="#5968f6"/>
      </g>
    </g>
    <g id="Group_25130" data-name="Group 25130" transform="translate(1418.334 326.241)">
      <g id="Group_6895" data-name="Group 6895" transform="translate(10.245 114.737)">
        <path id="Path_68235" data-name="Path 68235" d="M22.942,3.56l-.1,7.421a5.9,5.9,0,0,0,.729,1.56l2.683,3.981a4.535,4.535,0,0,1-2.442,6.868s-5.4,1.9-10.936,3.733C7.174,29,0,27.428,0,25.926c0-3.346,3.12-.729,8.341-4.185C10.09,20.575,11.9,19.35,13.5,18.1A19.679,19.679,0,0,0,16.572,5.8c-.462-.856,1.526-2.633,1.935-3.515S17.5.651,18.456.451l2.37-.4c1.906-.4,1.549,1.646,2.115,3.509Z" transform="translate(3 143.628) rotate(-16)" fill="#fab9af"/>
        <path id="Path_5075" data-name="Path 5075" d="M389.182,281.253l-1.308-7.847a47.128,47.128,0,0,1-.49-9.645c5.068-63.1-14.876-66.041-12.26-38.579,1.962,21.251,4.577,39.4,5.558,46.262a24.753,24.753,0,0,1,.163,6.048h0l-1.144,7.356a20.9,20.9,0,0,1-.981,3.76c0,.327-.164.49-.164.817v.49a3.1,3.1,0,0,0,3.106,3.106h7.356a3.164,3.164,0,0,0,2.779-1.635,3.122,3.122,0,0,0,0-2.942A42.436,42.436,0,0,1,389.182,281.253Z" transform="translate(-340.417 -122.962)" fill="#fab9af"/>
        <path id="Path_68230" data-name="Path 68230" d="M326.97,428.1l-33.315-3.978s-6.467,27.249,2.667,74.864c4.284,22.33,13.43,69.519,13.43,69.519,2.113.976,5.386-1.15,7.644-1.712,0,0,.029-20.024,0-41.252.4-19.442.5-40.215,1.741-47.027C321.65,464.643,326.97,428.1,326.97,428.1Z" transform="translate(-290.077 -423.328)" fill="#1e2d64"/>
        <path id="Path_68231" data-name="Path 68231" d="M297.9,561.116c-.558-4.166-3.236-37.814-6.3-48.968-4.166-15.174,7.789-32.184,4.108-43.162-10.824-32.25-2.6-39.319-2.6-39.319l14.409-.478s-5.32,36.541-7.848,50.429c-1.242,6.8-1.345,27.569-1.742,47.027C297.637,540.739,298.132,554.268,297.9,561.116Z" transform="translate(-270.626 -424.417)" fill="#0f1446"/>
        <path id="Path_68232" data-name="Path 68232" d="M247.364,426.621c-7.838,22.635-.111,49.148,1.812,78.541s7.889,62.517,7.889,62.517c2.177.035,6.647,1.387,8.325,0,0,0,5.888-40.1,6.486-56.764a376.565,376.565,0,0,0-1.359-73.793C268.9,422.415,249.325,416.092,247.364,426.621Z" transform="translate(-217.935 -421.392)" fill="#1e2d64"/>
      </g>
      <g id="Group_25129" data-name="Group 25129" transform="translate(0 0)">
        <path id="Path_68188" data-name="Path 68188" d="M348.238,225.577c1.206,6.988,7.616,31.6,14.118,41.906.98,1.551,2.839,3.211,4.286,2.961,5.527-.954,1.635-35.981,0-45.446s-5.566-16.113-11.093-15.159S346.6,216.113,348.238,225.577Z" transform="translate(-294.247 -162.162)" fill="#fff"/>
        <path id="Path_68193" data-name="Path 68193" d="M368.219,278.757l8.413-58.887c0-3.518-1.509-7-4.57-8.73l-4.694-1.406a81.841,81.841,0,0,0-39.2-1.928l-7.476,1.87c-3.316,1.753-6.317,5.014-6.175,8.762,0,0-1.829,45.239,11.6,60.319S368.219,278.757,368.219,278.757Z" transform="translate(-307.974 -163.588)" fill="#dfe6f2"/>
        <path id="Path_68194" data-name="Path 68194" d="M360.93,293.688c1.948-8.019,5.387-74.237,5.387-74.237.611-3.9-.817-6.95-5.387-8.73l-4.694-1.406a79.309,79.309,0,0,0-8.37-2.013c-.075,3.965-4.107,26.363-5.426,43.375-.762,7.256-5.845,31.571-3.689,40.976C339.076,293.087,358.982,301.706,360.93,293.688Z" transform="translate(-296.842 -163.169)" fill="#fac855"/>
        <path id="Path_68195" data-name="Path 68195" d="M341.08,292.385c.426-24.353-1.225-64.547-5.412-85.79-2.514.241-5.02.6-7.51,1.083l-7.476,1.87c-3.316,1.753-6.317,5.014-6.175,8.762,0,0-.374,55.893,2.4,72.29S341.08,292.385,341.08,292.385Z" transform="translate(-307.966 -163.461)" fill="#fac855"/>
        <g id="Group_25123" data-name="Group 25123" transform="translate(27.359)">
          <path id="Path_68192" data-name="Path 68192" d="M342.126,178.764c-7.283.464-16.513-3.575-13.212,15.317.138.792.312,1.565.505,2.327h-.009l1.384,5.753a2.437,2.437,0,0,0,1.881,1.8c2.27,3.3,5.426,5.435,9.451,5.435s7.084-2.15,9.321-5.46a2.449,2.449,0,0,0,1.689-1.692l1.494-5.375h0c.267-.909.506-1.839.71-2.789C358.348,180.05,354.014,178.005,342.126,178.764Z" transform="translate(-328.087 -172.455)" fill="#0f1446"/>
          <path id="Path_68196" data-name="Path 68196" d="M346.461,196.316H334.012a9.9,9.9,0,0,1,.582,5.5l-1.193,6.408c-.732,5.914,1.98,11.506,5.362,12.414,1.675.45,3.327-2.711,4.707-3.965,1.641-1.49,1.633-4.426,1.191-6.876l-.481-1.765C343.536,205.669,346.461,196.316,346.461,196.316Z" transform="translate(-326.68 -167.524)" fill="#fab9af"/>
          <path id="Path_68197" data-name="Path 68197" d="M333.369,190.45c.121,1.945.23,4.393-1.478,4.5s-3.643-3.33-3.765-5.275.946-2.492,2.655-2.6S333.249,188.5,333.369,190.45Z" transform="translate(-328.117 -170.101)" fill="#fa968c"/>
          <path id="Path_68198" data-name="Path 68198" d="M345.81,190.45c-.12,1.945-.23,4.393,1.478,4.5s3.643-3.33,3.765-5.275-.946-2.492-2.655-2.6S345.932,188.5,345.81,190.45Z" transform="translate(-323.201 -170.101)" fill="#fa968c"/>
          <path id="Path_68199" data-name="Path 68199" d="M344,207.847c-.478-2.6,2.31-11.531,2.31-11.531H333.865a9.9,9.9,0,0,1,.582,5.5l-.652,3.5a11.139,11.139,0,0,0,1.5,1.653C337.136,208.591,341.4,208.611,344,207.847Z" transform="translate(-326.534 -167.524)" fill="#fa968c"/>
          <path id="Path_68200" data-name="Path 68200" d="M352.915,192.8c0,12.13-5.6,17.478-6.641,18.064-2.174,1.228-7.792,1.555-9.98-.37-3.3-2.9-6.088-9.784-6.088-17.564,0-10.074,5.477-14.194,11.444-14.194S352.915,182.724,352.915,192.8Z" transform="translate(-327.534 -172.425)" fill="#fab9af"/>
          <path id="Path_68201" data-name="Path 68201" d="M341.186,196.758a1.826,1.826,0,0,1-2,2.018h0a1.828,1.828,0,0,1-1.636-1.9l.8-7.714a1.089,1.089,0,0,1,1.194-.969.877.877,0,0,1,.781.775Z" transform="translate(-325.489 -169.79)" fill="#fa968c"/>
          <path id="Path_68202" data-name="Path 68202" d="M359.679,176.127a1.855,1.855,0,0,0-1.94-2.321l-2.537.2a1.99,1.99,0,0,0-1.711,1.293l-.614,1.661a.4.4,0,0,1-.746.014l-.639-1.543a1.989,1.989,0,0,0-1.98-1.223l-10.506.751c-.271.008-.527,0-.818.026-.106.01-.191.041-.293.055l-.226.015-.009.027a6.773,6.773,0,0,0-4.844,3.384,16.223,16.223,0,0,0-1.4,1.132,9.886,9.886,0,0,0-2.734,4.809,9.236,9.236,0,0,0,1.537,7.492,3.093,3.093,0,0,1,.486,1.751v3.28a.568.568,0,0,0,1.136.026l.095-2.054c.1-2.215,2.385-7.612,3.428-8.558a1.782,1.782,0,0,1,2.055-.242l2.948,1.62a4.487,4.487,0,0,0,3.532.339l3.128-1.005a3.792,3.792,0,0,1,4.179,1.22,1.783,1.783,0,0,1,.146.216,9.507,9.507,0,0,1,1.16,4.624v4.07a.568.568,0,1,0,1.136,0v-2.061a3.068,3.068,0,0,1,.674-1.907,11.544,11.544,0,0,0,2.065-4.566h0Z" transform="translate(-328.033 -173.8)" fill="#0f1446"/>
          <g id="Group_25111" data-name="Group 25111" transform="translate(4.561 20.154)">
            <g id="Group_25110" data-name="Group 25110">
              <path id="Rectangle_6090" data-name="Rectangle 6090" d="M.485,0H7.119A.485.485,0,0,1,7.6.485V2.552A2.143,2.143,0,0,1,5.461,4.7H1.3A1.3,1.3,0,0,1,0,3.4V.485A.485.485,0,0,1,.485,0Z" fill="none" stroke="#fff" stroke-miterlimit="10" stroke-width="0.29"/>
              <path id="Rectangle_6091" data-name="Rectangle 6091" d="M1.3,0H5.461A2.143,2.143,0,0,1,7.6,2.143V4.21a.485.485,0,0,1-.485.485H.485A.485.485,0,0,1,0,4.21V1.3A1.3,1.3,0,0,1,1.3,0Z" transform="translate(18.643 4.695) rotate(180)" fill="none" stroke="#fff" stroke-miterlimit="10" stroke-width="0.29"/>
            </g>
            <path id="Path_68203" data-name="Path 68203" d="M337.377,192.192a2.041,2.041,0,0,1,4.082,0" transform="translate(-330.096 -189.397)" fill="none" stroke="#fff" stroke-linecap="round" stroke-miterlimit="10" stroke-width="0.29"/>
          </g>
        </g>
        <path id="Path_68206" data-name="Path 68206" d="M325.846,260.156c-1.652-.405-2.089-2.329-1.53-3.936,2.65-7.607,7.341-26.983,8.192-31.853,1.654-9.461-1.755-14.787-7.28-15.753s-9.47,5.675-11.123,15.136c-1.283,7.334-4.129,42.369-4.152,42.9,3.133,4.841,8.1,3.789,14.362,4.134,3.68.2,9.569-8.788,19.185-8.62.639-1.815.628,2.538,0,.6C335.959,260.478,331.312,261.5,325.846,260.156Z" transform="translate(-309.842 -162.668)" fill="#fff"/>
        <path id="Path_68207" data-name="Path 68207" d="M341.313,216.855c-3.313-2.967-4.908-7.764-5.886-11.621L330.207,207c1.11,5.768,2.35,11.58,6.367,15.065a.637.637,0,0,0,.918-.11Z" transform="translate(-301.501 -164.05)" fill="#fff"/>
        <path id="Path_68208" data-name="Path 68208" d="M338.048,216.627a14.671,14.671,0,0,0,5.39-10.911l5.243,1.667c-.889,4.821-2.662,10.607-6.111,14.07a.635.635,0,0,1-.949-.08Z" transform="translate(-298.273 -163.822)" fill="#fff"/>
        <path id="Path_68209" data-name="Path 68209" d="M338.643,216.582s-3.522,27.7-4,31.989c-.349,3.135,1.955,8.056,3.214,10.469a.8.8,0,0,0,1.446-.051l3.219-7.205a5,5,0,0,0,.423-2.341l-2.019-32.861Z" transform="translate(-299.689 -159.349)" fill="#1e2d64"/>
        <rect id="Rectangle_6099" data-name="Rectangle 6099" width="15.864" height="3.275" rx="1.47" transform="matrix(1, 0.007, -0.007, 1, 49.036, 66.999)" fill="#ffa50a"/>
        <path id="Path_68212" data-name="Path 68212" d="M340.148,218.222h-2.7a.634.634,0,0,1-.635-.634v-3.142a.634.634,0,0,1,.635-.634l1.142-.367,1.556.367a.634.634,0,0,1,.634.634v3.142A.634.634,0,0,1,340.148,218.222Z" transform="translate(-298.781 -160.641)" fill="#0f1446"/>
        <path id="Path_68233" data-name="Path 68233" d="M1.481,0H11.912a1.481,1.481,0,0,1,1.481,1.481V9.551c0,.818-3.833,4.271-4.651,4.271L3.7,13.42c-.818,0-3.7-3.052-3.7-3.869V1.481A1.481,1.481,0,0,1,1.481,0Z" transform="matrix(0.994, 0.112, -0.112, 0.994, 47.728, 111.83)" fill="#ffa50a"/>
        <path id="Path_68234" data-name="Path 68234" d="M1.481,0H11.912a1.481,1.481,0,0,1,1.481,1.481V9.551c0,.818-3.833,4.271-4.651,4.271L3.7,13.42c-.818,0-3.7-3.052-3.7-3.869V1.481A1.481,1.481,0,0,1,1.481,0Z" transform="matrix(0.995, -0.097, 0.097, 0.995, 13.037, 113.219)" fill="#ffa50a"/>
        <path id="Path_68228" data-name="Path 68228" d="M404.146,108.65c-6.316-1.263-46.919-7.038-47.641-3.429s38.8,14.978,45.115,16.241,9.925-1.083,10.647-4.692S410.642,109.914,404.146,108.65Z" transform="translate(-338.671 -10.175)" fill="#fa968c"/>
        <path id="Path_68229" data-name="Path 68229" d="M406.859,108.851a19.733,19.733,0,0,0-2.707-5.594c-1.083-1.263-5.955-.18-8.662.722a17.8,17.8,0,0,1-4.331.541c-10.647-.541-31.039-.18-35.731.722-6.316,1.263-9.564,6.316-8.662,9.745,1.263,5.594,4.692,6.857,11.008,5.594,4.511-.9,23.279-6.857,33.565-11.549a15.316,15.316,0,0,1,8.482-1.263Z" transform="translate(-346.618 -11.278)" fill="#fab9af"/>
      </g>
    </g>
    <g id="Group_6897" data-name="Group 6897" transform="translate(1154.132 331.834)">
      <path id="Path_5119" data-name="Path 5119" d="M257.957,133.894a1.042,1.042,0,0,0,.981,0l4.741-.981a5.759,5.759,0,0,1,5.068,1.471c2.125,2.125,4.9,5.231,3.76,6.375s-4.577-1.962-6.212-3.433a1.951,1.951,0,0,0-2.125-.327l-1.308.49a14.129,14.129,0,0,0-5.394,4.9l-.654,1.635-6.375-5.721a1.782,1.782,0,0,1-.327-2.289l1.635-2.616a1.788,1.788,0,0,1,2.125-.654Z" transform="translate(-137.807 -3.609)" fill="#fab9af"/>
      <path id="Path_5121" data-name="Path 5121" d="M218.765,91.906c-.981-2.452-2.942-9.972-1.962-11.606,0,0,8.991,1.144,12.751,7.847,4.087,7.52,10.626,34,13.241,45.444a16.036,16.036,0,0,0,5.721,9.154l27.626,22.886a10.787,10.787,0,0,1-3.76,7.356l-36.944-21.251C227.593,148.3,221.871,99.753,218.765,91.906Z" transform="translate(-158.935 -36.817)" fill="#fab9af"/>
      <path id="Path_5122" data-name="Path 5122" d="M226.388,125.486c5.068-.163,9.808-2.125,13.568-8.5-2.942-11.606-6.866-24.03-9.318-29.1C226.552,79.551,216.58,80.2,216.58,80.2c-.981,1.8,1.8,8.991,2.942,11.606C221.157,96.061,223.446,111.1,226.388,125.486Z" transform="translate(-159.039 -36.885)" fill="#fff"/>
      <path id="Path_5123" data-name="Path 5123" d="M226.448,125.131a12.636,12.636,0,0,0,5.558-1.144c-3.106-9.481-5.885-33.348-6.539-36.617-1.635-8.991-8.991-6.212-8.991-6.212-.981,1.8,1.962,7.683,2.942,10.462C221.217,95.706,223.506,110.745,226.448,125.131Z" transform="translate(-159.099 -36.53)" fill="#1e2d64"/>
      <path id="Path_5124" data-name="Path 5124" d="M244.491,166.21l-3.923-78.138a7.632,7.632,0,0,0-6.375-6.375l-26.319-3.6L191.2,165.065Z" transform="translate(-175.016 -38.214)" fill="#fab9af"/>
      <path id="Path_5125" data-name="Path 5125" d="M211.387,211.647v9.318a20.759,20.759,0,0,1-.817,5.558l-.817,2.942a3.783,3.783,0,0,0,3.6,4.741h20.107a.915.915,0,0,0,.981-.817c.163-2.779-7.683-4.577-13.568-6.866-4.577-1.8-4.25-9.972-3.76-14.712A2.838,2.838,0,0,0,214,208.7h0A2.876,2.876,0,0,0,211.387,211.647Z" transform="translate(-163.327 44.672)" fill="#fab9af"/>
      <path id="Path_5126" data-name="Path 5126" d="M188.866,209.741,185.6,220.53a3.286,3.286,0,0,1-.654,1.308l-2.289,3.433a3.931,3.931,0,0,0,2.125,5.885s4.577,1.635,9.318,3.106c4.9,1.635,10.952.327,10.952-.981,0-2.779-2.616-.654-7.193-3.6-1.471-.981-3.106-2.125-4.414-3.106-3.76-2.942-.49-10.625,1.8-14.876a2.564,2.564,0,0,0-1.8-3.76l-1.144-.163C190.991,207.126,189.356,208.106,188.866,209.741Z" transform="translate(-180.855 43.963)" fill="#fab9af"/>
      <path id="Path_5127" data-name="Path 5127" d="M204.1,132.461l32.676-1.65s4.758,38.1-4.232,84.692c-4.25,21.9-11.443,50.021-11.443,50.021a10.1,10.1,0,0,1-6.539.654s-.654-18.472-1.144-38.252c-.327-18.962-.49-39.4-1.635-45.935C209.168,168.1,204.1,132.461,204.1,132.461Z" transform="translate(-166.829 -4.138)" fill="#25377a"/>
      <path id="Path_5128" data-name="Path 5128" d="M215.826,183.259c8.337-20.924-5.139-36.843-5.139-36.843s-1.4,17.554,1.053,31.122C212.556,181.788,211.739,193.885,215.826,183.259Z" transform="translate(-166.785 -6.223)" fill="#1e2d64"/>
      <path id="Path_5129" data-name="Path 5129" d="M220.836,136.258c3.6,19.616,5.721,62.936,0,77.648-11.606,29.424-29.751,54.435-29.751,54.435a8.218,8.218,0,0,1-5.885-2.125s2.779-12.424,6.7-26.972c4.577-16.674,10.3-36.29,8.664-46.425-3.106-19.126-6.526-47.788-5.545-60.211C196.165,120.02,218.875,125.959,220.836,136.258Z" transform="translate(-178.825 -6.954)" fill="#25377a"/>
      <path id="Path_5130" data-name="Path 5130" d="M226.569,180.559c8.991,0,9.165-1.139,12.435-2.283,2.452-.981,6.741-2.593,6.578-5.372l-4.464-87.157c-.327-1.8-2.616-3.269-4.414-3.6L208.1,77.9l-16.841,85.375a7.838,7.838,0,0,0,3.927,8.457A63.072,63.072,0,0,0,226.569,180.559Z" transform="translate(-175.076 -38.341)" fill="#25377a"/>
      <path id="Path_5131" data-name="Path 5131" d="M193.837,155.693c-.49-2.125-.817-4.25-.981-5.068a9.127,9.127,0,0,0-.817-1.308,5.664,5.664,0,0,1-1.308-2.616v-3.6c0-1.8-.817-3.106-2.616-3.106h0c-1.8,0-2.779,1.635-2.452,3.433v2.452a10.562,10.562,0,0,1-.817,4.414c-.817,2.942-.163,6.375.654,8.991.49,1.635,2.779,2.779,5.721,3.923,1.471.654,3.923,1.144,2.942-.654-.817-1.471-5.068-3.6-3.76-8.173,0-.163.327-.817.49-.817.817,0,.981,1.962,1.471,2.779.654,1.308,1.471,1.8,2.125,1.635C194.981,157.982,194.327,157.164,193.837,155.693Z" transform="translate(-179.288 1.074)" fill="#fab9af"/>
      <g id="Group_25131" data-name="Group 25131" transform="translate(104.574 108.689)">
        <g id="Group_24348" data-name="Group 24348">
          <path id="Path_65791" data-name="Path 65791" d="M173.692,35.446c-.125,2.117-.925,4.873-3.207,6.106a11.946,11.946,0,0,1-3.768,1.438,5.061,5.061,0,0,0-3.5,1.522c-.624.807-14.559,23.01-14.772,23.385a4.029,4.029,0,0,0,.1,3.185,8.139,8.139,0,0,1-.565,6.5c-.814,1.579-2.588,3.806-4.829,3.545a2.9,2.9,0,0,1,.07-.578,3.358,3.358,0,0,0,3.072-1.726c1.418-2.168,2.124-4.474,1.471-6.537a5.73,5.73,0,0,0-5.532-4.333c-1.968-.054-4.96.378-6.115,2.711-1.562,3.155-1.572,5.966.542,8.407-.042.156-.172.466-.172.466s-3.041-2.035-1.818-7.044a6.229,6.229,0,0,1,5.285-5.064c2.319-.5,2.959-1.313,3.622-2.368,1.658-2.639,13.932-22.309,14.2-22.936s.494-1.633-.2-3.648a10.37,10.37,0,0,1-.293-5.624c1.79-5.888,6.29-6.259,6.29-6.259s-.085.28-.214.727c-.125.045-.248.083-.374.138-3.606,1.575-5.165,4.264-4.918,8.428.175,2.961,3.1,4.584,5.191,5.4a6.626,6.626,0,0,0,7.866-1.765c1.6-1.875,1.893-5.111,1.368-8.014a3.472,3.472,0,0,0-1.5-2.462c.086-.326.195-.826.195-.826C173.647,29.311,173.816,33.329,173.692,35.446Z" transform="translate(-134.381 -26.589)" fill="#3e56e5"/>
          <path id="Path_65792" data-name="Path 65792" d="M174.706,92.374c1.155-2.333,4.147-2.765,6.115-2.711A5.73,5.73,0,0,1,186.353,94c.653,2.063-.054,4.369-1.471,6.537a3.358,3.358,0,0,1-3.072,1.726c.247-.938.819-3.192,1.107-4.379.223-.919-1.157-1.995-2.882-2.378-2.029-.452-2.93-.132-3.25.6a39.958,39.958,0,0,0-1.536,4.684C173.134,98.34,173.144,95.529,174.706,92.374Z" transform="translate(-172.968 -48.303)" fill="#5968f6"/>
          <path id="Path_65793" data-name="Path 65793" d="M150.34,31.887c.525,2.9.233,6.139-1.368,8.014a6.626,6.626,0,0,1-7.866,1.765c-2.089-.818-5.016-2.441-5.191-5.4-.247-4.164,1.312-6.853,4.918-8.428.126-.055.249-.093.374-.138a49.117,49.117,0,0,0-1.344,5.516c-.165,1.393.845,1.935,3.115,2.563,2.507.693,3.862.279,4.2-.665.575-1.61,1.351-4.505,1.662-5.686A3.472,3.472,0,0,1,150.34,31.887Z" transform="translate(-112.228 -26.971)" fill="#5968f6"/>
        </g>
        <path id="Path_65794" data-name="Path 65794" d="M168.147,54.764a1.779,1.779,0,0,0-2.448.58L155.573,71.759a1.779,1.779,0,0,0,.58,2.448h0a1.778,1.778,0,0,0,2.448-.58l10.126-16.415a1.779,1.779,0,0,0-.58-2.448Z" transform="translate(-143.373 -36.198)" fill="#5968f6"/>
      </g>
      <path id="Path_5132" data-name="Path 5132" d="M209.09,80.371s-27.79,37.434-27.79,58.358c0,14.385,6.212,45.935,6.212,45.935a8.568,8.568,0,0,0,2.616.49,5.566,5.566,0,0,0,2.452-.654s.163-40.05,2.452-47.243c2.452-7.029,25.5-40.867,25.992-48.387C221.677,81.188,215.956,74.486,209.09,80.371Z" transform="translate(-181.3 -38.196)" fill="#fab9af"/>
      <path id="Path_5133" data-name="Path 5133" d="M203.291,119.3c7.356-12.26,16.02-26.809,16.184-31.386.49-8.01-8.991-13.568-14.058-7.52a272.914,272.914,0,0,0-19.616,31.55C190.214,117.174,195.445,120.933,203.291,119.3Z" transform="translate(-178.444 -38.382)" fill="#fff"/>
      <g id="Group_5935" data-name="Group 5935" transform="translate(32.653 0)">
        <path id="Path_5134" data-name="Path 5134" d="M204.585,58.932a11.881,11.881,0,0,1-2.289,8.337c-2.942,3.6,1.308,6.866,2.289,9.154.981,2.452-.163,5.885,2.452,7.52,2.779,1.635,10.626,2.125,11.77-.817C220.278,80.347,213.413,57.3,204.585,58.932Z" transform="translate(-201.275 -50.432)" fill="#32285f"/>
        <path id="Path_5135" data-name="Path 5135" d="M234.95,68.412c.49,15.693-14.222,18.8-22.722,18.8s-8.827-18.8-8.827-25.665,6.7-7.846,15.2-7.846c6.7,0,13.078,5.231,15.693,10.135C234.95,65.306,234.786,67.1,234.95,68.412Z" transform="translate(-199.926 -53.7)" fill="#32285f"/>
        <path id="Path_5136" data-name="Path 5136" d="M216.581,57.4c-7.193,0-9.318,5.231-9.481,14.549a15.523,15.523,0,0,0,2.125,8.173,9.581,9.581,0,0,1,.817,6.375l-1.635,5.231c-1.144,4.9,1.308,7.683,4.741,8.5,1.144.327,4.087,5.558,4.087,5.558s1.144-6.048,1.635-6.375c1.8-1.144,1.471-3.6,1.144-5.721l-.327-1.471a3.955,3.955,0,0,1,2.616-4.741c5.558-1.144,6.212-6.866,7.683-15.856C231.62,62.631,223.61,57.4,216.581,57.4Z" transform="translate(-197.578 -51.352)" fill="#fab9af"/>
        <path id="Path_5137" data-name="Path 5137" d="M234.266,55.281l-4.087,1.308a7.3,7.3,0,0,1-4.577,0L217.428,54.3c-4.9,0-13.078,2.779-12.1,9.972l.981,5.068A4.521,4.521,0,0,0,210.4,73.1h0a1.57,1.57,0,0,0,1.471,1.144,1.638,1.638,0,0,0,1.635-1.635h0a4.907,4.907,0,0,1,3.76-4.741c2.779-.654,5.885.981,8.827,1.962,8.173,2.452,11.443-3.76,12.1-9.645V59.041C238.352,56.425,236.391,54.79,234.266,55.281Z" transform="translate(-198.752 -53.319)" fill="#32285f"/>
        <path id="Path_5138" data-name="Path 5138" d="M211.675,67.987c0,2.125-.817,3.923-2.942,3.923s-3.433-2.942-3.433-5.231c0-2.125,1.308-2.779,3.433-2.779C210.858,64.063,211.675,65.7,211.675,67.987Z" transform="translate(-198.72 -47.226)" fill="#fab9af"/>
        <g id="Group_5934" data-name="Group 5934" transform="translate(22.763 28.28)">
          <path id="Path_5139" data-name="Path 5139" d="M220.758,78.683h0c-1.962,0-5.558-1.144-5.558-3.6S218.96,71,220.921,71a3.025,3.025,0,0,1,2.616.981,3.48,3.48,0,0,1,.49,2.616C223.047,77.866,221.739,78.683,220.758,78.683Zm0-6.048c-1.471,0-4.087,1.144-4.087,2.452,0,1.144,2.452,1.962,3.923,1.962h0c.327,0,.981-.817,1.471-2.779h0a1.28,1.28,0,0,0-.163-1.308C221.9,72.635,221.412,72.635,220.758,72.635Z" transform="translate(-215.2 -71)" fill="#32285f"/>
        </g>
        <path id="Path_5140" data-name="Path 5140" d="M221.169,73.156a1.637,1.637,0,0,1-1.635,1.962h0a1.613,1.613,0,0,1-1.635-1.471V66.781a.849.849,0,0,1,.327-.654,1.239,1.239,0,0,1,.654-.327,1.086,1.086,0,0,1,.817.654Z" transform="translate(-190.723 -46.02)" fill="#fa968c"/>
      </g>
      <path id="Path_5141" data-name="Path 5141" d="M227.05,75.219a1.236,1.236,0,0,1-.163-.654.578.578,0,0,0-.654-.654.571.571,0,0,0-.327.163c.163,1.471,0,3.269-2.125,3.433a10.487,10.487,0,0,1-7.029-3.106,3.208,3.208,0,0,0-1.471-1.471,3.19,3.19,0,0,1-1.962-2.125h0a3.19,3.19,0,0,0-1.962-2.125l-.327-.163c-.49-.163-.981.163-.817.654a10.475,10.475,0,0,1,.327,4.414A6.425,6.425,0,0,0,211.03,78a7.9,7.9,0,0,0,2.452,1.635,7.039,7.039,0,0,1,2.452,2.452,5.245,5.245,0,0,0,2.616,2.289,2.81,2.81,0,0,0,3.433-1.635,1.728,1.728,0,0,1,1.144-.981,2.865,2.865,0,0,0,1.962-2.125h0s1.471.327,2.125-1.962A2.5,2.5,0,0,0,227.05,75.219Z" transform="translate(-162.97 -44.323)" fill="#32285f"/>
      <g id="Group_25126" data-name="Group 25126" transform="translate(34.305 97.742)">
        <path id="Path_68236" data-name="Path 68236" d="M-6215.718-14266.981c-1.574-.229-24.11-4.318-24.353-1.986s-3.011,14.955,0,15.557,24.488,4.412,24.353,1.769S-6214.145-14266.751-6215.718-14266.981Z" transform="translate(6242.004 14272.017)" fill="#1e2d64"/>
        <circle id="Ellipse_1437" data-name="Ellipse 1437" cx="2.014" cy="2.014" r="2.014" transform="translate(25.179 2.014)" fill="#fff"/>
        <circle id="Ellipse_1438" data-name="Ellipse 1438" cx="2.014" cy="2.014" r="2.014" fill="#fff"/>
      </g>
      <g id="Group_25127" data-name="Group 25127" transform="translate(33.298 97.742)">
        <path id="Path_68236-2" data-name="Path 68236" d="M-6215.718-14266.981c-1.574-.229-24.11-4.318-24.353-1.986s-3.011,14.955,0,15.557,24.488,4.412,24.353,1.769S-6214.145-14266.751-6215.718-14266.981Z" transform="translate(6242.004 14272.017)" fill="#1e2d64"/>
        <circle id="Ellipse_1437-2" data-name="Ellipse 1437" cx="2.014" cy="2.014" r="2.014" transform="translate(25.179 2.014)" fill="#fff"/>
        <circle id="Ellipse_1438-2" data-name="Ellipse 1438" cx="2.014" cy="2.014" r="2.014" fill="#fff"/>
      </g>
      <path id="Path_5120" data-name="Path 5120" d="M263.8,135.5a3.1,3.1,0,0,0-2.125.817c-.164.163-.327.49-.49.654a1.869,1.869,0,0,1-1.308,1.144,3.341,3.341,0,0,0-1.471.817,6.467,6.467,0,0,0-1.635,2.452,3.729,3.729,0,0,1-.981,1.962,1.856,1.856,0,0,0-.49,1.308,1.988,1.988,0,0,0,1.962,1.962,2.01,2.01,0,0,0,1.8-1.144,1.97,1.97,0,0,1,.817-.817h.163a3.064,3.064,0,0,0,.981-1.144,1.4,1.4,0,0,1,1.144-.981,3.85,3.85,0,0,0,1.635-.817,3.419,3.419,0,0,0,.654-.981,1.224,1.224,0,0,1,1.144-.981,2.542,2.542,0,0,0,1.308-.981C267.4,137.139,265.108,135.341,263.8,135.5Z" transform="translate(-134.332 -1.786)" fill="#fab9af"/>
    </g>
  </g>
</svg>
