<svg xmlns="http://www.w3.org/2000/svg" width="397" height="164" viewBox="0 0 397 164">
    <g fill="none" fill-rule="evenodd">
        <g fill-rule="nonzero">
            <g>
                <g fill="#1D5063">
                    <path d="M6.84 0.93L0.12 0.93 0.12 7.65 6.84 7.65z" transform="translate(-135 -106) translate(135 106) translate(389 107)"/>
                </g>
                <path fill="#3A3A3A" d="M6.95 155.89c0 4.24 87.31 7.67 195 7.67S397 160.13 397 155.89s-87.32-7.67-195-7.67-195 3.44-195 7.67" opacity=".55" transform="translate(-135 -106) translate(135 106)"/>
                <g fill="#212123">
                    <path d="M8.79 0L0.24 4.3 3.51 6.14 11.6 6.14 13.66 4.5z" transform="translate(-135 -106) translate(135 106) translate(0 121)"/>
                    <path d="M17.45 6s-7.08 3.07-8.41 3.07-8.5-1.33-8.8-2c-.16-.933-.16-1.887 0-2.82l11.4.41 5.29-.41c.72.1.52 1.74.52 1.74" transform="translate(-135 -106) translate(135 106) translate(0 121)"/>
                    <path d="M27.88 3.59L9.76 3.59 9.76 14.34 27.88 14.34z" transform="translate(-135 -106) translate(135 106) translate(0 121)"/>
                    <path d="M10.48 8.19h-4.5v3.17h4.5V8.19zm3.69 1.59h-3.12v3.12h3.12V9.78z" transform="translate(-135 -106) translate(135 106) translate(0 121)"/>
                </g>
                <path fill="#0F0F0F" d="M124.95 135.57l-10.38.64-39.18-9-6.42-.82-3.41-33.82 20.28-16.14s34.6-.48 44.43 12.93c9.83 13.41 7 38.25 7 38.25l-12.32 7.96z" transform="translate(-135 -106) translate(135 106)"/>
                <path fill="#282828" d="M68.08 117.52l-2.52-25 20.28-16.09s34.6-.48 44.43 12.93c5.79 7.9 7.17 19.74 7.34 28.16H68.08z" transform="translate(-135 -106) translate(135 106)"/>
                <path fill="#05B4EB" d="M322.22 135.57v2.53l-197.27-2.53-2.46-2.9s2.05-23.07-20.2-28.39-29.63 15-30.45 24.44c-.82 9.44-.82 15.15-.82 15.15-.748-.002-1.466-.296-2-.82-.558-.513-.998-1.141-1.29-1.84v-7.92s-14.34-.07-22.26-.89c-7.92-.82-31.12-6-33.85-6.69-2.73-.69-3.69-4-4-5.19-.138-.792.058-1.606.54-2.25 0 0 1.09-42 3-64.5s5.08-39.15 6.21-43.15 3-7.27 3.68-7.68c0 0 5-1.43 16.39-1.94l224.74 3.69c8.524.646 16.821 3.05 24.37 7.06 13.08 6.76 26.45 20.48 34.78 28.88L350 70h2l3.79 1.74S376.52 79.33 383 82.2c6.48 2.87 9.94 6.8 10.55 7.68.61.88 0 2.73 0 2.73s3.28 16.1 3.14 17.33c-.121.828-.421 1.62-.88 2.32 0 0 .11 2 .06 2.24-.05.24-.46 1.54-.46 1.54l.21 5.33c.53.666.992 1.383 1.38 2.14v5s-.82 1.69-1 1.89c-.18.2-12.24 5.79-12.9 5.79l-10.14.05s-8.24-9.68-9.47-10.09c-1.23-.41-22.09 2.67-24.26 2.77-2.17.1-17 6.68-17 6.68" transform="translate(-135 -106) translate(135 106)"/>
                <path fill="#212123" d="M363.52 126.12c-1.09-.36-17.64 2-22.87 2.63l-11-6.56-210.44-5.27c-2.552-4.958-6.774-8.854-11.92-11l251.56 4.54s13.06-.41 15-1.13c1.94-.72 9-10.38 9-10.38l1.35-3.74 10.45 2.91c.94 4.79 2.13 11.07 2 11.82-.121.828-.421 1.62-.88 2.32 0 0 .11 2 .06 2.24-.05.24-.46 1.54-.46 1.54l.21 5.33c.544.664 1.02 1.381 1.42 2.14v5s-.82 1.69-1 1.89c-.18.2-12.24 5.79-12.9 5.79l-10.14.05s-8.24-9.68-9.47-10.09" transform="translate(-135 -106) translate(135 106)"/>
                <path fill="#FFF" d="M395.88 114.15c.013.116.013.234 0 .35v.16-.39c.03-.038.056-.078.08-.12" transform="translate(-135 -106) translate(135 106)"/>
                <g fill="#FFF" opacity=".65">
                    <g>
                        <path d="M88.55 66.88C87.94 66 84.42 62.07 78 59.2c-6.42-2.87-27.16-10.44-27.16-10.44L47 47h-2L16.33 17.63C12.03 13.27 6.47 6.57.33.2c6.19 5.44 11.78 11.13 16 15.43L45 45h2l3.79 1.74S71.52 54.33 78 57.2c6.48 2.87 9.94 6.8 10.55 7.68.321.708.368 1.51.13 2.25-.037-.086-.081-.17-.13-.25" transform="translate(-135 -106) translate(135 106) translate(305 25)"/>
                    </g>
                </g>
                <g fill="#FFF" opacity=".56">
                    <g>
                        <path d="M.94 11H.33c0-.14.07-.28.11-.41 1.12-4 3-7.27 3.68-7.68 0 0 5-1.43 16.39-1.94l224.74 3.69c3.073.183 6.122.648 9.11 1.39-3.05-.217-6.116-.012-9.11.61C219.35 4.85 20.51 3 20.51 3 9.14 3.52 4.12 5 4.12 5c-.61.36-2.07 2.84-3.18 6.08" transform="translate(-135 -106) translate(135 106) translate(17)"/>
                    </g>
                </g>
                <path fill="#FFF" d="M122.54 132.73l-.05-.06v-.54.6m274.07-22.12c-.6-4.16-3-16-3-16 .098-.307.172-.621.22-.94.73 3.62 3 15.24 2.92 16.27-.023.227-.067.451-.13.67" transform="translate(-135 -106) translate(135 106)"/>
                <path fill="#0F0F0F" d="M393.55 92.61l-5.66-1.71 2.83 2.18 5.08 19.18c.558-.824.861-1.795.87-2.79-.077-1.317-.224-2.629-.44-3.93-.31-1.75-2.68-12.93-2.68-12.93" transform="translate(-135 -106) translate(135 106)"/>
                <path fill="#BE0940" d="M18.87 71.65L19.87 104.35 8.42 110.67 10.03 71.5 18.85 71.65" transform="translate(-135 -106) translate(135 106)"/>
                <path fill="#078BAA" d="M276.23 81.45c-.07 1.51 3.16 2.9 7.23 3.1 4.07.2 7.43-.87 7.51-2.38.08-1.51-3.17-2.9-7.24-3.09-4.07-.19-7.43.86-7.5 2.37" transform="translate(-135 -106) translate(135 106)"/>
                <path fill="#212123" d="M22.41 128.12l-10.77-2.41c-2.73-.68-3.69-4-4-5.19-.14-.792.056-1.607.54-2.25l.44-14.13 77.18 1.39c-4.353 2.296-7.878 5.898-10.08 10.3l-55.05-1.38 1.74 13.67zM311.57 40l27.72 30.83c5.29 6.42 5.71 7.92 4.91 9.17-.8 1.25-29.2-3.71-33.58-4.66-4.38-.95-25.4-6.28-29.49-9.29-4.09-3.01-6.21-29.21-6.21-29.21s-.62-4 2.93-4.85c3.55-.85 23.48 2.39 26.83 3.28 3.35.89 6.89 4.73 6.89 4.73" transform="translate(-135 -106) translate(135 106)"/>
                <path fill="#545456" d="M305.09 37.25c.687.369 1.22.972 1.5 1.7.48 1.23 3.55 34.47 3.55 34.47l-24.3-6.41c-5.3-1.59-5.8-5.12-6.62-9.15-.82-4.03-2.94-20.2-2.94-20.2s-.68-3.69 2.53-4.3c3.21-.61 23.19 2.56 26.28 3.89m7.23 5.52l12.36 13.59 1.43 16.08s0 2.55-2.32 2.9c-2.32.35-10.17-1.17-10.17-1.17-.703-.084-1.248-.654-1.3-1.36-.2-1.3-3-30.38-3-30.38s-.22-1.09.6-1.39c.82-.3 2.4 1.73 2.4 1.73" transform="translate(-135 -106) translate(135 106)"/>
                <path fill="#000" d="M377.31 89.52l.27-.31c-.1-.09-.22-.23-.36-.38-.417-.534-.933-.982-1.52-1.32-.38-.2-2.53-.85-6-1.89-4.72-1.42-10.59-3.19-12.2-4-2.61-1.29-6.94-9.54-7-9.62h-.5c.19.33 4.6 8.64 7.32 10 1.64.81 7.53 2.59 12.26 4 3 .89 5.56 1.67 5.92 1.86.542.315 1.021.729 1.41 1.22.15.17.27.31.4.43" transform="translate(-135 -106) translate(135 106)"/>
                <path fill="#353538" d="M384.61 122.84c-.61-1 2-7.47 4.92-8.9 1.983-.871 4.134-1.294 6.3-1.24.031.6.031 1.2 0 1.8-.05.2-.46 1.54-.46 1.54l.21 5.33c.544.664 1.02 1.381 1.42 2.14v.56s-11.78-.2-12.39-1.23" transform="translate(-135 -106) translate(135 106)"/>
                <g fill="#000" opacity=".65">
                    <g>
                        <path d="M101.6 106.91h38.84v-.18c0-.11 1.26-11 4-16.86 2.306-4.855 5.521-9.224 9.47-12.87 1.454-1.34 2.223-3.267 2.09-5.24l1.12-19.37.55-2.3-.53-11-.4-.45.52 11.47-.54 2.27-1.08 19.44c.127 1.884-.609 3.723-2 5-4.005 3.679-7.267 8.092-9.61 13-2.52 5.49-3.77 15.35-4 16.81h-38.32s-1.57.11-2-1c-.43-1.11-2-14.22-2.31-22.12l-.2-8.92c.057-1.556-.007-3.114-.19-4.66-.764-2.124-1.521-4.251-2.27-6.38L93.03 2.49s-.17-1.17.49-1.44c.82-.23 27.24 2.18 32.76 4.08 2.185.734 4.218 1.859 6 3.32 2.72 2.19 20.42 21.4 20.6 21.55l.3-.27C152.45 29 135.25 10.35 132.61 8c-1.822-1.504-3.908-2.656-6.15-3.4-3.14-1.08-13.72-2.35-18.12-2.84C102.44 1.09 93.98.3 93.42.53c-1 .4-.74 1.8-.73 1.86l1.7 61.1 2.28 6.42c.154 1.498.211 3.005.17 4.51 0 2.24.08 5.31.2 8.94.28 7.93 1.87 21 2.34 22.25.419.82 1.292 1.306 2.21 1.23" transform="translate(-135 -106) translate(135 106) translate(178 27)"/>
                        <path d="M89.28 93.63l.8-29.94h4.51v-.41h-4.9l-.01.2-.81 30.14.41.01zM.62 80.2H.21v11.2h.41V80.2z" transform="translate(-135 -106) translate(135 106) translate(178 27)"/>
                    </g>
                </g>
                <path fill="#07A4EA" d="M259 31s2.46.87 2.87 2.86c.41 1.99-3 32.22-4 35.09-1 2.87-1.64 5.32-6.14 6.42C247.23 76.47 25.49 71 25.49 71s-2.18.2-2.52-1.51c-.34-1.71 2.39-22.35 3.61-29.49 1.22-7.14 1.85-10.86 6.56-12.63 4.71-1.77 112 .58 112 .58L259 31" transform="translate(-135 -106) translate(135 106)"/>
                <g fill="#FFF" opacity=".45">
                    <g>
                        <path d="M1 35.17c.34 1.7 2.52 1.5 2.52 1.5L229.78 41c4.51-1.13 5.18-3.55 6.14-6.42.86-2.58 3.7-27.36 4-33.7.31 2.55-3 32.17-4 35-1 2.83-1.64 5.32-6.14 6.42C225.28 43.4 3.49 38 3.49 38s-2.18.2-2.52-1.51c-.043-.432-.043-.868 0-1.3" transform="translate(-135 -106) translate(135 106) translate(22 33)"/>
                    </g>
                </g>
                <g fill="#FFF" opacity=".35">
                    <g>
                        <path d="M2.74 2.71C3.43-.36 32.02.46 55.74.05 79.46-.36 226.89 2.38 241.1 3.12c14.21.74 30.75 8.15 49.19 26.06 0 0-8.64-3.77-23.18-5.49-14.54-1.72-266.63-4-266.221-4.6C1.3 18.49 2 5.78 2.74 2.71m249.13 11.88c14.22 1 20.74 3.64 22.08 4.4l.23.2c.1 0 0-.06-.23-.2-1-.87-5.47-4.31-14.11-5.73-9.93-1.64-46.59-3-92.66-3.18H15.43l236.44 4.51" transform="translate(-135 -106) translate(135 106) translate(19 3)"/>
                    </g>
                </g>
                <path fill="#212123" d="M277.81 82.4l11.4.72c.279.022.554-.073.759-.263.205-.19.321-.457.321-.737.022-.279-.073-.554-.263-.759-.19-.205-.457-.321-.737-.321l-11.4-.72c-.552-.036-1.029.383-1.065.935-.036.552.383 1.029.935 1.065" transform="translate(-135 -106) translate(135 106)"/>
                <path fill="#0F0F0F" d="M372.6 135.57l-12.28-3.1-33.73 4.4-4.37-1.3c0 .11.67-28.56 25-29.65 24.33-1.09 27.78 20.94 25.38 29.65" transform="translate(-135 -106) translate(135 106)"/>
                <path fill="#27282C" d="M329.87 56.36c1.088.066 2.164.271 3.2.61 1.1.48.75 16.45.62 17.68-.13 1.23-2.39 1.85-3.82 1.78-1.221.014-2.328-.714-2.8-1.84-.28-1 2-18.31 2.8-18.23" transform="translate(-135 -106) translate(135 106)"/>
                <path fill="#4C4D51" d="M329.46 68.85s2.93.34 3.41 0 .13-9.08 0-11.95l.17.07c1.1.48.75 16.45.62 17.68-.13 1.23-2.39 1.85-3.82 1.78-.339-.014-.675-.071-1-.17l.62-7.41z" transform="translate(-135 -106) translate(135 106)"/>
                <path fill="#FFF" d="M393.07 102c-4.516-.793-8.981-1.855-13.37-3.18-5.06-1.71-10.17-9-10.11-10.08.06-1.08 15.75 1.39 18.3 2.16 2.55.77 5.18 3.55 5.18 3.55V102z" transform="translate(-135 -106) translate(135 106)"/>
                <path fill="#D4D4D6" d="M375.26 90.9s.54-.9.89-.9 9.55 1.5 10.37 1.57c.82.07 5.26 2.87 5.26 2.87l1.22-.05c.023.017.043.037.06.06V99s-8.6-1.5-9.76-1.91c-1.16-.41-7.85-4.71-7.85-4.71l-4.22-.62c-.29-.39-.55-.76-.77-1.1l4.8.24z" transform="translate(-135 -106) translate(135 106)"/>
                <path fill="#212123" d="M374.71 92.81L380 96.97 377.14 96.84 372.6 92.57z" transform="translate(-135 -106) translate(135 106)"/>
                <path fill="#FFF" d="M47.583 46.702s14.541.822 19.515 2.998l.039.008c4.984 2.178 4.787 9.978 3.525 14.617-.945 4.108-4.636 6.986-8.832 6.889-1.534.021-4.368-.243-7.277-.576l-.699-.081c-4.427-.521-8.796-1.162-8.796-1.162l2.525-22.693zm46.771 5.159l-.637 6.701-11.353-1.253-.278 2.648c.739.092 2.898.355 5.116.626l.941.115 5.02.611-.639 3.97-10.868-1.192-.257 2.471 11.51 1.235-.701 6.954-21.218-2.293 2.789-22.831 20.575 2.238zm11.688 1.355l-1.598 15.067 10.169 1.392-.573 7.31-20.01-2.016 2.377-22.672 9.635.919zm20.812 2.525l-2.144 22.537-9.467-1.037 2.2-22.514 9.411 1.014zm-66.137-.396c-.98-1.06-4.302-.914-4.302-.914l-1.077 9.635s3.945 1.105 5.066-.709l-.029-.006c1.121-1.815 1.323-6.946.342-8.006zm93.358 3.246L142.88 80.056s-2.322-.253-4.598-.507l-.567-.063c-1.877-.21-3.586-.407-3.756-.443l-5.972-23.061 9.504.912 2.836 10.262 4.356-9.677 9.392 1.112zm21.687 1.962l-.635 6.691-11.353-1.253-.279 2.645c.737.092 2.701.332 4.773.584l.942.115 5.158.628.131.016.045.006-.639 3.97-10.844-1.19-.261 2.474 11.508 1.245-.69 6.946-21.218-2.295 2.789-22.831 20.573 2.249zm12.25 1.775c3.278.309 6.59.718 8.522 1.223 4.831 1.263 6.294 4.859 4.699 8.42-1.595 3.561-4.57 3.134-4.57 3.134s3.053 1.552 3.583 3.143c.53 1.591.422 5.273.517 6.464l-.013.059c.056.714.209 1.416.455 2.088l-9.829-.97c-.341-.461-.577-.991-.692-1.553-.054-.709.216-5.63-.708-6.525-.924-.894-3.542-1.03-3.542-1.03l-1.128 8.239-9.488-.99 2.432-22.404s4.392.216 9.058.637l.704.065zm36.737 3.967l-.637 6.701-11.351-1.263-.28 2.644c.728.087 2.7.319 4.78.563l.628.074 5.476.642.131.015.045.005-.639 3.97-10.851-1.19-.267 2.533 11.51 1.235-.69 6.946-21.22-2.283 2.791-22.841 20.574 2.249zm13.476 1.483c3.394.459 6.751 1.091 8.678 1.933l-.008.039c4.974 2.176 4.785 9.988 3.514 14.624-.938 4.091-4.603 6.966-8.781 6.889-1.661.026-4.838-.282-7.985-.651l-.698-.083c-4.179-.503-8.1-1.078-8.1-1.078l2.524-22.692s5.008.266 10.155.926l.701.093zM36.744 19.425c10.485 2.229 9.737 9.231 9.408 10.873l-.034.16c-.028.122-.047.187-.047.187l-9.615-1.017.065-.017s.02-3.363-2.328-3.471c-2.348-.109-2.619 1.168-3.035 3.461-.416 2.293-.961 5.821 1.891 5.863 2.853.042 2.873-3.033 2.873-3.033l9.595 1.013c-.023 2.498-.944 4.905-2.595 6.777-2.702 2.71-9.854 3.571-16.583 1.094-6.729-2.477-6.152-8.318-6.152-8.318.23-2.716.63-5.414 1.196-8.08.59-1.816 3.452-8.023 15.361-5.492zm26.832 3.527l6.558 23.329-9.604-.779-.868-3.13-6.228-.554c-.559.864-1.055 1.767-1.484 2.702l-8.898-1.121L54.69 21.772l8.886 1.18zM240.493 75.4c-.978-1.07-4.302-.914-4.302-.914l-1.104 9.619s3.954 1.107 5.066-.709c1.119-1.806 1.318-6.926.34-7.996zm-49.185-5.148c-1.028-.886-3.979-.846-3.979-.846l-.438 3.263c1.25.304 2.535.435 3.821.391.575-.166 1.013-.638 1.138-1.226s-.084-1.196-.542-1.582zM83.935 24.782c2.923.289 5.752.659 7.477 1.11 4.831 1.263 6.292 4.868 4.699 8.42-1.593 3.552-4.57 3.134-4.57 3.134s3.053 1.552 3.583 3.143c.53 1.591.422 5.273.517 6.464l.004-.02c.056.714.209 1.416.455 2.088l-9.944-.913c-.342-.456-.579-.984-.694-1.543-.005-.699.263-5.61-.659-6.514-.922-.904-3.542-1.03-3.542-1.03l-1.128 8.239-9.477-1.039 2.445-22.319s4.401.205 9.075.616l.703.063.352.033.704.068zm43.391 15.611l-3.01 10.22c-.266.737-.934 1.252-1.711 1.32-1.318.141-10.572-1.128-10.572-1.128-.612-.101-1.061-.63-1.062-1.252.029-.486.726-2.713 1.48-5.003l.189-.573c.854-2.576 1.715-5.057 1.715-5.057l.004-.02c.097.02 12.967 1.493 12.967 1.493zm-69.745-6.305l-2.458 4.353 3.841.344-1.383-4.697zm95.413-23.538c6.736 2.253 8.66 9.786 5.137 17.515-2.201 4.646-6.252 8.146-11.154 9.639 0 0 1.235 4.103 2.396 8.214l.204.725c1.013 3.615 1.909 7.047 1.788 7.484-.265.96-1.441.915-1.441.915s-2.439-.257-5.047-.544l-.604-.067c-2.519-.28-5.033-.572-5.522-.676-.601-.158-1.015-.708-1.004-1.332l-3.258-13.903-20.378-2.402s-1.21 3.53-4.208 3.211c-1.971-.114-3.607-1.563-3.965-3.511-.112-.518-.39-.984-.791-1.328l-3.355-.323-.022.057s-.212-3.617 1.14-5.362c1.352-1.745 3.739-1.823 8.152-1.911 2.597-.013 5.146-.705 7.397-2.01 2.083-1.298 4.32-2.326 6.659-3.06 2.615-.787 5.371-.969 8.064-.534l-1.658 6.166c7.448 1.306 10.748.878 12.516-1.189 1.768-2.067 2.324-5.695.519-6.048-1.805-.353-12.879-2.101-16.578-1.769-2.819.438-5.551 1.326-8.091 2.632 0 0 3.636-12.828 4.423-14.077.437-.726 1.228-1.161 2.072-1.14l26.609 4.628zm24.742 25.141l-.665 6.541-11.212-1.388-.354 2.388 10.87 1.315-.207 4.195-11.059-1.386-.339 2.556 11.709 1.452-.538 6.475-21.088-2.234 2.237-22.301 20.646 2.387zm19.678 2.325c2.509.743 4.514 2.64 5.401 5.11.887 2.47.55 5.218-.907 7.403-1.5 1.973-3.879 3.068-6.344 2.922l-7.682-.925-.883 6.464-9.391-1.155 1.979-21.761 17.797 1.946.03-.004zm20.64 2.416l7.154 22.789-9.429-.978-.816-2.555-6.12-.726-1.434 2.323-9.166-1.014 11.056-21.053 8.755 1.214zM86.203 32.514c-1.028-.886-3.989-.848-3.989-.848l-.428 3.265c1.25.304 2.535.435 3.821.391.575-.166 1.013-.638 1.138-1.226.124-.587-.084-1.196-.542-1.582zm151.221 10.301l-1.713 21.858-9.826-1.031 1.719-22.124 9.82 1.297zm12.346.975c2.801.32 5.57.727 7.442 1.219 5.304 1.394 6.468 5.532 5.211 8.467-1.257 2.935-4.686 2.576-4.686 2.576s3.258 1.165 3.917 3.255c.491 2.049.659 4.162.498 6.264l.041-.002c.023.726.223 1.435.583 2.064l-9.658-1.293c-.368-.271-.644-.648-.792-1.082-.125-.612-.152-5.873-1.042-6.637-.89-.764-3.312-.909-3.312-.909l-.484 8.191-9.71-.955 1.62-22.043s4.115.233 8.626.695l.697.073.35.038.699.079zm-37.054 7.188l-2.246 4.655 3.755.316-1.509-4.971zm-20.02-6.677c-1.289-.363-2.616-.573-3.955-.625l-.493 4.627 3.625.35c.512-.04.975-.323 1.245-.762l-.002.01c.465-.744.762-3.103-.42-3.6zm60.001 7.241c-.714-.5-3.085-.649-3.881-.686l-.164-.007-.054-.002-.045-.001s-.195 2.792-.126 2.806c1.275.28 2.582.389 3.886.323.462-.194.791-.614.869-1.11.078-.496-.105-.997-.485-1.323zM318.53 85.39c.38 0 .62.21.59.64l-.1 1-.43 4.18c-.01.136-.01.274 0 .41.036.276.283.474.56.45h.77l5.23-.46c.116-.015.234-.015.35 0 .253.031.438.255.42.51 0 .44-.07.87-.11 1.31l-.24 2.34-.27 2.6c0 .51-.11 1-.16 1.53-.021.494-.425.885-.92.89l-3.61.32-22.51 1.98-3.3.3-2 .17-.02-.05h-.25c-.237-.035-.413-.24-.41-.48v-.82l.25-2.32.24-2.38c0-.45-.19-.72-.65-.69l-1.57.13-2.18.19-2.45.22-2.43.21-.75.07c-.126.015-.254.015-.38 0-.237-.04-.408-.249-.4-.49 0-.27 0-.55.06-.83l.29-2.32.48-4.6c.044-.495.444-.882.94-.91l9.92-.87 2.73-.24 3-.27 2.78-.28 3-.27 2.73-.24 3-.27 5.74-.5 2.06-.16zm-22.48 10.53c-.837.16-1.464.86-1.53 1.71-.076.6.279 1.172.85 1.37.189.075.383.139.58.19l.7.15c.125.028.224.122.26.245.035.123.001.255-.09.345-.053.072-.126.128-.21.16-.134.053-.276.087-.42.1-.546.04-1.093-.06-1.59-.29-.23-.11-.3-.07-.33.19l-.09.85c0 .21 0 .24.21.31.469.147.959.218 1.45.21l-.03.03c.191-.01.381-.03.57-.06.187-.02.372-.06.55-.12.925-.205 1.562-1.055 1.5-2 .014-.462-.256-.886-.68-1.07-.177-.083-.361-.15-.55-.2l-.91-.22c-.144-.028-.248-.153-.25-.3-.023-.159.063-.315.21-.38.103-.056.214-.093.33-.11.517-.063 1.042.013 1.52.22.19.08.26 0 .28-.17l.1-.87c.04-.29 0-.24-.19-.29-.733-.2-1.507-.2-2.24 0zm10.24-.85c-.38 0-.76.08-1.14.1-.165-.001-.315.098-.38.25l-1.07 2.25-.41.81-.08.08c.003-.027.003-.053 0-.08v-.06l-.87-2.82c-.06-.17-.09-.19-.26-.18l-1 .09c-.44 0-.42.1-.46.48l-.49 4.79c0 .13 0 .19.18.17l1-.08c.16 0 .22-.08.23-.24l.21-2.07c0-.127 0-.255.021-.382l.029-.127c.024.038.044.078.06.12l.75 2.4c0 .16.09.18.26.17.17-.01.3 0 .45 0 .149.007.285-.087.33-.23l1.23-2.58.008-.016V98c-.003.191-.016.386-.069.581l-.18 1.81c0 .15 0 .2.18.18l1-.08c.116 0 .21-.094.21-.21v-.37l.46-4.63c.001-.181.001-.221-.199-.211zm3.56-.35l-1 .09c-.064-.006-.128.016-.176.06-.048.044-.075.106-.074.17l-.06.54-.24 2.34-.21 2.08h-.02c0 .21 0 .25.19.24l1-.09c.21 0 .26-.07.28-.28.02-.21 0-.5.08-.75l.42-4.2c0-.16 0-.21-.19-.2zm5.78-.55l-1 .09-2.83.25c-.17 0-.23.07-.25.24l-.09.83c0 .25 0 .29.26.27h.11l1-.09v.03l-.22 2.26-.17 1.6c0 .18 0 .22.22.2l1-.08c.17 0 .23-.08.25-.25l.33-3.2c0-.21 0-.43.08-.65h.07l1.08-.09c.17 0 .25-.07.26-.21 0-.32.07-.63.1-1s0-.21-.2-.2zm6.28-.52l-1 .09c-.066-.006-.132.017-.18.063-.048.046-.074.11-.07.177 0 .27 0 .54-.08.81 0 .5-.1 1-.16 1.52l.09.03-2 .17c0-.24 0-.47.07-.69 0-.55.11-1.1.17-1.65 0-.15 0-.2-.18-.19l-1 .09c-.16 0-.22.07-.24.23l-.06.62-.27 2.32-.21 2.05c0 .15 0 .2.18.19l1-.09c.062.003.122-.02.166-.064.044-.044.067-.104.064-.166 0-.26.06-.51.08-.76.037-.414.366-.743.78-.78l1.51-.13 2.74-.24c.22 0 .28-.07.3-.28.02-.21 0-.5.08-.74s0-.2-.18-.19l-.92.08-.68.06v-.47l.19-1.86c0-.17 0-.21-.19-.2zm-.15 4.07l-1.43.13-.1 1.15c0 .17 0 .21.2.19l1-.08c.19 0 .25-.08.27-.26.02-.18 0-.32 0-.48l.06-.65zM287 94l-1.38.12c-.033.016-.058.045-.07.08 0 .37-.08.74-.11 1.12 0 .11 0 .16.16.15l1.08-.09c.112-.005.2-.098.2-.21.08-.393.12-.783.12-1.17zm1.79-4.09h-1c-.51 0-1 .08-1.54.13-.2 0-.25.07-.27.27l-.09.83c0 .173-.027.351-.05.53l-.03.27.12-.1c.226-.199.503-.331.8-.38l.89-.11h.73c.062-.012.125.004.175.042.05.038.081.096.085.158.077.352-.133.702-.48.8-.32.08-.65.1-1 .15 0-.27.06-.5.09-.76l.05-.07c-.31.003-.614.09-.88.25-.22.16-.42.35-.64.52-.103.101-.221.185-.35.25-.3.12-.61.21-.92.3-.167.034-.302.157-.35.32-.015.123-.015.247 0 .37 0 .16 0 .16.16.15h.16c.046-.012.096-.005.137.019.041.024.071.064.083.111.063.187.243.31.44.3.201-.011.368-.161.4-.36 0-.08.05-.1.12-.1l2.06-.19c.071-.013.141.03.16.1l.59 1.34c0 .1.09.16.2.15l1.16-.1c.15 0 .19-.11.13-.25s-.14-.26-.2-.39l-.6-1.2c.664-.442 1.045-1.203 1-2 .035-.58-.34-1.105-.9-1.26-.142-.05-.29-.08-.44-.09zm6.66-.68l-3 .26c-.2 0-.26.08-.28.27l-.23 2.29-.28 2.67c0 .18 0 .22.22.21l3-.28c.16 0 .22-.07.24-.23l.07-.62c.02-.21 0-.34-.3-.31l-1.28.12h-.46l.09-.93h.08l1.57-.14c.057.003.113-.018.155-.058.042-.04.065-.095.065-.152 0-.27.06-.54.09-.8s0-.2-.19-.19l-.81.07-.83.07-.02.02c0-.31.06-.6.09-.88 0 0 0-.06.08-.06l.81-.08 1-.08c.17 0 .24-.08.25-.25.01-.17.06-.47.08-.71.02-.24 0-.23-.21-.21zm4.37-.39l.02.01-2.14.15c-.16 0-.21.07-.23.23l-.18 1.77-.34 3.26c0 .13 0 .19.17.18.347 0 .68-.03 1-.09.14 0 .2-.08.22-.23l.17-1.12c0-.09 0-.11.12-.12.379-.033.756-.086 1.13-.16.682-.116 1.261-.567 1.54-1.2.202-.455.268-.958.19-1.45-.062-.578-.498-1.047-1.07-1.15-.198-.039-.398-.066-.6-.08zm5.97-.52l-1.17.1c-.146-.002-.276.091-.32.23l-2.21 5.14c-.09.21 0 .26.18.25l1-.08c.126-.004.235-.089.27-.21l.28-.72c.015-.074.086-.122.16-.11l.73-.07.901-.078.01.128c.03.211.108.412.148.62.002.049.025.095.064.125.038.031.088.043.136.035l1.08-.09c.16 0 .21-.1.17-.27l-.26-1.09-.91-3.72c.001-.17-.089-.21-.259-.19zm4.75-.44l-1 .08c-.18 0-.24.09-.26.27l-.23 2.3-.27 2.57h.02c0 .27 0 .31.2.29l.91-.08c.25 0 .3-.06.32-.3l.16-1.52.34-3.41c0-.17 0-.21-.19-.2zm4.59-.36l-2.16.18c-.17 0-.23.07-.24.25 0 .4-.09.8-.13 1.2l-.39 3.78c0 .16 0 .21.19.2l1-.08c.17 0 .23-.09.25-.26l.15-1.45.07.02c.2 0 .38 0 .56-.06.037-.009.076-.002.109.019.032.021.054.054.061.091l.58 1.3c.07.18.11.2.3.18l1-.09c.23 0 .28-.1.17-.3l-.8-1.5v-.1c.733-.467 1.124-1.32 1-2.18-.023-.493-.35-.92-.82-1.07-.287-.107-.594-.152-.9-.13zm-10.05 2.47c.023.028.044.058.06.09l.3 1.53h-.01l-1.07.09c.017-.065.041-.129.07-.19l.57-1.44.08-.08zm-5.42.17c.231.026.402.228.39.46.04.215-.011.437-.143.612-.131.175-.33.287-.547.308-.23 0-.46.06-.71.09v-.01c0-.49.1-1 .15-1.46.286-.015.574-.015.86 0zm15.19-1.35c.137-.007.271.047.365.147.094.1.14.236.125.373.013.381-.271.708-.65.75-.27 0-.54 0-.82.08 0-.44.09-.87.13-1.3v-.05c.283-.015.567-.015.85 0z" transform="translate(-135 -106) translate(135 106)"/>
                <g fill="#FFF">
                    <path d="M2.673 7V4.397h.175c.181 0 .343.05.486.149.105.076.225.241.359.494L4.752 7h2.24l-.958-1.859c-.047-.093-.139-.226-.278-.398-.139-.172-.244-.284-.317-.337-.108-.079-.28-.158-.516-.236.295-.067.526-.152.696-.254.265-.16.474-.37.626-.628.152-.258.228-.565.228-.921 0-.408-.099-.755-.298-1.039-.198-.284-.459-.479-.783-.584C5.068.639 4.6.586 3.988.586H.685V7h1.988zm.836-3.815h-.836V1.881h.871c.362 0 .608.055.739.166.131.111.197.27.197.477 0 .14-.042.264-.125.372-.083.108-.19.175-.322.201-.259.059-.434.088-.524.088zm5.98 3.92c.709 0 1.253-.101 1.632-.304.379-.203.703-.537.971-1.004l-1.754-.162c-.111.14-.214.238-.311.293-.158.088-.324.131-.499.131-.277 0-.502-.101-.674-.302-.122-.14-.2-.353-.232-.639h3.57v-.201c0-.613-.101-1.11-.302-1.492-.201-.382-.494-.674-.879-.875-.385-.201-.91-.302-1.575-.302-.82 0-1.462.225-1.927.674-.465.449-.698 1.037-.698 1.763 0 .51.116.954.348 1.332.232.378.524.653.877.827.353.174.837.261 1.453.261zm.892-2.839H8.627c.029-.277.098-.486.206-.626.169-.225.395-.337.678-.337.245 0 .443.074.593.223.15.149.242.395.277.74zm4.187 4.502V6.55c.178.184.38.322.606.416.226.093.476.14.75.14.566 0 1.034-.203 1.404-.61.37-.407.556-.997.556-1.77 0-.7-.17-1.288-.51-1.763-.34-.475-.82-.713-1.442-.713-.315 0-.602.069-.862.206-.193.102-.404.298-.634.586v-.687h-1.667v6.414h1.799v-.001zm.805-2.993c-.236 0-.432-.089-.586-.267-.154-.178-.232-.451-.232-.818 0-.4.076-.688.228-.866.152-.178.341-.267.569-.267.21 0 .388.088.534.265.146.176.219.453.219.829 0 .408-.07.698-.21.868-.142.171-.315.256-.522.256zm4.588 1.33c.417 0 .783-.064 1.098-.193.23-.096.462-.257.696-.481.02.134.041.233.061.295.02.062.064.154.131.273h1.671c-.093-.192-.154-.351-.182-.475-.028-.124-.042-.295-.042-.514V3.958c0-.219-.044-.448-.131-.689-.087-.241-.207-.427-.359-.558-.216-.19-.486-.314-.809-.374-.323-.06-.752-.09-1.286-.09-.333 0-.642.025-.928.074-.286.05-.51.12-.674.21-.228.125-.402.273-.523.444-.121.171-.214.405-.278.702l1.702.179c.07-.201.162-.338.276-.411.146-.093.365-.14.656-.14.228 0 .386.044.477.131.091.087.136.241.136.459-.222.088-.432.158-.63.212-.198.054-.631.148-1.299.282-.557.111-.939.28-1.146.507-.207.228-.311.518-.311.871 0 .376.144.693.431.949.287.256.709.389 1.263.389zm.67-.989c-.19 0-.333-.044-.431-.133-.098-.089-.147-.203-.147-.343 0-.122.05-.232.149-.328.096-.093.325-.188.687-.284.265-.067.521-.144.766-.232v.284c0 .222-.036.402-.107.54-.071.138-.193.256-.363.352-.172.096-.356.144-.554.144zm5.428-4.318V.586h-1.781v1.212h1.781zm0 5.202V2.354h-1.781V7h1.781zm2.695 0V5.442c0-.744.092-1.251.276-1.522.128-.192.309-.289.543-.289.122 0 .289.044.499.131l.551-1.269c-.312-.163-.599-.245-.862-.245-.251 0-.462.062-.632.186-.171.124-.336.351-.497.68v-.761h-1.667V7h1.789zm4.672.109c.621 0 1.136-.09 1.544-.269.408-.179.726-.443.954-.79.227-.347.341-.726.341-1.138 0-.35-.085-.666-.256-.949-.171-.283-.443-.52-.818-.711-.375-.191-.995-.38-1.862-.567-.35-.073-.572-.152-.665-.236-.096-.082-.144-.174-.144-.276 0-.14.058-.259.175-.357.117-.098.29-.147.521-.147.28 0 .499.066.658.197.159.131.263.341.313.63l1.868-.109c-.082-.665-.338-1.15-.768-1.455-.43-.305-1.055-.457-1.875-.457-.668 0-1.194.084-1.577.252-.383.168-.671.398-.862.691-.191.293-.287.604-.287.934 0 .502.187.914.56 1.238.37.324.99.583 1.859.779.531.117.869.241 1.015.372.146.131.219.28.219.446 0 .175-.077.329-.23.462-.153.133-.371.199-.654.199-.379 0-.671-.13-.875-.389-.125-.16-.209-.394-.249-.7l-1.886.118c.055.647.293 1.181.713 1.601.421.421 1.177.631 2.268.631zM38.692 7V4.629c0-.353.066-.607.197-.761.131-.155.299-.232.503-.232.125 0 .235.036.328.107.093.071.159.166.197.282.023.073.035.211.035.416V7h1.785V4.603c0-.335.064-.579.192-.731.128-.152.298-.227.507-.227.178 0 .327.08.446.241.082.102.122.258.122.468V7h1.785V4.082c0-.63-.14-1.093-.42-1.389-.28-.296-.669-.444-1.168-.444-.338 0-.623.055-.853.164-.23.109-.486.316-.766.619-.137-.26-.314-.455-.529-.586-.215-.131-.509-.197-.879-.197-.344 0-.638.06-.882.179-.244.12-.485.321-.724.604v-.678h-1.662V7h1.786zm8.759-5.202V.586H45.67v1.212h1.781zm0 5.202V2.354H45.67V7h1.781zm2.847.105c.382 0 .793-.048 1.234-.144l-.131-1.229c-.236.076-.42.114-.551.114-.146 0-.248-.05-.306-.149-.038-.064-.057-.195-.057-.394V3.654h.98V2.355h-.98V.587l-1.785.914v.853h-.656v1.299h.656v1.636c0 .519.05.895.151 1.127.101.232.256.405.466.518.209.114.536.171.979.171zM53.846 7V4.769c0-.423.067-.716.201-.879.134-.163.309-.245.525-.245.195 0 .347.061.455.182.108.121.162.327.162.619V7h1.789V4.047c0-.61-.139-1.062-.418-1.356-.279-.295-.66-.442-1.144-.442-.327 0-.61.054-.849.162-.239.108-.48.287-.722.538V.586h-1.781V7h1.782zm5.853 0V5.215h-1.903V7h1.903zm3.447.109c.51 0 .931-.071 1.262-.214.331-.143.603-.343.816-.602.213-.258.366-.564.459-.917l-1.693-.193c-.079.248-.198.432-.357.551-.159.119-.355.179-.588.179-.28 0-.51-.099-.691-.298-.181-.199-.271-.489-.271-.871 0-.429.091-.749.273-.96.182-.211.421-.317.715-.317.233 0 .419.05.558.151.139.101.234.25.287.448l1.676-.223c-.16-.522-.44-.919-.838-1.19-.398-.271-.976-.407-1.735-.407-.543 0-.987.071-1.334.214-.219.09-.432.228-.639.413-.207.185-.37.394-.49.628-.163.318-.245.716-.245 1.194 0 .458.067.825.201 1.102.134.277.319.518.556.724.236.206.518.354.847.446.327.096.738.142 1.231.142zm5.546-.004c.837 0 1.493-.228 1.967-.685.474-.456.711-1.042.711-1.757 0-.636-.191-1.171-.573-1.606-.475-.54-1.178-.809-2.109-.809-.814 0-1.46.23-1.938.689-.478.459-.717 1.043-.717 1.752 0 .761.283 1.377.849 1.846.46.38 1.064.57 1.81.57zm.009-1.203c-.254 0-.464-.099-.632-.298-.168-.199-.252-.505-.252-.919 0-.408.085-.712.254-.912.169-.2.384-.3.643-.3.245 0 .451.098.617.295.166.197.249.497.249.899 0 .432-.082.745-.247.941-.164.196-.375.294-.632.294zM73.776 7V4.629c0-.353.066-.607.197-.761.131-.155.299-.232.503-.232.125 0 .235.036.328.107.093.071.159.166.197.282.023.073.035.211.035.416V7h1.785V4.603c0-.335.064-.579.192-.731.128-.152.298-.227.507-.227.178 0 .327.08.446.241.082.102.123.258.123.468V7h1.785V4.082c0-.63-.14-1.093-.42-1.389-.28-.296-.669-.444-1.168-.444-.338 0-.623.055-.853.164-.23.109-.486.316-.766.619-.137-.26-.314-.455-.529-.586-.216-.131-.509-.197-.879-.197-.344 0-.638.06-.882.179-.244.12-.485.321-.724.604v-.678h-1.662V7h1.785z" transform="translate(-135 -106) translate(135 106) translate(26 84)"/>
                    <path d="M2.673 7V4.397h.175c.181 0 .343.05.486.149.105.076.225.241.359.494L4.752 7h2.24l-.958-1.859c-.047-.093-.139-.226-.278-.398-.139-.172-.244-.284-.317-.337-.108-.079-.28-.158-.516-.236.295-.067.526-.152.696-.254.265-.16.474-.37.626-.628.152-.258.228-.565.228-.921 0-.408-.099-.755-.298-1.039-.198-.284-.459-.479-.783-.584C5.068.639 4.6.586 3.988.586H.685V7h1.988zm.836-3.815h-.836V1.881h.871c.362 0 .608.055.739.166.131.111.197.27.197.477 0 .14-.042.264-.125.372-.083.108-.19.175-.322.201-.259.059-.434.088-.524.088zm5.98 3.92c.709 0 1.253-.101 1.632-.304.379-.203.703-.537.971-1.004l-1.754-.162c-.111.14-.214.238-.311.293-.158.088-.324.131-.499.131-.277 0-.502-.101-.674-.302-.122-.14-.2-.353-.232-.639h3.57v-.201c0-.613-.101-1.11-.302-1.492-.201-.382-.494-.674-.879-.875-.385-.201-.91-.302-1.575-.302-.82 0-1.462.225-1.927.674-.465.449-.698 1.037-.698 1.763 0 .51.116.954.348 1.332.232.378.524.653.877.827.353.174.837.261 1.453.261zm.892-2.839H8.627c.029-.277.098-.486.206-.626.169-.225.395-.337.678-.337.245 0 .443.074.593.223.15.149.242.395.277.74zm4.187 4.502V6.55c.178.184.38.322.606.416.226.093.476.14.75.14.566 0 1.034-.203 1.404-.61.37-.407.556-.997.556-1.77 0-.7-.17-1.288-.51-1.763-.34-.475-.82-.713-1.442-.713-.315 0-.602.069-.862.206-.193.102-.404.298-.634.586v-.687h-1.667v6.414h1.799v-.001zm.805-2.993c-.236 0-.432-.089-.586-.267-.154-.178-.232-.451-.232-.818 0-.4.076-.688.228-.866.152-.178.341-.267.569-.267.21 0 .388.088.534.265.146.176.219.453.219.829 0 .408-.07.698-.21.868-.142.171-.315.256-.522.256zm4.588 1.33c.417 0 .783-.064 1.098-.193.23-.096.462-.257.696-.481.02.134.041.233.061.295.02.062.064.154.131.273h1.671c-.093-.192-.154-.351-.182-.475-.028-.124-.042-.295-.042-.514V3.958c0-.219-.044-.448-.131-.689-.087-.241-.207-.427-.359-.558-.216-.19-.486-.314-.809-.374-.323-.06-.752-.09-1.286-.09-.333 0-.642.025-.928.074-.286.05-.51.12-.674.21-.228.125-.402.273-.523.444-.121.171-.214.405-.278.702l1.702.179c.07-.201.162-.338.276-.411.146-.093.365-.14.656-.14.228 0 .386.044.477.131.091.087.136.241.136.459-.222.088-.432.158-.63.212-.198.054-.631.148-1.299.282-.557.111-.939.28-1.146.507-.207.228-.311.518-.311.871 0 .376.144.693.431.949.287.256.709.389 1.263.389zm.67-.989c-.19 0-.333-.044-.431-.133-.098-.089-.147-.203-.147-.343 0-.122.05-.232.149-.328.096-.093.325-.188.687-.284.265-.067.521-.144.766-.232v.284c0 .222-.036.402-.107.54-.071.138-.193.256-.363.352-.172.096-.356.144-.554.144zm5.428-4.318V.586h-1.781v1.212h1.781zm0 5.202V2.354h-1.781V7h1.781zm2.695 0V5.442c0-.744.092-1.251.276-1.522.128-.192.309-.289.543-.289.122 0 .289.044.499.131l.551-1.269c-.312-.163-.599-.245-.862-.245-.251 0-.462.062-.632.186-.171.124-.336.351-.497.68v-.761h-1.667V7h1.789zm4.672.109c.621 0 1.136-.09 1.544-.269.408-.179.726-.443.954-.79.227-.347.341-.726.341-1.138 0-.35-.085-.666-.256-.949-.171-.283-.443-.52-.818-.711-.375-.191-.995-.38-1.862-.567-.35-.073-.572-.152-.665-.236-.096-.082-.144-.174-.144-.276 0-.14.058-.259.175-.357.117-.098.29-.147.521-.147.28 0 .499.066.658.197.159.131.263.341.313.63l1.868-.109c-.082-.665-.338-1.15-.768-1.455-.43-.305-1.055-.457-1.875-.457-.668 0-1.194.084-1.577.252-.383.168-.671.398-.862.691-.191.293-.287.604-.287.934 0 .502.187.914.56 1.238.37.324.99.583 1.859.779.531.117.869.241 1.015.372.146.131.219.28.219.446 0 .175-.077.329-.23.462-.153.133-.371.199-.654.199-.379 0-.671-.13-.875-.389-.125-.16-.209-.394-.249-.7l-1.886.118c.055.647.293 1.181.713 1.601.421.421 1.177.631 2.268.631zM38.692 7V4.629c0-.353.066-.607.197-.761.131-.155.299-.232.503-.232.125 0 .235.036.328.107.093.071.159.166.197.282.023.073.035.211.035.416V7h1.785V4.603c0-.335.064-.579.192-.731.128-.152.298-.227.507-.227.178 0 .327.08.446.241.082.102.122.258.122.468V7h1.785V4.082c0-.63-.14-1.093-.42-1.389-.28-.296-.669-.444-1.168-.444-.338 0-.623.055-.853.164-.23.109-.486.316-.766.619-.137-.26-.314-.455-.529-.586-.215-.131-.509-.197-.879-.197-.344 0-.638.06-.882.179-.244.12-.485.321-.724.604v-.678h-1.662V7h1.786zm8.759-5.202V.586H45.67v1.212h1.781zm0 5.202V2.354H45.67V7h1.781zm2.847.105c.382 0 .793-.048 1.234-.144l-.131-1.229c-.236.076-.42.114-.551.114-.146 0-.248-.05-.306-.149-.038-.064-.057-.195-.057-.394V3.654h.98V2.355h-.98V.587l-1.785.914v.853h-.656v1.299h.656v1.636c0 .519.05.895.151 1.127.101.232.256.405.466.518.209.114.536.171.979.171zM53.846 7V4.769c0-.423.067-.716.201-.879.134-.163.309-.245.525-.245.195 0 .347.061.455.182.108.121.162.327.162.619V7h1.789V4.047c0-.61-.139-1.062-.418-1.356-.279-.295-.66-.442-1.144-.442-.327 0-.61.054-.849.162-.239.108-.48.287-.722.538V.586h-1.781V7h1.782zm5.853 0V5.215h-1.903V7h1.903zm3.447.109c.51 0 .931-.071 1.262-.214.331-.143.603-.343.816-.602.213-.258.366-.564.459-.917l-1.693-.193c-.079.248-.198.432-.357.551-.159.119-.355.179-.588.179-.28 0-.51-.099-.691-.298-.181-.199-.271-.489-.271-.871 0-.429.091-.749.273-.96.182-.211.421-.317.715-.317.233 0 .419.05.558.151.139.101.234.25.287.448l1.676-.223c-.16-.522-.44-.919-.838-1.19-.398-.271-.976-.407-1.735-.407-.543 0-.987.071-1.334.214-.219.09-.432.228-.639.413-.207.185-.37.394-.49.628-.163.318-.245.716-.245 1.194 0 .458.067.825.201 1.102.134.277.319.518.556.724.236.206.518.354.847.446.327.096.738.142 1.231.142zm5.546-.004c.837 0 1.493-.228 1.967-.685.474-.456.711-1.042.711-1.757 0-.636-.191-1.171-.573-1.606-.475-.54-1.178-.809-2.109-.809-.814 0-1.46.23-1.938.689-.478.459-.717 1.043-.717 1.752 0 .761.283 1.377.849 1.846.46.38 1.064.57 1.81.57zm.009-1.203c-.254 0-.464-.099-.632-.298-.168-.199-.252-.505-.252-.919 0-.408.085-.712.254-.912.169-.2.384-.3.643-.3.245 0 .451.098.617.295.166.197.249.497.249.899 0 .432-.082.745-.247.941-.164.196-.375.294-.632.294zM73.776 7V4.629c0-.353.066-.607.197-.761.131-.155.299-.232.503-.232.125 0 .235.036.328.107.093.071.159.166.197.282.023.073.035.211.035.416V7h1.785V4.603c0-.335.064-.579.192-.731.128-.152.298-.227.507-.227.178 0 .327.08.446.241.082.102.123.258.123.468V7h1.785V4.082c0-.63-.14-1.093-.42-1.389-.28-.296-.669-.444-1.168-.444-.338 0-.623.055-.853.164-.23.109-.486.316-.766.619-.137-.26-.314-.455-.529-.586-.216-.131-.509-.197-.879-.197-.344 0-.638.06-.882.179-.244.12-.485.321-.724.604v-.678h-1.662V7h1.785z" transform="translate(-135 -106) translate(135 106) translate(26 84)"/>
                </g>
                <g transform="translate(-135 -106) translate(135 106) translate(74 113)">
                    <circle cx="22" cy="22" r="22" fill="#212123"/>
                    <circle cx="22" cy="22" r="12" fill="#A0A0A0"/>
                    <circle cx="22" cy="22" r="10.5" fill="#4A4A4C"/>
                    <path fill="#212123" d="M21.36 27.144c.582-.306 1.26-.102 1.649.408.388.613.194 1.43-.388 1.736-.582.408-1.358.204-1.65-.409-.388-.612-.194-1.429.389-1.735zm-5.896-2.557c.336-.643 1.14-.883 1.697-.532.644.3.856 1.074.47 1.633-.336.642-1.14.882-1.696.531-.556-.35-.72-1.041-.471-1.632zm12.993-.025c.385.559.174 1.333-.471 1.633-.556.351-1.36.11-1.697-.532-.248-.59-.085-1.281.471-1.632.556-.351 1.36-.11 1.697.531zm-8.575-4.68c1.061-1.202 2.97-1.273 4.17-.072.566.565.919 1.342.918 2.19.07.778-.283 1.556-.849 2.121-1.202 1.202-3.04 1.203-4.24.002-1.13-1.13-1.2-3.038.001-4.24zm6.407-1.545c.336-.643 1.14-.883 1.697-.532.645.3.856 1.074.471 1.633-.336.642-1.14.882-1.697.531-.556-.35-.719-1.041-.47-1.632zm-8.657-.025c.385.559.173 1.333-.471 1.633-.557.351-1.36.11-1.697-.532-.248-.59-.085-1.281.47-1.632.557-.351 1.361-.11 1.698.531zm3.728-3.668c.582-.306 1.26-.102 1.649.408.388.613.194 1.43-.388 1.736-.582.408-1.358.204-1.65-.409-.388-.612-.194-1.429.389-1.735z" transform="rotate(45 22 22)"/>
                </g>
                <g transform="translate(-135 -106) translate(135 106) translate(326 113)">
                    <circle cx="22" cy="22" r="22" fill="#212123"/>
                    <circle cx="22" cy="22" r="12" fill="#A0A0A0"/>
                    <circle cx="22" cy="22" r="10.5" fill="#4A4A4C"/>
                    <path fill="#212123" d="M21.36 27.144c.582-.306 1.26-.102 1.649.408.388.613.194 1.43-.388 1.736-.582.408-1.358.204-1.65-.409-.388-.612-.194-1.429.389-1.735zm-5.896-2.557c.336-.643 1.14-.883 1.697-.532.644.3.856 1.074.47 1.633-.336.642-1.14.882-1.696.531-.556-.35-.72-1.041-.471-1.632zm12.993-.025c.385.559.174 1.333-.471 1.633-.556.351-1.36.11-1.697-.532-.248-.59-.085-1.281.471-1.632.556-.351 1.36-.11 1.697.531zm-8.575-4.68c1.061-1.202 2.97-1.273 4.17-.072.566.565.919 1.342.918 2.19.07.778-.283 1.556-.849 2.121-1.202 1.202-3.04 1.203-4.24.002-1.13-1.13-1.2-3.038.001-4.24zm6.407-1.545c.336-.643 1.14-.883 1.697-.532.645.3.856 1.074.471 1.633-.336.642-1.14.882-1.697.531-.556-.35-.719-1.041-.47-1.632zm-8.657-.025c.385.559.173 1.333-.471 1.633-.557.351-1.36.11-1.697-.532-.248-.59-.085-1.281.47-1.632.557-.351 1.361-.11 1.698.531zm3.728-3.668c.582-.306 1.26-.102 1.649.408.388.613.194 1.43-.388 1.736-.582.408-1.358.204-1.65-.409-.388-.612-.194-1.429.389-1.735z" transform="rotate(45 22 22)"/>
                </g>
            </g>
        </g>
    </g>
</svg>
