<svg id="SvgjsSvg1536" width="288" height="288" xmlns="http://www.w3.org/2000/svg" version="1.1" xmlns:xlink="http://www.w3.org/1999/xlink" xmlns:svgjs="http://svgjs.com/svgjs"><defs id="SvgjsDefs1537"></defs><g id="SvgjsG1538"><svg xmlns="http://www.w3.org/2000/svg" xmlns:svgjs="http://svgjs.com/svgjs" xmlns:xlink="http://www.w3.org/1999/xlink" width="288" height="288"><svg xmlns="http://www.w3.org/2000/svg" xmlns:xlink="http://www.w3.org/1999/xlink" width="288" height="288" aria-hidden="true" data-name="Layer 1" viewBox="0 0 240 184"><defs><mask id="d" width="54.36" height="17.85" x="135.88" y="43" maskUnits="userSpaceOnUse"><g class="color000 svgShape" data-name="mask-6" fill="#000000"><path fill="#ffffff" fill-rule="evenodd" d="M135.88 60.85h54.35V43h-54.35v17.85z" class="colorfff svgShape" data-name="path-5"></path></g></mask><mask id="s" width="13.94" height="16.58" x="1" y="90.71" maskUnits="userSpaceOnUse"><g class="color000 svgShape" data-name="mask-31" fill="#000000"><path fill="#ffffff" fill-rule="evenodd" d="M1 90.71h13.94v16.58H1V90.71z" class="colorfff svgShape" data-name="path-30"></path></g></mask><mask id="e" width="54.42" height="17.85" x="135.88" y="43" maskUnits="userSpaceOnUse"><g class="color000 svgShape" data-name="mask-6" fill="#000000"><path fill="#ffffff" fill-rule="evenodd" d="M135.88 60.85h54.35V43h-54.35v17.85z" class="colorfff svgShape" data-name="path-5"></path></g></mask><mask id="f" width="154.78" height="16.89" x="76" y="149.44" maskUnits="userSpaceOnUse"><g class="color000 svgShape" data-name="mask-8" fill="#000000"><path fill="#ffffff" fill-rule="evenodd" d="M76 160.5c0-1.27 5.27-2.68 17.89-4.18 20.91-2.48 55.85-6.88 55.85-6.88l81 2.15s-29.1 9.51-38.66 12.07c-19 5.06-116 2.33-116.12-3.14" class="colorfff svgShape" data-name="path-7"></path></g></mask><mask id="h" width="9.19" height="22.82" x="174.18" y="60.37" maskUnits="userSpaceOnUse"><g class="color000 svgShape" data-name="mask-11" fill="#000000"><path fill="#ffffff" fill-rule="evenodd" d="M183.38 60.38l-5.8 22.76h-3.4L180 60.37h1.06" class="colorfff svgShape" data-name="path-10"></path></g></mask><mask id="i" width="12.58" height="22.99" x="165.73" y="60.38" maskUnits="userSpaceOnUse"><g class="color000 svgShape" data-name="mask-14" fill="#000000"><path fill="#ffffff" fill-rule="evenodd" d="M178.31 60.38l-5.82 22.84-6.76.15 5.84-23" class="colorfff svgShape" data-name="path-13"></path></g></mask><mask id="k" width="14.02" height="22.68" x="181.85" y="60.4" maskUnits="userSpaceOnUse"><g class="color000 svgShape" data-name="mask-17" fill="#000000"><path fill="#ffffff" fill-rule="evenodd" d="M195.87 60.5l-5.8 22.57h-8.22l5.77-22.67" class="colorfff svgShape" data-name="path-16"></path></g></mask><mask id="m" width="4.95" height="15.52" x="226.52" y="72.14" maskUnits="userSpaceOnUse"><g class="color000 svgShape" data-name="mask-20" fill="#000000"><path fill="#ffffff" fill-rule="evenodd" d="M231.47 77.83l-2.53 9.83h-2.42l4-15.5" class="colorfff svgShape" data-name="path-19"></path></g></mask><mask id="o" width="9.01" height="21.11" x="220.91" y="66.5" maskUnits="userSpaceOnUse"><g class="color000 svgShape" data-name="mask-23" fill="#000000"><path fill="#ffffff" fill-rule="evenodd" d="M229.92 69.46l-4.59 18.15c-1.77 0-3.39-.16-4.32-.29 0-.38-.07-.77-.1-1.15l5-19.67a19.71 19.71 0 013.56 1.18" class="colorfff svgShape" data-name="path-22"></path></g></mask><mask id="q" width="38.28" height="2.38" x="18.34" y="168.14" maskUnits="userSpaceOnUse"><g class="color000 svgShape" data-name="mask-26" fill="#000000"><path fill="#ffffff" fill-rule="evenodd" d="M18.34 169.33c0 .66 8.57 1.19 19.14 1.19 10.51 0 19-.53 19.14-1.18-.11-.66-8.63-1.18-19.14-1.18-10.57 0-19.14.53-19.14 1.19" class="colorfff svgShape" data-name="path-25"></path></g></mask><mask id="r" width="16.71" height="19.09" x="15.97" y="65.29" maskUnits="userSpaceOnUse"><g class="color000 svgShape" data-name="mask-29" fill="#000000"><path fill="#ffffff" fill-rule="evenodd" d="M15.97 65.29h16.72v19.09H15.97V65.29z" class="colorfff svgShape" data-name="path-28"></path></g></mask><mask id="c" width=".44" height="1" x="135.87" y="59.89" maskUnits="userSpaceOnUse"><g class="color000 svgShape" data-name="mask-4" fill="#000000"><path fill="#ffffff" fill-rule="evenodd" d="M135.88 59.95h.43v.89h-.43v-.89z" class="colorfff svgShape" data-name="path-3"></path></g></mask><mask id="t" width="67.87" height="2.37" x="57.48" y="168.52" maskUnits="userSpaceOnUse"><g class="color000 svgShape" data-name="mask-33" fill="#000000"><path fill="#ffffff" fill-rule="evenodd" d="M57.48 169.7c0 .66 15.2 1.18 33.94 1.18s33.93-.52 33.93-1.18c0-.65-15.19-1.18-33.93-1.18-18.74 0-33.94.53-33.94 1.18" class="colorfff svgShape" data-name="path-32"></path></g></mask><mask id="v" width="14.52" height="12.07" x="80.38" y="58.28" maskUnits="userSpaceOnUse"><g class="color000 svgShape" data-name="mask-36" fill="#000000"><path fill="#ffffff" fill-rule="evenodd" d="M80.38 58.28h14.51v12.07H80.38V58.28z" class="colorfff svgShape" data-name="path-35"></path></g></mask><linearGradient id="g" x1="-272.72" x2="-272.72" y1="386.31" y2="385.39" gradientTransform="matrix(154.78 0 0 -16.89 42364.52 6675.43)" gradientUnits="userSpaceOnUse"><stop class="stopColore3ecf3 svgShape" offset="0" stop-color="#e3ecf3"></stop><stop class="stopColore0f2ff svgShape" offset="1" stop-color="#e0f2ff" stop-opacity="0"></stop></linearGradient><linearGradient id="a" x1="-244.61" x2="-244.52" y1="388.9" y2="389.95" gradientTransform="matrix(9.19 0 0 -22.82 2427.21 8951.29)" gradientUnits="userSpaceOnUse"><stop class="stopColor21507c svgShape" offset="0" stop-color="#21507c"></stop><stop class="stopColorfff svgShape" offset="1" stop-color="#ffffff"></stop></linearGradient><linearGradient id="j" x1="-252.67" x2="-252.55" y1="389.03" y2="390.08" gradientTransform="matrix(12.58 0 0 -22.99 3351.09 9021.06)" xlink:href="#a"></linearGradient><linearGradient id="l" x1="-254.92" x2="-254.78" y1="388.9" y2="389.96" gradientTransform="matrix(14.02 0 0 -22.68 3763.2 8897.77)" xlink:href="#a"></linearGradient><linearGradient id="n" x1="-218.96" x2="-218.86" y1="384.26" y2="385.82" gradientTransform="matrix(4.95 0 0 -15.52 1312.61 6051.86)" xlink:href="#a"></linearGradient><linearGradient id="p" x1="-244.01" x2="-243.91" y1="387.94" y2="389.08" gradientTransform="matrix(9.01 0 0 -21.11 2423.37 8277.33)" xlink:href="#a"></linearGradient><linearGradient id="b" x1="-267.82" x2="-266.82" y1="309.04" y2="309.04" gradientTransform="matrix(38.28 0 0 -2.38 10271.21 905.19)" gradientUnits="userSpaceOnUse"><stop class="stopColore1f2fb svgShape" offset="0" stop-color="#e1f2fb"></stop><stop class="stopColore1f2fb svgShape" offset="1" stop-color="#e1f2fb"></stop></linearGradient><linearGradient id="u" x1="-270.95" x2="-269.95" y1="308.47" y2="308.47" gradientTransform="matrix(67.87 0 0 -2.37 18446.29 899.48)" xlink:href="#b"></linearGradient></defs><g class="color000 svgShape" data-name="sell-circle-lock-up-02" fill="#000000"><path fill="#ffffff" d="M0 0h240v184H0z" class="colorfff svgShape" data-name="Rectangle"></path><g class="color000 svgShape" data-name="sell-circle-lock-up" fill="#000000"><g class="color000 svgShape" data-name="Group-6-Copy-2" fill="#000000"><path fill="#66ccff" fill-rule="evenodd" d="M194.43 92.49A71.5 71.5 0 11122.93 21a71.5 71.5 0 0171.5 71.49" class="colorffe727 svgShape color6cf" data-name="Fill-4"></path></g><g class="color000 svgShape" data-name="appraisal-hat" fill="#000000"><g class="color000 svgShape" data-name="Group-11" fill="#000000"><g class="color000 svgShape" mask="url(#c)" fill="#000000"><path fill="none" stroke="#909294" d="M135.87 60.4h0" class="colorStroke909294 svgStroke" data-name="Stroke-1"></path></g><path fill="#febd11" fill-rule="evenodd" d="M186.87 57.85H169.8a1 1 0 01-1-1.05V44.05a1 1 0 011-1h17.07a1 1 0 011 1V56.8a1 1 0 01-1 1.05" class="colorfebd11 svgShape"></path><g class="color000 svgShape" mask="url(#d)" fill="#000000"><path fill="#1c3664" fill-rule="evenodd" d="M170.83 55.74h15.01V45.11h-15.01v10.63z" class="color1c3664 svgShape" data-name="Fill-6"></path></g><g class="color000 svgShape" mask="url(#d)" fill="#000000"><path fill="none" stroke="#52cc99" stroke-linecap="round" stroke-linejoin="round" d="M173.1 50.42h6.31" class="colorStrokefebd11 svgStroke colorStroke52cc99" data-name="Stroke-8"></path></g><g class="color000 svgShape" mask="url(#d)" fill="#000000"><path fill="none" stroke="#52cc99" stroke-linecap="round" stroke-linejoin="round" d="M173.1 52.84h9.3" class="colorStrokefebd11 svgStroke colorStroke52cc99" data-name="Stroke-9"></path></g><g class="color000 svgShape" mask="url(#e)" fill="#000000"><path fill="none" stroke="#52cc99" stroke-linecap="round" stroke-linejoin="round" d="M166.87 57.85h22.92" class="colorStrokefebd11 svgStroke colorStroke52cc99" data-name="Stroke-10"></path></g></g></g><g class="color000 svgShape" data-name="jeep shadow" fill="#000000"><g class="color000 svgShape" data-name="Group-195" fill="#000000"><g class="color000 svgShape" mask="url(#f)" fill="#000000"><path fill="url(#g)" fill-rule="evenodd" d="M93.89 156.32c20.91-2.48 55.85-6.88 55.85-6.88l81 2.15s-29.1 9.51-38.66 12.07c-23.36 6.24-165.43.63-98.23-7.34" data-name="Fill-1"></path></g><path fill="#ebebec" fill-rule="evenodd" d="M95.85 113.09a18.19 18.19 0 00.89 3.6c.83 2.63 3.61 2.35 4.93 2.36 11.89.09 55.24 0 56.7 0a2.39 2.39 0 012 .87s.83.06 2.05.06 2.58-2.35 2.86-3.06 1.42-4.94 1.42-4.94h-1.11s2.08-6.21 2.82-8.33a6.9 6.9 0 015.3-4.65c3.1-.81 12.3-.91 14.06-.74s7.33 1.31 9.7 1.92 3.27 2.35 3.75 4.17 1.82 10.25 2 12.2 1 10.48 1 10.48c2.23-.24 14.33-2.08 14.33-2.08s3.72-15.2 4-16.54 1-6.9 3.41-7.82a13.28 13.28 0 016.39-.46 11.46 11.46 0 013.19 1.08s-.08-4.5-.08-4.9c0-.85-.85-.94-.93-1s-.62-1.11-.62-1.17v-.34h-14.43c-.41-14.83-4.27-31.59-4.27-31.59-1.14-.52-12-1.33-12-1.33a2.38 2.38 0 00-2-2.28c-.24 0-2.71-.22-3.61-.27-3.34-.18-25.3-.23-31.3 0s-29.25 2-32.32 2.38-3.53 2.47-4 3.21-6.52 16.38-8.34 24.21c0 0-11.37 1.86-18.84 5.24-1.09.49-5.11 1.93-6.5 6.58S96.08 112 96.08 112s.67-.15.73.44-.24.56-1 .64" class="colorebebec svgShape"></path><path fill="#172b33" d="M79.68 111.4h16.18v10.24H79.68z" class="color172b33 svgShape"></path><path fill="#b4bcc2" fill-rule="evenodd" d="M101.67 119.05c11.89.09 55.25 0 56.7 0a2.39 2.39 0 012 .87h2.05c1.22 0 2.58-2.34 2.86-3s1.42-4.94 1.42-4.94h-1.8s.56-6.22.74-8.58c0 0-10.44 3.74-31 9.93-5.63 1.7-33 5.77-33 5.77" class="colorb4bcc2 svgShape"></path><path fill="#384d59" fill-rule="evenodd" d="M215.21 62.21s3.86 16.79 4.27 31.59h14.92s-1.4-18.65-4.74-29.54c-.24-.77-1.27-1.29-2.39-1.75s-17-4.34-28.41-4.51a2.2 2.2 0 00-1.24.33l3.61.27a2.38 2.38 0 012 2.28s10.83.81 12 1.33" class="color384d59 svgShape" data-name="Fill-8"></path><path fill="#172b33" fill-rule="evenodd" d="M221 87.32a204.35 204.35 0 00-3.23-22.09c5.39.5 9.37 1.36 11.72 2.45a162.88 162.88 0 013.23 19.74 61.3 61.3 0 01-11.72-.1" class="color172b33 svgShape" data-name="Fill-10"></path><path fill="none" stroke="#172b33" stroke-width=".5" d="M215.21 62.21a60.88 60.88 0 0114.85 3.45" class="colorStroke172b33 svgStroke" data-name="Stroke-12"></path><path fill="#172b33" fill-rule="evenodd" d="M204.94 63.44s6.77.41 7.95.76a1.87 1.87 0 011.57 1.66c.18.76 2.27 16.35 2.31 20.7 0 0-10.79.28-12.05.19s-1.17-2.27-1.14-3 .44-17.14.44-18.38.16-2 .92-2" class="color172b33 svgShape" data-name="Fill-14"></path><path fill="#384d59" fill-rule="evenodd" d="M204.14 88.22c-.29 0-1-.07-1 3 0 2.23.94 3 1.36 3s.74-.47.83-1l4.37-.87a.83.83 0 00.57-1c0-.65-.1-1.07-.14-1.41a1.65 1.65 0 00-.31-.67l.06-1.83s6.28-.24 6.51-.28 1.38-.56 1.36-1.43-.17-6.83-.24-7.43a1.75 1.75 0 00-1.51-1.42c-.79 0-8.24.14-8.62.16a2.09 2.09 0 00-1.79 2.14c-.07 1.7 0 5.49 0 6s.34 1.79 1.46 2l.07 2.27-2.15.09s-.17-1.46-.88-1.36" class="color384d59 svgShape" data-name="Fill-16"></path><path fill="#172b33" fill-rule="evenodd" d="M217.77 85.79c0 .87-1.14 1.38-1.36 1.42s-6.51.3-6.51.3c-.25-1.36-1-1.37-1-1.37-.06.27 0 3.35 0 3.35h-1.71l-.07-2.28c-1.12-.24-1.41-1.51-1.46-2s-.11-4.3 0-6c0 0 .48 4.33 1.13 4.68s5.86.35 6.74.3.95 2 2.54 2.09a2.44 2.44 0 001.76-.46" class="color172b33 svgShape" data-name="Fill-18"></path><path fill="#172b33" fill-rule="evenodd" d="M203.16 91.19c0 2.33.94 3 1.36 3s.74-.47.83-1l4.37-.87a.83.83 0 00.57-1s-.25.35-.52.38-.34-.75-.58-.82a11.94 11.94 0 00-4.58.23c-.31.14-.06.87-.13 1.1-.16.51-.65-.39-.82-1-.24-.86-.5-.75-.5-.12" class="color172b33 svgShape" data-name="Fill-20"></path><path fill="#172b33" fill-rule="evenodd" d="M217.77 94.53c0 1.64-.37 3-.83 3s-.84-1.33-.84-3 .38-3 .84-3 .83 1.33.83 3" class="color172b33 svgShape" data-name="Fill-22"></path><path fill="#172b33" fill-rule="evenodd" d="M95.85 113.09s-3.31 0-4.83 1.2a1.32 1.32 0 00-.3.53 1.48 1.48 0 00-1.6 1.26 1 1 0 00-.73 1 .64.64 0 00-.45.21 1.57 1.57 0 01-.74.46c-.25.06-.55.61-.41 1.3a.77.77 0 00-.48.6s-6.93-.19-7.37-.19c-.75 0-2 .11-2.18.74s-.82 2.46 0 7a2.24 2.24 0 001.22 1.9c.24.25.73 1.52 4.25 1.79a7 7 0 00-.1 1.27 5.83 5.83 0 00.53.87.78.78 0 00-.21 1.16 1.94 1.94 0 01-.29.55 1.11 1.11 0 000 1.38 2 2 0 00-.52 1.2c0 .63.4.78.42 1.24S80.87 160 98 160c6.33 0 9.35-1.15 12.54-6.85a4 4 0 00.74-.6c.1-.16 1-2.85 1-3.22s.33-.49.44-.63a2.72 2.72 0 00.14-1.37 1.63 1.63 0 00.59-1.2c0-.72-.21-.72-.19-.89s.33-.39.33-.39L114 142s28.21.48 29.59.46a15.09 15.09 0 00.71 2.16 2.45 2.45 0 00.43.14s.32.75.47 1.2.29 1 1.05 1.21c.25.07.17.42.22.52s.44.37.49.45a1.21 1.21 0 001.33.56c1-.11-.28 1.14 5.86 1.14s7.32-2.76 7.5-3.05.52-.36.73-.69a23.17 23.17 0 00.8-2.25s6.75-1 8.23-1.5c0 0 .46 20.61 10.76 20.61h7.86c1.18 0 10.29.65 10.29-26.85 0 0 13.65-2.15 15.14-2.42 0 0 .7 17.95 8.21 17.95h6.22c1.56 0 7.1-.19 7.1-25.47h.57a5.61 5.61 0 002-3.27c.1-1.47 0-5.89 0-6.46s-.39-.54-.56-.54h-.85v-.79s.8 0 .8-.18v-.34s.43 0 .43-.38.06-5.59 0-5.94 0-1.15-1-1.15a31.56 31.56 0 00-.55-3.45c-.75-2.44-4.43-3.37-5.56-3.56a13.28 13.28 0 00-6.39.46c-2.36.92-3.14 6.48-3.41 7.82s-4 16.54-4 16.54-12.1 1.84-14.33 2.08c0 0-.8-8.53-1-10.48s-1.55-10.39-2-12.2-1.39-3.57-3.75-4.17-7.95-1.75-9.7-1.92-11-.07-14.06.74a6.9 6.9 0 00-5.28 4.64c-.74 2.12-2.82 8.33-2.82 8.33h1.11s-1.14 4.24-1.42 4.94-1.64 3.06-2.86 3.06-2.05-.06-2.05-.06a2.39 2.39 0 00-2-.87c-1.46 0-44.81.14-56.7 0-1.32 0-4.1.27-4.93-2.36a18.19 18.19 0 01-.89-3.6" class="color172b33 svgShape" data-name="Fill-24"></path><path fill="#384d59" fill-rule="evenodd" d="M82.23 130.93a7 7 0 00-.1 1.27 5.83 5.83 0 00.53.87.78.78 0 00-.21 1.16 1.94 1.94 0 01-.29.55 1.11 1.11 0 000 1.38 2 2 0 00-.52 1.2c0 .63.4.78.42 1.24 0 .3-.53 9.4 3.94 15.62 0 0 .69-.21.83-.28s.28-.53.29-.63-.32-1-.5-1-.65.31-.73.27-.42-.37-.38-.56.41-.19.53-.35a2.41 2.41 0 00.29-.84 7.45 7.45 0 00-1-1.17 2.7 2.7 0 00-.59-.14c-.17 0-.33-.68-.33-.77s.54-.39.7-.55a3 3 0 00.4-.9 3.43 3.43 0 00-.76-1.16 2.49 2.49 0 01-.34 0 4.39 4.39 0 01-.24-1.19c0-.16.34-.21.4-.39s.35-.76.39-.95.12-.56.27-.63.73-.3.83-.34.14-.43.18-.49.36-.15.47-.34-.09-1.34-.4-1.39c-.48-.08-2.26 1-2.33 1-.33-.23-.53-.85 0-1 .11 0 1.9-.56 1.94-.64s1-1.3.93-1.48a5.74 5.74 0 00-.56-1.17c-.15-.12-.92.23-1 .17s-1.18-1.55-1.09-1.88.56-.94.56-1.14-.35-.44-.47-.59a3.06 3.06 0 01-.65-2.38z" class="color384d59 svgShape" data-name="Fill-26"></path><path fill="#384d59" fill-rule="evenodd" d="M162.44 119.93c-1.22 0-2.05-.06-2.05-.06s-3.65.56-4.09.74a6.79 6.79 0 00-1.89 2.13s15.85 0 19.86-.21a39.51 39.51 0 014.49-.2c.32 0 2.08 0 2.08 3.5 0 1.65.31 3.31 2.33 3.09.43 0 .67-.9.78-1.42s1.13-5.71 1.29-6.53 0-1.17-.65-1.1-20.87.07-22.15.06" class="color384d59 svgShape" data-name="Fill-28"></path><path fill="#384d59" fill-rule="evenodd" d="M78 129.14a2.24 2.24 0 01-1.22-1.9c-.82-4.58-.21-6.41 0-7s1.43-.74 2.18-.74c.44 0 7.37.19 7.37.19l7.86.17a15.13 15.13 0 015.34-1.06c2.7 0 7.8 0 8.08.06a.89.89 0 01.71.43 17.65 17.65 0 00-4 .53 11.63 11.63 0 00-2.47 2.83c-.44 1.41-.35 7.49-.35 7.49s-12.17-.28-21.22-.75c-.39 0-2.31-.21-2.31-.21" class="color384d59 svgShape" data-name="Fill-30"></path><path fill="#384d59" fill-rule="evenodd" d="M239 114.91v-.34s.43 0 .43-.38.06-5.59 0-5.94 0-1.15-1-1.15a31.56 31.56 0 00-.55-3.45c-.76-2.44-4.43-3.37-5.56-3.56a13.28 13.28 0 00-6.39.46c-2.35.92-3.14 6.48-3.41 7.82s-4 16.54-4 16.54 5.39.16 5.93.13 1.71-.23 1.85-.25 3.5-14.93 4.06-16.58 1.1-2.69 2.32-2.89a16 16 0 013.86-.16c.34.13 1.06.07 1.23 1.25s.86 8.66.86 8.66a.34.34 0 00.3-.16" class="color384d59 svgShape" data-name="Fill-32"></path><path fill="#384d59" fill-rule="evenodd" d="M238.81 123.38v-6.47a1.06 1.06 0 00-.62-1h.81c.17 0 .56 0 .56.54s.1 5 0 6.46a5 5 0 01-1.16 2.43 5.64 5.64 0 00.37-1.93" class="color384d59 svgShape" data-name="Fill-34"></path><path fill="#384d59" fill-rule="evenodd" d="M200.18 133l21.48-3.69c.38 0 .44-.24.49-.49s.14-1.8.15-2 .14-.76-.43-.64-3.31.81-3.53.46c-.08-.16.21-.29.33-.36s-1.16.27-1.23 0l-17.37 2.3c-.41.08-.27.85-.24 1.11l.35 3.3" class="color384d59 svgShape" data-name="Fill-36"></path><path fill="#172b33" fill-rule="evenodd" d="M85.23 101.74c-2.73.75-3.9 1.67-4.44 3.61a54.7 54.7 0 00-1.35 6.8s11.52.33 12 .3 4.42-1 4.42-1a38.63 38.63 0 01.49-11.45s-8.35 1-11.12 1.74z" class="color172b33 svgShape" data-name="Fill-38"></path><path fill="#384d59" fill-rule="evenodd" d="M91.44 112.45l-12-.3a54.7 54.7 0 011.35-6.8c.54-1.94 1.71-2.86 4.44-3.61 2-.55 7.15-1.27 9.67-1.6 0 0-3.4.38-3.46 12.31" class="color384d59 svgShape" data-name="Fill-40"></path><path fill="#e8e7e7" fill-rule="evenodd" d="M111.92 126.27a2.42 2.42 0 11-2.38-2.9 2.67 2.67 0 012.38 2.9" class="colore8e7e7 svgShape" data-name="Fill-42"></path><path fill="#e8e7e7" fill-rule="evenodd" d="M138.81 126.27a2.42 2.42 0 11-2.37-2.9 2.67 2.67 0 012.37 2.9" class="colore8e7e7 svgShape" data-name="Fill-44"></path><path fill="#384d59" fill-rule="evenodd" d="M107.93 119.85c-.07 0-2.2.4-2.4.48a13.79 13.79 0 00-1.35 2 .68.68 0 000 .33H107a4.73 4.73 0 00-.87 1.19 3.59 3.59 0 013.08-1.52c2.17 0 3.45 2.41 3.64 2.94a7.52 7.52 0 00-.92-2.6s19 .3 21.17.23a5.25 5.25 0 00-1.15 2.23s1.26-2.73 3.93-2.73a4.43 4.43 0 013.44 1.94 3.12 3.12 0 00-.78-1.53l2.62.11a3.87 3.87 0 00-.08.48s8.57.19 9.62.17c0 0 2-2.66 2.51-3.13s4.55-1.32 5.9-1.33a1.12 1.12 0 00-.47-.26h-11.92c-.27 0-3.05.88-3.37 1a.81.81 0 00-.47.33s-33.89-.35-34.94-.27" class="color384d59 svgShape" data-name="Fill-46"></path><path fill="#172b33" fill-rule="evenodd" d="M113.36 98.05a1.77 1.77 0 00-2.15 1.48c-.09.78-1.12 13-1.12 13.75a1.8 1.8 0 001.8 1.9 1.75 1.75 0 002.11-1.58c0-1.13.67-10.15.89-14 0-.52-.22-1.4-1.53-1.5" class="color172b33 svgShape" data-name="Fill-48"></path><path fill="#384d59" fill-rule="evenodd" d="M114 113.94c0 .57-.06 1-.07 1.17a1.76 1.76 0 01-2.11 1.59 1.8 1.8 0 01-1.79-1.91c0-.16.11-1.58.11-1.51a2 2 0 003.86.66" class="color384d59 svgShape" data-name="Fill-50"></path><path fill="#172b33" fill-rule="evenodd" d="M118.9 97.84a1.79 1.79 0 00-2.16 1.48c-.08.79-1.11 13.25-1.11 14a1.8 1.8 0 001.8 1.9 1.75 1.75 0 002.11-1.58c0-1.13.67-10.36.89-14.26 0-.52-.22-1.39-1.53-1.5" class="color172b33 svgShape" data-name="Fill-52"></path><path fill="#384d59" fill-rule="evenodd" d="M119.5 113.88c0 .6-.06 1-.07 1.22a1.76 1.76 0 01-2.11 1.59 1.8 1.8 0 01-1.79-1.9c0-.14.1-1.54.1-1.51a2 2 0 003.87.6" class="color384d59 svgShape" data-name="Fill-54"></path><path fill="#172b33" fill-rule="evenodd" d="M124.61 97.61c-1.34-.11-2.13.57-2.22 1.48s-1.15 13.25-1.15 14a2.05 2.05 0 001.9 2.13c1.24.1 2.13-.57 2.17-1.58s.65-10.59.88-14.49c0-.53-.23-1.4-1.58-1.5" class="color172b33 svgShape" data-name="Fill-56"></path><path fill="#384d59" fill-rule="evenodd" d="M125.27 113.92c0 .53 0 .91-.06 1.09a1.8 1.8 0 01-2.17 1.58 2.06 2.06 0 01-1.9-2.13c0-.13.09-1.42.09-1.42a2.06 2.06 0 001.91 2.14 1.86 1.86 0 002.13-1.26" class="color384d59 svgShape" data-name="Fill-58"></path><path fill="#172b33" fill-rule="evenodd" d="M130.35 97.61c-1.34-.11-2.12.57-2.22 1.48s-1.15 13.25-1.15 14a2.05 2.05 0 001.9 2.13 1.8 1.8 0 002.18-1.58c0-1.13.64-10.59.87-14.49 0-.53-.22-1.4-1.58-1.5" class="color172b33 svgShape" data-name="Fill-60"></path><path fill="#384d59" fill-rule="evenodd" d="M131 113.86c0 .55-.06.94-.06 1.12a1.82 1.82 0 01-2.18 1.59 2.06 2.06 0 01-1.9-2.14c0-.14.1-1.41.1-1.39a2.05 2.05 0 001.9 2.14 1.84 1.84 0 002.14-1.32" class="color384d59 svgShape" data-name="Fill-62"></path><path fill="#172b33" fill-rule="evenodd" d="M136.08 97.43c-1.34-.11-2.12.58-2.22 1.48s-1.15 13.43-1.15 14.13a2.05 2.05 0 001.9 2.14 1.8 1.8 0 002.18-1.58c0-1.13.64-10.77.87-14.67 0-.52-.22-1.4-1.58-1.5" class="color172b33 svgShape" data-name="Fill-64"></path><path fill="#384d59" fill-rule="evenodd" d="M136.74 113.91c0 .52-.05.9-.05 1.07a1.81 1.81 0 01-2.18 1.59 2.07 2.07 0 01-1.91-2.14c0-.13.11-1.41.11-1.39a2.05 2.05 0 001.89 2.14 1.86 1.86 0 002.14-1.27" class="color384d59 svgShape" data-name="Fill-66"></path><path fill="#172b33" fill-rule="evenodd" d="M142.05 97.43c-1.39-.11-2.22.58-2.32 1.48s-1.2 13.43-1.2 14.13a2.09 2.09 0 002 2.14c1.3.1 2.24-.57 2.28-1.58s.67-10.77.92-14.67c0-.52-.24-1.4-1.66-1.5" class="color172b33 svgShape" data-name="Fill-68"></path><path fill="#384d59" fill-rule="evenodd" d="M142.75 113.89c0 .52-.06.88-.06 1-.05 1-1 1.68-2.28 1.59a2.1 2.1 0 01-2-2.14c0-.15.1-1.41.1-1.35a2.1 2.1 0 002 2.14 2 2 0 002.24-1.29" class="color384d59 svgShape" data-name="Fill-70"></path><path fill="#172b33" fill-rule="evenodd" d="M148.11 97.43c-1.4-.11-2.22.58-2.32 1.48s-1.21 13.43-1.21 14.13a2.09 2.09 0 002 2.14c1.3.1 2.23-.57 2.28-1.58s.67-10.77.91-14.67c0-.52-.23-1.4-1.65-1.5" class="color172b33 svgShape" data-name="Fill-72"></path><path fill="#384d59" fill-rule="evenodd" d="M148.81 113.86c0 .56-.06 1-.06 1.14-.05 1-1 1.68-2.28 1.59a2.1 2.1 0 01-2-2.14c0-.14.1-1.43.1-1.41a2.09 2.09 0 002 2.14 1.92 1.92 0 002.24-1.32" class="color384d59 svgShape" data-name="Fill-74"></path><path fill="#172b33" fill-rule="evenodd" d="M108.28 99.73a5 5 0 00-4.28-3 6.52 6.52 0 00-6.55 6.37c-.22 3.31 1.33 6.52 5 6.64 3.88.14 5.59-3.69 5.59-3.69z" class="color172b33 svgShape" data-name="Fill-76"></path><path fill="#ffffff" fill-rule="evenodd" d="M109 102.67c0 3.08-2.17 5.57-4.86 5.57s-4.85-2.49-4.85-5.57 2.17-5.58 4.85-5.58 4.86 2.5 4.86 5.58" class="colorfff svgShape" data-name="Fill-78"></path><path fill="#a1dcf3" fill-rule="evenodd" d="M107.27 106.94a4.48 4.48 0 01-3.11 1.3c-2.69 0-4.86-2.49-4.86-5.57a5.64 5.64 0 013-5.14 8.64 8.64 0 001.66 6.71 7.42 7.42 0 003.34 2.7" class="colora1dcf3 svgShape" data-name="Fill-80"></path><path fill="#a1dcf3" fill-rule="evenodd" d="M107.27 106.94a4.48 4.48 0 01-3.11 1.3c-2.69 0-4.86-2.49-4.86-5.57a5.64 5.64 0 013-5.14 8.64 8.64 0 001.66 6.71 7.42 7.42 0 003.34 2.7" class="colora1dcf3 svgShape" data-name="Fill-82"></path><path fill="#172b33" fill-rule="evenodd" d="M163.57 98.81a5.45 5.45 0 00-4.68-3.15 7 7 0 00-7.15 6.61c-.24 3.44 1.45 6.77 5.46 6.9 4.23.14 6.1-3.83 6.1-3.83z" class="color172b33 svgShape" data-name="Fill-84"></path><path fill="#ffffff" fill-rule="evenodd" d="M164.37 101.86a5.33 5.33 0 11-5.31-5.79 5.56 5.56 0 015.31 5.79" class="colorfff svgShape" data-name="Fill-86"></path><path fill="#a1dcf3" fill-rule="evenodd" d="M160.45 107.44a4.92 4.92 0 01-1.39.2 5.56 5.56 0 01-5.3-5.78 6.31 6.31 0 01.29-1.91 7.57 7.57 0 002.26 5.12 9 9 0 004.14 2.37" class="colora1dcf3 svgShape" data-name="Fill-88"></path><path fill="#a1dcf3" fill-rule="evenodd" d="M160.45 107.44a4.92 4.92 0 01-1.39.2 5.56 5.56 0 01-5.3-5.78 6.31 6.31 0 01.29-1.91 7.57 7.57 0 002.26 5.12 9 9 0 004.14 2.37" class="colora1dcf3 svgShape" data-name="Fill-90"></path><path fill="#384d59" fill-rule="evenodd" d="M162.59 113.45a2.92 2.92 0 11-2.91-3.17 3 3 0 012.91 3.17" class="color384d59 svgShape" data-name="Fill-92"></path><path fill="#ffffff" fill-rule="evenodd" d="M162.59 113.61a2.62 2.62 0 11-2.6-2.9 2.76 2.76 0 012.6 2.9" class="colorfff svgShape" data-name="Fill-94"></path><path fill="#384d59" fill-rule="evenodd" d="M103.11 113.7a2.65 2.65 0 11-2.63-2.93 2.79 2.79 0 012.63 2.93" class="color384d59 svgShape" data-name="Fill-96"></path><path fill="#ffffff" fill-rule="evenodd" d="M103.11 113.84a2.38 2.38 0 11-2.36-2.67 2.53 2.53 0 012.36 2.67" class="colorfff svgShape" data-name="Fill-98"></path><path fill="#a1dcf3" fill-opacity=".3" fill-rule="evenodd" d="M161 113.94a3.92 3.92 0 001.21 1.25 2.53 2.53 0 01-2.21 1.31 2.91 2.91 0 010-5.79 7.72 7.72 0 001 3.23" class="colora1dcf3 svgShape" data-name="Fill-100"></path><path fill="#a1dcf3" fill-opacity=".3" fill-rule="evenodd" d="M102.07 116.05a2.16 2.16 0 01-1.32.46 2.53 2.53 0 01-2.36-2.67 2.63 2.63 0 011.84-2.61 7.24 7.24 0 00.15 3 3.16 3.16 0 001.69 1.86" class="colora1dcf3 svgShape" data-name="Fill-102"></path><path fill="#384d59" fill-rule="evenodd" d="M124.33 79.23s-4.23.06-4.51.1-1.54.08-1.74 1.06a43.66 43.66 0 00-.47 6.41 1.53 1.53 0 001.19 1.61v.24l2.87-.52z" class="color384d59 svgShape" data-name="Fill-104"></path><path fill="#172b33" fill-rule="evenodd" d="M124.21 79.64l-2.52 8.49-2.87.54v-.26a1.53 1.53 0 01-1.19-1.61h3.67a.54.54 0 00.5-.52c.06-.36.65-4.49.73-4.88a7.07 7.07 0 01.85-1.7c.13-.13.85-.08.85-.08" class="color172b33 svgShape" data-name="Fill-106"></path><path fill="#172b33" fill-rule="evenodd" d="M196.62 60.52c-1.6 0-8.14-.15-15.57-.15-7.19 0-13 .06-15.54.15-6.15.23-29.32 2-32.12 2.37a2.14 2.14 0 00-2 1.54c-.1.21-5 12.4-7.35 20.28 0 0 56.79-2.33 74.11-1.46 0 0 1.5-18.2 1.57-19.42s.38-3.23-3.07-3.31" class="color172b33 svgShape" data-name="Fill-108"></path><g class="color000 svgShape" data-name="Group-112" mask="url(#h)" fill="#000000"><path fill="url(#a)" fill-opacity=".3" fill-rule="evenodd" d="M183.38 60.38l-5.8 22.76h-3.4L180 60.37h3.39" data-name="Fill-110"></path></g><path fill="none" stroke="#4e4d50" stroke-width=".5" d="M128.33 86c12.11-.47 46.67-1.71 64.23-1.46" class="colorStroke4e4d50 svgStroke" data-name="Stroke-113"></path><path fill="#384d59" fill-rule="evenodd" d="M165.61 111.93s2.08-6.21 2.82-8.33a6.9 6.9 0 015.28-4.6c3.11-.81 12.3-.91 14-.74s7.34 1.31 9.71 1.92 3.27 2.35 3.75 4.17 1.82 10.25 2 12.2 1 10.48 1 10.48l.11 1.09-.82.11s-.81-9-1.13-11.6c-.29-2.42-1.1-8.07-1.45-9.44s-1.18-2.69-2.16-2.73a49.1 49.1 0 00-8.06.46c-2 .49-2.88 1-4 6.61z" class="color384d59 svgShape" data-name="Fill-115"></path><path fill="#172b33" fill-rule="evenodd" d="M233.84 95.6v.84l-.12 4-.34-.1h-.16l-.4-.1a9.75 9.75 0 01-.07-1.24c0-1.85.41-3.35.91-3.35z" class="color172b33 svgShape" data-name="Fill-117"></path><path fill="#384d59" fill-rule="evenodd" d="M234.55 99v.21a10.32 10.32 0 01-.11 1.54c-.25-.11-.51-.19-.75-.27l-.34-.1h-.16c0-.41-.06-.87-.06-1.34 0-1.85.31-3.35.71-3.35s.71 1.5.71 3.35" class="color384d59 svgShape" data-name="Fill-119"></path><path fill="#172b33" fill-rule="evenodd" d="M234.55 99.34c0 .49 0 1-.07 1.37-.25-.11-.51-.19-.75-.27l-.34-.1v-1a5.67 5.67 0 01.5-2.9.16.16 0 01.12 0c.33 0 .6 1.22.62 2.77v.18" class="color172b33 svgShape" data-name="Fill-121"></path><path fill="#384d59" fill-rule="evenodd" d="M195.2 84.43a.52.52 0 11-.52-.51.51.51 0 01.52.51" class="color384d59 svgShape" data-name="Fill-123"></path><path fill="#384d59" fill-rule="evenodd" d="M127.07 85.75a.44.44 0 11-.84-.26.44.44 0 11.84.26" class="color384d59 svgShape" data-name="Fill-125"></path><path fill="#384d59" fill-rule="evenodd" d="M125.1 87.18a.4.4 0 01-.47.3.41.41 0 01-.22-.52.37.37 0 11.69.22" class="color384d59 svgShape" data-name="Fill-127"></path><path fill="#384d59" fill-rule="evenodd" d="M197.06 86a.5.5 0 01-.51.5.5.5 0 01-.55-.5.51.51 0 01.51-.51.51.51 0 01.51.51" class="color384d59 svgShape" data-name="Fill-129"></path><path fill="#384d59" fill-rule="evenodd" d="M128 83.47l17.91-.33v-.4a71.42 71.42 0 00-9-.79 54.85 54.85 0 00-9 1z" class="color384d59 svgShape" data-name="Fill-131"></path><path fill="#384d59" fill-rule="evenodd" d="M149.07 86.87h3.71s-1.52-1.07-1.67-1.2h-.47s-1.48-.62-1.59-.61-.13-.28-.76-.51-8.63-2.86-8.79-2.9-4.5.35-4.5.35l.1.24 4.25-.31z" class="color384d59 svgShape" data-name="Fill-133"></path><path fill="#384d59" fill-rule="evenodd" d="M86.77 139.51a.46.46 0 000 .41 3.73 3.73 0 00.7 1 1.25 1.25 0 00.92-.26c.08-.17-.11-.62-.11-.62s-.5.05-.31-.31a1 1 0 00-.15-1.25c-.32-.32-.84.6-1.06 1" class="color384d59 svgShape" data-name="Fill-135"></path><path fill="#384d59" fill-rule="evenodd" d="M89.12 116.08a1 1 0 00-.73 1 .64.64 0 00-.45.21 1.52 1.52 0 01-.74.46c-.25.06-.55.61-.41 1.3a.77.77 0 00-.48.6h1.59s1.39-.7 1.46-1.12A.46.46 0 0089 118c-.1 0-1 .51-1.16.51s0-.53.28-.62 2.37-1 2.32-1.23-.88-.12-1-.12-.29-.43-.29-.43" class="color384d59 svgShape" data-name="Fill-137"></path><path fill="#384d59" fill-rule="evenodd" d="M194.45 115.4c.11 0 1.12.55 1.2.81s.87 2 .87 2a.42.42 0 01.45.18 7.77 7.77 0 01.38 1.72 47.34 47.34 0 011.65 9.43s-1.65-11-5.3-10.17c-4.19 1-5.63 14.87-5.63 14.87a26.88 26.88 0 01-1.65-11.24c.24-4.51 1.46-5.67 1.46-5.67v-1.19l.29-.44a10.69 10.69 0 011.36-.9c.16 0 0-.52.05-.63s.5-.27.5-.27.54.45.93 0a1.19 1.19 0 01.84-.45 4.78 4.78 0 001.13.43c.18 0 .57.29.68.58s.27.07.39.16a4.59 4.59 0 01.4.81" class="color384d59 svgShape" data-name="Fill-139"></path><path fill="#384d59" fill-rule="evenodd" d="M233.91 114.39a3.69 3.69 0 01.65.91c.06.22.15 1.18.15 1.18a.29.29 0 01.33.14 13.85 13.85 0 01.53 1.39 30.8 30.8 0 011.06 6.67s-1.21-9-3.87-8.34c-3.07.79-3.73 15.06-3.73 15.06s-.32-5.25-.25-8.11c.12-5.18.77-6.88.77-6.88v-1l.22-.36a7.39 7.39 0 01.53-1.49c.11 0 0-.42 0-.52s.37-.22.37-.22.39.37.68 0a.84.84 0 01.61-.37s.7.39.83.35.41.24.5.48.19.06.28.13a6.55 6.55 0 01.31 1" class="color384d59 svgShape" data-name="Fill-141"></path><path fill="#384d59" fill-rule="evenodd" d="M191.21 113.24a15 15 0 00-2.68-.29c-.38.12.2.17.13.22s-1.33-.1-1.28.07.56.29.37.37-1.09.1-1.14.18.41.18.42.34 1.44-.24 1.78-.16a1.64 1.64 0 011.63-.23c.42.15 1.14-.44.77-.5" class="color384d59 svgShape" data-name="Fill-143"></path><path fill="#384d59" fill-rule="evenodd" d="M186.93 114.43a4.27 4.27 0 00-1.31.39c.26.07.26.47.41.41a4.55 4.55 0 011.82-.4c.55.11-.06-.52-.92-.4" class="color384d59 svgShape" data-name="Fill-145"></path><path fill="#384d59" fill-rule="evenodd" d="M188.48 145.48s.53 11.64 5.16 11.64S199 142 199 142s-1.48 11.47-6 11.84c-3.06.25-4.49-8.33-4.49-8.33" class="color384d59 svgShape" data-name="Fill-147"></path><path fill="#ffffff" fill-rule="evenodd" d="M197.35 138.34c0 8.13-2.12 14.72-4.74 14.72s-4.73-6.59-4.73-14.72 2.12-14.72 4.73-14.72 4.74 6.59 4.74 14.72" class="colorfff svgShape" data-name="Fill-149"></path><path fill="#a1dcf3" fill-opacity=".3" fill-rule="evenodd" d="M197.35 138.34c0 8.13-2.12 14.72-4.74 14.72s-4.73-6.59-4.73-14.72c0-4.94.78-9.31 2-12 .25-.54 4.93-.22 7 5.46a42.2 42.2 0 01.49 6.52" class="colora1dcf3 svgShape" data-name="Fill-151"></path><path fill="#172b33" fill-rule="evenodd" d="M189.86 138.29c0 2.65.62 4.8 1.38 4.8s1.37-2.15 1.37-4.8-.61-4.79-1.37-4.79-1.38 2.15-1.38 4.79" class="color172b33 svgShape" data-name="Fill-153"></path><path fill="#384d59" fill-rule="evenodd" d="M192.12 138.36c0 1.07-.28 1.94-.62 1.94s-.62-.87-.62-1.94.27-1.93.62-1.93.62.87.62 1.93" class="color384d59 svgShape" data-name="Fill-155"></path><path fill="#384d59" fill-rule="evenodd" d="M229.83 140.13s.49 7 2.8 6.81 2.87-7.07 2.94-8.83c0 0-.91 6.7-2.87 6.35s-2.87-4.33-2.87-4.33" class="color384d59 svgShape" data-name="Fill-157"></path><path fill="#ffffff" fill-rule="evenodd" d="M235 132.09c0 6.51-1.34 11.78-3 11.78s-3-5.27-3-11.78 1.34-11.78 3-11.78 3 5.28 3 11.78" class="colorfff svgShape" data-name="Fill-159"></path><path fill="#a1dcf3" fill-opacity=".3" fill-rule="evenodd" d="M235 132.09c0 6.51-1.34 11.78-3 11.78s-3-5.27-3-11.78 1.34-11.78 3-11.78 3 5.28 3 11.78" class="colora1dcf3 svgShape" data-name="Fill-161"></path><path fill="#172b33" fill-rule="evenodd" d="M230.28 132.06c0 2.11.39 3.83.87 3.83s.87-1.72.87-3.83-.39-3.84-.87-3.84-.87 1.72-.87 3.84" class="color172b33 svgShape" data-name="Fill-163"></path><path fill="#384d59" fill-rule="evenodd" d="M231.7 132.11c0 .86-.17 1.55-.39 1.55s-.39-.69-.39-1.55.17-1.54.39-1.54.39.69.39 1.54" class="color384d59 svgShape" data-name="Fill-165"></path><path fill="#b4bcc2" fill-rule="evenodd" d="M202.45 111.09c.37 2.32.7 4.54.79 5.42.21 1.95 1 10.48 1 10.48 2.23-.24 14.33-2.08 14.33-2.08s3.72-15.2 4-16.54 1.06-6.9 3.41-7.82c0 0-5.86.72-8.22 8.92a45.35 45.35 0 01-15.32 1.62" class="colorb4bcc2 svgShape" data-name="Fill-167"></path><path fill="#172b33" fill-rule="evenodd" d="M202.44 88.19c.05-.79 1.16-27 1.17-27.29h-.37c0 .27-1.12 26.5-1.17 27.29v5.89c-14.41.4-34.53 2.91-36.49 3.15a.67.67 0 00-.07-.11 6.35 6.35 0 00-2.24-2.12 12.87 12.87 0 00-4.3-1.45c-.48-.1-1-.17-1.45-.24q-1.34-.1-2.67-.18l-2.66-.1-2.66-.06c-3.55 0-7.09-.06-10.64 0-7.09.13-14.17.33-21.25.68-3.54.18-7.08.36-10.61.63-.89.07-1.77.15-2.66.3a13.32 13.32 0 00-2.56.79 8.55 8.55 0 00-4 3.42 8.69 8.69 0 014-3.25 12.78 12.78 0 012.53-.69c.86-.13 1.75-.18 2.63-.23 3.53-.19 7.07-.31 10.61-.43 7.08-.21 14.16-.44 21.24-.5 3.54 0 7.08-.08 10.62 0h2.65l2.65.08c.88 0 1.76.1 2.63.17.34 0 .67.09 1 .15s.67.11 1 .18h.09a11.77 11.77 0 013.4 1.26 5.87 5.87 0 012 1.93 5.36 5.36 0 01.82 2.67c.1 1.94-.87 11.77-.87 11.8a.36.36 0 00.36.37h1.34l.1-.37h-1.11l.12-.36a85.94 85.94 0 00.74-11.48 7 7 0 00-.27-1.55 6.76 6.76 0 00-.41-1c2.66-.34 22.22-2.75 36.3-3.13 0 6.75.15 14.47.16 15.45l.37 2.3c0-1.46-.23-23.18-.18-24" class="color172b33 svgShape" data-name="Fill-169"></path><path fill="#b4bcc2" fill-rule="evenodd" d="M189.7 86.22C167.15 86.1 124 88 124 88s-16.66 3.53-10.66 3.19c7.57-.42 32.25-.77 35.21-.77s41.14-4.22 41.14-4.22" class="colorb4bcc2 svgShape" data-name="Fill-171"></path><path fill="#a1dcf3" fill-rule="evenodd" d="M156.75 103.75a4 4 0 01-1-1.17 4.76 4.76 0 01-.58-1.48 3.7 3.7 0 01.07-1.62 2.68 2.68 0 01.87-1.33 6.65 6.65 0 00-.31 1.44 5.83 5.83 0 00.09 1.38 17.23 17.23 0 00.9 2.78" class="colora1dcf3 svgShape" data-name="Fill-173"></path><path fill="#4e4d50" fill-rule="evenodd" d="M124 88c5.47-.36 10.94-.65 16.41-.9s10.94-.47 16.42-.66 10.95-.32 16.42-.41 11-.12 16.44 0a17.32 17.32 0 013.22.11 12.93 12.93 0 013.12.76 8.93 8.93 0 012.75 1.64 6.77 6.77 0 011.65 2.69 6.76 6.76 0 00-1.75-2.59 8.4 8.4 0 00-2.73-1.51 12.51 12.51 0 00-3.08-.64 17.35 17.35 0 00-3.14 0c-5.48 0-10.95.17-16.42.28l-16.42.43c-11 .31-21.9.64-32.85.87" class="color4e4d50 svgShape" data-name="Fill-175"></path><g class="color000 svgShape" data-name="Group-179" mask="url(#i)" fill="#000000"><path fill="url(#j)" fill-opacity=".3" fill-rule="evenodd" d="M178.31 60.38l-5.82 22.84-6.76.15 5.84-23h6.74" data-name="Fill-177"></path></g><g class="color000 svgShape" data-name="Group-182" mask="url(#k)" fill="#000000"><path fill="url(#l)" fill-opacity=".3" fill-rule="evenodd" d="M195.87 60.5l-5.8 22.57h-8.22l5.77-22.67c1.86 0 5.76.06 8.25.1" data-name="Fill-180"></path></g><g class="color000 svgShape" data-name="Group-185" mask="url(#m)" fill="#000000"><path fill="url(#n)" fill-opacity=".2" fill-rule="evenodd" d="M231.47 77.83l-2.53 9.83h-2.42l4-15.5c.37 1.87.7 3.79 1 5.69" data-name="Fill-183"></path></g><g class="color000 svgShape" data-name="Group-188" mask="url(#o)" fill="#000000"><path fill="url(#p)" fill-opacity=".2" fill-rule="evenodd" d="M229.92 69.46l-4.59 18.15c-1.77 0-3.39-.16-4.32-.29 0-.38-.07-.77-.1-1.15l5-19.67a19.71 19.71 0 013.56 1.18c.14.58.28 1.17.42 1.78" data-name="Fill-186"></path></g><path fill="#384d59" fill-rule="evenodd" d="M155.22 82.53l19.05-.38v-.45a71.19 71.19 0 00-9.52-.9 55 55 0 00-9.53 1.2z" class="color384d59 svgShape" data-name="Fill-189"></path><path fill="#384d59" fill-rule="evenodd" d="M179.58 86.18h3.71s-1.64-.93-1.8-1.06H181s-1.48-.62-1.59-.62-.13-.27-.76-.5-10.23-3.39-10.38-3.43-4.52.31-4.52.31l.14.3 4.24-.3z" class="color384d59 svgShape" data-name="Fill-191"></path><path fill="#172b33" fill-rule="evenodd" d="M204 124.64v-.36c.4 0 9.76-1.19 10.61-1.25s2-.4 2.63-2.49c.68-2.3 2.08-9.07 2.19-10s.21-4.46.21-5.88-.15-10.73-.15-10.82h.37c0 .1.15 9.46.15 10.83s-.1 4.89-.21 5.92-1.52 7.79-2.2 10.1-2 2.69-3 2.75-10.49 1.24-10.59 1.25" class="color172b33 svgShape" data-name="Fill-193"></path></g></g><g class="color000 svgShape" data-name="sc offer in hand" fill="#000000"><g class="color000 svgShape" data-name="Group-133" fill="#000000"><g class="color000 svgShape" mask="url(#q)" fill="#000000"><path fill="url(#b)" fill-rule="evenodd" d="M18.34 169.33c0 .66 8.57 1.19 19.14 1.19 10.51 0 19-.53 19.14-1.18-.11-.66-8.63-1.18-19.14-1.18-10.57 0-19.14.53-19.14 1.19"></path></g><g class="color000 svgShape" data-name="Group-132" fill="#000000"><path fill="#eca280" fill-rule="evenodd" d="M32.22 74.75v.76c-.48 6.15-2.2 7.6-3.37 8v.3a1.69 1.69 0 00-.1.45 2.55 2.55 0 00.07.88 3.78 3.78 0 01-2.56.91 6.13 6.13 0 01-3-.52 1.15 1.15 0 01-.08-.23 2.44 2.44 0 00-.66-.67 2.68 2.68 0 00.66-.29 1.93 1.93 0 001-1.37 12 12 0 01-1.86-1.33 9.92 9.92 0 01-1.35-3c-1.38-.21-1.35-2.42-.93-3.33.21-.48 1-.46 1.6-.25.39 1.1-1.12.76-1.12.76a1.66 1.66 0 002.31-.16c1.17-1.16 1-4.09 1.24-4.26a5.62 5.62 0 01.63 2.69c.51 1 3.42.36 3.42.36a12.76 12.76 0 00-.29-4.36 4.59 4.59 0 011.05 4.22c1-.45 2.61.13 3.36.35a.44.44 0 000 .1" class="coloreca280 svgShape"></path><path fill="#d0876c" fill-rule="evenodd" d="M19.82 77.37A3.76 3.76 0 0120 75.3c.22-.48 1-.45 1.6-.25.39 1.1-1.12.76-1.12.76a1.66 1.66 0 002.31-.16c1.17-1.16 1-4.09 1.24-4.26a5.59 5.59 0 01.63 2.68c.51 1 3.42.37 3.42.37a12.76 12.76 0 00-.29-4.36 4.59 4.59 0 011.05 4.22 2.39 2.39 0 011.16-.15s-1.6 2-5.4 1.76a6.6 6.6 0 01-3.53 1.49H19.8" class="colord0876c svgShape"></path><path fill="#1c2733" fill-rule="evenodd" d="M26.4 76a1 1 0 01.08.46.77.77 0 01-.26.54 1.57 1.57 0 01-.48 0 .74.74 0 01-.22-.63.87.87 0 01.18-.45c-.65.06-.84.3-1.13.31s-.44-.4-.44-.4c.27.24.46.16.46.16l-.19-.21a.87.87 0 00.51 0 4.58 4.58 0 01.86-.23 1.11 1.11 0 011.07.83 1.09 1.09 0 00-.44-.38M31.55 75.78s-.13.42-.44.41-.43-.19-.92-.26a.92.92 0 01.16.52.63.63 0 01-.19.48 1.36 1.36 0 01-.51.09.9.9 0 01-.21-.6.79.79 0 01.18-.49 1.12 1.12 0 00-.72.48 1.18 1.18 0 011.08-.87 4.06 4.06 0 01.85.21 1 1 0 00.52 0s-.11.21-.19.21.19.07.45-.17" class="color1c2733 svgShape"></path><path fill="#1c2733" fill-rule="evenodd" d="M28.72 75.18a1.4 1.4 0 011.5-.9 2.23 2.23 0 011.11.56 2.69 2.69 0 00-1.21-.2c-.39.12-1.43.93-1.4.54" class="color1c2733 svgShape" data-name="Fill-12"></path><path fill="#d0876c" fill-rule="evenodd" d="M28.51 76a1.62 1.62 0 00-.07 1.07s-.45-.42.07-1.07" class="colord0876c svgShape"></path><path fill="#1c2733" fill-rule="evenodd" d="M24.38 74.78a2.73 2.73 0 011.2-.23c.38.11 1.42.88 1.39.5v-.32a.16.16 0 00-.06.12 1.41 1.41 0 00-1.41-.66 2.19 2.19 0 00-1.1.59" class="color1c2733 svgShape"></path><path fill="#b77960" fill-rule="evenodd" d="M29.54 80.06c0 .07-.24.15-.25.15a5.07 5.07 0 01-1.33.3 3.42 3.42 0 01-.65 0 3.2 3.2 0 01-1.13-.3s-.19-.11-.22-.14c.92.4 1.42-.1 1.89.13.44-.24 1 .19 1.69-.12" class="colorb77960 svgShape"></path><path fill="#ffffff" fill-rule="evenodd" d="M29.35 80.19a1.81 1.81 0 01-1.53.86 2.18 2.18 0 01-1.75-.93 3.73 3.73 0 003.28.07" class="colorfff svgShape"></path><path fill="#d0876c" fill-rule="evenodd" d="M29.35 80.19c-.57 1.7-2.1 2.21-3.26 0a2.14 2.14 0 001.73.9 1.81 1.81 0 001.53-.86M28.51 78.6a1.57 1.57 0 01-1.38 0s.79 1.09 1.38 0M24.14 82.96v.01h-.01l.01-.01z" class="colord0876c svgShape"></path><path fill="#d0876c" fill-rule="evenodd" d="M28.81 83.8a1.69 1.69 0 00-.1.45c-1.1 1-4.17.46-5.57.08a1.93 1.93 0 001-1.37 6.5 6.5 0 003.06 1l1.6-.49z" class="colord0876c svgShape"></path><g class="color000 svgShape" data-name="Group-32" mask="url(#r)" fill="#000000"><path fill="#fbd8b6" fill-rule="evenodd" d="M32.61 74.71c0 .21-2.45-1-3.77-.41a4.59 4.59 0 00-1.05-4.22 12.76 12.76 0 01.29 4.36s-2.91.6-3.42-.37a5.59 5.59 0 00-.66-2.68c-.21.17-.07 3.1-1.24 4.26a1.66 1.66 0 01-2.31.16s1.51.34 1.12-.76c-.62-.2-1.39-.23-1.6.25-.42.91-.44 3.12.93 3.33a9.92 9.92 0 001.35 3 1.94 1.94 0 01-1.21 1.23c0-.62.14-1-.08-1.41a3.4 3.4 0 01-1.15 2.15 3.27 3.27 0 01-1.69.76c-.3.08-.37-.08-.25-.3a1.9 1.9 0 00-.59-2.5 4.09 4.09 0 01-.88-1.21 2.08 2.08 0 01.2-2.12c.17-.28.78-2.48.19-3.2a3 3 0 01-.73-2.83 8.71 8.71 0 01.82-1.61 1.32 1.32 0 000-1.33 1.5 1.5 0 01.31-1.69A6.26 6.26 0 0120 65.45a2.7 2.7 0 013.24 1.2 1.45 1.45 0 011.2.54c2.52-.32 5.7.33 6.24 2.21 1.7.53 2.17 3.27 1.89 5.31" class="colorfbd8b6 svgShape"></path></g><path fill="#194785" fill-rule="evenodd" d="M24.48 67.19a7.56 7.56 0 00-3.2 1.52 2.45 2.45 0 012-2.06 1.45 1.45 0 011.2.54" class="color194785 svgShape" data-name="Fill-33"></path><path fill="#ffe7d3" fill-rule="evenodd" d="M21 69.14a5.93 5.93 0 00-.44 1 7.29 7.29 0 00-.23 1c-.08.34-.11.7-.17 1.07a10.38 10.38 0 01-.2 1.13 3.8 3.8 0 01-.35-1.13 3.72 3.72 0 010-1.2 3.11 3.11 0 01.39-1.08 1.89 1.89 0 01.93-.79" class="colorffe7d3 svgShape" data-name="Fill-35"></path><path fill="#ddc4a7" fill-rule="evenodd" d="M20.72 106.65a18.72 18.72 0 0011.63 0s2.48 1.92 3.67 8.21c1.4 7.43-.53 14.39-.53 20.56s-.83 27.14-.52 27.88c0 0-1.47 1.24-5.42.24 0 0-.18-9.24-.51-12.23-.32-2.8-1.54-7.78-.47-15.11 0 0-.56-11.37-.92-17.46 0 0-1.4 16.2-2.31 20S24.41 163 24.41 163s-4.07 2-6 0c0 0 0-9.79-.36-11.51a39.17 39.17 0 01.7-14.7s-4.86-22.23 2-30.12" class="colorddc4a7 svgShape" data-name="Fill-37"></path><path fill="#cca98f" fill-rule="evenodd" d="M19.23 163.56a2.49 2.49 0 01-.84-.58s0-9.79-.37-11.51a39.39 39.39 0 01.71-14.69s.49 9.18.68 10.43c.71 4.54 1.9 17.3-.18 16.35" class="colorcca98f svgShape" data-name="Fill-39"></path><path fill="#3172b9" fill-rule="evenodd" d="M43 167.91c-2-.23-3.94.18-5.95-.25-1.69-.35-3.49-.57-5.2-.83l-2.62.07a6.22 6.22 0 01.5-2.4c0-.59 0-1.25.8-1.38 1.38 1.12 1.57 1.12 3.13 0 0-.58.42-1 .58-1.51.58-.12.89.19 1.1.67.65.33 1.29.68 1.92 1l.24.13 1.05.6.19.1a19.74 19.74 0 003.54 1.59c.11.06 1.45.12 1.57.9s-.33 1-.85 1.22" class="color3172b9 svgShape" data-name="Fill-41"></path><path fill="#3172b9" fill-rule="evenodd" d="M28.05 168.61c-1.62 0-4 .48-5.9-.13a9.51 9.51 0 00-3.41-.54 17.36 17.36 0 01.56-4.53h1c.23-2.48 3.8-.37 3.81.52a6.7 6.7 0 00.74.77l.27.26a4.16 4.16 0 01.7.81 1.56 1.56 0 01.18.23v.09a2.22 2.22 0 012.06 2.49" class="color3172b9 svgShape" data-name="Fill-43"></path><path fill="#194785" fill-rule="evenodd" d="M18.73 167.93a9.78 9.78 0 013.43.5c1.92.63 3.93 0 5.89.18a.31.31 0 010 .23c-1.46.92-6.16.27-9.35.26a1.89 1.89 0 010-1.17" class="color194785 svgShape" data-name="Fill-45"></path><path fill="#194785" fill-rule="evenodd" d="M22.15 168.47a16.8 16.8 0 00-3.42-.54 17.34 17.34 0 01.57-4.52h1c.12-1.24 1.08-1.33 2-1s-3.14 2.37-.11 6.09" class="color194785 svgShape" data-name="Fill-47"></path><path fill="#194785" fill-rule="evenodd" d="M31.86 166.82a37.07 37.07 0 015.12.8c2 .42 4 0 6 .29a4.42 4.42 0 01-1.69.41c-4 .49-8.13-.41-12.31-.39a1.41 1.41 0 01.23-1c.87 0 1.75-.13 2.62-.08" class="color194785 svgShape" data-name="Fill-49"></path><path fill="#9ecdee" fill-rule="evenodd" d="M26 166a3.47 3.47 0 00-.72 0 1.3 1.3 0 00-.84.35 1.35 1.35 0 01.8-.52 3.19 3.19 0 01.6-.12 1.56 1.56 0 01.16.29" class="color9ecdee svgShape" data-name="Fill-51"></path><path fill="#9ecdee" fill-rule="evenodd" d="M25.09 164.94a2.94 2.94 0 00-1.92.57 3.1 3.1 0 011.08-.68 3.68 3.68 0 01.57-.15l.27.26" class="color9ecdee svgShape" data-name="Fill-53"></path><path fill="#9ecdee" fill-rule="evenodd" d="M37.5 163.5a1.77 1.77 0 00-.31.3 1.88 1.88 0 00-.36.8 2.23 2.23 0 01.21-.9 1.59 1.59 0 01.27-.37l.23.13" class="color9ecdee svgShape" data-name="Fill-55"></path><path fill="#9ecdee" fill-rule="evenodd" d="M38.75 164.2l-.14.15a2.24 2.24 0 00-.36.8 1.89 1.89 0 01.22-.89.83.83 0 01.09-.16l.19.1" class="color9ecdee svgShape" data-name="Fill-57"></path><path fill="#cca98f" fill-rule="evenodd" d="M32.06 163.93a12.36 12.36 0 01-2.51-.39s-.18-9.24-.51-12.23c-.32-2.8-1.54-7.78-.47-15.11 0 0-.56-11.37-.92-17.46 0 0 1.43 17.17 2.68 18.77 2 2.55.46 7.66.6 12.91s1.13 13.51 1.13 13.51" class="colorcca98f svgShape" data-name="Fill-59"></path><path fill="#cca98f" fill-rule="evenodd" d="M27.22 122.87a14.65 14.65 0 01.86-6.34 14.7 14.7 0 01-.86 6.34" class="colorcca98f svgShape" data-name="Fill-61"></path><path fill="#cca98f" fill-rule="evenodd" d="M24.79 116.11l1.21-.41c.39-.14.78-.26 1.16-.41a23.84 23.84 0 012.43-.76 4.26 4.26 0 01-1 .84 6.46 6.46 0 01-1.18.58 4.34 4.34 0 01-2.62.16" class="colorcca98f svgShape" data-name="Fill-63"></path><path fill="#1c2733" fill-rule="evenodd" d="M48.81 92.43s-4 5.67-7.38 7c-1.49.53-2.41.72-3.27 0-.47-.39-2.24-1.45-3.53-2.26a81.55 81.55 0 01.23 8.82c1.86 5.47 1.54 14.5 1.54 14.5s-5.27.78-8 .34c0 0-7.71 1.37-11.26-1A26.69 26.69 0 0118.76 106s.33-9.1-.16-10.22a58.71 58.71 0 01-4.22 5.09L12.9 93.5c.83-1.21 1.42-2.13 2.12-3.13a16.68 16.68 0 012.17-2.73 3.4 3.4 0 01.6-1.33 9 9 0 00.46-.88c.95 1.67 2 1 2.77.45a3.38 3.38 0 012.12-.55A4.12 4.12 0 0024.2 87a7.43 7.43 0 011.29 1.53A4 4 0 0127.4 91a3.75 3.75 0 01.28-1.31c.27-.58 1.12-1.28 1.37-2.06a6 6 0 00.21-1.82.76.76 0 011.24.19c.14.2.28.28 1 .11a.62.62 0 01.29.18 37.08 37.08 0 017.79 8.41 15.38 15.38 0 013.53-2.19 14.52 14.52 0 003.57-2.37 3.71 3.71 0 012.17 2.27" class="color1c2733 svgShape" data-name="Fill-65"></path><path fill="#125baa" fill-rule="evenodd" d="M29.11 87.37l-.06.23c-.25.78-1.11 1.48-1.37 2.06A3.51 3.51 0 0027.4 91a4 4 0 00-1.92-2.45A7.2 7.2 0 0024.2 87a3.86 3.86 0 01-1-1.46 6.14 6.14 0 003 .52 3.77 3.77 0 002.55-.91 2.84 2.84 0 00.27.64 4.2 4.2 0 01.06 1.59" class="color125baa svgShape" data-name="Fill-67"></path><path fill="#1c2733" fill-rule="evenodd" d="M24.15 83a12.73 12.73 0 00-2.2-.24c-.61.22-1.61 1.38-2.17 1.6a4.48 4.48 0 00-1.52 1.08c.94 1.67 2 1 2.76.45a3.37 3.37 0 012.12-.55 2.62 2.62 0 00-.68-.7A2.16 2.16 0 0024.15 83" class="color1c2733 svgShape" data-name="Fill-69"></path><path fill="#3e4650" fill-rule="evenodd" d="M25.49 88.52a6.64 6.64 0 01-2.49-.41 6.49 6.49 0 00-3.51-.91c-.32 0-1.39.31-2.26.44a3.4 3.4 0 01.6-1.33 9 9 0 00.46-.88c.95 1.67 2 1 2.77.45a3.38 3.38 0 012.12-.55A4.12 4.12 0 0024.2 87a7.43 7.43 0 011.29 1.53" class="color3e4650 svgShape" data-name="Fill-71"></path><path fill="#eca280" fill-rule="evenodd" d="M54.36 90.18c.27.24.45.76-.61 1-.7.14-2.7.38-2.7.38l-2 .27-.31.27a3.54 3.54 0 00-1.57-1.68l.78-.64s.94-2.18 1-2.63-.16-.93.1-1.09 1.1.43.89 1.3-.05.85-.05.85 4.15-1.74 4.43-1.47 0 .64-.21.72c-.59.25-2 1-2.23 1.12a19.68 19.68 0 013.16-1.1c.18.13.41.55-.46 1-.37.21-2.2.94-2.42 1.05.38 0 2.48-.47 2.85-.47.2 0 .49.67-.66 1.11" class="coloreca280 svgShape" data-name="Fill-73"></path><path fill="#52cc99" fill-rule="evenodd" d="M14.48 104.22L4.7 106.6a.59.59 0 01-.72-.47L1.27 91.35a.59.59 0 01.52-.69l9.76-1.13a.58.58 0 01.65.46l2.72 13.55a.59.59 0 01-.44.68" class="colorfdc010 svgShape color52cc99" data-name="Fill-75"></path><g class="color000 svgShape" data-name="Group-79" mask="url(#s)" fill="#000000"><path fill="#52cc99" fill-rule="evenodd" d="M14.23 104.9l-9.77 2.37a.58.58 0 01-.72-.45L1 92c-.08-.41 0-1.17.59-1.32a.59.59 0 00-.34.64L4 106.14a.59.59 0 00.72.45l9.78-2.37a.61.61 0 00.45-.53 1.32 1.32 0 01-.7 1.21" class="colorfaa61a svgShape color52cc99" data-name="Fill-77"></path></g><path fill="#52cc99" fill-rule="evenodd" d="M1.71 90.68h-.1a.29.29 0 01.1 0" class="colorfdc010 svgShape color52cc99"></path><path fill="#ffffff" fill-rule="evenodd" d="M2.43 91.58l8.73-1.09 2.49 12.15-8.81 2.08-2.41-13.14z" class="colorfff svgShape"></path><path fill="#52cc99" fill-rule="evenodd" d="M10 104.56a.41.41 0 01-.34.48.42.42 0 01-.49-.33.41.41 0 01.34-.48.43.43 0 01.49.33" class="colorfaa61a svgShape color52cc99"></path><path fill="#eca280" fill-rule="evenodd" d="M3.46 97.45a.62.62 0 01.16 1c.65.7-1.09 1.08-1.09 1.08-.34-.1-.64-.33-.46-.8a.62.62 0 01-.22-1 .72.72 0 01-.21-.16.39.39 0 01-.1-.08.64.64 0 01.08-.92S1 96 1.56 95.69A4.64 4.64 0 013 95.43a.58.58 0 01.27.86.69.69 0 01.21 1.16" class="coloreca280 svgShape"></path><path fill="#dedfe0" fill-rule="evenodd" d="M4.34 98.41c.64.68-1.1 1.07-1.1 1.07a.51.51 0 01-.31 0c.4-.18.85-.56.49-.94a.62.62 0 00-.16-1 .7.7 0 00-.2-1.16.58.58 0 00-.28-.86 6.9 6.9 0 011-.11.58.58 0 01.22.79.69.69 0 01.21 1.16.63.63 0 01.16 1" class="colordedfe0 svgShape"></path><path fill="#d0876c" fill-rule="evenodd" d="M2.94 96.39a1.2 1.2 0 01-.62.34 1.08 1.08 0 01-.36 0c-.11 0-.28 0-.34-.16a1.24 1.24 0 00.31-.1 1.86 1.86 0 01.31-.1 1.65 1.65 0 01.7 0M3.2 97.47a1.26 1.26 0 01-.38.27 1.39 1.39 0 01-.44.13 1 1 0 01-.48-.05.53.53 0 01-.36-.32 1.81 1.81 0 00.8 0 5.71 5.71 0 01.86-.06" class="colord0876c svgShape"></path><path fill="#3172b9" fill-rule="evenodd" d="M7.79 93.93a1.37 1.37 0 00-.28 0 1.55 1.55 0 101.82 1.26 1.55 1.55 0 00-1.54-1.28m0 3.45a1.92 1.92 0 11.33 0 1.84 1.84 0 01-.33 0" class="color3172b9 svgShape"></path><path fill="#3172b9" fill-rule="evenodd" d="M7.54 96.42a.13.13 0 01-.1 0L6.91 96a.18.18 0 010-.24.19.19 0 01.25 0l.34.24.93-1.32a.18.18 0 01.24 0 .17.17 0 010 .24l-1 1.46a.17.17 0 01-.14.08" class="color3172b9 svgShape"></path><path fill="#52cc99" fill-rule="evenodd" d="M6.41 99.92a.18.18 0 01-.17-.15.18.18 0 01.14-.2l4.14-.72a.17.17 0 01.2.14.17.17 0 01-.14.2l-4.14.72M6.65 101.26a.17.17 0 01-.17-.15.17.17 0 01.14-.2l4.14-.72a.17.17 0 11.06.34l-4.14.72" class="colorfdc010 svgShape color52cc99"></path><path fill="#dedfe0" fill-rule="evenodd" d="M28.23 120.79c0-.24-.13-23.77-1-29.79h.34c.88 6 1 29.6 1 29.84z" class="colordedfe0 svgShape"></path><path fill="#dedfe0" fill-rule="evenodd" d="M24 100.85a33.52 33.52 0 014.25.06v.34a33 33 0 00-4.21-.4M20 101.54a3.28 3.28 0 011.42-.57 4.84 4.84 0 011.58-.07c-.49.13-1 .2-1.48.3l-.73.15c-.24.06-.48.11-.73.19" class="colordedfe0 svgShape"></path><path fill="#dedfe0" fill-rule="evenodd" d="M28 100.88a15 15 0 013.48-.08 13 13 0 013.37.75 12.61 12.61 0 00-3.38-.58 14.82 14.82 0 00-3.4.25z" class="colordedfe0 svgShape"></path><path fill="#1c2733" fill-rule="evenodd" d="M29.93 85.57a.66.66 0 01.38.22.83.83 0 00-.38-.22" class="color1c2733 svgShape"></path><path fill="#dedfe0" fill-rule="evenodd" d="M19.45 87.2a3.62 3.62 0 011.57.06 7.67 7.67 0 011.48.53 5.18 5.18 0 001.45.49 7.14 7.14 0 001.53.13 2.89 2.89 0 011.15 1 4.89 4.89 0 01.65 1.34 6.4 6.4 0 00-.76-1.26 4.19 4.19 0 00-.51-.52 2.56 2.56 0 00-.6-.37 7.73 7.73 0 01-1.59-.1 5.22 5.22 0 01-1.41-.5 5.93 5.93 0 00-3-.78" class="colordedfe0 svgShape" data-name="Fill-112"></path><path fill="#3e4650" fill-rule="evenodd" d="M20 105.88a5.34 5.34 0 011.47.37 83.88 83.88 0 00-1.47 9.19 4 4 0 01-1.24-.32 36.54 36.54 0 011.24-9.24" class="color3e4650 svgShape" data-name="Fill-114"></path><path fill="#3e4650" fill-rule="evenodd" d="M33.66 106a65.55 65.55 0 011.08 8.71 2.44 2.44 0 001.29 0 22.27 22.27 0 00-.13-4.36 25.72 25.72 0 00-1-4.37 1.64 1.64 0 00-1.2 0" class="color3e4650 svgShape" data-name="Fill-116"></path><path fill="#ffffff" fill-rule="evenodd" d="M21.7 93.54l2.64-.19a.47.47 0 00.43-.49v-.45a.45.45 0 00-.49-.41l-2.63.19a.44.44 0 00-.43.48v.45a.46.46 0 00.49.42" class="colorfff svgShape" data-name="Fill-118"></path><path fill="#52cc99" fill-rule="evenodd" d="M22.24 93.5h-.78a.21.21 0 01-.23-.19l-.07-.93a.22.22 0 01.2-.23h.78a1 1 0 01.31.66 1 1 0 01-.21.69" class="colorfdc010 svgShape color52cc99" data-name="Fill-120"></path><path fill="#52cc99" fill-rule="evenodd" d="M23.24 92.87a.13.13 0 01-.13-.11.12.12 0 01.12-.13l.83-.06a.12.12 0 01.13.11.13.13 0 01-.11.13l-.83.06z" class="colorfdc010 svgShape color52cc99" data-name="Fill-122"></path><path fill="#dedfe0" fill-rule="evenodd" d="M27.68 91.3a.35.35 0 00.07-.15.32.32 0 00-.63-.11.29.29 0 00.1.28v1.2c0 .14.11.26.22.25h.37a.22.22 0 00.16-.29z" class="colordedfe0 svgShape" data-name="Fill-124"></path><path fill="#1c2733" fill-rule="evenodd" d="M31.88 86.14a.74.74 0 00-.42 0c-.54.13-.75.11-.87 0s-.06-.06-.09-.1a1 1 0 00-1.45-.24 2.39 2.39 0 01-.22-2 5.56 5.56 0 013.05 2.38" class="color1c2733 svgShape" data-name="Fill-126"></path><path fill="#3e4650" fill-rule="evenodd" d="M32.87 87.23a5.87 5.87 0 01-3 1.58 13.15 13.15 0 00-2.18.85c.27-.58 1.12-1.28 1.37-2.06a4 4 0 000-1.82 1 1 0 011.44.22c.14.2.28.28 1 .11a.73.73 0 01.42 0c.24.08 1 1.1 1 1.1" class="color3e4650 svgShape" data-name="Fill-128"></path><path fill="#dedfe0" fill-rule="evenodd" d="M29.86 88.81c-.37.14-.71.32-1.07.47s-.71.33-1.07.48l.05-.05a3.24 3.24 0 00-.37 1.07 1.47 1.47 0 010-.59 2.43 2.43 0 01.18-.58 7.41 7.41 0 011.08-.48 4 4 0 011.15-.28" class="colordedfe0 svgShape" data-name="Fill-130"></path></g></g></g><g class="color000 svgShape" data-name="customer couple" fill="#000000"><g class="color000 svgShape" data-name="Group-166" fill="#000000"><g class="color000 svgShape" mask="url(#t)" fill="#000000"><path fill="url(#u)" fill-rule="evenodd" d="M57.48 169.7c0 .66 15.2 1.18 33.94 1.18s33.93-.52 33.93-1.18c0-.65-15.19-1.18-33.93-1.18-18.74 0-33.94.53-33.94 1.18"></path></g><g class="color000 svgShape" data-name="Group-165" fill="#000000"><path fill="#845853" fill-rule="evenodd" d="M81.08 73.7a4.26 4.26 0 003.21 3.58 2 2 0 01.65.19.6.6 0 01.25.31c0 .39-.2.93-.21 1.23-.7 1.28 1.73 3.43 4.7 1.46a1.19 1.19 0 00.52-1.34 17 17 0 01-.22-2c0-.1-.07-1.36-.07-1.38a14.44 14.44 0 011.39-2.33c.18-.26.27-.43.58-.53a2.68 2.68 0 001.35-.95l.1-.13a3.06 3.06 0 00.4-.86 2.11 2.11 0 00.09-.36 3.09 3.09 0 000-1c-.14 0 0-.29-.14-.3h-.17a1.42 1.42 0 00-.55 0 1.33 1.33 0 00-.81.65s-.12.22-.15.25c-.16.23-.33.17-.43-.22a15.7 15.7 0 01-.42-2 3.38 3.38 0 01.07-1.46c-.69-.9.24-1.83.26-1.86-.5-.29-1 0-1.42.08a21.61 21.61 0 01-2.73.67 5.32 5.32 0 01-2.33-.15 2.17 2.17 0 01-1.3-1c-1 .46-2 .2-2.13-.45 0 0-.22 2-.4 3.39a.37.37 0 000 .11v.16c0 .53-.07.92-.08 1a18.49 18.49 0 000 5.2" class="color845853 svgShape"></path><path fill="#5a3a35" fill-rule="evenodd" d="M93 69.33a1.65 1.65 0 01.43 1c0 .86-.29 1.67-.16 1.57l.1-.13a3.06 3.06 0 00.4-.86 1.9 1.9 0 00.09-.36 3.09 3.09 0 000-1c-.13 0 0-.29-.13-.3h-.18a1.42 1.42 0 00-.55 0M84.94 77.47a.56.56 0 01.25.31s3 1 4.79-.63l-.07-1.44a7.89 7.89 0 01-5 1.76M84 68.92a12.26 12.26 0 00-.82 1.89 1.2 1.2 0 000 .6.61.61 0 00.47.45 5.09 5.09 0 001 .13c-.3-.16-.63-.29-.92-.41a.62.62 0 01-.24-.76 16.69 16.69 0 00.51-1.9" class="color5a3a35 svgShape"></path><path fill="#131010" fill-rule="evenodd" d="M82.28 67.77a.92.92 0 00-.14.45.75.75 0 00.12.52 1.34 1.34 0 00.48 0 .57.57 0 00.27-.51A1.36 1.36 0 0083 68l.24.12a.79.79 0 00-1.35-.31 1.12 1.12 0 01.41 0M86.57 68.18a1 1 0 01.06.52.77.77 0 01-.23.53 1.29 1.29 0 01-.53-.06.61.61 0 01-.19-.6 1.4 1.4 0 01.09-.31 2 2 0 00-.28.08.87.87 0 011.52 0 1.24 1.24 0 00-.44-.11M85.53 67a2.49 2.49 0 012.26.67c-.07-.15-.5-1.45-2.53-1.14-.1 0 .2.48.27.47M81.7 67a2.28 2.28 0 011.7-.24h.1a.62.62 0 00.12-.46s-.1.32-.18.3.06-.27 0-.29a1.76 1.76 0 00-1.7.65" class="color131010 svgShape"></path><path fill="#5a3a35" fill-rule="evenodd" d="M87.33 65.39a4 4 0 002.78.08 4.29 4.29 0 00.74 2.22 2.53 2.53 0 00.31.28 3.3 3.3 0 01.06-1.47c-.69-.89.24-1.82.25-1.86-.49-.29-1 0-1.41.09a19.92 19.92 0 01-2.73.66" class="color5a3a35 svgShape"></path><g class="color000 svgShape" data-name="Group-24" mask="url(#v)" fill="#000000"><path fill="#131010" fill-rule="evenodd" d="M80.81 64.25a3.69 3.69 0 00.3 3.23v-.16c.19-1.41.43-3.49.43-3.49.13.64 1.16.9 2.12.44a2.21 2.21 0 001.3 1c1.78.53 3.26 0 5.09-.51.46-.13.92-.38 1.41-.08 0 0-.94 1-.26 1.85-.33.82.19 2.85.36 3.5.1.38.27.45.43.22 0 0 .12-.21.15-.25a1.32 1.32 0 011.36-.7h.17c.12 0 0 .27.14.3.93-1.07 1.48-3.39.71-4.39a.92.92 0 00-.6-1.46c.8-.9.13-5.56-3.82-4.62a1.19 1.19 0 00-2.07-.4.81.81 0 00-1.29.45c-.93-1.12-2.92-.26-2.91.54-.81-.37-2 .18-1.87 1a2.26 2.26 0 00-1.16 3.5" class="color131010 svgShape"></path></g><path fill="#4c2f2a" fill-rule="evenodd" d="M86 73.07a3.49 3.49 0 01-3.26-.16 7.33 7.33 0 003.26.16" class="color4c2f2a svgShape" data-name="Fill-25"></path><path fill="#131010" fill-rule="evenodd" d="M85.82 73.12A3.42 3.42 0 0182.9 73c-.08 0 0 1.3.94 1.46a1.74 1.74 0 002-1.13c.14-.27 0-.24 0-.22" class="color131010 svgShape" data-name="Fill-27"></path><path fill="#4c2f2a" fill-rule="evenodd" d="M85.61 73.74a1.58 1.58 0 01-1.77.73s-.58 0 .17-.44c.44-.23 1.69-.43 1.6-.29" class="color4c2f2a svgShape" data-name="Fill-29"></path><path fill="#f1f1f2" fill-rule="evenodd" d="M86.27 69.91a1.57 1.57 0 01-1.12-.6A1.78 1.78 0 0185 68c.09-.47.79-.5 1.13-.52a8.62 8.62 0 011.68.16c.3.09.58.15.55.57a2.77 2.77 0 01-.37 1.36c-.24.34-1.17.46-1.67.39" class="colorf1f1f2 svgShape" data-name="Fill-31" opacity=".29" style="isolation:isolate"></path><path fill="#f1f1f2" fill-rule="evenodd" d="M81.93 69.53a1.2 1.2 0 01-1.11-.87 4.18 4.18 0 010-1.32.3.3 0 01.26-.31 3.37 3.37 0 012.18.31c.29.16.3.51.26.84a1.41 1.41 0 01-1.57 1.35" class="colorf1f1f2 svgShape" opacity=".29" style="isolation:isolate"></path><path fill="#f1f1f2" fill-rule="evenodd" d="M83.5 68.18c0-.33 0-.68-.26-.84a3.37 3.37 0 00-2.18-.34.32.32 0 00-.26.31 4.18 4.18 0 000 1.32 1.2 1.2 0 001.11.87 1.41 1.41 0 001.57-1.35m4.44 1.34a2.77 2.77 0 00.37-1.36c0-.42-.25-.49-.55-.57a8.64 8.64 0 00-1.69-.16c-.33 0-1 0-1.12.52a1.78 1.78 0 00.2 1.36 1.55 1.55 0 001.12.6c.51.07 1.43 0 1.67-.39m4.64 0s-3.34-1.42-3.37-1.41a.61.61 0 00-.31.32c-.2.41-.33.87-.52 1.29s-1.34.64-2 .57a1.9 1.9 0 01-1.82-1.57c0-.17-.06-.36-.09-.54a.29.29 0 00-.24-.25c-.1 0-.21.07-.26.21s-.12.36-.2.52a1.76 1.76 0 01-1.21 1.16A2.18 2.18 0 0181 69.5c-.41-.23-.45-.88-.55-1.33s-.06-.7-.36-.86a.16.16 0 01-.05-.09c0-.18 0-.37.05-.56h1.63a6.71 6.71 0 011.72.27 3.72 3.72 0 001.81.17 12.43 12.43 0 013.45.14c.25 0 4.76 2 5 2a1.57 1.57 0 00-1.09.2" class="colorf1f1f2 svgShape"></path><path fill="#c8cacc" fill-rule="evenodd" d="M93.78 163.37a12.92 12.92 0 00-1.71 3.53c-.18 1.23 1.75 2.13 4 2s4.4-.8 4.26-1.67a15 15 0 00-1.6-3.67c-.24-.2-3.68-2.42-4.91-.24" class="colorc8cacc svgShape"></path><path fill="#6d747a" fill-rule="evenodd" d="M92 167.64c0 1.25 1.75 2.14 4 2.06s4.13-.8 4.25-1.68a2.44 2.44 0 000-.54c-.19.78-2.19 1.4-4.24 1.47s-3.85-.69-4-1.78a2.42 2.42 0 000 .47" class="color6d747a svgShape"></path><path fill="#ffffff" fill-rule="evenodd" d="M93.76 165.26a3.24 3.24 0 01.92-.53 3.71 3.71 0 011-.27 2.82 2.82 0 011.08.1 2 2 0 01.91.57 3.68 3.68 0 00-1-.32 5.46 5.46 0 00-1 0 10.39 10.39 0 00-2 .46M94.35 166.48a2.08 2.08 0 01.73-.52 2.49 2.49 0 011.78-.07 2.5 2.5 0 01.79.42 6.53 6.53 0 00-1.65-.21 4.65 4.65 0 00-1.63.38" class="colorfff svgShape"></path><path fill="#c8cacc" fill-rule="evenodd" d="M70.75 167.27v1a.58.58 0 00.57.58h5.13a7.44 7.44 0 001.68-.31c.34-.07 1.74-.56 1.74-.56v.87h4.23a.57.57 0 00.56-.53c0-.58.1-1.52.15-2.21a13.27 13.27 0 00-.27-2.63c-1.25.29-4.65.89-6.86-.29l-1.53 1.27a5.78 5.78 0 01-2.81.82 2.24 2.24 0 00-2.59 2" class="colorc8cacc svgShape"></path><path fill="#6d747a" fill-rule="evenodd" d="M79.87 168v.87h4.23a.57.57 0 00.56-.53v-.66a14.53 14.53 0 01-2.79.41 17.93 17.93 0 01-2-.09M78.13 168.52a7.67 7.67 0 01-1.68.31h-5.13a.58.58 0 01-.57-.58z" class="color6d747a svgShape"></path><path fill="#8c9196" fill-rule="evenodd" d="M95.72 111.62A230.45 230.45 0 0198.46 136c.28 5.84.58 23.36.58 23.36l1.1 3.6s-4.11 2.05-7.72.36c0 0-3.06-17.39-2.41-23.55-1.38-5-3.31-19.32-3.31-19.32s-.48 12.38-1 17.6c.64 6.36-.62 25.27-.62 25.27s-5.3 1.49-7.92-.52c0 0-.91-18.15 0-24.2-.52-7 0-26.41 0-26.41s9.48 2.66 18.61-.59" class="color8c9196 svgShape"></path><path fill="#3e4650" fill-rule="evenodd" d="M91.31 144.17a32.13 32.13 0 01-2-6.21c-.5-2.11-.88-4.26-1.27-6.4s-.67-4.3-.94-6.45-.51-4.32-.68-6.49c.38 2.14.71 4.29 1.06 6.43s.68 4.29 1.06 6.42.74 4.28 1.16 6.41c.21 1.06.43 2.12.69 3.17a27.92 27.92 0 00.92 3.12" class="color3e4650 svgShape"></path><path fill="#3e4650" fill-rule="evenodd" d="M87.61 118.62a3.63 3.63 0 01-2.14.1 3.27 3.27 0 01-1.83-1.11c.68.23 1.3.46 2 .61s1.31.26 2 .4" class="color3e4650 svgShape"></path><path fill="#6d747a" fill-rule="evenodd" d="M98.76 145.62c-.09-3.81-.19-7.48-.3-9.6a230.45 230.45 0 00-2.74-24.4 32.65 32.65 0 01-15.13 1.26 21.25 21.25 0 0012.21 4s2.51 5.14 4 14.51c1.18 7.11 1.91 14.22 1.91 14.22M77.68 163.19c2.75 1.45 7.35.15 7.35.15s1.26-18.91.62-25.27c0 0-1.75 20.36-3.9 23.39-1.25 1.77-4.07 1.73-4.07 1.73" class="color6d747a svgShape"></path><path fill="#3172b9" fill-rule="evenodd" d="M107 99.28c-1.5 1.72-8 7.72-8 7.72a5.25 5.25 0 01-1.55-1.21 3 3 0 01-.7-1.37v-.58s4-5 5.37-6.14a61.51 61.51 0 01-5-6.37s-1.34 6.67-1.49 8.53c-.12 1.45.16 8.76.29 11.86 0 .81 0 1.61-.83 1.73-3 .43-11.3 1.94-18.59-1.23-1.32-.58-.46-.82-.44-1.44s.53-6.43.54-7.77c0-2.84.32-11.16.32-11.16l-1.64-4.49 2.2-4.36a3.08 3.08 0 011.59-1.47c2.06-.84 5.94-2.35 5.94-2.35.68 1.43 1.67 2 2.67 1.89a2.73 2.73 0 002.5-2.07s5.85 2 6.91 2.51a8.23 8.23 0 013.27 2.69c.9 1.26 6.92 10.32 7.24 10.93a3.74 3.74 0 01-.64 4.12" class="color3172b9 svgShape"></path><path fill="#125baa" fill-rule="evenodd" d="M76.5 112.21c7.29 3.18 15.64 1.67 18.59 1.24.8-.12.87-.92.83-1.73s-.3-11.72-.29-11.85c.15-1.85 1.52-8.53 1.52-8.53L96.23 90s-1 6.6-2.59 9.89a28.07 28.07 0 01-8.35 6 10.41 10.41 0 01-8.88.36c-.15 2-.34 4.17-.34 4.54 0 .62-.88.84.44 1.42" class="color125baa svgShape"></path><path fill="#3172b9" fill-rule="evenodd" d="M87.12 108.6a21.29 21.29 0 000 2.91 28.11 28.11 0 005.83-.19v-3a34.35 34.35 0 01-5.83.27M76.24 108.3a21.17 21.17 0 00-.31 2.89 28.13 28.13 0 005.81.44l.32-3a34.69 34.69 0 01-5.82-.36" class="color3172b9 svgShape"></path><path fill="#845853" fill-rule="evenodd" d="M96.77 104.44a5.36 5.36 0 01-.78 1s-1.53-.49-1.72-.58a6.62 6.62 0 00-1.51-.69c-.21 0-.3.47.08.79s.65.56.2.48a19.22 19.22 0 00-2.26-.3c-.23.06-1.22.39-1.53.52s-.46.56 0 .71 1.59-.31 1.59-.31a2.61 2.61 0 011.31.62 10.88 10.88 0 00-2.07.48 7.57 7.57 0 00-1.15 1.06c-.32.6.75.72.75.72-.3.36.12 1.17 1 .54a4.9 4.9 0 012.08-.75 3.71 3.71 0 01-1 1.28h-.07c-.02 0-.49.31-.31.51.32.35.85.19 1.24 0a6.38 6.38 0 001-.88c.28-.27.51-.51.51-.51a3.26 3.26 0 011 .17 2.41 2.41 0 001.82 0 5.12 5.12 0 001-1.24s.41-.42 1.18-1.07a5.25 5.25 0 01-1.55-1.21 3.09 3.09 0 01-.71-1.36" class="color845853 svgShape"></path><path fill="#5a3a35" fill-rule="evenodd" d="M97.23 108.53a1.34 1.34 0 00-.26-1 3.54 3.54 0 01-1-2 5.36 5.36 0 00.78-1 3.13 3.13 0 00.7 1.36A5.37 5.37 0 0099 107c-.77.65-1.18 1.07-1.18 1.07a5.28 5.28 0 01-1 1.24 4.66 4.66 0 00.34-.79M89.6 109.46a.49.49 0 010-.51 1.41 1.41 0 01.35-.41 5.66 5.66 0 01.82-.56h.08a.39.39 0 01.19-.07l.24-.05a4.28 4.28 0 01.49 0 6.55 6.55 0 011 0c-.31.12-.63.2-.94.29l-.48.11-.23.06s-.1 0 0 0l-.12.08-.84.48a1.26 1.26 0 00-.36.27.51.51 0 00-.11.43" class="color5a3a35 svgShape"></path><path fill="#125baa" fill-rule="evenodd" d="M85.7 80.29a2.18 2.18 0 002 .81 2.72 2.72 0 002.48-2.1s5.85 2 6.91 2.5a8.39 8.39 0 013.27 2.69 10.33 10.33 0 00-6.17-1.85c-2.33.09-4.71 1.39-6.79.23-1.76-1-2-2.61-1.7-2.32M98.25 93A13.52 13.52 0 0197 91.37a15 15 0 01-1-1.74 8.41 8.41 0 011.31 1.55 9.06 9.06 0 011 1.78" class="color125baa svgShape"></path><path fill="#125baa" fill-rule="evenodd" d="M104.68 97.39a3.58 3.58 0 00-2.12.41 7.65 7.65 0 00-.93.59c-.29.23-.56.49-.86.74.1-.17.21-.33.31-.49s.25-.3.38-.44a3.64 3.64 0 01.94-.71 3 3 0 011.14-.32 2.12 2.12 0 011.14.22" class="color125baa svgShape" data-name="Fill-79"></path><path fill="#b72025" fill-rule="evenodd" d="M76.72 97.79c-.07-1.36 0-2.72 0-4.08a39.66 39.66 0 01.35-4.07c.07 1.36 0 2.72 0 4.08s-.16 2.72-.36 4.07" class="colorb72025 svgShape" data-name="Fill-81"></path><path fill="#004487" fill-rule="evenodd" d="M86.03 84.13l.18-2.54.5.08-.68 2.46z" class="color004487 svgShape" data-name="Fill-83"></path><path fill="#004487" fill-rule="evenodd" d="M84.62 109.46c-.09-1.88-.1-3.76-.09-5.64s.09-3.77.16-5.65.22-3.75.39-5.63.4-3.74.69-5.6l-.29 5.63c-.09 1.88-.21 3.75-.28 5.63l-.28 5.63c-.09 1.87-.18 3.75-.3 5.63" class="color004487 svgShape" data-name="Fill-85"></path><path fill="#004487" fill-rule="evenodd" d="M86.17 83.66a.35.35 0 00-.46.19.35.35 0 000 .33l-.3 1.28a.27.27 0 00.17.33h.41c.12 0 .23-.11.24-.28v-1.29a.32.32 0 00.12-.14.35.35 0 00-.19-.46" class="color004487 svgShape" data-name="Fill-87"></path><path fill="#465d62" fill-rule="evenodd" d="M69.45 164.54s-1.34 2-3.88-.21a28.76 28.76 0 00-3.44 2.34 15.45 15.45 0 00-2.55.22c-.61.2-1.48.43-1.6 2.86h12.48s.5-3.87-1-5.21" class="color465d62 svgShape" data-name="Fill-89"></path><path fill="#677d88" fill-rule="evenodd" d="M76.27 164.53a5.68 5.68 0 01.54 2.36c.06 1.51 0 2.86 0 2.86H69a5.87 5.87 0 010-1.33c.08-.57.23-1.27 1.54-1.79a5.51 5.51 0 011.8-2.48 1.6 1.6 0 011.75.38c.83.8.71.84 1.2.86.68 0 1-.86 1-.86" class="color677d88 svgShape" data-name="Fill-91"></path><path fill="#194785" fill-rule="evenodd" d="M79.59 125.05c-.15 6-1.37 9.88-2 15.85a1 1 0 000 .18 37.09 37.09 0 010 13.31 32.48 32.48 0 00-.7 10.88s-3.15 1.58-5.09-.65c0 0-1-19.55-.79-22.37.19-1.93-1.16-15.38-1.44-18.23.12.63-2.92 16.75-3 17.39a89.23 89.23 0 012 11.33c.34 4.46 1.39 12.36 1.39 12.36s-3 1.79-5.32.1c0 0-4.75-20.69-5.1-21.79-.31-.95 0-2.56 0-3.56 0-.66 1.24-19.51 1.64-21.69 1.16-6.24 3.57-8.15 3.57-8.15a17.87 17.87 0 0011.33 0c2 2.3 2.75 5.42 3.17 8.35a40.57 40.57 0 01.36 6.69" class="color194785 svgShape" data-name="Fill-93"></path><path fill="#193560" fill-rule="evenodd" d="M61.16 118.16c-.26 2.2-1.64 21-1.64 21.69 0 1-.31 2.61 0 3.56.35 1.1 5.1 21.79 5.1 21.79 2.29 1.69 5.32-.1 5.32-.1s-1-7.9-1.39-12.36a89.23 89.23 0 00-2-11.33c.07-.64 3.11-16.76 3-17.39l.16-1.15s-4.6-1-7.43-8.68a22 22 0 00-1.08 4" class="color193560 svgShape" data-name="Fill-95"></path><path fill="#193560" fill-rule="evenodd" d="M69.49 121c.11.85.13 1.69.16 2.54s0 1.68.06 2.53a5 5 0 01-.3-1.25 9.08 9.08 0 01-.1-1.28 12.72 12.72 0 01.18-2.54" class="color193560 svgShape" data-name="Fill-97"></path><path fill="#845853" fill-rule="evenodd" d="M77.19 79.11l-.07.18-.92 2.57a1.74 1.74 0 01-.39.58 11.44 11.44 0 01-1.52 1.17v2.2l.28.5a4.56 4.56 0 01-.78 1.75 1.65 1.65 0 01-.37.33c-.59.42-1.65 1.19-2.32 1-1.1-.39-1.77-2.83-1.78-2.91l.85-.19c0-.38.09-.76.13-1.28v-.6c-1.08-.37-3.59-1.06-3.89-7.58v-.72a2.25 2.25 0 01.18-.59 2.14 2.14 0 012-1.52 5.58 5.58 0 005.66-1.23.38.38 0 01.63.07 29.66 29.66 0 012.06 3.6" class="color845853 svgShape" data-name="Fill-99"></path><path fill="#845853" fill-rule="evenodd" d="M67.57 74.29a1.89 1.89 0 01.78-.26 2.24 2.24 0 00-.78.26" class="color845853 svgShape" data-name="Fill-101"></path><path fill="#845853" fill-rule="evenodd" d="M68.58 74h-.23.23" class="color845853 svgShape" data-name="Fill-103"></path><path fill="#845853" fill-rule="evenodd" d="M71.75 74.15a5.65 5.65 0 01-3.17-.15 5.76 5.76 0 003.17.14" class="color845853 svgShape" data-name="Fill-105"></path><path fill="#845853" fill-rule="evenodd" d="M74.63 72.65a.42.42 0 00-.39.13 6 6 0 01-1.76 1.13 5.85 5.85 0 001.76-1.14.38.38 0 01.39-.12" class="color845853 svgShape" data-name="Fill-107"></path><path fill="#5a3a35" fill-rule="evenodd" d="M70.3 85a16.45 16.45 0 013.19 3.38 1.65 1.65 0 00.37-.33 4.56 4.56 0 00.78-1.75l-.28-.5v-2.2a6.23 6.23 0 01-3 1l-1-.25z" class="color5a3a35 svgShape" data-name="Fill-109"></path><path fill="#5a3a35" fill-rule="evenodd" d="M76.93 76.44a29.66 29.66 0 00-2.06-3.6c-.17-.2-.37-.3-.63-.06A5.59 5.59 0 0168.58 74a2.14 2.14 0 00-2 1.52 3.16 3.16 0 001.52-1.12 8.35 8.35 0 006.38 0c.58 1.11 2.39 4.86 1.69 7.43l.93-2.57.07-.18" class="color5a3a35 svgShape" data-name="Fill-111"></path><path fill="#4c2f2a" fill-rule="evenodd" d="M69.06 81.23a1.73 1.73 0 00.29.23l.43.11a5.81 5.81 0 002.12.05l.36-.08a.76.76 0 00.36-.3c-.92.41-1.4-.08-1.87.15-.44-.24-1 .17-1.69-.16" class="color4c2f2a svgShape" data-name="Fill-113"></path><path fill="#131010" fill-rule="evenodd" d="M72.23 77.38a.74.74 0 00-.1.43.75.75 0 00.25.5 1.47 1.47 0 00.47 0 .63.63 0 00.23-.58.67.67 0 00-.17-.42 9.14 9.14 0 011.11.31c.31 0 .44-.36.44-.36a.48.48 0 01-.44.14c.08 0 .18-.19.18-.19a1 1 0 01-.51 0 4.34 4.34 0 00-.84-.23 1.06 1.06 0 00-1.06.74 1 1 0 01.44-.33M67.12 77.12s.12.39.43.39.43-.16.91-.22a.76.76 0 00-.16.47.59.59 0 00.18.46 1.93 1.93 0 00.5.09H69a.81.81 0 00.22-.55.72.72 0 00-.16-.45 1 1 0 01.68.43 1.1 1.1 0 00-1-.81 4.19 4.19 0 00-.85.18 1 1 0 01-.5 0s.11.2.18.2-.2.07-.45-.17M69.93 76.62a1.37 1.37 0 00-1.46-.86 2.12 2.12 0 00-1.11.5 2.78 2.78 0 011.2-.16c.38.12 1.4.88 1.37.52" class="color131010 svgShape"></path><path fill="#5a3a35" fill-rule="evenodd" d="M70.1 79.77a1.57 1.57 0 001.39 0s-.81 1.11-1.39 0M70.12 77.4a1.37 1.37 0 01.06 1s.45-.38-.06-1" class="color5a3a35 svgShape"></path><path fill="#131010" fill-rule="evenodd" d="M74.24 76.33a2.81 2.81 0 00-1.19-.24c-.38.1-1.42.8-1.38.44v-.3a.16.16 0 01.06.12 1.43 1.43 0 011.4-.59 2.23 2.23 0 011.09.57" class="color131010 svgShape"></path><path fill="#5a3a35" fill-rule="evenodd" d="M72.26 81.53c-.87 1.28-2.34 1.21-2.91-.07l.43.11a5.82 5.82 0 002.12.05l.36-.09" class="color5a3a35 svgShape"></path><path fill="#131010" fill-rule="evenodd" d="M80 80.58c-.4 3.8-2.23 2.61-2.23 2.61s-1.15 1.84-2.29 1.7a1.35 1.35 0 01-1.18-1.28 6.81 6.81 0 002.18-3.84c0-.36-1.13-3-.1-4.37-.15-.29-.81-1.48-1-1.81s-.59-1.3-1.11-.81a5.69 5.69 0 01-4.6 1.48c-.64-.08-1.23-.36-1.87-.06a2.33 2.33 0 00-.9.78 2.78 2.78 0 00-.41 1.85c.3 6.52 2.81 7.21 3.89 7.58 0 0-.07.88-.09 1-4.46 1.1-5.42-3.41-5.42-3.41-1.7-2.57.63-6.09.63-6.09a6.22 6.22 0 01-.46-4c.32-1.13 1.87-2 2.63-1.67 3.45-5.74 12-1.15 11.3 4.26 1.13.73 1 1.68.38 2.13v.13a6.81 6.81 0 01.65 3.82" class="color131010 svgShape"></path><path fill="#52cc99" fill-rule="evenodd" d="M59 117.68c-2.5.59-3.56-.81-3.56-.81s3.7-12 4-13 1.4-8.06 2-10.44a13.24 13.24 0 013.14-5.37 14.74 14.74 0 01-.46 3.17c-2.3 4.4-.69 8-.69 8.86 0 .41.3 2.1.51 4 0 0-.89 2.75-1.26 3.7S59 117.68 59 117.68" class="colorfaa61a svgShape color52cc99"></path><path fill="#5a3a35" fill-rule="evenodd" d="M56 120.09a7.13 7.13 0 00.11 1.09 4.13 4.13 0 00.81 1.06 1.29 1.29 0 01.35.78c.06 0 .52 0 .44-.79.33-.07.33-.29.29-.54-.13-.74-.79-1.78-.75-2a11.3 11.3 0 01.88-1.85 5.82 5.82 0 01-.76 0s-.41 1.7-.41 1.93.12.2.41.92-.34.65-.49.5l-.88-1.1" class="color5a3a35 svgShape"></path><path fill="#845853" fill-rule="evenodd" d="M57.41 117.81a3.25 3.25 0 01-1.54-.52s-.55 1.34-.67 1.7a4.54 4.54 0 00-.14 2 5.82 5.82 0 001.75 2.25c.55.36.71-.34.15-1a4.29 4.29 0 01-.81-1.07 7 7 0 01-.15-1.07s.74.9.89 1.05.77.23.48-.49-.41-.7-.41-.92.41-1.93.41-1.93" class="color845853 svgShape"></path><path fill="#52cc99" fill-rule="evenodd" d="M75.06 85.33s.67.73 1 1.22a25.2 25.2 0 013.58 1 19.15 19.15 0 012.36 2.7c1.36 1.59 1.74 10.55 2.08 13.35a6.27 6.27 0 01-1 4.3c-.41.39-4.06 5.85-6 6.84 0 0-1.65.58-2-2.12 0 0 3.77-6.58 4.49-7.36l-.56-7.87s-2.58 9-3 12.6a17.92 17.92 0 01-11.32 0s-1.3-9-1.3-9.91-1.6-4.46.69-8.86a14.74 14.74 0 00.46-3.17c0-.24 1.71-1 3.34-1.38 0 0 1.3-1.25 1.67-1.49 0 0 .33 2.93 1.66 3.8 0 0 3.66-.64 3.8-3.65" class="colorfdc010 svgShape color52cc99"></path><path fill="#52cc99" fill-rule="evenodd" d="M71.26 89s3.66-.64 3.8-3.65c0 0 .67.73 1 1.22a26.34 26.34 0 013.58 1 10.42 10.42 0 01-5 1.74 7.12 7.12 0 01-3.38-.31M64.49 108.23c.14 1-3.7 8.2-3.7 8.2 5.5 6.87 18.32-.9 18.32-.9.19-1.65-2.17-10.51-1.36-13.31 0 0-3.66 5.36-7.44 6a14.62 14.62 0 01-5.82 0" class="colorfaa61a svgShape color52cc99"></path><path fill="#5a3a35" fill-rule="evenodd" d="M56.15 121.18a2.51 2.51 0 01-.24-.89 1.91 1.91 0 01.13-.91c.06.31.07.6.11.9a5.41 5.41 0 010 .9" class="color5a3a35 svgShape"></path><path fill="#52cc99" fill-rule="evenodd" d="M71.26 89c-1.33-.87-1.66-3.8-1.66-3.8-.37.24-1.67 1.49-1.67 1.49a3 3 0 001.28 1.77 5.28 5.28 0 002.05.54" class="colorfaa61a svgShape color52cc99"></path><path fill="#f1f1f2" fill-rule="evenodd" d="M70.3 84.73a8.77 8.77 0 00-2.07 1.47c-.51.61-6.85 10.69-5.32 35.9 0 0 4 .83 5.54-.92 0 0 .3-30.79 1.72-34.89z" class="colorf1f1f2 svgShape"></path><path fill="#845853" fill-rule="evenodd" d="M68.38 86.85c0 .15.3 1.8.3 1.8s.06.43.16.92-.23 1-.49.69a11.55 11.55 0 01-.81-1.84s.09 1 .17 1.58-.38.86-.61.63a6 6 0 01-.56-1.42 2.29 2.29 0 01-.24 1.25c-.3.33-.5-.07-.52-.35s-.53-1.91-.53-1.91c-.34 1.59-1.25 1.29-1.25 1.1a10.08 10.08 0 01.4-1.3 1.5 1.5 0 01.68-.84l.21-.09c.35-.13 3-1 3.09-.2" class="color845853 svgShape"></path><path fill="#52cc99" fill-rule="evenodd" d="M75.13 112.62s.74 2.23 1.58 2.46l2.41-2.14s.07-5-1-5.45z" class="colorfdc010 svgShape color52cc99"></path><path fill="#f1f1f2" fill-rule="evenodd" d="M74.31 84.21s3.44 2.2 3.13 5.4c-.24 2.42-.53 26.33.41 29.13 0 0-3.84.4-5.44-1.26 0 0-.15-23.67 1.34-28.11.19-.57.89-3.06.89-3.06l-.28-.5z" class="colorf1f1f2 svgShape"></path><path fill="#dedfe0" fill-rule="evenodd" d="M66.22 104.8c.19 2.26.19 4.5.18 6.75 0 1.12 0 2.24-.09 3.36l-.14 3.37a23.85 23.85 0 01-.39-3.36c-.06-1.13-.07-2.26-.06-3.38a47.66 47.66 0 01.5-6.74M64.51 112.41a21.8 21.8 0 01.32 4 30 30 0 01-.27 4 10.57 10.57 0 01-.33-2c-.06-.67-.08-1.34-.08-2a20.24 20.24 0 01.36-4M75.28 99.51a54.67 54.67 0 01.09 5.72c0 1-.07 1.89-.12 2.84l-.18 2.86a17.21 17.21 0 01-.36-2.86v-2.86a34.23 34.23 0 01.59-5.7" class="colordedfe0 svgShape"></path><path fill="#52cc99" fill-rule="evenodd" d="M70.66 93.81c0-.81.11-1.62.18-2.44l.25-2.43.51.08-.5 2.39c-.16.8-.33 1.6-.44 2.4" class="colorfaa61a svgShape color52cc99"></path><path fill="#52cc99" fill-rule="evenodd" d="M70.91 92.55a.35.35 0 00-.45.2.33.33 0 000 .32l-.29 1.29c0 .16 0 .31.17.32h.41c.12 0 .23-.12.23-.28v-1.29a.44.44 0 00.12-.15.36.36 0 00-.2-.46" class="colorfaa61a svgShape color52cc99"></path></g></g></g></g></g></svg></svg></g></svg>