<svg id="SvgjsSvg1321" width="288" height="288" xmlns="http://www.w3.org/2000/svg" version="1.1" xmlns:xlink="http://www.w3.org/1999/xlink" xmlns:svgjs="http://svgjs.com/svgjs"><defs id="SvgjsDefs1322"></defs><g id="SvgjsG1323"><svg xmlns="http://www.w3.org/2000/svg" xmlns:xlink="http://www.w3.org/1999/xlink" data-name="Layer 1" viewBox="0 0 240 184" width="288" height="288"><defs><mask id="l" width="16.4" height="17.82" x="76.57" y="100.7" maskUnits="userSpaceOnUse"><g data-name="mask-21" fill="#000000" class="color000 svgShape"><path fill="#ffffff" fill-rule="evenodd" d="M76.57 100.7h16.4v17.82h-16.4V100.7z" data-name="path-20" class="colorfff svgShape"></path></g></mask><mask id="b" width="200.37" height="20.67" x="24.32" y="146.3" maskUnits="userSpaceOnUse"><g data-name="mask-4" fill="#000000" class="color000 svgShape"><path fill="#ffffff" fill-rule="evenodd" d="M31.93 151.5c4 .77 101 13.54 113.11 15.1a77.56 77.56 0 008.56.36h.87c20.59 0 61.84-3 68.07-4.38 7.48-1.67-6.7-3.42-9.12-3.65-21.11-2.05-116.8-12.22-124-12.08-7.24.14-42.73-.29-50.72-.51h-3c-13.7 0-15.13 3-3.78 5.2" data-name="path-3" class="colorfff svgShape"></path></g></mask><mask id="e" width="8.77" height="15.4" x="41.92" y="83.19" maskUnits="userSpaceOnUse"><g data-name="mask-9" fill="#000000" class="color000 svgShape"><path fill="#ffffff" fill-rule="evenodd" d="M41.92 85.91q0-.59.06-1.2c1.16-.49 2.46-1 3.78-1.52l4.93 15.4-4.92-.52" data-name="path-8" class="colorfff svgShape"></path></g></mask><mask id="f" width="15.15" height="20.3" x="48.25" y="79.65" maskUnits="userSpaceOnUse"><g data-name="mask-12" fill="#000000" class="color000 svgShape"><path fill="#ffffff" fill-rule="evenodd" d="M48.25 82.24a64.37 64.37 0 016.64-2.14l1.93-.45L63.4 100l-9.78-1" data-name="path-11" class="colorfff svgShape"></path></g></mask><mask id="h" width="30.82" height="18.9" x="105.6" y="81.66" maskUnits="userSpaceOnUse"><g data-name="mask-15" fill="#000000" class="color000 svgShape"><path fill="#ffffff" fill-rule="evenodd" d="M105.6 81.72l4-.06 26.81 18.9h-4.12" data-name="path-14" class="colorfff svgShape"></path></g></mask><mask id="j" width="36.52" height="19.08" x="112.03" y="81.59" maskUnits="userSpaceOnUse"><g data-name="mask-18" fill="#000000" class="color000 svgShape"><path fill="#ffffff" fill-rule="evenodd" d="M112 81.63h9.34l27.17 19.07-9.6-.09" data-name="path-17" class="colorfff svgShape"></path></g></mask><mask id="d" width="193.53" height="75.48" x="20" y="75.71" maskUnits="userSpaceOnUse"><g data-name="mask-7" fill="#000000" class="color000 svgShape"><path fill="#ffffff" fill-rule="evenodd" d="M20 75.71h193.53v75.49H20V75.71z" data-name="path-6" class="colorfff svgShape"></path></g></mask><linearGradient id="c" x1="-415.91" x2="-416.91" y1="1010.55" y2="1010.55" gradientTransform="matrix(200.37 0 0 -20.67 83562.32 21040.35)" gradientUnits="userSpaceOnUse"><stop offset="0" stop-color="#e1f2fb" class="stopColore1f2fb svgShape"></stop><stop offset="1" stop-color="#e1f2fb" class="stopColore1f2fb svgShape"></stop></linearGradient><linearGradient id="a" x1="-370.68" x2="-370.86" y1="995.67" y2="997.24" gradientTransform="matrix(8.77 0 0 -15.4 3298.4 15432.78)" gradientUnits="userSpaceOnUse"><stop offset="0" stop-color="#172a33" class="stopColor172a33 svgShape"></stop><stop offset="1" stop-color="#ffffff" class="stopColorfff svgShape"></stop></linearGradient><linearGradient id="g" x1="-390.77" x2="-390.94" y1="1009.28" y2="1010.45" gradientTransform="matrix(15.15 0 0 -20.3 5975.44 20589.2)" xlink:href="#a"></linearGradient><linearGradient id="i" x1="-404.87" x2="-405.02" y1="1006.49" y2="1006.98" gradientTransform="matrix(30.82 0 0 -18.9 12600.96 19111.79)" xlink:href="#a"></linearGradient><linearGradient id="k" x1="-407" x2="-407.13" y1="1006.98" y2="1007.34" gradientTransform="matrix(36.52 0 0 -19.08 14992.97 19302.46)" xlink:href="#a"></linearGradient></defs><g data-name="--SDP-delivery-checker" fill="#000000" class="color000 svgShape"><g data-name="D SDP LYCG jan2021" fill="#000000" class="color000 svgShape"><g data-name="cmx-section" fill="#000000" class="color000 svgShape"><g data-name="Group-11" fill="#000000" class="color000 svgShape"><g data-name="Group" fill="#000000" class="color000 svgShape"><path fill="#ffffff" fill-opacity=".01" d="M0 0h240v184H0z" data-name="Rectangle" class="colorfff svgShape"></path><g data-name="sell-circle-lock-up" fill="#000000" class="color000 svgShape"><g data-name="Group-6" fill="#000000" class="color000 svgShape"><path fill="#b6e0fd" fill-rule="evenodd" d="M188.92 92.5A71.86 71.86 0 11117.06 21a71.69 71.69 0 0171.86 71.5" data-name="Fill-4" class="colorb6e0fd svgShape"></path></g><g data-name="Group-140" fill="#000000" class="color000 svgShape"><g data-name="Group-3" mask="url(#b)" fill="#000000" class="color000 svgShape"><path style="isolation:isolate" fill="url(#c)" fill-rule="evenodd" d="M31.93 151.5c4 .77 101 13.54 113.11 15.1a77.56 77.56 0 008.56.36h.87c20.59 0 61.84-3 68.07-4.38 7.48-1.67-6.7-3.42-9.12-3.65-21.11-2.05-116.8-12.22-124-12.08-7.24.14-42.73-.29-50.72-.51h-3c-13.7 0-15.13 3-3.78 5.2" data-name="Fill-1" opacity=".5"></path></g><g data-name="Group-139" fill="#000000" class="color000 svgShape"><path fill="#172b33" fill-rule="evenodd" d="M173.09 151c8.23-.32 17.79-.87 24.63-1.29 0 0-2 6.66-11.7 7S173.09 151 173.09 151" data-name="Fill-4" class="color172b33 svgShape"></path><path fill="#172b33" fill-rule="evenodd" d="M115.65 159.35c1.9 1.91 7.26 3.7 14.52 2.8S140.24 151 140.24 151c-1.54 0-2.46 0-2.61-.06-.55 0-.86-.12-1-1.26s-.69-28.1-16.14-28.86c-13.55-.66-14.07 18.69-13.13 25.86l3.44 1.67s1.36 7.48 4.87 11" data-name="Fill-6" class="color172b33 svgShape"></path><g data-name="Group-10" mask="url(#d)" fill="#000000" class="color000 svgShape"><path fill="#ebebec" fill-rule="evenodd" d="M107.71 148.64s-58-6-60.89-6.52-2.2-2.87-2.2-3.45-1.09-21.08-10.56-20.78c-8.69.27-7 19.83-7 19.83a48.8 48.8 0 01-5.52-4.62 7.15 7.15 0 01-1.32-4.1c0-.5-.29-7.55-.2-8.84s2.26-5.18 2.26-6 .25-3.1.25-3.1a2.87 2.87 0 01-.88-1.79c0-1 .28-5.6.34-6.1s2.59-6.6 5.26-8.69c0 0 4.92-7 7.57-9V83.6c0-.11.3-.94 3.53-1.73a83.69 83.69 0 0116-3.82c8.86-1.21 9.1-3 30.24-2.1s35.7 1.92 37.17 2.07a74.29 74.29 0 0115.83 3.5c8.86 2.83 33.4 15.55 41.85 19.45 0 0 14.77 6.41 18.89 9.05a13 13 0 013 0c1 .21 3.74 2.57 6 5.13.59.59.92 3.49.54 5.1 0 0 2.46 2.58 2.78 2.9a2.87 2.87 0 01.68 2.3s1.69.75 2.24 11c.12 2.89-.17 9.65-.19 10.19s-.15.87-.58.87-1.34.15-1.61.15a3.85 3.85 0 00-1.42.36 8.89 8.89 0 01-2.83 1.12c-.74 0-30.92 2.1-44.41 2.1s-24.29-.21-24.83-.25-.86-.12-1-1.26-.69-28.1-16.14-28.86c-13.55-.66-14.07 18.69-13.13 25.86l3.44 1.67z" data-name="Fill-8" class="colorebebec svgShape"></path></g><path fill="#172b33" fill-rule="evenodd" d="M27.08 137.72s-1.71-19.56 7-19.83c9.47-.3 10.56 20.21 10.56 20.78s-.71 3 2.2 3.45c.31 0 1.23.16 2.62.32 0 0-1.89 8.29-7.43 9.2s-8.95-.85-10.9-3.68-2.84-8.32-3-10.36a1.57 1.57 0 01-1.07.12" data-name="Fill-11" class="color172b33 svgShape"></path><path fill="#172b33" fill-rule="evenodd" d="M22.53 111.1a2.87 2.87 0 01-.88-1.79c0-1 .28-5.6.34-6.1s2.59-6.6 5.26-8.69c0 0 .29 4.48.37 5.29a3.72 3.72 0 01-.68 2.78c-.72.89-3.62 4.72-3.23 8 .12.76-1.18.52-1.18.52" data-name="Fill-13" class="color172b33 svgShape"></path><path fill="#c7ccd0" fill-rule="evenodd" d="M70.85 109.62c-.2 1.44 1.29 2.83 3.33 3.13s3.86-.63 4.06-2.06-1.29-2.83-3.33-3.13-3.86.63-4.06 2.06" data-name="Fill-15" class="colorc7ccd0 svgShape"></path><path fill="#c7ccd0" fill-rule="evenodd" d="M40.16 106.59a3 3 0 003 2.89c1.77.15 3.3-.89 3.42-2.33a3 3 0 00-3-2.89c-1.77-.15-3.31.89-3.43 2.33" data-name="Fill-17" class="colorc7ccd0 svgShape"></path><path fill="#384d59" fill-rule="evenodd" d="M77.76 110.46c0 .26-.13.74-1.23.57s-4.46-.39-5.35-.41-.75-.56-.74-.72 0-.79 1.19-.74 4.23.35 5.07.51 1.07.46 1.06.79" data-name="Fill-19" class="color384d59 svgShape"></path><path fill="#384d59" fill-rule="evenodd" d="M46.1 106.9c0 .26-.1.74-1 .59s-3.75-.32-4.49-.32a.58.58 0 01-.63-.71c0-.17 0-.79 1-.76a42 42 0 014.26.43c.71.15.91.44.91.77" data-name="Fill-21" class="color384d59 svgShape"></path><path fill="#c7ccd0" fill-rule="evenodd" d="M20 120.2c-.09 1.29.16 8.34.2 8.84a7.15 7.15 0 001.34 4.06 48.8 48.8 0 005.52 4.62s-1.22-13.93 3.62-18.44a8.53 8.53 0 00-4.68 3.06c-.34.51-1 .44-2 .11a36.94 36.94 0 01-4-2.25" data-name="Fill-23" class="colorc7ccd0 svgShape"></path><path fill="#c7ccd0" fill-rule="evenodd" d="M106.77 126.1s-2.14-4.59-6-5.29c-14.95-2.58-50.94-6-53.33-5.73s-2.58 3-2.72 4.44-.83 3.3-3.07.74-6-2.19-6-2.19c7.92 2 8.88 20.07 8.88 20.6s-.71 3 2.2 3.45 60.89 6.52 60.89 6.52l3.07-.28-3.44-1.67c-.8-6.11-.54-21 7.92-24.94a11.22 11.22 0 00-8.49 4.35" data-name="Fill-25" class="colorc7ccd0 svgShape"></path><path fill="#384d59" fill-rule="evenodd" d="M71.92 100.87c-.63 1.11-1 1.87-1.59 3a14.9 14.9 0 00-.73 1.79 4 4 0 00-.11.5v1.49c-.07 2.54-.09 5.08-.13 7.62l-.13 15.24.4-15.23c.08-2.54.15-5.08.25-7.62l.05-.94v-.46a2.26 2.26 0 01.11-.43 12.8 12.8 0 01.74-1.71c.57-1.12 1.12-2.09 1.77-3.17z" data-name="Fill-27" class="color384d59 svgShape"></path><path fill="#172b33" fill-rule="evenodd" d="M116.08 105.65c-18.32-2-71.35-7.74-73.31-7.89s-3.12-.3-3.91-1.46a40.42 40.42 0 01-3.15-5.82 2.67 2.67 0 011.42-3.71c1.61-.71 12.26-5.35 17.77-6.67s18.91-4 28.5-1 17.78 6.3 33.37 23.08c1.17 1.35 1.1 3.65-.69 3.46" data-name="Fill-29" class="color172b33 svgShape"></path><g data-name="Group-33" mask="url(#e)" fill="#000000" class="color000 svgShape"><path style="isolation:isolate" fill="url(#a)" fill-rule="evenodd" d="M41.92 85.91l3.85 12.16 4.92.52-4.93-15.4c-1.32.52-2.62 1-3.78 1.52q0 .62-.06 1.2" data-name="Fill-31" opacity=".2"></path></g><g data-name="Group-36" mask="url(#f)" fill="#000000" class="color000 svgShape"><path style="isolation:isolate" fill="url(#g)" fill-rule="evenodd" d="M48.25 82.24l5.37 16.66 9.78 1-6.58-20.3-1.93.45a64.37 64.37 0 00-6.64 2.14" data-name="Fill-34" opacity=".2"></path></g><path fill="#384d59" fill-rule="evenodd" d="M73 77.72a81.42 81.42 0 00-18.1 2.38c-5.51 1.32-16.16 6-17.77 6.67a2.67 2.67 0 00-1.42 3.71 40.42 40.42 0 003.15 5.82c.79 1.16 2 1.31 3.91 1.46s55 5.9 73.31 7.88h.21c1.58 0 1.6-2.18.48-3.47C101.18 85.41 93 82.14 83.4 79.11A34.83 34.83 0 0073 77.72zM50.26 88l4.89-6.77A79.54 79.54 0 0173 78.85a32.38 32.38 0 013.5.15 88.74 88.74 0 00-4 11.36c-.82 3.53-1.84 9.22-1.84 9.22l-22.41-2.39zM41 96.42a1.79 1.79 0 01-1.26-.76 44.47 44.47 0 01-2.44-4.29c-.25-.49.7-3.77 1.43-4.08 2-.87 6.17-2.63 10.16-4.1zm35.84-5.31c.63-3.87 3.05-11.69 3.05-11.69a27.24 27.24 0 013.14.76c8.71 2.76 16.07 6.36 28.35 18.64a.84.84 0 01.25.67l-.28 3.64a.84.84 0 01-.92.77l-34.81-3.76s.59-5.16 1.22-9z" data-name="Fill-37" class="color384d59 svgShape"></path><path fill="#172b33" fill-rule="evenodd" d="M73.3 99.93c.28-2.43.63-4.86 1-7.27a60.53 60.53 0 011.7-7.15 61.32 61.32 0 00-1.89 7.1c-.51 2.4-1 4.84-1.34 7.27z" data-name="Fill-39" class="color172b33 svgShape"></path><path fill="#172b33" fill-rule="evenodd" d="M43.84 96.78c.17-.81.39-1.63.63-2.44s.51-1.6.81-2.39c-.39.75-.75 1.51-1.08 2.3s-.67 1.67-.94 2.49z" data-name="Fill-41" class="color172b33 svgShape"></path><path fill="#384d59" fill-rule="evenodd" d="M104.85 105c.19 0 1-.17 1 .59a7.7 7.7 0 01-.33 2.22c-.14.25-.39.65-.84.65s-2 .22-2.44-.4-1.57-2.41-1.76-2.64-.67-.94-1.18-.9c-.81 0-7.67-.46-8.34-1.73a6.07 6.07 0 01-.59-3.38c.1-1 2-2.77 5.32-2.94s7.42-.8 8.46 3.65a10.33 10.33 0 01-.56 3.57s.48 1.21 1.31 1.31" data-name="Fill-43" class="color384d59 svgShape"></path><path fill="#172b33" fill-rule="evenodd" d="M90.38 101.19a5.19 5.19 0 00.53 1.55c.67 1.27 7.53 1.78 8.34 1.73.5 0 1 .68 1.18.9s1.29 2 1.76 2.64 2 .4 2.44.4c0 0-3.41-5-3.81-5.6a46.16 46.16 0 01-6.94-.44 28.79 28.79 0 01-3.5-1.18" data-name="Fill-45" class="color172b33 svgShape"></path><path fill="#ebebec" fill-rule="evenodd" d="M50.75 138.77c4.58.66 37.75 4.89 50.39 5.89.66.06 2.35.11 2.35-1.21v-2s-35.86-4.1-45.66-6.55-13.07-4.95-13.07-4.95 1.05 4.88 1.34 5.72 1.33 2.64 4.65 3.12" data-name="Fill-47" class="colorebebec svgShape"></path><path fill="#384d59" fill-rule="evenodd" d="M101.14 144.66c-4.19-.58-8.39-1.1-12.58-1.61L76 141.56l-12.61-1.39-6.3-.68c-2.1-.23-4.21-.44-6.3-.72 4.16.76 8.36 1.27 12.55 1.83s8.4 1 12.6 1.52 8.4.93 12.61 1.36 8.42.84 12.63 1.18" data-name="Fill-49" class="color384d59 svgShape"></path><path fill="#384d59" fill-rule="evenodd" d="M140.63 119.72a4.39 4.39 0 01-1.49 1.19 6.65 6.65 0 01-1.25.5l-1.3.44-5.22 1.76 5.31-1.49 1.32-.38a6.73 6.73 0 001.33-.45 4.47 4.47 0 001.86-1.4z" data-name="Fill-51" class="color384d59 svgShape"></path><path fill="#ffffff" fill-rule="evenodd" d="M170.72 118.74a30.31 30.31 0 01-4.24 3.55s-21-.93-25.85-2.57a4.24 4.24 0 00-.74-2.33c-.69-.7-4.93-5.64-5.58-6.3a1.36 1.36 0 011.25-2.24c1.66.1 6.22.89 5.39-.46a112.31 112.31 0 0114 5.07c7.6 3.32 8.43 3.74 9.77 4l6 1.26" data-name="Fill-53" class="colorfff svgShape"></path><path fill="#e1f2fc" fill-rule="evenodd" d="M147.56 112.17c-3.28 0-2.59 3.17-1.69 4.81.55 1 2 4 2 4 7.9.87 18.62 1.35 18.62 1.35a30.31 30.31 0 004.24-3.55l-6-1.26c-1.34-.28-2.17-.7-9.77-4a28.12 28.12 0 00-7.4-1.29" data-name="Fill-55" class="colore1f2fc svgShape"></path><path fill="#384d59" fill-rule="evenodd" d="M162.24 122.07l4.24.22a30.31 30.31 0 004.24-3.55l-6-1.26a4.54 4.54 0 01-.55 2.41 13.64 13.64 0 01-1.94 2.18" data-name="Fill-57" class="color384d59 svgShape"></path><path fill="#384d59" fill-rule="evenodd" d="M145.87 120.71a31.08 31.08 0 01-5.24-1 4.24 4.24 0 00-.74-2.33c-.36-.36-1.68-1.88-3-3.34 0 0 3.34.2 4.07.32a2.26 2.26 0 011.93 1.24c.57 1 2.94 5.1 2.94 5.1" data-name="Fill-59" class="color384d59 svgShape"></path><path fill="#c4e2f7" fill-rule="evenodd" d="M154.24 118.46a5.45 5.45 0 00.93 3.14c1.42.11 2.8.21 4.09.29a5.25 5.25 0 001.15-3.43 5.53 5.53 0 00-.8-3l-3-1.33c-1.34.48-2.35 2.21-2.35 4.29" data-name="Fill-61" class="colorc4e2f7 svgShape"></path><path fill="#9ecdee" fill-rule="evenodd" d="M156.6 121.71l2.66.18a5.25 5.25 0 001.15-3.43 5.53 5.53 0 00-.8-3l-1.07-.47c1.28 4.86-1.94 6.68-1.94 6.68" data-name="Fill-63" class="color9ecdee svgShape"></path><path fill="#c4e2f7" fill-rule="evenodd" d="M148.36 117a2 2 0 102-2.46 2.28 2.28 0 00-2 2.46" data-name="Fill-65" class="colorc4e2f7 svgShape"></path><path fill="#172b33" fill-rule="evenodd" d="M213.31 146.6c0 .53-.15.87-.58.87s-1.34.15-1.61.15a3.8 3.8 0 00-1.42.36 8.89 8.89 0 01-2.83 1.12c-.74 0-30.92 2.1-44.41 2.1 0 0 4.86-12 8.12-17.82a6.59 6.59 0 014.6-3.38c2.22-.29 31.53-1.15 33.76-1.15a3.39 3.39 0 013.27 3 143.19 143.19 0 011.1 14.78" data-name="Fill-67" class="color172b33 svgShape"></path><path fill="#c7ccd0" fill-rule="evenodd" d="M131.27 128c5 8.3 5.24 20.9 5.35 21.67.15 1.14.46 1.22 1 1.26s11.34.25 24.83.25c0 0 4.87-12 8.12-17.82a6.59 6.59 0 014.6-3.38c1.29-.17 11.73-.53 20.68-.8 0 0-13.82-.28-19.53.06s-6.33 2.61-6.33 2.61c-5.25-1.25-18.42-4.68-18.42-4.68-.89 1.19-1.47 5.72-1.47 5.72s-11-.28-12.45-.36-1.45-1-2.2-2.6-4.19-1.93-4.19-1.93" data-name="Fill-69" class="colorc7ccd0 svgShape"></path><path fill="#172b33" fill-rule="evenodd" d="M154 124.57v1.05a5.14 5.14 0 00-2.94 3.66c-.7 2.87-2 13.85-2.06 14.81s-.49 1.77-1.36 1.87h-1.23c-.15 0-.75-.13-.73-1.33s1.4-11.83 3.19-15.94 5.13-4.12 5.13-4.12" data-name="Fill-71" class="color172b33 svgShape"></path><path fill="#c7ccd0" fill-rule="evenodd" d="M154 124.57s4.73-.61 8.27-.79a75.79 75.79 0 00-8.27 1.84z" data-name="Fill-73" class="colorc7ccd0 svgShape"></path><path fill="#c7ccd0" fill-rule="evenodd" d="M162.08 116.56a13 13 0 002.65.91l6 1.27a42.61 42.61 0 01-3.35 3c2.37.22 18.13 3.93 18.13 3.93s-18.92-2.18-18.69-1.9a4 4 0 002.37 1.47c1.15.09 22.63 1.82 23.85 1.82a9.21 9.21 0 003.71-.58 50.15 50.15 0 007.38-4.24 2.83 2.83 0 011.61-.72c-1.36 0-1.59-2.09-1.61-3a.72.72 0 01.32-.64 1.24 1.24 0 00.46-.55 40.18 40.18 0 01-6.77 2.79 5 5 0 00-1.67 1.26l-6.12.5s-1.09-1.21-1.63-1.3-14.64-2.1-17-2.34-9.61-1.6-9.61-1.6" data-name="Fill-75" class="colorc7ccd0 svgShape"></path><path fill="#384d59" fill-rule="evenodd" d="M173 120.18s-.88 1.35-1 1.58a1 1 0 00.67 1.22c.71.18 18.28 3.77 19.31 4a7.26 7.26 0 003.38-.31c.65-.31 7-3.89 7.36-4.16a1.34 1.34 0 00.44-1.29c0-.64-.15-1.69-.15-1.69s-4.45 2.37-5.07 2.84-2.29 2.45-4.45 2.58a12.57 12.57 0 01-5-1.19 155.8 155.8 0 00-15.49-3.58" data-name="Fill-77" class="color384d59 svgShape"></path><path fill="#ffffff" fill-rule="evenodd" d="M190.07 120.5a3.2 3.2 0 103.19-3.24 3.21 3.21 0 00-3.19 3.24" data-name="Fill-79" class="colorfff svgShape"></path><path fill="#ffffff" fill-rule="evenodd" d="M207.8 120.24c.38-1.61 0-4.51-.54-5.1-2.24-2.56-4.94-4.92-6-5.13a13 13 0 00-3 0s4.79 2.82 6.31 5.68a1.43 1.43 0 01-.19 2.11.76.76 0 00-.33.64c0 1 .26 3 1.62 3a1.93 1.93 0 002.07-1.24" data-name="Fill-81" class="colorfff svgShape"></path><path fill="#e1f2fc" fill-rule="evenodd" d="M207.8 120.24c.38-1.61 0-4.51-.54-5.1-.7-.81-1.45-1.59-2.18-2.29-1.59-1.54-5.37-2-3.85-.82a13 13 0 013.4 3.66 1.43 1.43 0 01-.19 2.11.76.76 0 00-.33.64c0 1 .26 3 1.62 3a1.93 1.93 0 002.07-1.24" data-name="Fill-83" class="colore1f2fc svgShape"></path><path fill="#384d59" fill-rule="evenodd" d="M204.11 118.44c0 1 .26 3 1.62 3a1.93 1.93 0 002.07-1.24 8.19 8.19 0 00.16-1.93 3.9 3.9 0 01-2.9 1.77c-.52 0-.95-1.64-.95-1.64" data-name="Fill-85" class="color384d59 svgShape"></path><path fill="#384d59" fill-rule="evenodd" d="M127.23 143.78c0 4.83-2.65 8.75-5.92 8.75s-5.91-3.92-5.91-8.75 2.65-8.76 5.91-8.76 5.92 3.92 5.92 8.76" data-name="Fill-87" class="color384d59 svgShape"></path><path fill="#ffffff" fill-rule="evenodd" d="M115.11 145.7h2.18c.34 0 .51.62.27 1L116 149c-.19.26-.49.2-.61-.12a12.94 12.94 0 01-.68-2.41c-.07-.36.12-.72.37-.72zm2.79-10.64a5.48 5.48 0 011.65-1c.24-.1.48.18.48.55v3.25c0 .51-.41.76-.65.4l-1.56-2.26a.75.75 0 01.08-.9zm-.05 16.56l1.53-2.26c.24-.36.65-.11.65.4V153c0 .37-.24.65-.48.55a5.89 5.89 0 01-1.63-1 .76.76 0 01-.07-.9zm-.56-9.71h-2.19c-.25 0-.43-.36-.37-.72a12.82 12.82 0 01.67-2.42c.13-.33.43-.38.61-.12l1.55 2.29c.24.35.07 1-.27 1zm5.31-7.31c0-.37.24-.65.49-.55a5.56 5.56 0 011.64 1 .75.75 0 01.08.9l-1.55 2.29c-.25.36-.66.11-.66-.4zm0 15.16c0-.51.41-.76.66-.4.48.72 1.13 1.68 1.53 2.26a.75.75 0 01-.09.9 5.79 5.79 0 01-1.61 1c-.25.1-.49-.18-.49-.55zm2.47-8.82l1.55-2.29c.18-.26.48-.21.6.11a13.15 13.15 0 01.68 2.43c.07.36-.12.72-.38.72h-2.18c-.34 0-.51-.62-.27-1zm.27 4.76h2.17c.26 0 .45.36.38.72a13.75 13.75 0 01-.68 2.41c-.13.32-.43.38-.61.12l-1.53-2.27c-.24-.36-.07-1 .27-1zm-12.68-1.92c0 7.07 3.88 12.81 8.66 12.81s8.65-5.74 8.65-12.81S126.1 131 121.32 131s-8.66 5.74-8.66 12.81z" data-name="Fill-89" class="colorfff svgShape"></path><path fill="#172b33" fill-rule="evenodd" d="M123.49 143.78c0 1.78-1 3.22-2.18 3.22s-2.18-1.44-2.18-3.22 1-3.23 2.18-3.23 2.18 1.45 2.18 3.23" data-name="Fill-91" class="color172b33 svgShape"></path><path fill="#384d59" fill-rule="evenodd" d="M122.46 143.78c0 .93-.51 1.69-1.15 1.69s-1.14-.76-1.14-1.69.51-1.7 1.14-1.7 1.15.76 1.15 1.7" data-name="Fill-93" class="color384d59 svgShape"></path><path fill="#e1f2fc" fill-rule="evenodd" d="M117.85 151.62l1.52-2.26c.24-.36.66-.1.66.4V153c0 .38-.24.66-.48.56a5.66 5.66 0 01-1.63-1 .76.76 0 01-.07-.9zm4.75-1.86c0-.5.41-.76.65-.4l1.54 2.26a.75.75 0 01-.09.9 5.56 5.56 0 01-1.61 1c-.25.1-.49-.18-.49-.56zm-6.79 3.9a9.42 9.42 0 003.19 2.44 6.18 6.18 0 003.89.28c2.8-.75 4.81-3.36 5.88-6 .06-.14.11-.27.16-.41a21 21 0 00-1.2-2.67 13 13 0 01-.47 1.49c-.12.32-.43.37-.61.11l-1.53-2.27c-.24-.35-.07-1 .27-1h1.32c-.92-1.23-2-2.09-3.19-1.45-.15 1.56-1.06 2.75-2.16 2.75a1.5 1.5 0 01-.76-.21c-4.39 3.6-6.63 3.28-6.78 3.26a9.78 9.78 0 002 3.61z" data-name="Fill-95" class="colore1f2fc svgShape"></path><path fill="#384d59" fill-rule="evenodd" d="M31.57 136.4c0 4 1.69 7.2 3.77 7.2s3.78-3.22 3.78-7.2-1.69-7.21-3.78-7.21-3.77 3.22-3.77 7.21" data-name="Fill-97" class="color384d59 svgShape"></path><path fill="#ffffff" fill-rule="evenodd" d="M39.53 138.57a11.73 11.73 0 01-.43 2c-.08.27-.27.32-.38.1l-1-1.87c-.16-.29-.05-.8.17-.8h1.41c.16 0 .28.29.23.59zm-2-8.61l-1 1.88c-.15.3-.42.09-.42-.33v-2.68c0-.3.16-.53.31-.45a3.66 3.66 0 011.05.84.77.77 0 010 .74zm-.07 13.63a3.55 3.55 0 01-1 .82c-.15.08-.31-.15-.31-.46v-2.63c0-.41.27-.62.42-.33l1 1.86a.74.74 0 010 .74zm.24-9.54l1-1.88c.12-.22.31-.17.39.1a11.85 11.85 0 01.43 2c0 .3-.08.59-.24.59h-1.37c-.22 0-.33-.5-.17-.8zm-3.22-2.54c0 .42-.26.63-.42.33l-1-1.88a.72.72 0 01.05-.74 3.5 3.5 0 011-.84c.16-.08.31.15.31.45zm0 12.44c0 .31-.15.54-.31.46a3.68 3.68 0 01-1-.82.74.74 0 010-.74l1-1.86c.16-.29.42-.08.42.33zm-1.75-9.1h-1.35c-.16 0-.28-.29-.24-.59a14.69 14.69 0 01.43-2c.08-.26.27-.31.39-.09l1 1.88c.15.3 0 .8-.18.8zm.18 3.93l-1 1.87c-.12.22-.31.17-.39-.1a12.79 12.79 0 01-.43-2c0-.3.07-.59.24-.59h1.38c.22 0 .33.51.18.8zm2.39-12.93c-3.05 0-5.52 4.72-5.52 10.55s2.47 10.54 5.52 10.54 5.52-4.72 5.52-10.54-2.47-10.55-5.52-10.55z" data-name="Fill-99" class="colorfff svgShape"></path><path fill="#172b33" fill-rule="evenodd" d="M34 136.4c0 1.46.62 2.65 1.39 2.65s1.39-1.19 1.39-2.65-.62-2.66-1.39-2.66S34 134.93 34 136.4" data-name="Fill-101" class="color172b33 svgShape"></path><path fill="#384d59" fill-rule="evenodd" d="M34.61 136.4c0 .77.33 1.39.73 1.39s.73-.62.73-1.39-.33-1.4-.73-1.4-.73.62-.73 1.4" data-name="Fill-103" class="color384d59 svgShape"></path><path fill="#e1f2fc" fill-rule="evenodd" d="M37.5 143.59a3.39 3.39 0 01-1 .82c-.15.08-.31-.15-.31-.46v-2.63c0-.42.27-.62.42-.33l1 1.86a.74.74 0 010 .74zm-3 .36c0 .31-.15.54-.31.46a3.51 3.51 0 01-1-.82.77.77 0 010-.74l1-1.86c.16-.29.42-.09.42.33zm5.63-2.39c-.09 0-1.52.28-4.32-2.68a.83.83 0 01-.49.17c-.7 0-2.82-2.08-3.41-1.07h.84c.22 0 .33.51.18.8l-1 1.87c-.12.21-.31.17-.39-.09a11.06 11.06 0 01-.3-1.23c-.45 1.08-.74 2.1-.77 2.19s.07.23.11.34c.68 2.15 2 4.3 3.75 4.91a3.12 3.12 0 002.48-.23 6.58 6.58 0 002-2 8.74 8.74 0 001.3-3z" data-name="Fill-105" class="colore1f2fc svgShape"></path><path fill="#384d59" fill-rule="evenodd" d="M29 131s1.43-7.09 6.14-7.26 6.47 7.26 6.47 7.26-1-8.63-5.26-9a5.16 5.16 0 00-4.28 1.62 5.14 5.14 0 012.66-.75s-4.94.65-5.72 8.08" data-name="Fill-107" class="color384d59 svgShape"></path><path fill="#384d59" fill-rule="evenodd" d="M37.86 146.79s-1.63 1.6-3.13 1.49a4.58 4.58 0 01-2.65-1.35 5.37 5.37 0 005.78-.14" data-name="Fill-109" class="color384d59 svgShape"></path><path fill="#384d59" fill-rule="evenodd" d="M126.56 129.93s-5-3.44-9-.64a19.87 19.87 0 00-6.49 7.66s.66-7.54 7.16-10.47c7.38-3.32 14.05 5.6 14.52 10.47 0 0-3.86-8.35-8-9 0 0 1.58 1 1.84 2" data-name="Fill-111" class="color384d59 svgShape"></path><path fill="#384d59" fill-rule="evenodd" d="M130.26 148.64s-.52 7-5.36 9.22a19.58 19.58 0 003.32-4.33c.69-1.43 2-4.89 2-4.89" data-name="Fill-113" class="color384d59 svgShape"></path><path fill="#384d59" fill-rule="evenodd" d="M200.49 114.28c-1.75.07-3.5.14-5.25.17H193.29l-.64-.12c-.87-.16-1.74-.27-2.62-.36a11.61 11.61 0 00-1.33-.07c-.45 0-.88 0-1.32.09l-2.62.27c-.43 0-.86.1-1.29.11h-3.94c-3.49.09-7 .15-10.49.26s-7 .23-10.5.41h10.51c3.51 0 7-.09 10.51-.13H183.5c.44 0 .88-.07 1.32-.12l2.61-.31 1.29-.14a11.14 11.14 0 011.29 0c.87 0 1.73.14 2.6.24l.65.08a5.08 5.08 0 00.67 0h1.32c1.75-.07 3.5-.19 5.24-.32" data-name="Fill-115" class="color384d59 svgShape"></path><path fill="#384d59" fill-rule="evenodd" d="M167.42 139.73s2.19-4.62 3.15-6.35a6.63 6.63 0 014.61-3.38c.54-.07 2.68-.18 5.63-.29 0 0 2.13 1.66 3.1 1.66s20.29-.94 21.32-1 1.16-1.49 1.16-1.49c1.32 0 2.22-.05 2.55-.05a3.39 3.39 0 013.27 3c.1.49.35 2.83.59 5.57a10.23 10.23 0 01-3.87.84c-2.46.11-34.66 2.15-41.51 1.5" data-name="Fill-117" class="color384d59 svgShape"></path><path fill="#384d59" fill-rule="evenodd" d="M174.35 142.3a.29.29 0 000-.13.91.91 0 01.85-1q16.22-.21 32.36-1.33a.3.3 0 01.32.28 39.51 39.51 0 010 4.64.33.33 0 01-.3.29l-3 .24q-13.09.84-26.2 1.1v-.14a.9.9 0 01.84-1c8.75-.19 17.47-.58 26.21-1.15a7.51 7.51 0 00.36-1q-14.42.94-28.82 1.21v-.14a.9.9 0 01.84-1q14.19-.17 28.29-1.12c.06-.36.1-.7.13-1q-15.93 1.06-31.88 1.25" data-name="Fill-119" class="color384d59 svgShape"></path><path fill="#c7ccd0" fill-rule="evenodd" d="M170.16 100.87l-43.7-.41s12.66 6.34 35.13 2.77a45.56 45.56 0 008.57-2.36" data-name="Fill-121" class="colorc7ccd0 svgShape"></path><path fill="#384d59" fill-rule="evenodd" d="M126.46 100.46l5.84 2.83 2.92 1.54c1 .52 1.95 1 2.88 1.61-.91-.63-1.87-1.17-2.81-1.73l-2.86-1.71-4.49-2.56z" data-name="Fill-123" class="color384d59 svgShape"></path><path fill="#172b33" fill-rule="evenodd" d="M98.05 81.86c1.63.73 17.54 12.65 21 14.78a69.33 69.33 0 007.38 3.82l53 .5c-7.27-3.36-26.43-13.23-37.3-17.73a158.12 158.12 0 00-16.87-1.57c-7.22-.23-27.21.2-27.21.2" data-name="Fill-125" class="color172b33 svgShape"></path><path fill="#384d59" fill-rule="evenodd" d="M175.71 100.92h3.72c-7.27-3.36-26.43-13.23-37.3-17.73l-.74-.11z" data-name="Fill-127" class="color384d59 svgShape"></path><g data-name="Group-131" mask="url(#h)" fill="#000000" class="color000 svgShape"><path style="isolation:isolate" fill="url(#i)" fill-rule="evenodd" d="M105.6 81.72l26.7 18.8h4.12l-26.81-18.9-4 .06" data-name="Fill-129" opacity=".3"></path></g><g data-name="Group-134" mask="url(#j)" fill="#000000" class="color000 svgShape"><path style="isolation:isolate" fill="url(#k)" fill-rule="evenodd" d="M112 81.63l26.91 19 9.6.09-27.14-19.12h-9.34" data-name="Fill-132" opacity=".3"></path></g><path fill="#384d59" fill-rule="evenodd" d="M141.18 98.83l.24-.08.62.06h-.86zm-5.39 1.72l2.39-.7 17.46.6v-.5a103.42 103.42 0 00-10.45-1.13c-1.43-.14-3.81-.37-3.93-.35l-1.93.44c-2.64.13-4.72.33-4.72.33v.41l1.21.07-3.47.8z" data-name="Fill-135" class="color384d59 svgShape"></path><path fill="#384d59" fill-rule="evenodd" d="M163.46 99.62l.2-.09h.51l-.71.07zM161 100.8h14.49v-.5a51.55 51.55 0 00-8.74-.89c-1.19-.06-3.15-.16-3.25-.14l-1.5.53c-2.17.28-3.88.59-3.88.59v.34z" data-name="Fill-137" class="color384d59 svgShape"></path></g></g><g fill-rule="evenodd" data-name="Group-278" fill="#000000" class="color000 svgShape"><path fill="#9ccef7" d="M163.69 175.11h-25.33a.36.36 0 010-.72h25.33a.36.36 0 010 .72z" data-name="Fill-240" class="color9ccef7 svgShape"></path><path fill="#835652" d="M160.32 81.55a2.76 2.76 0 01-.4 1.1 2.36 2.36 0 01-.86.8 1 1 0 00-.43.56 14 14 0 00-.83 2.27s.48 1.9.5 2c.1.4.8.6 1.17.73L154 92.25c-.6-.24-.95-1.43-1.06-1.83a4.12 4.12 0 001-.61 2 2 0 000-.9.47.47 0 00-.27-.21 1.76 1.76 0 00-.6-.07 3.79 3.79 0 01-3.45-2.56 16.19 16.19 0 01-.94-4.51c0-.15-.11-1.16-.2-2.13s-.18-1.9-.18-1.9c.24.51 1.14.52 1.88 0a1.81 1.81 0 001.26.55c1.6.11 2.72-.63 4.16-1.39.36-.19.71-.49 1.17-.33 0 0-.61 1 .13 1.58a6 6 0 00.87 2.62c.07.12.16.44.34.42s.11-.08.13-.13l.14-.35a1.2 1.2 0 01.26-.4 1.24 1.24 0 01.54-.29 2 2 0 01.65 0l.08.12a2.42 2.42 0 01.38 1.71z" data-name="Fill-241" class="color835652 svgShape"></path><path fill="#0a141c" d="M147.8 78a3 3 0 00.8 2.6.41.41 0 000-.11l-.28-3c.24.51 1.14.52 1.87 0a1.83 1.83 0 001.27.55c1.59.11 2.72-.62 4.16-1.38.35-.2.7-.49 1.16-.34 0 0-.61 1 .13 1.58a6.85 6.85 0 001 2.82c.16.3.31.32.41.1l.07-.23a1.15 1.15 0 011-.84h.48a3.17 3.17 0 00-.39-3.51.78.78 0 00-.78-1.09c.5-.9-.94-4.61-4.06-3.08a1 1 0 00-.93-.51 1 1 0 00-.88.57.69.69 0 00-.67 0 .67.67 0 00-.32.57c-1-.75-2.5.35-2.34 1-.75-.15-1.67.54-1.36 1.23a1.89 1.89 0 00-.31 3.1z" data-name="Fill-242" class="color0a141c svgShape"></path><path fill="#5a3a35" d="M160.12 82.28a2.6 2.6 0 00-.28-2.58 1.88 1.88 0 00-1 .23 1.71 1.71 0 011.09 1.1c.19.86-.03 1.75.19 1.25z" data-name="Fill-243" class="color5a3a35 svgShape"></path><path fill="#5a3a35" d="M153.69 88.69a.49.49 0 01.27.22s2.79.38 4.13-1.37c0 0-.31-1.22-.32-1.24a7.14 7.14 0 01-4.08 2.39z" data-name="Fill-244" class="color5a3a35 svgShape"></path><path fill="#5a3a35" d="M151.37 81.42a10 10 0 00-.4 1.78 1 1 0 00.09.53.54.54 0 00.49.31 4.79 4.79 0 00.92-.06 8.82 8.82 0 00-.89-.2.57.57 0 01-.34-.62 14.55 14.55 0 00.13-1.74z" data-name="Fill-245" class="color5a3a35 svgShape"></path><path fill="#0a141c" d="M149.88 80.67a.75.75 0 000 .42.7.7 0 00.19.43 1.3 1.3 0 00.44 0 .49.49 0 00.14-.49.67.67 0 00-.07-.24.86.86 0 01.23.06.71.71 0 00-.61-.38.7.7 0 00-.63.34 1.06 1.06 0 01.31-.14z" data-name="Fill-246" class="color0a141c svgShape"></path><path fill="#0a141c" d="M153.54 80.32a.89.89 0 01.15.45.75.75 0 01-.12.5 1.3 1.3 0 01-.48 0 .57.57 0 01-.27-.49 1.27 1.27 0 010-.28l-.24.11a.8.8 0 011.34-.31 1.4 1.4 0 00-.38.02z" data-name="Fill-247" class="color0a141c svgShape"></path><path fill="#0a141c" d="M152.42 79.48a2.27 2.27 0 012.11.19c-.09-.12-.69-1.17-2.42-.55-.11.03.25.37.31.36z" data-name="Fill-248" class="color0a141c svgShape"></path><path fill="#0a141c" d="M149 80.14a2.13 2.13 0 011.47-.51h.09a.55.55 0 000-.42s0 .3-.1.3 0-.25-.08-.25a1.61 1.61 0 00-1.38.88z" data-name="Fill-249" class="color0a141c svgShape"></path><path fill="#5a3a35" d="M154.61 171.93c-.34-.25-1.35-1-2-.8a1.08 1.08 0 00-.58.3l-1.17-3.16a5.37 5.37 0 002.36 0l.89 1.34z" data-name="Fill-250" class="color5a3a35 svgShape"></path><path fill="#053361" d="M146.75 117.23s-6.09 28-6.09 29.59-.08 2.1.27 2.6 9.14 18.11 9.33 18.56c0 0 .88.77 3 .38l.29-10s-1.3-7.12-4.61-11L153.5 136l-.5-7.6s-1.4-2.94-1.55-3.52a32.27 32.27 0 010-3.68 19.9 19.9 0 01-4.7-3.97z" data-name="Fill-251" class="color053361 svgShape"></path><path fill="#1773cf" d="M153.5 136l-.5-7.6s-1.4-2.94-1.55-3.52a32.27 32.27 0 010-3.68s3.74 2.09 11.31-1.89c0 0 1.13 2.45 2.35 4.66-.19.33-.78 2-.78 2v3.23c.06-1.52-.8 19-4.46 36l.16 3.27a9.23 9.23 0 01-3.32 1.25 7.77 7.77 0 01-3.55-.32l.31-11s-.19-6.49 1.35-9.47z" data-name="Fill-252" class="color1773cf svgShape"></path><path fill="#053361" d="M165.13 124a20.35 20.35 0 01-.87 2.41 24.75 24.75 0 01-1.14 2.31 18.16 18.16 0 01-3.06 4.12c.49-.7 1-1.38 1.45-2.1s.89-1.45 1.3-2.19c.83-1.5 1.59-3.03 2.32-4.55z" data-name="Fill-253" class="color053361 svgShape"></path><path fill="#053361" d="M163.86 128.59a2.93 2.93 0 01-.19 1.06 2.84 2.84 0 01-.52.95 3.26 3.26 0 01.71-2z" data-name="Fill-254" class="color053361 svgShape"></path><path fill="#835652" d="M162.94 119.78l1.24-.88s2.28-4.56 2.78-5.44l-2.17-6.55a13.76 13.76 0 005-1.85s1.18 7.41 1.21 8.09a3.28 3.28 0 01-.46 2.26c-.49.53-6.08 8-6.08 8z" data-name="Fill-255" class="color835652 svgShape"></path><path fill="#5a3a35" d="M165.64 109.49l-.85-2.58a13.76 13.76 0 005-1.85s.11.69.27 1.66a16.37 16.37 0 01-2.5 2.13 6.57 6.57 0 01-1.92.64z" data-name="Fill-256" class="color5a3a35 svgShape"></path><path fill="#053361" d="M164.55 123.71a40.59 40.59 0 01-2.11-4.29l.68-.23a42.32 42.32 0 001.43 4.52z" data-name="Fill-257" class="color053361 svgShape"></path><path fill="#52cc99" d="M146.75 117.23a18.43 18.43 0 004.72 4c2.81 1.24 4.56 1.5 11.31-1.89a41.63 41.63 0 01-1.17-6.08c.44-1.13 2-6.16 2-6.16a14.75 14.75 0 005.63-1.69s1.23-.81 1.38-1l-.48-1.4h-.46s-1.88-5.84-2-6.29a5.85 5.85 0 00-1.53-2.06c-.7-.57-5-3.6-5-3.6s.13-.26.05-.42-1.57-1.72-1.57-1.72-5.08 4-5.63 4.18c0 0-1.28-.27-1.7-2.66 0 0-3.36 2-4 2.48a3.91 3.91 0 00-2 2.75c-.24 1.67-.36 6-.48 6.93a7.59 7.59 0 001.8.53s-.55 9-1.21 10.94c-.19.56-.82 1.91-.82 1.91s.9.91 1.16 1.25z" data-name="Fill-258" class="colorffc000 svgShape"></path><path fill="#52cc99" d="M147.57 103.14a7.59 7.59 0 01-1.8-.53c.12-1 .25-5.26.48-6.93a3.91 3.91 0 012-2.75 46.11 46.11 0 00-.66 5.5v4.72" data-name="Fill-259" class="colorffa700 svgShape"></path><path fill="#5a3a35" d="M146.21 102.78a4.88 4.88 0 001.36.36s-.55 9-1.21 10.94z" data-name="Fill-260" class="color5a3a35 svgShape"></path><path fill="#053361" d="M154.27 174.75h-7.46s-.74-1.6 3.16-2.6a18.59 18.59 0 012.69-1c.6-.16 1.61.55 2 .8-.39.26-.4 2.14-.39 2.8z" data-name="Fill-261" class="color053361 svgShape"></path><path fill="#835652" d="M158.81 172.2c-.77-.42-3.15-1.5-4 .14 0 0-.28.47-.59 1.08l-.08-3.76a9.23 9.23 0 002.57.06 7.79 7.79 0 001.58-.4z" data-name="Fill-262" class="color835652 svgShape"></path><path fill="#5a3a35" d="M158.31 169.32a7.79 7.79 0 01-1.58.4 9.23 9.23 0 01-2.57-.06v1.22a8.82 8.82 0 004.27-.78z" data-name="Fill-263" class="color5a3a35 svgShape"></path><path fill="#5a3a35" d="M157.79 80.53a6.24 6.24 0 01-.87-2.63c-.74-.61-.14-1.56-.13-1.58-.46-.15-.8.14-1.16.33-1.44.77-2.57 1.5-4.16 1.4a4.79 4.79 0 003.87-.23 4.45 4.45 0 001.21 2.18 3.09 3.09 0 001.24.53z" data-name="Fill-264" class="color5a3a35 svgShape"></path><path fill="#5a3a35" d="M158.81 80.9a.54.54 0 01.37.08.56.56 0 01.21.35.92.92 0 01-.19.72 3.19 3.19 0 000-.69.59.59 0 00-.39-.46z" data-name="Fill-265" class="color5a3a35 svgShape"></path><path fill="#053361" d="M152.5 128.08l3.99.07-3.94.64-.05-.71z" data-name="Fill-266" class="color053361 svgShape"></path><path fill="#1773cf" d="M154.82 172.34a11.07 11.07 0 00-1.32 3.06c-.1 1 1.59 1.74 3.49 1.58s3.74-.86 3.58-1.6a12.36 12.36 0 00-1.52-3c-.21-.2-3.25-1.93-4.23-.04z" data-name="Fill-267" class="color1773cf svgShape"></path><path fill="#053361" d="M154.89 173.94a2.76 2.76 0 01.75-.51 3.08 3.08 0 01.89-.28 2.48 2.48 0 01.94 0 1.83 1.83 0 01.8.48 3.1 3.1 0 00-.85-.2 3.94 3.94 0 00-.84 0 12.34 12.34 0 00-1.69.51z" data-name="Fill-268" class="color053361 svgShape"></path><path fill="#053361" d="M155.45 175a1.56 1.56 0 01.59-.49 2.06 2.06 0 011.54-.14 2 2 0 01.69.35 7 7 0 00-1.44-.07 4.38 4.38 0 00-1.38.35z" data-name="Fill-269" class="color053361 svgShape"></path><path fill="#52cc99" d="M159.34 120.9c-4 1.66-5.61 1.3-7.87.3a18.43 18.43 0 01-4.72-4c-.26-.34-1.2-1.24-1.2-1.24s.62-1.35.82-1.91a44.79 44.79 0 00.9-6.81s2.89 8.27 7.16 11.51a11 11 0 004.91 2.15z" data-name="Fill-270" class="colorffa700 svgShape"></path><path fill="#52cc99" d="M164.77 105.17a9.48 9.48 0 001.93-.7 9.65 9.65 0 01-2 .35 13.52 13.52 0 01-1.8 0v-2.79a12.31 12.31 0 01.08-1.72 12.16 12.16 0 00-.26 1.71l-.16 1.72L162 112l1.59-4.92-.67-.14v-1.42a12.94 12.94 0 001.85-.35z" data-name="Fill-271" class="colorffa700 svgShape"></path><path fill="#52cc99" d="M151.48 112a21.66 21.66 0 003.67 3.68 6.67 6.67 0 002.22 1.13 5.63 5.63 0 002.55 0 4 4 0 01-2.65.58 5.59 5.59 0 01-2.55-1.09 9.49 9.49 0 01-1.92-1.93 9.59 9.59 0 01-1.32-2.37z" data-name="Fill-272" class="colorffa700 svgShape"></path><path fill="#52cc99" d="M153.9 112.81a6 6 0 011.35.64 2.76 2.76 0 011.05 1.12 3.38 3.38 0 01-1.44-.52 3.23 3.23 0 01-.59-.51 1.59 1.59 0 01-.37-.73z" data-name="Fill-273" class="colorffa700 svgShape"></path><path fill="#5a3a35" d="M153.72 84.85a3.57 3.57 0 01-3.26.14 7.48 7.48 0 003.26-.14z" data-name="Fill-274" class="color5a3a35 svgShape"></path><path fill="#0a141c" d="M153.59 84.91a3.47 3.47 0 01-2.92.16c-.08 0 .16 1.27 1.07 1.35a1.74 1.74 0 001.89-1.3c.12-.28 0-.23-.04-.21z" data-name="Fill-275" class="color0a141c svgShape"></path><path fill="#5a3a35" d="M153.43 85.54a1.6 1.6 0 01-1.69.88s-.58 0 .13-.45c.41-.27 1.64-.58 1.56-.43z" data-name="Fill-276" class="color5a3a35 svgShape"></path><path fill="#ffffff" d="M159.58 88.93s-5.08 4-5.63 4.18c0 0-1.28-.27-1.7-2.66l.66-.16s.37 1.67 1.08 2z" data-name="Fill-277" class="colorfff svgShape"></path></g><g data-name="Group-128" fill="#000000" class="color000 svgShape"><path fill="#eea480" fill-rule="evenodd" d="M95.13 110.66a2.82 2.82 0 00-.75 1.61v.31a.28.28 0 000 .09v.78a2.09 2.09 0 01-2.38 2.29l-1.46-.09-.41 1.42s-.33 1.14-.86 2.6c0 .11-.09.25-.14.41a4 4 0 01-1-.79 19 19 0 01-2.08-3 5.85 5.85 0 01-.38-.49c.37-.82.77-1.68.77-1.68-2-.36-2-2.63-2-2.63a12.41 12.41 0 004.34-3.1c1.84-.77 3.75-2.22 4.11-4.33 0 .07 0 .14.07.2a13.39 13.39 0 01.72 3.16 2.77 2.77 0 001.52 2.16c.24.14.28.62-.08 1" data-name="Fill-1" class="coloreea480 svgShape"></path><path fill="#1c3664" fill-rule="evenodd" d="M98.06 119.35a9.26 9.26 0 01-2 4c-1 1.14-1.76 2.22-1.76 2.22a7.69 7.69 0 01-1.57-.74c-.34-.3-1.23-.94-1.23-.94a41 41 0 01-2.23 3.92 37.69 37.69 0 01-2.18 3.28l-.39-.66s-.77.33-2.09.82c-.82.31-4.34.93-4.34.93l3.73 5.21c-3.19-.13-6.74 0-9 .12a56.38 56.38 0 01-10.46-1s-1.12-1.2.08-1.73c.21-.1-.12-1.23.89-1.25.17-1.8 2-4 3.68-7.14 2.57-4.69 7.73-10.56 9-11.32a18.16 18.16 0 014.3-1.33 2 2 0 011.55-.54 15.73 15.73 0 001.96 3.13c.43 1.35.92 2.44 1 2.73.24.63.68 2.18.68 2.18a10.46 10.46 0 00.49 1.42c.1-.21 1.87-5.58 1.87-5.58l1.4.44c1.1.35 3.12 1.22 3.2 1.14s.57 0 .7-.07a3.07 3.07 0 00.88.39c.15 0 .54-.16.63-.08s1.16.46 1.16.46" data-name="Fill-3" class="color1c3664 svgShape"></path><path fill="none" stroke="#a6def4" stroke-linecap="round" stroke-linejoin="round" d="M53.35 166.81h25.7" data-name="Stroke-5" class="colorStrokea6def4 svgStroke"></path><path fill="#15274f" fill-rule="evenodd" d="M94.26 125.61a7.17 7.17 0 01-1.57-.74c-.34-.3-1.23-.94-1.23-.94s.2-.72.38-1.59a12.81 12.81 0 002.45 1.17c.38 0 .78-.78.93-.93s.76.43 1 .49l-2 2.54" data-name="Fill-7" class="color15274f svgShape"></path><path fill="none" stroke="#a6def4" stroke-linecap="round" stroke-linejoin="round" d="M83.51 162.42h4.84" data-name="Stroke-9" class="colorStrokea6def4 svgStroke"></path><path fill="none" stroke="#78bde0" stroke-linecap="round" stroke-linejoin="round" d="M85.83 170.1h15.96" data-name="Stroke-11" class="colorStroke78bde0 svgStroke"></path><path fill="none" stroke="#78bde0" stroke-linecap="round" stroke-linejoin="round" d="M74 170.1h3.01" data-name="Stroke-13" class="colorStroke78bde0 svgStroke"></path><path fill="#ccaa8f" fill-rule="evenodd" d="M75.76 155.67c-2.5-.38-8-.67-8-.67-.16 2.06 1.36 5.7 1.36 5.7 1.34.23 4.64.22 6.64.58 1.76.32 7.11 1.71 10.36.89s2.8-2.78 2.09-4.14-7.65-9.32-9.2-11.15a49.07 49.07 0 01-6.1.62 27.38 27.38 0 01-6.16-.13s7.15 6.09 9 8.3" data-name="Fill-15" class="colorccaa8f svgShape"></path><path fill="#1c3664" fill-rule="evenodd" d="M65.25 160.2a.67.67 0 000-1c-.11-.07-.3-.06-.4-.13a5.76 5.76 0 01-2.36-2.84c-.26-.79 1-1.76 1-1.76s-.94-.9-4.81-.25a65.66 65.66 0 011.67 8c.08 2.07.92 3.38 1.73 3.57a6.76 6.76 0 003.93-.31s.28-.75-.18-1.14a5.43 5.43 0 00-1.65-.68 11.38 11.38 0 01.36-2.44 5.47 5.47 0 01.78-1.1" data-name="Fill-17" class="color1c3664 svgShape"></path><path fill="#15274f" fill-rule="evenodd" d="M58.61 154.26a65.66 65.66 0 011.67 8c.08 2.07.92 3.38 1.73 3.57a6.76 6.76 0 003.93-.31.88.88 0 01-.65.83 13.32 13.32 0 01-3.55.41 3.73 3.73 0 01-1.93-1.31c-.59-.67-3.63-9.59-3.38-10.5s.7-1.12 2.18-.73" data-name="Fill-19" class="color15274f svgShape"></path><path fill="#eea480" fill-rule="evenodd" d="M84.25 160.9l-.18 3.1-4.47-.81.55-3.16a21.77 21.77 0 004.1.88" data-name="Fill-21" class="coloreea480 svgShape"></path><path fill="#d1886d" fill-rule="evenodd" d="M79.6 163.18l.55-3.16a21.77 21.77 0 004.1.88v.57a7.55 7.55 0 00-2.7-.24c-1.22.26-1.92 2-1.92 2" data-name="Fill-23" class="colord1886d svgShape"></path><path fill="#1a70b6" fill-rule="evenodd" d="M90.32 169.57c-2.41-.15-4.88.56-7.22-.21h-.07a11.5 11.5 0 00-3.21-.59h-.91a21.42 21.42 0 01.69-5.57h1.18a1.85 1.85 0 01.3-.92 1.71 1.71 0 01.18-.2 1.35 1.35 0 01.94-.32 2 2 0 01.42 0H82.84l.17.05.24.08c1.1.42 2.14 1.31 2.14 1.84.28.34 1.15 1.18 1.27 1.29a4.74 4.74 0 01.82 1 3 3 0 01.26.47 2.73 2.73 0 012.53 3.06" data-name="Fill-25" class="color1a70b6 svgShape"></path><path fill="#1c3664" fill-rule="evenodd" d="M83 169.34a11.5 11.5 0 00-3.21-.59h-.91a21.42 21.42 0 01.69-5.57h1.18a1.85 1.85 0 01.3-.92 1.71 1.71 0 01.18-.2 1.35 1.35 0 01.94-.32 2 2 0 01.42 0H82.81l.17.05.22.06c.79.5-3.78 3-.27 7.4" data-name="Fill-27" class="color1c3664 svgShape"></path><path fill="#ffffff" fill-rule="evenodd" d="M87.79 166.51a3.65 3.65 0 00-.93-.07 1.8 1.8 0 00-1 .41 1.61 1.61 0 011-.66c.24-.05.51-.08.75-.11a2.93 2.93 0 01.23.43" data-name="Fill-29" class="colorfff svgShape"></path><path fill="#ffffff" fill-rule="evenodd" d="M86.71 165.07a4.2 4.2 0 00-1 .07 3.5 3.5 0 00-1.38.62 3.72 3.72 0 011.32-.84 3.27 3.27 0 01.7-.18c.12.1.23.22.35.33" data-name="Fill-31" class="colorfff svgShape"></path><path fill="#1c3664" fill-rule="evenodd" d="M78.9 168.75a11.54 11.54 0 014.2.61c2.35.77 4.81.06 7.22.21a.45.45 0 010 .29c-1.79 1.13-7.54.33-11.45.32a2.36 2.36 0 01.05-1.43" data-name="Fill-33" class="color1c3664 svgShape"></path><path fill="#1a70b6" fill-rule="evenodd" d="M64.41 161.47a2.58 2.58 0 00-.75-.19 3.14 3.14 0 00-.81 0 3.2 3.2 0 01.81-.2 3.38 3.38 0 01.89 0z" data-name="Fill-35" class="color1a70b6 svgShape"></path><path fill="#1a70b6" fill-rule="evenodd" d="M64.18 162.81a9.51 9.51 0 00-1.78-.18 10.15 10.15 0 011.83-.2z" data-name="Fill-37" class="color1a70b6 svgShape"></path><path fill="#c0947d" fill-rule="evenodd" d="M73.86 153.73c.45.32.87.64 1.29 1s.82.66 1.24 1a14.32 14.32 0 002.66 1.65 3.71 3.71 0 01-1.64-.27 6.18 6.18 0 01-1.44-.82 8 8 0 01-1.2-1.13 5.48 5.48 0 01-.91-1.36" data-name="Fill-39" class="colorc0947d svgShape"></path><path fill="#c0947d" fill-rule="evenodd" d="M80.38 148.48c-.61-.69-1.11-1.25-1.4-1.6a49.07 49.07 0 01-6.1.62 27.38 27.38 0 01-6.16-.13s2.66 2.26 5.16 4.53c1.6 1.45 5.61-3.06 8.5-3.42" data-name="Fill-41" class="colorc0947d svgShape"></path><path fill="#dac1a4" fill-rule="evenodd" d="M80.25 160a18.22 18.22 0 003.84.85h.4s.17-.62.44-1.53c.09-.31 1-.17 1.07-.53.43-1.43.21-3.67.71-5 1-2.6 3.48-7.47 3.8-8.57s2.34-6-.69-7.13-10.82-.81-14.82-.58a56.38 56.38 0 01-10.46-1s-2.31 6.1-.73 8.8 4.67 2.35 9.12 2.2a55.4 55.4 0 009-1.15c-.86 1.73-1 5.29-1.24 9.27l-.09 1.4c0 .43-.88 2.45-.92 2.89z" data-name="Fill-43" class="colordac1a4 svgShape"></path><path fill="#ccaa8f" fill-rule="evenodd" d="M82.88 143.44c-.23 1.23-.58 2.38-.91 3.55s-.67 2.3-1 3.5a8.28 8.28 0 01.32-3.7 12.2 12.2 0 01.66-1.74 8.63 8.63 0 01.93-1.61" data-name="Fill-45" class="colorccaa8f svgShape"></path><path fill="#ccaa8f" fill-rule="evenodd" d="M82.2 145.16s-11.82 2.43-12.62-1.72 5.42-5.93 5.42-5.93a56.38 56.38 0 01-10.46-1s-2.31 6.1-.73 8.8 4.67 2.35 9.12 2.2a55.4 55.4 0 009-1.15z" data-name="Fill-47" class="colorccaa8f svgShape"></path><path fill="#ccaa8f" fill-rule="evenodd" d="M81.93 138.72a13 13 0 013.45-.95 13.34 13.34 0 011.79-.12 5 5 0 011.8.29c-.61.06-1.18.17-1.76.26l-1.73.27a22 22 0 01-3.55.25" data-name="Fill-49" class="colorccaa8f svgShape"></path><path fill="#d1886d" fill-rule="evenodd" d="M68.6 159.39a12.84 12.84 0 01-.87-4.39l-4.31-.49s-1.24 1-1 1.76a5.73 5.73 0 002.34 2.82c.08.06 3.27.27 3.82.3" data-name="Fill-51" class="colord1886d svgShape"></path><path fill="#ac6c59" fill-rule="evenodd" d="M67.85 159.35h.75c-.17-.5-.36-1.1-.52-1.73z" data-name="Fill-53" class="colorac6c59 svgShape"></path><path fill="#ac6c59" fill-rule="evenodd" d="M64.78 159.09a5.73 5.73 0 01-2.34-2.82c-.26-.79 1-1.76 1-1.76l1.43.16a4.34 4.34 0 00-.75 2.49 5.83 5.83 0 00.68 1.93" data-name="Fill-55" class="colorac6c59 svgShape"></path><path fill="#ccaa8f" fill-rule="evenodd" d="M84.75 160a15.59 15.59 0 01-2.82-1.11 17.27 17.27 0 003 .44z" data-name="Fill-57" class="colorccaa8f svgShape"></path><path fill="#eea480" fill-rule="evenodd" d="M123.53 127.89a2.38 2.38 0 01-1.16-.17 13.51 13.51 0 00-2.08 1 3.91 3.91 0 01-2.42.42 2.5 2.5 0 01-1.39 0l-.39-.15a94.26 94.26 0 01-12.09-2.58l-.32-.1a47.34 47.34 0 00-7.75-1.55l-.84-.14 1.09-1.37a8.89 8.89 0 00.75-1A9.18 9.18 0 0098 119.8a.43.43 0 010-.05s4.48 1.55 5 1.64a24.43 24.43 0 017.83 2.42l1.67.77.5.22 3.52 1.6h.2a4.19 4.19 0 001.06-.45c.47-.28 2.77-1.92 2.93-2a.9.9 0 01.85.15 1 1 0 011 0c.24.14.44.28.58.37a1.22 1.22 0 01.31.29l.87 1.14s-3 0-3.47.47c0 0 .14.29.36.28s1.12-.19 1.24-.18 1 .42 1.17.49.37.76-.09.86" data-name="Fill-59" class="coloreea480 svgShape"></path><path fill="#d1886d" fill-rule="evenodd" d="M123.53 127.89a2.38 2.38 0 01-1.16-.17 13.51 13.51 0 00-2.08 1 3.91 3.91 0 01-2.42.42 2.5 2.5 0 01-1.39 0l-.39-.15a94.26 94.26 0 01-12.09-2.58l-.32-.1c-1.94-.53-6-1.25-7.75-1.55l-.84-.14 1.09-1.37a8.89 8.89 0 00.75-1c.79.42 5.46 2.91 6.17 2.77.39-.08.26-.39.41-1.09s10 4.37 11 4c2.18-.8-1.56-3.1-1.93-3.32l.5.22c2.23 1 3.16 1.42 3.52 1.6h.2a4.19 4.19 0 001.06-.45c.47-.28 2.77-1.92 2.93-2a.9.9 0 01.85.15 1 1 0 011 0c.24.14.44.28.58.37a1.22 1.22 0 01.31.29l.87 1.14s-3 0-3.47.47c0 0 .14.29.36.28s1.12-.19 1.24-.18 1 .42 1.17.49.37.76-.09.86" data-name="Fill-61" class="colord1886d svgShape"></path><path fill="#eea480" fill-rule="evenodd" d="M109.67 136.26a6.49 6.49 0 01-.63.16.61.61 0 010 .6 1 1 0 01-.43.21s.15.51 0 .76-.7.28-.86.32c0 0 .2.53-.06.77a5.63 5.63 0 01-1.36.55c-.22 0-1.18-.25-1.41-.25a5.12 5.12 0 01-2.76-1 22.85 22.85 0 00-5.24.2 92.36 92.36 0 01-11.65-.31c-1.17-.42-5-6.09-5-6.09s3.52-.61 4.34-.92c1.32-.5 2.09-.82 2.09-.82a21.15 21.15 0 002 3.09 41.07 41.07 0 017.21 1c2.42.72 5.26 1 6.07.64a27.4 27.4 0 012.75-1.35c.54-.08 1.86-.12 2.08-.14a6.25 6.25 0 002.33-.76c.15-.17.57.4.18.83a10.25 10.25 0 01-1.41 1.06 4.14 4.14 0 001.3.25 1.22 1.22 0 00.35-.06s.37.2.37.5a1.08 1.08 0 01-.23.76" data-name="Fill-69" class="coloreea480 svgShape"></path><path fill="#d1886d" fill-rule="evenodd" d="M109.2 136.34a1.21 1.21 0 01.07.33.63.63 0 01-.09.35.51.51 0 01-.27.22l-.29.07-1.07.3 1-.46a1.33 1.33 0 00.24-.1c.09 0 .12-.08.14-.14a.49.49 0 00-.07-.4z" data-name="Fill-71" class="colord1886d svgShape"></path><path fill="#d1886d" fill-rule="evenodd" d="M109.9 135.5a1.05 1.05 0 01-.1.75.32.32 0 01-.19.14l-.19.06-.36.09a8.69 8.69 0 01-1.53-.12 7.89 7.89 0 011.53-.12l.35-.07c.12 0 .24 0 .28-.09a1.41 1.41 0 00.25-.64" data-name="Fill-73" class="colord1886d svgShape"></path><path fill="#d1886d" fill-rule="evenodd" d="M109.53 135a1.41 1.41 0 01-.76.13 3.3 3.3 0 01-.77-.13 8.05 8.05 0 01-1.38-.61 8.69 8.69 0 011.46.38 3.53 3.53 0 001.44.25" data-name="Fill-75" class="colord1886d svgShape"></path><path fill="#d1886d" fill-rule="evenodd" d="M81.84 134.49c-.9-1.23-1.61-2.28-1.61-2.28s3.52-.61 4.34-.92c1.32-.5 2.09-.82 2.09-.82s.23.43.56 1a8.55 8.55 0 01-5.38 3" data-name="Fill-77" class="colord1886d svgShape"></path><path fill="#d1886d" fill-rule="evenodd" d="M107.65 139.08a5.63 5.63 0 01-1.36.55c-.22 0-1.18-.25-1.41-.25a5.12 5.12 0 01-2.76-1H102a25.34 25.34 0 00-5.16.22c-1.36.16-6 .06-9-.09 0 0 9.86-.94 11.53-1h.16c.84 0 1.64-.51 2.44.05 1.75 1.24 4.44.3 4.56.35.51-.07.34.17.23.3-.26.3.92.05.92.05s.2.53-.06.77" data-name="Fill-79" class="colord1886d svgShape"></path><path fill="#15274f" fill-rule="evenodd" d="M91.09 124.69a11.66 11.66 0 01.34-1.58c.08-.25.15-.51.24-.76a7.87 7.87 0 01.29-.76 4.65 4.65 0 01-.19 1.62 5.22 5.22 0 01-.68 1.48" data-name="Fill-81" class="color15274f svgShape"></path><path fill="#d1886d" fill-rule="evenodd" d="M87.87 135.69a7.21 7.21 0 00.45-1.05 4.53 4.53 0 00.22-1.07v.07a5.13 5.13 0 01-.36-.65 4.39 4.39 0 01.57.48 2.21 2.21 0 010 .63 2.48 2.48 0 01-.17.59 2.16 2.16 0 01-.76.93" data-name="Fill-83" class="colord1886d svgShape"></path><path fill="#d1886d" fill-rule="evenodd" d="M103.25 124.91a5.52 5.52 0 01.13-1.1l.12-.52a2.94 2.94 0 00.07-.54.93.93 0 01.2.56 2.19 2.19 0 010 .57 2.5 2.5 0 01-.48 1" data-name="Fill-85" class="colord1886d svgShape"></path><path fill="#ac6c59" fill-rule="evenodd" d="M120.85 126.44a7.53 7.53 0 012.66-.45s-.77-.77-.92-.86a4 4 0 00-1.74 1.31" data-name="Fill-87" class="colorac6c59 svgShape"></path><path fill="#ac6c59" fill-rule="evenodd" d="M120.34 124.83a4 4 0 01.72-.47 7.92 7.92 0 01.78-.37.68.68 0 01.61.15.72.72 0 00-.29 0 1 1 0 00-.28.08 5.45 5.45 0 01-.77.37 4.66 4.66 0 01-.82.28" data-name="Fill-89" class="colorac6c59 svgShape"></path><path fill="#d1886d" fill-rule="evenodd" d="M121.93 125.31l.37.65-.56-.49.19-.16z" data-name="Fill-91" class="colord1886d svgShape"></path><path fill="#eea480" fill-rule="evenodd" d="M89.51 107.48a7.47 7.47 0 001.37-3.65c.57 1.52-.3 2.76-1.37 3.65" data-name="Fill-93" class="coloreea480 svgShape"></path><path fill="#d1886d" fill-rule="evenodd" d="M89.51 107.48a7.47 7.47 0 001.37-3.65c.57 1.52-.3 2.76-1.37 3.65" data-name="Fill-95" class="colord1886d svgShape"></path><path fill="#d1886d" fill-rule="evenodd" d="M89.17 108.79c-1.57 1.94-2.92 2.32-3.8 2.29a11.66 11.66 0 003.42-2.65c1.85-.77 3.76-2.23 4.11-4.36 0 .08.06.16.08.23.3 1.29-.32 2.93-3.81 4.49" data-name="Fill-97" class="colord1886d svgShape"></path><path fill="#d1886d" fill-rule="evenodd" d="M86 111.62a1.55 1.55 0 00-.35.65 1.58 1.58 0 00.13.71 1 1 0 01-.2-.11.65.65 0 01-.16-.17.68.68 0 01-.12-.49.71.71 0 01.27-.43.76.76 0 01.43-.16" data-name="Fill-99" class="colord1886d svgShape"></path><path fill="#0f0a09" fill-rule="evenodd" d="M90.76 108.94a3.31 3.31 0 01.71-1.16c.34-.22 1.54-.5 1.33-.72l-.28-.22s0 .06.07.14a1.61 1.61 0 00-1.48.61 2.31 2.31 0 00-.35 1.35" data-name="Fill-101" class="color0f0a09 svgShape"></path><path fill="#0f0a09" fill-rule="evenodd" d="M93.32 108.47a.79.79 0 00-.36-.27 1.26 1.26 0 01.18.42 1 1 0 010 .56.55.55 0 01-.27.1 1 1 0 01-.3-.56 1.07 1.07 0 010-.47c-.37.19-.41.46-.58.53s-.36-.29-.36-.29c.21.18.3.06.3.06l-.16-.16a.37.37 0 00.3-.1c.1-.09.27-.33.44-.4.47-.22.84.58.84.58" data-name="Fill-103" class="color0f0a09 svgShape"></path><path fill="#9f6953" fill-rule="evenodd" d="M94.38 112.27a3 3 0 000 .31v.09a4.28 4.28 0 01-1.5-.06.78.78 0 01-.44-.28c1 .31 1.48-.16 2-.1" data-name="Fill-105" class="color9f6953 svgShape"></path><path fill="#ffffff" fill-rule="evenodd" d="M94.34 112.67v.78a2.32 2.32 0 01-1.47-.84l.41.06a7.89 7.89 0 001.09 0" data-name="Fill-107" class="colorfff svgShape"></path><path fill="#d1886d" fill-rule="evenodd" d="M90.51 115.64l-.35 1.22a3.65 3.65 0 01-2.51-2.25 5.89 5.89 0 002.86 1" data-name="Fill-109" class="colord1886d svgShape"></path><path fill="#15274f" fill-rule="evenodd" d="M91.49 117.51l-.87 3.38s-1 1.14-1.47 1.77c-.64.85-1.43 4.26-1.63 4.76 0 0 .32-2.92.69-4.76.1-.21.73-2.21 1-3 .53-1.46.86-2.6.86-2.6l1.4.44" data-name="Fill-111" class="color15274f svgShape"></path><path fill="#d1886d" fill-rule="evenodd" d="M89.09 120.08l-.06.19c-.31.91-.73 2.22-.81 2.38-.23-.46-.93-3-1.17-3.6 0-.1-.12-.26-.22-.5a20.44 20.44 0 01-.81-2.23 19 19 0 002.08 3 4 4 0 001 .79" data-name="Fill-113" class="colord1886d svgShape"></path><path fill="#15274f" fill-rule="evenodd" d="M87.72 121.24a1.8 1.8 0 00-1.76.9 15.68 15.68 0 00-.79-2.92 12.46 12.46 0 01-1 1.2l1 3.39-1.68-3.52a4.52 4.52 0 00-3.27-1.37c-2.89-.1-5.11 2.2-2.89 6.84s2.31 6.57 2.31 6.57l.58-.11 3.78 5.17c-3.19-.13-6.74 0-9 .12a56.49 56.49 0 01-10.46-1s-1.12-1.2.08-1.73c.21-.1-.12-1.23.89-1.25.17-1.8 2-4 3.68-7.14 2.57-4.69 7.73-10.56 9-11.32a18.16 18.16 0 014.3-1.33 2 2 0 011.55-.54 15.73 15.73 0 001.96 3.13c.43 1.35.92 2.44 1 2.73.24.63.68 2.18.68 2.18" data-name="Fill-115" class="color15274f svgShape"></path><g data-name="Group-119" mask="url(#l)" fill="#000000" class="color000 svgShape"><path fill="#0f0a09" fill-rule="evenodd" d="M89.52 107.48a7.51 7.51 0 001.36-3.65c.57 1.52-.3 2.76-1.36 3.65m-1-6.49c-9.66-.44-9.8 6-9.95 8.1 0 .41-.12 3-.26 3.51a4 4 0 01-1.79 2.77 2.52 2.52 0 001.47-1 4.93 4.93 0 00.79-1.61 6.17 6.17 0 00.19-.74c0 1.16.63 2.42-.46 5a8.4 8.4 0 007 1.18v-1.65s.43 1.3.72 1.39a3.26 3.26 0 001.58-.82 33.1 33.1 0 00-1.43-3c-2-.35-2-2.62-2-2.62a12.31 12.31 0 004.34-3.1c2.12-.89 4.34-2.68 4.17-5.36-1.37-3.51-4.39-2.08-4.39-2.08" data-name="Fill-117" class="color0f0a09 svgShape"></path></g></g></g></g></g></g></g></g></svg></g></svg>