<svg id="SvgjsSvg1852" width="288" height="288" xmlns="http://www.w3.org/2000/svg" version="1.1" xmlns:xlink="http://www.w3.org/1999/xlink" xmlns:svgjs="http://svgjs.com/svgjs"><defs id="SvgjsDefs1853"></defs><g id="SvgjsG1854"><svg xmlns="http://www.w3.org/2000/svg" xmlns:svgjs="http://svgjs.com/svgjs" xmlns:xlink="http://www.w3.org/1999/xlink" width="288" height="288"><svg xmlns="http://www.w3.org/2000/svg" xmlns:xlink="http://www.w3.org/1999/xlink" width="288" height="288" data-name="Layer 1" viewBox="0 0 240 184"><defs><mask id="d" width="19.51" height="18.57" x="107.32" y="76.32" maskUnits="userSpaceOnUse"><g fill="#000000" class="color000 svgShape color767fad" data-name="mask-7"><path fill="#ffffff" fill-rule="evenodd" d="M110.35 76.52c-.83.08-1.6.18-2.34.3l-.4.06 15.77 17.66 3.36.31z" class="colorfff svgShape" data-name="path-6"></path></g></mask><mask id="l" width="57.38" height="39.86" x="31.35" y="84.4" maskUnits="userSpaceOnUse"><g fill="#000000" class="color000 svgShape color767fad" data-name="mask-20"><path fill="#ffffff" fill-rule="evenodd" d="M85 84.4h-1.73A3.14 3.14 0 0081 85.72a11.49 11.49 0 00-.85 3.1l-6.49.24c-1.33 0-1.12 2.94-1.11 3l-3.15.09c-.75-2.46-1.87-2.59-2.28-2.6H67c-.28 0-6.28.29-6.93.29s-.76.1-1 .63a20.69 20.69 0 00-.63 2.21h-3.31c-.53 0-1-.53-1.69-.53l-6.29.13H45l-6 .37a24 24 0 00-7.6 18.18c.13 6.87 2.32 10.41 3 10.48.3 0 2.9.19 5.69.37h2.04l5.19.32.2.88 6.5.21.76-.82c.17 0 4.08.13 8.2.24h1.42c2.27 0 4.48.09 6 .1h1.76c2.68-.15 5.08-3.2 5.35-5.79s.69-10.16 2.13-14.77a60.86 60.86 0 014-8.69l.23-.43.17-.33c2-3.71 4-7.16 4.65-8.31H85z" class="colorfff svgShape" data-name="path-19"></path></g></mask><mask id="e" width="27.32" height="20.53" x="113.17" y="75.35" maskUnits="userSpaceOnUse"><g fill="#000000" class="color000 svgShape color767fad" data-name="mask-10"><path fill="#ffffff" fill-rule="evenodd" d="M113.41 75.66l16.09 19.13 10.71 1.06-17.07-20.27a59.65 59.65 0 00-9.73.08z" class="colorfff svgShape" data-name="path-9"></path></g></mask><mask id="g" width="4.88" height="5.86" x="149.27" y="90.01" maskUnits="userSpaceOnUse"><g fill="#000000" class="color000 svgShape color767fad" data-name="mask-13"><path fill="#ffffff" fill-rule="evenodd" d="M152.37 90.19l-3 5.43a7.53 7.53 0 001.71.11l2.89-5.17a11.8 11.8 0 00-1.6-.37z" class="colorfff svgShape" data-name="path-12"></path></g></mask><mask id="i" width="3.35" height="12.28" x="113.43" y="90.2" maskUnits="userSpaceOnUse"><g fill="#000000" class="color000 svgShape color767fad" data-name="mask-16"><path fill="#ffffff" fill-rule="evenodd" d="M116.78 90.19h-3.35v12.28h3.35V90.19z" class="colorfff svgShape" data-name="path-15"></path></g></mask><mask id="j" width="62.9" height="3.5" x="31.48" y="124.47" maskUnits="userSpaceOnUse"><g fill="#000000" class="color000 svgShape color767fad" data-name="mask-18"><path fill="#ffffff" fill-rule="evenodd" d="M94.38 124.47h-62.9v3.49h62.9v-3.49z" class="colorfff svgShape" data-name="path-17"></path></g></mask><mask id="k" width="57.38" height="38.82" x="31.35" y="84.4" maskUnits="userSpaceOnUse"><g fill="#000000" class="color000 svgShape color767fad" data-name="mask-20"><path fill="#ffffff" fill-rule="evenodd" d="M85 84.4h-1.73A3.14 3.14 0 0081 85.72a11.49 11.49 0 00-.85 3.1l-6.49.24c-1.33 0-1.12 2.94-1.11 3l-3.15.09c-.75-2.46-1.87-2.59-2.28-2.6H67c-.28 0-6.28.29-6.93.29s-.76.1-1 .63a20.69 20.69 0 00-.63 2.21h-3.31c-.53 0-1-.53-1.69-.53l-6.29.13H45l-6 .37a24 24 0 00-7.6 18.18c.13 6.87 2.32 10.41 3 10.48.3 0 2.9.19 5.69.37h2.04l5.19.32.2.88 6.5.21.76-.82c.17 0 4.08.13 8.2.24h1.42c2.27 0 4.48.09 6 .1h1.76c2.68-.15 5.08-3.2 5.35-5.79s.69-10.16 2.13-14.77a60.86 60.86 0 014-8.69l.23-.43.17-.33c2-3.71 4-7.16 4.65-8.31H85z" class="colorfff svgShape" data-name="path-19"></path></g></mask><mask id="b" width="132.18" height="30.3" x="29.77" y="133.99" maskUnits="userSpaceOnUse"><g fill="#000000" class="color000 svgShape color767fad" data-name="mask-4"><path fill="#ffffff" fill-rule="evenodd" d="M86 134s-10.29 3-33 8.52c-69 16.86 34.87 24.31 59.12 15.92C122 155 158 134.39 158.43 134H86z" class="colorfff svgShape" data-name="path-3"></path></g></mask><mask id="m" width="57.38" height="39.54" x="31.35" y="84.4" maskUnits="userSpaceOnUse"><g fill="#000000" class="color000 svgShape color767fad" data-name="mask-20"><path fill="#ffffff" fill-rule="evenodd" d="M85 84.4h-1.73A3.14 3.14 0 0081 85.72a11.49 11.49 0 00-.85 3.1l-6.49.24c-1.33 0-1.12 2.94-1.11 3l-3.15.09c-.75-2.46-1.87-2.59-2.28-2.6H67c-.28 0-6.28.29-6.93.29s-.76.1-1 .63a20.69 20.69 0 00-.63 2.21h-3.31c-.53 0-1-.53-1.69-.53l-6.29.13H45l-6 .37a24 24 0 00-7.6 18.18c.13 6.87 2.32 10.41 3 10.48.3 0 2.9.19 5.69.37h2.04l5.19.32.2.88 6.5.21.76-.82c.17 0 4.08.13 8.2.24h1.42c2.27 0 4.48.09 6 .1h1.76c2.68-.15 5.08-3.2 5.35-5.79s.69-10.16 2.13-14.77a60.86 60.86 0 014-8.69l.23-.43.17-.33c2-3.71 4-7.16 4.65-8.31H85z" class="colorfff svgShape" data-name="path-19"></path></g></mask><mask id="n" width="188.01" height="112.25" x="22.49" y="63.75" maskUnits="userSpaceOnUse"><g fill="#000000" class="color000 svgShape color767fad" data-name="mask-22"><path fill="#ffffff" fill-rule="evenodd" d="M210.49 63.75h-188V176h188V63.75z" class="colorfff svgShape" data-name="path-21"></path></g></mask><linearGradient id="c" x1="-421.28" x2="-422.28" y1="1023.89" y2="1023.89" gradientTransform="matrix(-127.8 0 0 -30.3 -53807.29 31173.69)" gradientUnits="userSpaceOnUse"><stop class="stopColorebf0f9 svgShape" offset="0" stop-color="#ebf0f9"></stop><stop class="stopColorebf0f9 svgShape" offset="1" stop-color="#ebf0f9"></stop></linearGradient><linearGradient id="a" x1="-440.03" x2="-439.81" y1="1005.54" y2="1006.58" gradientTransform="matrix(-19.51 0 0 -18.57 -8467.78 18765.04)" gradientUnits="userSpaceOnUse"><stop class="stopColor182b33 svgShape" offset="0" stop-color="#182b33"></stop><stop class="stopColorfdfdfd svgShape" offset="1" stop-color="#fdfdfd"></stop></linearGradient><linearGradient id="f" x1="-433.87" x2="-433.7" y1="1010.13" y2="1010.8" gradientTransform="matrix(-27.32 0 0 -20.53 -11724.37 20822.56)" xlink:href="#a"></linearGradient><linearGradient id="h" x1="-504.29" x2="-504.55" y1="904.41" y2="905.05" gradientTransform="matrix(-4.88 0 0 -5.86 -2308.76 5398.5)" xlink:href="#a"></linearGradient><linearGradient id="o" x1="-403.09" x2="-402.09" y1="756.83" y2="756.83" gradientTransform="matrix(26.34 0 0 -2.93 10702.95 2389.92)" gradientUnits="userSpaceOnUse"><stop class="stopColore1f2fb svgShape" offset="0" stop-color="#e1f2fb"></stop><stop class="stopColore1f2fb svgShape" offset="1" stop-color="#e1f2fb"></stop></linearGradient></defs><g fill="#000000" class="color000 svgShape color767fad" data-name="--SDP-delivery-checker"><g class="color000 svgShape" data-name="D SDP LYCG jan2021" fill="#000000"><g class="color000 svgShape" data-name="cmx-section" fill="#000000"><g class="color000 svgShape" data-name="Group-5" fill="#000000"><g class="color000 svgShape" data-name="Group" fill="#000000"><path fill="#ffffff" fill-opacity=".01" d="M0 0h240v184H0z" class="colorfff svgShape" data-name="Rectangle"></path><g class="color000 svgShape" data-name="sell-circle-lock-up" fill="#000000"><g class="color000 svgShape" data-name="circle" fill="#000000"><path fill="#70baf2" fill-rule="evenodd" d="M190.75 92.49A71.5 71.5 0 11119.25 21a71.5 71.5 0 0171.5 71.49" class="color70baf2 svgShape" data-name="Fill-4"></path></g></g><g class="color000 svgShape" data-name="illus car-w-bow-01" fill="#000000"><path fill="#dedfe0" fill-rule="evenodd" d="M22.75 174.83c0 1.08 6.42 2 14.33 2 7.87 0 14.26-.87 14.34-1.94-.08-1.07-6.47-1.93-14.34-1.93-7.91 0-14.33.87-14.33 2" class="colordedfe0 svgShape" data-name="Fill-1" opacity=".7" style="isolation:isolate"></path><g class="color000 svgShape" data-name="Group-224" fill="#000000"><g class="color000 svgShape" data-name="Group-54" mask="url(#b)" opacity=".34" fill="#000000"><path fill="url(#c)" fill-rule="evenodd" d="M161.95 164.29H34.15v-30.3h127.8v30.3z" data-name="Fill-52" opacity=".55" style="isolation:isolate"></path></g><g fill-rule="evenodd" class="color000 svgShape" data-name="car" fill="#000000"><path fill="#182b33" d="M161.71 123.58s1.16.14 1.11-3.1.4-13.91-4.1-14.9-5.75 17.15-5.84 20.83l-5.62 2.7s.93 6 3.66 6.14a38.8 38.8 0 005.57 0c.76-.09 4.24.68 5.22-11.67z" class="color182b33 svgShape" data-name="Fill-55"></path><path fill="#182b33" d="M122.44 142.76s1.34-1 1.71-4 2-24-8-23.92c-5.12 0-7.24 3.29-11.8 21.47-1.81 6.9-3 9.23-4.55 9.44s-2.28.26-2.28.26 2 11.2 7.78 11.77 7.19.42 8.9 0 7-3.5 8.24-15.02z" class="color182b33 svgShape" data-name="Fill-57"></path><path fill="#ececed" d="M97.49 146.05s.78-.05 2.28-.26 2.74-2.56 4.55-9.44c4.56-18.18 6.68-21.47 11.8-21.47 10 0 8.39 21 8 23.92l23.11-9.71 5.62-2.69c.09-3.68 1.34-21.82 5.84-20.83 3.28.71 3.94 6.58 4.07 11 0 0 .33-9.63-1.83-14.06 0 0 .14-1.38-.42-1.73s-1.48-.85-1.48-.85a23.73 23.73 0 00-6.3-3.85s1.35-.59 1.47-1.56.75-3.25-.38-3.76a15.82 15.82 0 00-6.11-1.18c-1 0-1.82.16-1.68 2a84.33 84.33 0 00-11.61-11.66C127.19 73.83 117 73 115.5 73H92.56S90 64.59 87 63.55c0 0-2.43-3.61-3.47-4.34a8.93 8.93 0 00-2.35-3.72s-.35-5.17-14.74-7.2c0 0-13.14-2.64-25.73.31C28.9 51.36 20.19 54.59 8 64c0 0 1-.47 1.2.1s.27 1 .72.89.59-1.88 2.07-2 2.64 1.88 2.91 2.63a.86.86 0 001.31.45c.34-.18 5.78-3.15 10.27-1.61 0 0-.28 1.6.25 1.84s1.16-1.3 1.16-1.3a5.47 5.47 0 01.51.45 5.51 5.51 0 001.82 3.41c1.89 1.91 14 14.07 14 14.07s-9.48 7.47-15.37 15c0 0-4.74.94-3.76 8.37 0 0 .31 9.93.34 11.42a20.06 20.06 0 01-.93 4.75 47.35 47.35 0 000 5.35l-.65.74s.72 6.66 1.83 9.51 2.9 3.15 3.7 3.15c0 0 .27 2 1.65 2a5.57 5.57 0 002.6-.77 303.35 303.35 0 0044.16 3.3s.47 1.78 2.06 1.78 4.49-1.53 4.49-1.53z" class="colorececed svgShape" data-name="Fill-58"></path><path fill="#182b33" d="M33.62 142.38s9.75 1.57 23.05 2.55c0 0-2.75 5.57-7.75 6.19a19.75 19.75 0 01-9.47-.84c-1.76-.65-4.78-2.82-5.83-7.9z" class="color182b33 svgShape" data-name="Fill-59"></path><path fill="#374c59" d="M158.11 103.34c-1.56 0-3.07 2.13-3.88 5.42s-2.06 14.15-2.06 14.15l-26.55 7.27c-.5-14-4.28-18.56-10-18.56s-8.21 5.89-9.74 9.47-4 14.77-4 14.77c-2.55.06-5.75-1.77-9.36-3.42a20.29 20.29 0 00-7.82-1.88c-2.14-.23-21.52-.67-32.08-1s-28.16-1.76-28.16-1.76l-.65.75s.72 6.66 1.83 9.5 2.9 3.15 3.7 3.15c0 0 .27 2 1.65 2a5.54 5.54 0 002.59-.77 304.35 304.35 0 0044.16 3.29s.48 1.78 2.07 1.78 4.54-1.5 4.54-1.5H97.5s.78 0 2.28-.26 2.75-2.55 4.56-9.43c4.55-18.19 6.67-21.47 11.8-21.47 10 0 8.38 21 8 23.92l23.11-9.71 5.62-2.7c.09-3.68 1.34-21.82 5.85-20.83 1.93.43 3 2.65 3.5 5.3.01.06.17-7.38-4.11-7.48z" class="color374c59 svgShape" data-name="Fill-60"></path><path fill="#e01f1f" d="M91.78 142.78h-5.11a3.07 3.07 0 01-2.43-.79c-.71-.83-3.27-4-3.49-4.31a.71.71 0 01.49-1.14c.71-.06 3.9 0 4.46 0a5.6 5.6 0 013.75 2.19c1.07 1.27 3.71 4.05 2.33 4.05z" class="colore01f1f svgShape" data-name="Fill-61"></path><path fill="#182b33" d="M77.05 136.89c.27.42 3.42 4.29 4.31 5.33a3.8 3.8 0 003 1h6.3c.37 0 .51-.16.48-.42h-4.48a3.06 3.06 0 01-2.43-.79c-.71-.83-3.27-4-3.5-4.3a.71.71 0 01.49-1.14c.72-.07 3.9 0 4.46 0a2 2 0 01.34 0 5.76 5.76 0 00-2.86-1.1c-.7 0-4.65-.08-5.52 0a.87.87 0 00-.59 1.42z" class="color182b33 svgShape" data-name="Fill-62"></path><path fill="#c9cdd1" d="M25.08 106.27H30q.13-.9.33-1.8c1.76-7.77 10.56-15.66 12.18-17.16a18.69 18.69 0 002.91-3.81l-1.22-.59s-9.48 7.47-15.37 15c.01-.01-4.74.91-3.75 8.36z" class="colorc9cdd1 svgShape" data-name="Fill-63"></path><path fill="#182b33" d="M27.76 133.41a38.05 38.05 0 01-.54 4.35c-.08.4-1.2.74-1.58-.31a25.84 25.84 0 01-.88-3.57c-.06-.48-.28-1.31.67-1.31s2.33.14 2.33.84z" class="color182b33 svgShape" data-name="Fill-64"></path><path fill="#e01f1f" d="M28.84 97.9s-4.74.94-3.76 8.37v1h1.31c.21 0 .9-4 .88-5.62s1.57-3.75 1.57-3.75z" class="colore01f1f svgShape" data-name="Fill-65"></path><path fill="#c9cdd1" d="M29.38 141.19s.26 2 1.64 2A4.24 4.24 0 0032 143s.37-.38.35-.66a33.29 33.29 0 00-1.87-3s-1.23.26-1.1 1.85z" class="colorc9cdd1 svgShape" data-name="Fill-66"></path><path fill="#182b33" d="M29.38 141.19a4.46 4.46 0 01-1-.15s-1.2-2.41-.38-3.08 1.92.57 2.41 1.41c.04 0-1.16.23-1.03 1.82z" class="color182b33 svgShape" data-name="Fill-67"></path><path fill="#182b33" d="M146.38 96.14a18.22 18.22 0 01-4.17.23c-2.22-.14-26.94-2.6-29.37-2.88s-3.43-.49-4.84-1.93-7.2-7.52-7.65-8.12a1.9 1.9 0 01.12-2.37 11.64 11.64 0 017.47-4.46c4.63-.74 11.69-1 15.61-.4a27.84 27.84 0 0111 4.74c2.56 1.93 11.64 12 11.64 12z" class="color182b33 svgShape" data-name="Fill-68"></path><path fill="#374c59" d="M152.76 96.05a2 2 0 001.47-1.56c.12-1 .75-3.25-.38-3.76a16 16 0 00-6.11-1.18c-1 0-1.82.16-1.68 2 0 0 .25 4.22.39 5.19h-1.33a6.4 6.4 0 002 2.86.6.6 0 00.81-.22l1.74-3a7.45 7.45 0 003.09-.33z" class="color374c59 svgShape" data-name="Fill-69"></path><path fill="#182b33" d="M146.45 96.74c0-.16 0-.42-.08-.73a2.12 2.12 0 001.42.73z" class="color182b33 svgShape" data-name="Fill-70"></path><path fill="#b80606" d="M25.08 106.27v1h1.31c.21 0 .9-4 .88-5.62 0 0-.82 4.1-1.24 4.45a1.14 1.14 0 01-1 .16z" class="colorb80606 svgShape" data-name="Fill-71"></path><path fill="#e01f1f" d="M28 134a32.83 32.83 0 01-.47 3.83c-.07.35-1 .68-1.54-.16a8.42 8.42 0 01-.54-3.25c0-.39.29-1.39 1.12-1.39s1.48.33 1.43.97z" class="colore01f1f svgShape" data-name="Fill-72"></path><path fill="#c9cdd1" d="M120.44 104.6c-.62 0-1.89-.31-2.34-2.44s.25-2.9.9-2.9a3 3 0 012.91 2.56c.48 2.1-.82 2.78-1.47 2.78z" class="colorc9cdd1 svgShape" data-name="Fill-73"></path><path fill="#182b33" d="M116.16 101.38a1.68 1.68 0 001.64 1.62c.62 0 1-.41 1.19-.46a10.17 10.17 0 011.56.05c.29.06.42.2.78.17a.89.89 0 00.79-.54.37.37 0 01-.31.2s-4.5-.24-4.87-.24a.85.85 0 01-.78-.8z" class="color182b33 svgShape" data-name="Fill-74"></path><path fill="#374c59" d="M121.78 102.37s-4.5-.24-4.86-.24a.86.86 0 01-.76-.74.61.61 0 01.15-.52.57.57 0 01.49-.19c.39 0 4.68.8 4.92.84s.45.24.45.42a.41.41 0 01-.39.43z" class="color374c59 svgShape" data-name="Fill-75"></path><path fill="#c9cdd1" d="M139.36 105.54c-.41 0-1.27-.24-1.57-1.88s.17-2.23.6-2.23 1.63.35 2 2-.6 2.11-1.03 2.11z" class="colorc9cdd1 svgShape" data-name="Fill-76"></path><path fill="#182b33" d="M136.49 103.06a1.2 1.2 0 001.1 1.21c.42 0 .66-.31.79-.35a6 6 0 011 0c.2 0 .28.16.53.14a.63.63 0 00.53-.42.25.25 0 01-.22.15s-3-.18-3.26-.18a.63.63 0 01-.47-.55z" class="color182b33 svgShape" data-name="Fill-77"></path><path fill="#374c59" d="M140.26 103.82s-3-.18-3.26-.18a.62.62 0 01-.51-.57.47.47 0 01.08-.38.44.44 0 01.35-.17c.25 0 3.14.63 3.3.65a.34.34 0 01.31.31c-.01.15-.1.35-.27.34z" class="color374c59 svgShape" data-name="Fill-78"></path><path fill="#c9cdd1" d="M81.19 55.5a8.93 8.93 0 012.35 3.72c1 .74 3.47 4.35 3.47 4.35 3 1 5.55 9.43 5.55 9.43s.35 2 .35 2.6h-7.53s-8-14-8.64-14.69a10.46 10.46 0 00-6-2.27c-2.43 0-5 1.34-6.65 2a13.14 13.14 0 01-7.09 1.2c-6-.4-20.52-1.22-23.89 0s-.19 5.16.33 6.16 10.75 14.9 10.75 14.9l-14-14.06a5.54 5.54 0 01-1.82-3.42 5.47 5.47 0 00-.51-.45s-.64 1.57-1.17 1.32-.25-1.85-.25-1.85c-4.44-1.54-9.91 1.43-10.27 1.61a.87.87 0 01-1.31-.45c-.27-.76-1.43-2.71-2.91-2.63s-1.63 1.88-2.07 2-.5-.31-.72-.89-1.2-.1-1.2-.1 7.46-6.83 24.27-8.44 25 1.79 26.4 2a10.33 10.33 0 005.62-.32c2-.84 6.54-4.22 11.33-4.3s5.61 2.58 5.61 2.58z" class="colorc9cdd1 svgShape" data-name="Fill-79"></path><path fill="#8c9196" d="M46.82 84.15l.79.37L83 82.91l5.6 1.61h-5.38a3.07 3.07 0 00-2.3 1.3 11.83 11.83 0 00-.87 3.18l-6.41.24c-1.34 0-1.1 3-1.1 3l-3.11.09c-.81-2.7-2.06-2.6-2.34-2.6s-6.23.29-6.85.29-.75.1-1 .63a18.55 18.55 0 00-.62 2.21s-2.73.1-3.25.1-1-.53-1.68-.53-14.29.31-14.29.31a55.76 55.76 0 007.42-8.59z" class="color8c9196 svgShape" data-name="Fill-80"></path><path fill="#e01f1f" d="M81.19 55.5s-.35-5.17-14.74-7.2c0 0 2.35 2.77 5.13 3.27 1 .14 2.11-.07 2.69 0 1.16.26 5.2 1.15 6.92 3.93z" class="colore01f1f svgShape" data-name="Fill-81"></path><path fill="#374c59" d="M70.8 92.31h1.75s-.24-3 1.09-3l4.36-.25s.17-4.64 1.35-6l-6.43.31a52.6 52.6 0 00-2.12 8.94z" class="color374c59 svgShape" data-name="Fill-82"></path><path fill="#182b33" d="M29.92 106.91a22.59 22.59 0 01.41-2.44 18.52 18.52 0 011.32-3.7s-.77-1-1.11-1.37-1.7-1.5-1.7-1.5-1.56 2.14-1.54 3.75-.67 5.62-.88 5.62z" class="color182b33 svgShape" data-name="Fill-83"></path><path fill="#c9cdd1" d="M26.77 115.39a21.36 21.36 0 01.33 6.93 2.43 2.43 0 002.22 2.51c2.11.38 13.44 1.7 21.84 2s24 .31 26.64-.77a7.18 7.18 0 004.66-6.17c.43-3.12 1-13.11 1-13.11s1.27-9.57 3.95-13.16a128 128 0 007.74-12.1 5.35 5.35 0 00-2.33-6.89s-6.33-1.07-7.41 1c0 0 1.15 2.49 1.42 3.16A4.34 4.34 0 0190 83.12a7.15 7.15 0 01-.68 3A115 115 0 0082 101.36c-3.05 8-2 12.09-2.57 16.38a8 8 0 01-7.11 7c-11 1.43-36.06-1-36.73-1.22s-2.77-.52-3.59-2.17a29.39 29.39 0 01-2.1-14.45l-3.5.37a32 32 0 00.37 8.12z" class="colorc9cdd1 svgShape" data-name="Fill-84"></path><path fill="#182b33" d="M88.58 84.52c-1.28 2.25-7.54 13.16-9 17.78s-1.83 12.19-2.1 14.78-2.63 5.64-5.29 5.79-17.19-.34-17.19-.34l-.74.82-6.43-.21-.2-.88s-12.08-.75-12.76-.82-2.84-3.61-3-10.49a24.12 24.12 0 017.51-18.19s13.62-.31 14.29-.31 1.15.53 1.68.53 3.27-.1 3.27-.1a18.55 18.55 0 01.62-2.21c.24-.53.35-.63 1-.63s6.57-.29 6.84-.29 1.53-.1 2.35 2.6l3.11-.09s-.24-3 1.1-3l6.41-.26a12.23 12.23 0 01.84-3.16 3.07 3.07 0 012.31-1.3c1.2-.06 5.38-.02 5.38-.02z" class="color182b33 svgShape" data-name="Fill-85"></path><path fill="#ececed" d="M91.05 80.68c.22 1.12.25 2.27.32 2.79.09.75 1.41.47 1.44-.16a27.16 27.16 0 00-.23-3c-.1-.68-.49-.62-.49-.62s.09.17.1.2c.28.54-.72 1.11-1.14.79z" class="colorececed svgShape" data-name="Fill-86"></path><path fill="#182b33" d="M90.94 80.55c-.18-.36-3.62-7.46-4.89-9.94a.71.71 0 010-.84s-3.22-5.84-3.47-6.33.29-.53.73.29l3.2 5.83s.39-.19.69.41 4.77 9.54 5 9.92c.3.61-.99 1.2-1.26.66z" class="color182b33 svgShape" data-name="Fill-87"></path><path fill="#182b33" d="M32.56 69.53l4.73 4.66a.45.45 0 01.56 0c-2.2-3-4.17-5.77-4.39-6.19-.53-1-3.75-5-.38-6.19S51 61.43 57 61.83a13.21 13.21 0 007.17-1.16c1.62-.7 4.22-2 6.65-2a10.46 10.46 0 016 2.27c.64.71 8.63 14.7 8.63 14.7s3 6.67 3.19 6.93-41 2-41 2l-2.3-1.1a.52.52 0 01-.67 0c-.27-.3-5.6-6.1-7.52-8.1a.73.73 0 01-.21-.82s-4.75-4.66-5.13-5.06.09-.61.75.04z" class="color182b33 svgShape" data-name="Fill-88"></path><path fill="#374c59" d="M30.33 104.47c1.76-7.76 10.56-15.66 12.18-17.16a18.16 18.16 0 002.92-3.83l1.39.67a55.55 55.55 0 01-7.42 8.61A24.2 24.2 0 0031.89 111c.13 6.88 2.3 10.42 3 10.49s12.75.82 12.75.82l.2.88 6.43.21.75-.82s14.62.48 17.25.34 5-3.2 5.29-5.79.67-10.15 2.1-14.78 7.67-15.53 9-17.77h-3.47L83 82.91c3.39-.18 5.6-.31 5.6-.38s-1-2-1.76-3.76c4.31 1.46 3.26 5.89 2.51 7.37A115.08 115.08 0 0082 101.38c-3.05 8-2 12.09-2.58 16.38a7.94 7.94 0 01-7.1 6.95c-11 1.43-36.06-1-36.74-1.22s-2.73-.49-3.58-2.12a29 29 0 01-1.67-16.9z" class="color374c59 svgShape" data-name="Fill-89"></path><path fill="#c9cdd1" d="M103.51 99.32a23.88 23.88 0 01-5.09 5.59 14.44 14.44 0 01-7.16 2.66 88.52 88.52 0 01-9.08.48c-.56-.07-.94-.82-1.25-2.62a5 5 0 01.86-4.05 44.35 44.35 0 013.91-3.26 4.6 4.6 0 012-.61c.88-.06 12.25-.17 14.31-.17s2.08 1.19 1.5 1.98z" class="colorc9cdd1 svgShape" data-name="Fill-90"></path><path fill="#e01f1f" d="M103.51 98a23.66 23.66 0 01-5.09 5.58 14.35 14.35 0 01-7.16 2.67 88.52 88.52 0 01-9.08.48c-.56-.07-.94-.82-1.25-2.62a5 5 0 01.86-4 42.65 42.65 0 013.91-3.31 4.46 4.46 0 012-.61c.83-.06 12.2-.19 14.3-.19s2.09 1.2 1.51 2z" class="colore01f1f svgShape" data-name="Fill-91"></path><path fill="#ececed" d="M88.64 98.41a3.92 3.92 0 011.23 3 6.27 6.27 0 01-1 2.68.34.34 0 000 .28.29.29 0 00.22.17c1.06.11 3.53.22 4.6-1a15.74 15.74 0 002.63-4.31c0-.31.38-1.57-.78-1.57s-7.67-.25-6.9.75z" class="colorececed svgShape" data-name="Fill-92"></path><path fill="#b80606" d="M81.39 105.9c.22.54.47.79.79.83.56.08 6.29-.15 9.08-.48a14.48 14.48 0 007.16-2.67 17 17 0 003-2.86s-5.09 3.86-9.52 4.38c-4.9.58-10.51.8-10.51.8z" class="colorb80606 svgShape" data-name="Fill-93"></path><path fill="#182b33" d="M70.45 142.78s-25-.94-36.82-2.65l-2-1.47s14.32 2.4 39.72 3.5z" class="color182b33 svgShape" data-name="Fill-94"></path></g><g class="color000 svgShape" data-name="Group-98" mask="url(#d)" fill="#000000"><path fill="url(#a)" fill-rule="evenodd" d="M126.83 94.89h-19.51V76.32h19.51v18.57z" data-name="Fill-96"></path></g><g class="color000 svgShape" data-name="Group-101" mask="url(#e)" fill="#000000"><path fill="url(#f)" fill-rule="evenodd" d="M140.49 95.87h-27.32V75.35h27.32v20.52z" data-name="Fill-99"></path></g><g fill-rule="evenodd" class="color000 svgShape" data-name="Group-105" fill="#000000"><path fill="#374c59" d="M109.05 76c1.66-.22 3.32-.36 5-.46 1.17-.06 2.33-.1 3.49-.11a38 38 0 016.21.34 28.33 28.33 0 0111.1 4.71c2.59 1.91 11.79 11.92 11.79 11.92l.24 3.15s-.41.08-1.07.14L144.06 91s-9.82-12.81-19.53-13.91c1.2 2 3.42 5.9 4.42 7.89 1.37 2.79 4.31 9.9 4.31 9.9l-4.26-.39s-2.43-6.61-3.85-10c-.82-2-2.61-5.64-3.59-7.63a50.3 50.3 0 00-10.69.3c.45 1.86 1.25 5.2 1.58 6.67.46 2.08 1.87 9.25 1.87 9.25l-1.37-.15c-.6-.07-1.11-.13-1.57-.22 0 0-.85-4.7-1.52-8-.76-3.84-1.87-8.5-1.87-8.5z" class="color374c59 svgShape" data-name="Fill-102"></path><path fill="#c9cdd1" d="M154.82 108.05c-.82 3.27-2.09 14-2.09 14l-26.9 7.21c-.5-13.85-4.33-18.42-10.08-18.42s-8.32 5.85-9.87 9.41-4 14.64-4 14.64c-1.78 0-3.86-.8-6.18-1.86 0 0 3.74-.24 4.77-3.37s4.6-23 15.35-22.66c4.36.31 8.13 3.64 10.21 9.39 0 0 23-1.75 25.41-2.3s3.38-6.04 3.38-6.04z" class="colorc9cdd1 svgShape" data-name="Fill-104"></path></g><path fill="#374c59" fill-opacity=".5" fill-rule="evenodd" d="M125.85 82.19l1.47 3.26 1.43 3.27c.48 1.09.93 2.19 1.37 3.29s.84 2.2 1.18 3.33v.07h.05c.75.76 1.5 1.54 2.21 2.34.36.4.71.8 1 1.22.17.2.32.42.48.62l.12.16c0 .06.05.1.08.15s.09.22.13.33a21.73 21.73 0 01.59 3.1q.21 1.59.39 3.18c.21 2.12.43 4.25.6 6.38l.55 6.39c0-1.07 0-2.14-.08-3.21s-.08-2.14-.14-3.2c-.11-2.14-.23-4.28-.43-6.41-.1-1.07-.2-2.13-.34-3.2a21.74 21.74 0 00-.6-3.2 2.9 2.9 0 00-.16-.41 2 2 0 00-.12-.21l-.12-.17c-.16-.22-.32-.44-.5-.65-.34-.43-.7-.84-1.07-1.25-.72-.81-1.48-1.59-2.26-2.35l.07.12a29.76 29.76 0 00-1.26-3.37c-.48-1.1-1-2.18-1.48-3.26s-1-2.15-1.57-3.22-1.02-2.05-1.59-3.1z" class="color374c59 svgShape" data-name="Fill-106"></path><path fill="#182b33" fill-rule="evenodd" d="M154 92.83a14.14 14.14 0 01-.69 2c-.21.49-1.08.84-2 1a4.6 4.6 0 01-3-.58v-3.82c0-.6.23-1.33.68-1.41a15.24 15.24 0 014.56.91c.83.48.6 1.28.45 1.9z" class="color182b33 svgShape" data-name="Fill-108"></path><g class="color000 svgShape" data-name="Group-112" mask="url(#g)" fill="#000000"><path fill="url(#h)" fill-rule="evenodd" d="M154.15 95.87h-4.88v-5.86h4.88v5.86z" data-name="Fill-110"></path></g><g class="color000 svgShape" data-name="Group-115" mask="url(#i)" fill="#000000"><path fill="#374c59" fill-opacity=".5" fill-rule="evenodd" d="M113.43 90.2c.1 1.1.27 2.19.45 3.28l.57.86c.2.29.38.58.58.86.39.57.79 1.14 1.19 1.69v-.2c-.07.49-.1 1-.12 1.45s0 1 0 1.44a11.8 11.8 0 00.18 1.44 4.77 4.77 0 00.47 1.36 5.93 5.93 0 01-.22-1.4 13.26 13.26 0 010-1.41c0-.47 0-.93.09-1.4s.1-.94.16-1.4v-.11l-.06-.1c-.39-.57-.8-1.13-1.2-1.68-.2-.29-.41-.56-.61-.84l-.63-.83v.09c-.22-.98-.51-2.05-.85-3.1z" class="color374c59 svgShape" data-name="Fill-113"></path></g><g class="color000 svgShape" data-name="Group-118" mask="url(#j)" fill="#000000"><path fill="#374c59" fill-opacity=".5" fill-rule="evenodd" d="M94.38 124.47c-1.2.63-2.42 1.22-3.66 1.73a10.15 10.15 0 01-3.82 1c-2.63.1-5.27.13-7.92.15-5.28 0-10.56.08-15.84 0s-10.57-.14-15.85-.35l-4-.18-3.95-.23c-1.32-.08-2.64-.2-4-.3-.66 0-1.32-.14-2-.21l-2-.2c1.31.19 2.62.41 3.93.58s2.63.31 4 .44l4 .33 4 .26c5.28.3 10.56.41 15.85.48s10.58 0 15.86-.15c2.65-.08 5.28-.16 7.93-.35a8.52 8.52 0 001-.12 4.31 4.31 0 00.49-.11l.49-.14a18.62 18.62 0 001.87-.74 39.63 39.63 0 003.62-1.89z" class="color374c59 svgShape" data-name="Fill-116"></path></g><g fill-rule="evenodd" class="color000 svgShape" data-name="Group-133" fill="#000000"><path fill="#182b33" d="M72.59 140c-10.5-.81-37.36-2.7-42-3.44-4.1-.65 35 1.84 42.25 2.39 1.56.11 1.79 1.2-.25 1.05z" class="color182b33 svgShape" data-name="Fill-119"></path><path fill="#c9cdd1" d="M40.93 48.64a90.66 90.66 0 00-14.58 4.45s1.24.83 1.49.95c0 0 14.38-2.57 24.76-.66 1.66.4 3.16 0 3.41-.74s1.4-4 1.4-4-2.15-.35-5.51-.54c-2.68-.1-10.97.54-10.97.54z" class="colorc9cdd1 svgShape" data-name="Fill-121"></path><path fill="#374c59" d="M111.28 138.51c0 4.72 1.71 8.55 3.82 8.55s3.82-3.83 3.82-8.55-1.71-8.51-3.82-8.51-3.82 3.8-3.82 8.51z" class="color374c59 svgShape" data-name="Fill-122"></path><path fill="#ffffff" d="M115.1 126c3.09 0 5.6 5.59 5.6 12.49s-2.49 12.5-5.6 12.5-5.6-5.59-5.6-12.5S112 126 115.1 126zm2.43 15.33l1 2.21c.11.25.31.2.39-.12a20.53 20.53 0 00.44-2.34c0-.36-.08-.71-.25-.71h-1.4c-.23.02-.35.63-.18.98zm.17-4.67h1.41c.17 0 .29-.34.24-.7a19 19 0 00-.43-2.37c-.08-.31-.28-.36-.39-.11l-1 2.24c-.17.35 0 .95.17.95zm-1.77 10.78c0 .37.15.63.31.54a3.85 3.85 0 001.05-1 1.08 1.08 0 000-.88c-.26-.56-.67-1.5-1-2.21-.16-.35-.42-.1-.42.4zm0-14.73c0 .49.27.74.43.38l1-2.22a1 1 0 000-.88 4 4 0 00-1.06-1c-.16-.09-.31.18-.31.54zm-3.26 3l-1-2.24c-.11-.25-.31-.2-.39.12a17.46 17.46 0 00-.43 2.36c0 .36.08.7.24.7h1.41c.22 0 .33-.59.17-.94zm.24 11.3a3.71 3.71 0 001 1c.15.1.31-.17.31-.54v-3.1c0-.5-.27-.75-.42-.4l-1 2.21a1 1 0 000 .87zm-.07-16.16l1 2.23c.15.36.42.11.42-.39v-3.16c0-.36-.16-.63-.31-.54a3.89 3.89 0 00-1.07 1 1.08 1.08 0 000 .88zm-2 10.21a16.9 16.9 0 00.43 2.34c.08.31.27.37.39.12l1-2.21c.16-.35 0-1-.17-1h-1.41c-.16 0-.28.35-.23.71z" class="colorfff svgShape" data-name="Fill-123"></path><path fill="#182b33" d="M113.69 138.51c0 1.74.63 3.15 1.41 3.15s1.4-1.41 1.4-3.15-.63-3.14-1.4-3.14-1.41 1.41-1.41 3.14z" class="color182b33 svgShape" data-name="Fill-124"></path><path fill="#374c59" d="M114.36 138.51c0 .92.33 1.66.74 1.66s.74-.74.74-1.66-.33-1.65-.74-1.65-.74.74-.74 1.65z" class="color374c59 svgShape" data-name="Fill-125"></path><path fill="#374c59" d="M122.62 133.53s-1.6-9.61-4.76-12a8.84 8.84 0 00-6.31-1.89s4.82-1.44 7.82 2.48c3.37 4.35 3.25 11.41 3.25 11.41z" class="color374c59 svgShape" data-name="Fill-126"></path><path fill="#374c59" d="M156.17 121.92c0 3.27.83 5.92 1.86 5.92s1.86-2.65 1.86-5.92-.84-5.92-1.89-5.92-1.83 2.65-1.83 5.92z" class="color374c59 svgShape" data-name="Fill-127"></path><path fill="#ffffff" d="M158 113.26c1.5 0 2.72 3.88 2.72 8.66s-1.22 8.66-2.72 8.66-2.72-3.88-2.72-8.66 1.25-8.66 2.72-8.66zm1.18 10.62l.49 1.53c.05.18.14.14.19-.08.09-.5.16-1 .21-1.62 0-.25 0-.49-.12-.49h-.68c-.09 0-.14.42-.06.66zm.08-3.23h.74c.08 0 .14-.24.12-.48a15.16 15.16 0 00-.22-1.64c0-.22-.13-.26-.19-.08l-.48 1.55c-.1.24-.05.65.06.65zm-.86 7.46c0 .26.08.44.15.38a2.38 2.38 0 00.51-.67 1 1 0 000-.63c-.12-.38-.33-1-.48-1.52-.08-.24-.21-.07-.21.27zm0-10.21c0 .34.13.51.21.27l.48-1.56a1 1 0 000-.6 2.51 2.51 0 00-.52-.69c-.07-.06-.15.12-.15.37zm-1.55 2.1l-.49-1.55c-.05-.18-.15-.14-.19.08a15 15 0 00-.21 1.64c0 .24 0 .49.12.49h.68c.11 0 .16-.4.09-.64zm.11 7.84a2.38 2.38 0 00.51.67c.08.06.15-.12.15-.38V126c0-.34-.13-.51-.2-.27l-.48 1.53a1 1 0 000 .62zm0-11.19l.49 1.55c.07.25.2.07.2-.27v-2.2c0-.25-.07-.43-.15-.37a2.17 2.17 0 00-.51.69 1 1 0 00-.06.58zm-1 7.08c0 .57.12 1.12.21 1.62 0 .22.14.26.19.08l.49-1.53c.07-.24 0-.66-.09-.66h-.68c-.08-.02-.14.22-.08.47z" class="colorfff svgShape" data-name="Fill-128"></path><path fill="#182b33" d="M157.34 121.92c0 1.2.31 2.18.69 2.18s.68-1 .68-2.18-.3-2.18-.68-2.18-.69.97-.69 2.18z" class="color182b33 svgShape" data-name="Fill-129"></path><path fill="#374c59" d="M157.67 121.92c0 .63.16 1.15.36 1.15s.36-.52.36-1.15-.16-1.15-.36-1.15-.36.52-.36 1.15z" class="color374c59 svgShape" data-name="Fill-130"></path><path fill="#374c59" d="M161.67 117.3s-.78-4.47-2-6.36a3.53 3.53 0 00-2.83-2s1.45-.36 3 1.45c1.16 1.37 1.82 4.33 1.83 6.91z" class="color374c59 svgShape" data-name="Fill-131"></path><path fill="#374c59" d="M118.06 150.77s-4.74 4.66-7.47-4.86c0 0 .63 6.49 3.77 7.5 2.32.75 3.7-2.64 3.7-2.64z" class="color374c59 svgShape" data-name="Fill-132"></path></g><g class="color000 svgShape" data-name="Group-147" fill="#000000"><g class="color000 svgShape" mask="url(#k)" fill="#000000"><path fill="#f2faff" fill-rule="evenodd" d="M75.74 109l-5.44 1.13a10.15 10.15 0 01-2.58.15l-16.08-1c-.24 0-.42-.08-.42-.22a2.38 2.38 0 010-.29s.44-.24.46-.49 0-1 0-1.05.81-1.67.95-1.93a1.18 1.18 0 01.79-.48c.31 0 4.93-.67 5.11-.68s.62 0 .9 0 13.38.55 13.63.56.86.06 1.08.41.94 1.75 1 1.9v.85a1.14 1.14 0 00.5.76z" class="colorf2faff svgShape" data-name="Fill-134"></path></g><g class="color000 svgShape" mask="url(#l)" fill="#000000"><path fill="#1773cf" fill-rule="evenodd" d="M51.21 109.07c0 .14.18.19.42.22l16.09 1a10.07 10.07 0 002.57-.15l5.44-1.14s-.53 11.27-.63 11.82a2.14 2.14 0 01-1.28 1.74c-.89.35-4.54 1.51-4.92 1.62a5.83 5.83 0 01-1.84 0c-1-.07-12.81-1.36-13.22-1.4a2.07 2.07 0 01-2-1.88c-.1-1.53-.63-11.83-.63-11.83z" class="color1773cf svgShape" data-name="Fill-136"></path></g><g class="color000 svgShape" mask="url(#m)" fill="#000000"><path fill="#0559ad" fill-rule="evenodd" d="M69.73 123.94c1.23-.39 3.44-1.11 4.1-1.37a2.14 2.14 0 001.28-1.74c.09-.56.63-11.82.63-11.82l-5.44 1.13s.17 9.39 0 12.73a1.5 1.5 0 01-.57 1.07z" class="color0559ad svgShape" data-name="Fill-137"></path></g><g class="color000 svgShape" mask="url(#k)" fill="#000000"><path fill="#c2e3fc" fill-rule="evenodd" d="M74.16 105.08c.22.36 1 1.75 1 1.9v.85a1.11 1.11 0 00.5.76v.41l-5.44 1.13v-3.43a.74.74 0 01.54-.71z" class="colorc2e3fc svgShape" data-name="Fill-138"></path></g><g class="color000 svgShape" mask="url(#k)" fill="#000000"><path fill="#c2e3fc" fill-rule="evenodd" d="M74 108.48c0 .19 0 .61-.48.63s-.65-.08-.63-.7.2-7.38.19-7.59-.11-.89-.7-1a94.91 94.91 0 00-16.77-.56c-.72 0-1 .31-1.06.92s0 4.49 0 4.49l-1.13.15v-5.56c0-.24.09-.71.41-.74s5.53-.44 9.42-.33 9.36.63 10.19.77.79.65.79.9-.17 6.46-.23 8.62z" class="colorc2e3fc svgShape" data-name="Fill-139"></path></g><g class="color000 svgShape" mask="url(#k)" fill="#000000"><path fill="#9ccef7" fill-rule="evenodd" d="M73.05 100.82c0 .22-.18 7-.19 7.6s.24.73.63.7.47-.45.48-.63c.08-2.17.23-8.36.23-8.61a2.29 2.29 0 01-.51.68 3 3 0 01-.64.26z" class="color9ccef7 svgShape" data-name="Fill-140"></path></g><g class="color000 svgShape" mask="url(#k)" fill="#000000"><path fill="#c2e3fc" fill-rule="evenodd" d="M54.24 108.05c3.08.38 6.17.62 9.26.81 1.55.08 3.08.18 4.64.23a9.67 9.67 0 002.34-.28c.75-.19 1.5-.37 2.25-.57-.77.11-1.53.24-2.29.37a11 11 0 01-2.29.13c-1.52-.13-3.08-.25-4.62-.34-3.09-.18-6.19-.33-9.29-.35z" class="colorc2e3fc svgShape" data-name="Fill-141"></path></g><g class="color000 svgShape" mask="url(#k)" fill="#000000"><path fill="#0559ad" fill-rule="evenodd" d="M51.63 111.61l3 .31 3 .25c2 .17 4 .32 6 .43l3 .18c.5 0 1 .07 1.53.07a11.13 11.13 0 001.53-.11c2-.42 4-.9 5.92-1.39-1 .15-2 .33-3 .5l-1.49.28c-.5.08-1 .2-1.48.25a12.38 12.38 0 01-1.49.06c-.49 0-1-.06-1.5-.1l-3-.2c-2-.12-4-.24-6.06-.31l-3-.12c-.94-.05-1.95-.1-2.96-.1z" class="color0559ad svgShape" data-name="Fill-142"></path></g><g class="color000 svgShape" mask="url(#k)" fill="#000000"><path fill="#0559ad" fill-rule="evenodd" d="M58.42 113.9c2.9.36 5.8.59 8.7.77.36 0 .72 0 1.1.06s.74 0 1.11 0a10.27 10.27 0 001.11-.18l1.06-.24c1.42-.33 2.83-.68 4.23-1.07-1.44.21-2.88.45-4.31.71l-1.07.2a7.56 7.56 0 01-1 .14h-1.07c-.35 0-.71 0-1.08-.07-2.96-.22-5.86-.32-8.78-.32z" class="color0559ad svgShape" data-name="Fill-143"></path></g><g class="color000 svgShape" mask="url(#k)" fill="#000000"><path fill="#0559ad" fill-rule="evenodd" d="M52.44 113.53a15.29 15.29 0 003.7.23 14.35 14.35 0 00-3.7-.23z" class="color0559ad svgShape" data-name="Fill-144"></path></g><g class="color000 svgShape" mask="url(#k)" fill="#000000"><path fill="#0559ad" fill-rule="evenodd" d="M54 115.49c.91.11 1.82.19 2.73.29l2.73.23c1.81.16 3.63.28 5.45.39l2.73.16a9.59 9.59 0 002.78-.2l2.67-.63c.88-.22 1.77-.43 2.65-.67-.9.14-1.8.3-2.7.45l-2.7.5a10.83 10.83 0 01-2.67.11l-2.72-.18c-1.83-.11-3.65-.22-5.47-.29l-2.74-.11z" class="color0559ad svgShape" data-name="Fill-145"></path></g><g class="color000 svgShape" mask="url(#k)" fill="#000000"><path fill="#0559ad" fill-rule="evenodd" d="M61.23 117.81c1.21.16 2.43.3 3.64.41.61.06 1.22.1 1.83.15l.91.07h.94a8.9 8.9 0 001.86-.2c.6-.13 1.19-.26 1.79-.41 1.18-.27 2.36-.59 3.54-.94-1.21.16-2.42.35-3.62.57l-1.8.34a9.63 9.63 0 01-1.77.16c-.6 0-1.2 0-1.81-.07l-1.83-.08c-1.23 0-2.46-.01-3.68 0z" class="color0559ad svgShape" data-name="Fill-146"></path></g></g><g class="color000 svgShape" data-name="people" fill="#000000"><g class="color000 svgShape" mask="url(#n)" fill="#000000"><path fill="#845853" fill-rule="evenodd" d="M40.39 75c-.06 1.07-.26 4.27-.42 4.73a4 4 0 01-4.26 3v.67c-1.62-.36-4.18-.68-5.15-.79.15-.93.27-2.31.27-2.31-.3-.23-1.41-1.54-1.41-1.54a21.14 21.14 0 005.22 0 12.23 12.23 0 011.61-2.81s.12-1.55 1.37-1.68c.88-.1 1.37.91 1.46 1.34a2.08 2.08 0 00.43-.46v-3.41s.54-.69 1.11-1.61a17.64 17.64 0 01-.23 4.87z" class="color845853 svgShape" data-name="Fill-148"></path></g><g class="color000 svgShape" mask="url(#n)" fill="#000000"><path fill="#0f0a09" fill-rule="evenodd" d="M27.77 67.72a4.7 4.7 0 00-1.25 3.93c.22 2.68 2.41 6.39 2.9 7.06a20.64 20.64 0 005.22 0 12.22 12.22 0 011.62-2.81s.11-1.54 1.37-1.68c.88-.1 1.37.91 1.46 1.34a2.29 2.29 0 00.43-.45v-3.37s2.49-3.2 2.38-4.93a1.61 1.61 0 00-.41-1.11 1.75 1.75 0 01-.23.71s-.25-2.36-2-2.66c0 0-.31 1-.77 1.23 0 0-5.57-.72-7.54-.16-3.63 1.03-3.18 2.9-3.18 2.9z" class="color0f0a09 svgShape" data-name="Fill-150"></path></g><g class="color000 svgShape" mask="url(#n)" fill="#000000"><path fill="#5a3a35" fill-rule="evenodd" d="M34.46 83.11c-1.47-.25-3.16-.46-3.9-.54.15-.94.27-2.31.27-2.31-.3-.23-1.41-1.55-1.41-1.55a28 28 0 003.43.18 10 10 0 001.8-.18 3.68 3.68 0 00-1.53 2.6 1.77 1.77 0 001.34 1.8z" class="color5a3a35 svgShape" data-name="Fill-151"></path></g><g class="color000 svgShape" mask="url(#n)" fill="#000000"><path fill="#5a3a35" fill-rule="evenodd" d="M38.23 75.4s-.62-.5-1.06-.09-.08 1.52.68 1.83c0 0-.44-.85-.26-1.31a.76.76 0 01.64-.43z" class="color5a3a35 svgShape" data-name="Fill-152"></path></g><g class="color000 svgShape" mask="url(#n)" fill="#000000"><path fill="#5a3a35" fill-rule="evenodd" d="M29 161.94c.58-2.79 2-9.85 2.35-10.94a30.64 30.64 0 012.68-5.8v-5.41a22 22 0 01-7.18-.86l-.28-.1s.12 4.17 0 4.59c-.45 1.33-.37 11.75 2.43 18.52z" class="color5a3a35 svgShape" data-name="Fill-153"></path></g><g class="color000 svgShape" mask="url(#n)" fill="#000000"><path fill="#c2e3fc" fill-rule="evenodd" d="M33.2 167.65c.24.06.33.69.39.94a2.07 2.07 0 000 .22 5.4 5.4 0 002.61-.89l-.73-2.55-2 1.37z" class="colorc2e3fc svgShape" data-name="Fill-154"></path></g><g class="color000 svgShape" mask="url(#n)" fill="#000000"><path fill="#845853" fill-rule="evenodd" d="M47.25 99.86a38 38 0 006 1.91c1.2.23 8.82-2.77 8.82-2.77a3.21 3.21 0 002.69 0c.59-1.43 2.57-.34 2.57-1.2 0-1.41-5.84-.27-5.84-.27s-6-.5-8.48.06c-.4-.35-3.81-3.46-4.61-4.18a55 55 0 01-1.15 6.45z" class="color845853 svgShape" data-name="Fill-155"></path></g><g class="color000 svgShape" mask="url(#n)" fill="#000000"><path fill="#0559ad" fill-rule="evenodd" d="M45.28 99.1s2.22-4 2.22-7.07v-.4l1 1.19s-.82 6.67-1.44 7.53c-.06 0-.79.14-1.78-1.25z" class="color0559ad svgShape" data-name="Fill-156"></path></g><g class="color000 svgShape" mask="url(#n)" fill="#000000"><path fill="#374c59" fill-rule="evenodd" d="M37.65 175.91c-.37 0-3.47.37-4.92-.53a19.19 19.19 0 00-4.79-2.38 4.44 4.44 0 01-3.05-1.75c-.26-.59.67-2.55 1.51-3a5.34 5.34 0 001.38-1.3.64.64 0 01.73-.21c.73.28 2.19.82 3.38 1.14.14 0 1.11.09 1.33-.26.24.05.33.68.38.93.24 1 .21 2.39.91 3.46.57.89 3.3 1.27 3.71 2.1s.13 1.76-.57 1.8z" class="color374c59 svgShape" data-name="Fill-157"></path></g><g class="color000 svgShape" mask="url(#n)" fill="#000000"><path fill="#182b33" fill-rule="evenodd" d="M33.65 168.78a8.46 8.46 0 00.86 3.23c.53.83 2.92 1.22 3.59 1.93a21.34 21.34 0 002.27-1.07c.44-.32.46-2.12-.22-2.32s-2.58-.26-3-.94a16.54 16.54 0 01-.88-1.73 5.37 5.37 0 01-2.62.9z" class="color182b33 svgShape" data-name="Fill-158"></path></g><g class="color000 svgShape" mask="url(#n)" fill="#000000"><path fill="#52cc99" fill-rule="evenodd" d="M23.56 114.22c.39.44 1.81 5.79 7.6 6.12s10.92-4.73 10.92-4.73a20.25 20.25 0 002.33 2.57s1.76 13.43.8 20.79c0 0-6.25 1.86-10.68 0l-.29-10.26S34 138.38 34 139.8c0 0-6.52.37-9.48-2.09 0 0-1.12-10.49-1.3-14.93a61.15 61.15 0 01.32-8.56z" class="colorffc000 svgShape color52cc99" data-name="Fill-159"></path></g><g class="color000 svgShape" mask="url(#n)" fill="#000000"><path fill="#52cc99" fill-rule="evenodd" d="M42.68 135.25c0-2.57-.33-9.13-.33-9.13a4.5 4.5 0 002.81-.65c.23 3 .41 6.53.33 9.67a5.76 5.76 0 01-2.81.11z" class="colorffa700 svgShape color52cc99" data-name="Fill-160"></path></g><g class="color000 svgShape" mask="url(#n)" fill="#000000"><path fill="#52cc99" fill-rule="evenodd" d="M23.24 122.77a61.06 61.06 0 01.31-8.55c.39.44 1.81 5.79 7.6 6.12s10.92-4.74 10.92-4.74a19 19 0 002.33 2.57S37 127.62 31.16 127s-7.92-4.23-7.92-4.23z" class="colorffa700 svgShape color52cc99" data-name="Fill-161"></path></g><g class="color000 svgShape" mask="url(#n)" fill="#000000"><path fill="#5a3a35" fill-rule="evenodd" d="M34.35 164.17l-.84 2.54 2-1.37-.38-2.93c-.47 1.09-.78 1.76-.78 1.76z" class="color5a3a35 svgShape" data-name="Fill-162"></path></g><g class="color000 svgShape" mask="url(#n)" fill="#000000"><path fill="#e0f2ff" fill-rule="evenodd" d="M28 166.81a.6.6 0 01.55-.06c.73.28 2.21.82 3.38 1.14.13 0 1.07.09 1.31-.24l1.15-3.48a14.11 14.11 0 01-5.55-1.08z" class="colore0f2ff svgShape" data-name="Fill-163"></path></g><g class="color000 svgShape" mask="url(#n)" fill="#000000"><path fill="#845853" fill-rule="evenodd" d="M28.8 163.09a14.22 14.22 0 005.54 1.09s7.95-17.54 8.07-18.38c.23-1.6.39-5 .45-6.3a16.59 16.59 0 01-8.14-.43v5.05a34.4 34.4 0 00-3.33 6.9c-.39 1.34-2.59 12.07-2.59 12.07z" class="color845853 svgShape" data-name="Fill-164"></path></g><g class="color000 svgShape" mask="url(#n)" fill="#000000"><path fill="#1773cf" fill-rule="evenodd" d="M24.19 91.72c.5-3.62 2.35-7.19 5.18-7.5l.53-.06a4.64 4.64 0 01.66-1.65s5.31.56 6.62 1.13a4.73 4.73 0 012 2A13.93 13.93 0 0143 87.45c1.09 1 4.46 4.57 4.46 4.57 0 3.06-2.22 7.07-2.22 7.07a8.12 8.12 0 01-1.33-1s2.47 16.91 2.14 21.52a22.38 22.38 0 01-4-4s-5.13 5.06-10.92 4.73-7.22-5.68-7.61-6.11-.55 1-1.06.82c.03-.05.99-18.05 1.73-23.33z" class="color1773cf svgShape" data-name="Fill-165"></path></g><g class="color000 svgShape" mask="url(#n)" fill="#000000"><path fill="#0559ad" fill-rule="evenodd" d="M22.62 112.73s.85 0 1.13-1.74a8.06 8.06 0 007.05 3.23c2.75-.23 10.53-3.9 10.92-14.06 0-1-.1-4.21-.1-4.21A21.42 21.42 0 0044 98.08s2.43 16.92 2.1 21.52a22.38 22.38 0 01-4-4s-5.13 5.06-10.92 4.74-7.22-5.68-7.61-6.12-.55 1-1.06.82c-.02-.04.03-.88.11-2.31z" class="color0559ad svgShape" data-name="Fill-166"></path></g><g class="color000 svgShape" mask="url(#n)" fill="#000000"><path fill="#0559ad" fill-rule="evenodd" d="M28.29 84.52a17.43 17.43 0 011.91 0c.63 0 1.25.11 1.87.18s1.25.16 1.88.24l.95.11c.32 0 .64.08 1 .09-.29-.15-.59-.29-.89-.42a6.34 6.34 0 00-.93-.31 10.55 10.55 0 00-1.92-.39 9.28 9.28 0 00-2 0 4.86 4.86 0 00-1.87.5z" class="color0559ad svgShape" data-name="Fill-167"></path></g><g class="color000 svgShape" mask="url(#n)" fill="#000000"><path fill="#5a3a35" fill-rule="evenodd" d="M34.73 141.18v-2.12a16.36 16.36 0 008.14.43c0 .31 0 .73-.06 1.23a17.94 17.94 0 01-4.81 1.19 8.9 8.9 0 01-3.3-.73z" class="color5a3a35 svgShape" data-name="Fill-168"></path></g><g class="color000 svgShape" mask="url(#n)" fill="#000000"><path fill="#5a3a35" fill-rule="evenodd" d="M53.28 101.77a37.26 37.26 0 01-6-1.91 55 55 0 001.15-6.51l.91.83s-.49 3.3.37 4.71a7.15 7.15 0 003.57 2.88z" class="color5a3a35 svgShape" data-name="Fill-169"></path></g></g></g><g fill-rule="evenodd" class="color000 svgShape" data-name="boy-with-donut" fill="#000000"><path fill="url(#o)" d="M111.22 170.65c0 .81-5.9 1.46-13.17 1.46s-13.17-.65-13.17-1.46 5.89-1.47 13.17-1.47 13.17.66 13.17 1.47z" data-name="Fill-111"></path><path fill="#dedfe0" d="M111.22 170.65c0 .81-5.9 1.46-13.17 1.46s-13.17-.65-13.17-1.46 5.89-1.47 13.17-1.47 13.17.66 13.17 1.47z" class="colordedfe0 svgShape" data-name="Fill-111" opacity=".76" style="isolation:isolate"></path><path fill="#52cc99" d="M81.37 125.59a3.26 3.26 0 00-1.82.33c-.52.22-1 .81-1.48 1.07a3.13 3.13 0 00-1.91.46c-.59.36-1.41 1.1-1.44 1.62-.7-.1-1.35.5-1.86 1a2.2 2.2 0 00-.83 1.36c-.53.52-1.34.9-1.8 1.46a2 2 0 00-.48 1.17c-.69.94-1.72 1.78-1.85 3a21.86 21.86 0 00-.35 19.74 24 24 0 0016 12.72c.26.06.4.24.67.29s.63 0 .89 0a1.8 1.8 0 00.83.35 2.36 2.36 0 00.95-.1 1.92 1.92 0 00.48.15c.23 0 .46-.06.69-.05.54 0 1.08.05 1.62.05 10.37 0 19.59-6.22 23-15.49a1.29 1.29 0 00.63-.9 21.53 21.53 0 00.5-3.75 10.1 10.1 0 00.41-1.81c0-.33-.23-.67-.23-1v-1.19a22.74 22.74 0 00-10.83-17.95 25.47 25.47 0 00-21.79-2.53zm7.49 30.25c-.33 0-.71.1-1 0a1.66 1.66 0 00-.74-.33 12.61 12.61 0 00-1.49-.28 2.88 2.88 0 00-.89-.61c-.28-.14-.66-.14-.93-.31a9 9 0 01-4.37-7.59c0-5.12 4.58-9.26 10.24-9.26s10.23 4.14 10.23 9.26S95.3 156 89.65 156c-.29 0-.51-.14-.79-.16z" class="colorffc000 svgShape color52cc99" data-name="Fill-145"></path><path fill="#52cc99" d="M100.49 153.19s-2.33 4.34-8.78 4.82c-6.76.51-10.83-4.08-12.69-7.4 0 0 1.72 10.69 12.24 9.71 8.74-.81 9.23-7.13 9.23-7.13z" class="colorffd900 svgShape color52cc99" data-name="Fill-146"></path><path fill="#52cc99" d="M86.24 165.39c15.94 3.13 26-11.06 26-11.06a24 24 0 01-22.77 15.82c-.54 0-1.07 0-1.61-.05-.22 0-.46.08-.68.05a1.92 1.92 0 01-.48-.15 2.29 2.29 0 01-.94.1 1.78 1.78 0 01-.82-.36c-.26-.05-.63 0-.89 0s-.4-.23-.66-.3a23.58 23.58 0 01-18-22.7s4.91 15.53 20.85 18.65z" class="colorffa700 svgShape color52cc99" data-name="Fill-147"></path><path fill="#eea480" d="M92.68 156.47c.2 3 1 9 1.28 10.73a4.14 4.14 0 001.91-.25 1.76 1.76 0 011.06.09c.06-1.28.49-8 .63-10.19-1.56.59-3.63.06-4.88-.38z" class="coloreea480 svgShape" data-name="Fill-148"></path><path fill="#eea480" d="M99.51 155.5c.26 2.09.84 8.54 1 9.37a16.51 16.51 0 01.19 2.33 3.66 3.66 0 001.82-.26 1.62 1.62 0 011.1.15 110.28 110.28 0 00.77-11.49c-1.56.77-3.81.23-4.88-.1z" class="coloreea480 svgShape" data-name="Fill-149"></path><path fill="#eea480" d="M93.19 114.39c.07.2.5 2.35.57 2.63a5.35 5.35 0 001.73 2.45c.1.06.09.28.06.47a9.71 9.71 0 004 .24c1.68-.43 1.74-1.6 1.74-1.6-.2-.13-.38-.27-.56-.41a7.83 7.83 0 01.28-1.91.59.59 0 00.55-.23c.17-.29.53-1.22.79-1.58s.12-.94-.15-1c0 0-.71 2.25-1.78 2.37a8.47 8.47 0 01-5.41-1c-.55-.37-1.66-1.64-2.13-1.42s.25.78.31.99z" class="coloreea480 svgShape" data-name="Fill-150"></path><path fill="#0d2842" d="M92.25 112.9c.48-.22 1.65 1.07 2.23 1.45a9.07 9.07 0 005.7 1c1.12-.12 1.86-2.41 1.86-2.41s1.21-4-.59-5.29a2.33 2.33 0 00-2.31-1.35s-1.2-1.37-4.12 0-3.54 2.5-3.24 4.28.47 2.32.47 2.32z" class="color0d2842 svgShape" data-name="Fill-151"></path><path fill="#eea480" d="M82.19 126a6 6 0 00.35 1.71c.56 1.49 1.39 1.42 1.6 1.45a10.72 10.72 0 001.71-.3 7.88 7.88 0 01-1.11-2 1.87 1.87 0 01.48-1.71.76.76 0 00.11-.38 1.65 1.65 0 00-1.77-.4c-.88.29-2.14.48-1.37 1.63z" class="coloreea480 svgShape" data-name="Fill-152"></path><path fill="#c2e3fc" d="M95.09 166.29a2.17 2.17 0 011.33.15s.12.46.17.72a1.48 1.48 0 00-.77-.18c-.49 0-2 1.07-2.43 1.18a1.7 1.7 0 01-.71 0 7.16 7.16 0 01.21-1.6 5.12 5.12 0 002.2-.27z" class="colorc2e3fc svgShape" data-name="Fill-153"></path><path fill="#053361" d="M91.12 150.92c-.37 1.25.14 5.49.14 5.49s4.37 2.05 6.54.39c0 0-.12-1.34-.1-1.59a4.06 4.06 0 00.21-2.16c-.29-.93.36-8.15.36-8.15l.54 10.84s4.59 1.73 6.5-.31c0 0-.12-3.48 0-4.79s-.36-1.18-.35-1.53c.15-3.82.17-7 .18-8.28-1.64.57-6.78 1.95-14.12.17-.12 1.72-.64 8.37.1 9.92z" class="color053361 svgShape" data-name="Fill-154"></path><path fill="#0d2842" d="M92.68 170.7a15.44 15.44 0 001.68-.24 6.38 6.38 0 013.2-.16v.7a15.69 15.69 0 01-3 .12c-1.05-.12-1.72.09-1.88-.42z" class="color0d2842 svgShape" data-name="Fill-155"></path><path fill="#053361" d="M92.72 171.14a14.78 14.78 0 001.61-.32 4.7 4.7 0 013-.26h.09a4 4 0 00-.17-2.69 1.24 1.24 0 00-.41-.52 1.15 1.15 0 00-.63-.15c-.41 0-1.65.94-2 1a1.3 1.3 0 01-.59 0 2.43 2.43 0 00-.48 1.29c0 .2-.21.24-.3.44a2.45 2.45 0 00-.07 1.14z" class="color053361 svgShape" data-name="Fill-156"></path><path fill="#0d2842" d="M99.51 170.7a15.44 15.44 0 001.68-.24 6.38 6.38 0 013.2-.16v.7a15.72 15.72 0 01-3 .12c-1.05-.12-1.73.09-1.88-.42z" class="color0d2842 svgShape" data-name="Fill-157"></path><path fill="#053361" d="M99.55 171.14a14.78 14.78 0 001.61-.32 4.7 4.7 0 013-.26h.09a4 4 0 00-.17-2.69 1.24 1.24 0 00-.41-.52 1.15 1.15 0 00-.63-.15c-.41 0-1.65.94-2 1a1.3 1.3 0 01-.59 0 2.35 2.35 0 00-.48 1.29c0 .2-.21.24-.31.44a2.58 2.58 0 00-.06 1.14z" class="color053361 svgShape" data-name="Fill-158"></path><path fill="#c2e3fc" d="M102.9 166.29a2.14 2.14 0 011.32.15s.13.46.17.72a1.46 1.46 0 00-.77-.18c-.48 0-2 1.07-2.42 1.18a1.7 1.7 0 01-.71 0 6.16 6.16 0 01.21-1.6 5.14 5.14 0 002.2-.27z" class="colorc2e3fc svgShape" data-name="Fill-159"></path><path fill="#d38a6e" d="M99.68 156.81c-.06-.53-.12-1-.17-1.31 1.07.27 3.33.73 4.88.08 0 .83-.06 2.67-.23 4.8 0 0-.8-2.22-2.21-2.94a7.1 7.1 0 00-2.27-.63z" class="colord38a6e svgShape" data-name="Fill-160"></path><path fill="#d38a6e" d="M97.24 161.36c.13-1.79.25-3.6.32-4.54a8.58 8.58 0 01-4.88-.35c0 .38.07.82.12 1.29a4.42 4.42 0 012 .51 9.48 9.48 0 012.44 3.09z" class="colord38a6e svgShape" data-name="Fill-161"></path><path fill="#1773cf" d="M101.67 118.49a10.15 10.15 0 012.4-.11 2.15 2.15 0 011.53 2.09c0 1 .14 8.59-.46 11.49 0 1.25 1.27 4.35 1.2 8.63 0 0-6.24 2.59-16 .22 0 0 1.43-10.48.8-11.8l-4.37 1.09a18.25 18.25 0 01-1.84-3.43 1.86 1.86 0 01.71-1.94 50.93 50.93 0 004.94-2.79 14 14 0 014.72-2.1 11.64 11.64 0 004.51.31c1.79-.46 1.86-1.66 1.86-1.66z" class="color1773cf svgShape" data-name="Fill-162"></path><path fill="#0559ad" d="M93.66 141.48c3.73-1.19 6.59-2.94 9.48-8.9-.07-.49-.14-1-.22-1.54-1.19-8-6.51-10.95-6.51-10.95a9.15 9.15 0 003.3 0c1.83-.45 1.9-1.65 1.9-1.65a10.43 10.43 0 012.43-.11 2.17 2.17 0 011.56 2.09c0 1 .13 8.59-.48 11.49 0 1.25 1.29 4.34 1.22 8.62a14.22 14.22 0 01-2.23.64l-.28.06a30.4 30.4 0 01-10.17.25z" class="color0559ad svgShape" data-name="Fill-163"></path><path fill="#0d2842" d="M90.73 141c7.61 2 12.94.45 14.64-.18v3.91a71.34 71.34 0 01-9.76-1.13c-3.78-.85-4.88-2.6-4.88-2.6z" class="color0d2842 svgShape" data-name="Fill-164"></path><path fill="#d38a6e" d="M85 129.11a13 13 0 001.87-.29 7.52 7.52 0 01-1.22-2 1.67 1.67 0 01.53-1.66 7.41 7.41 0 00-1.18 2.32 4.07 4.07 0 000 1.63z" class="colord38a6e svgShape" data-name="Fill-165"></path><path fill="#d38a6e" d="M99.37 119.33c1.75-.44 1.82-1.64 1.82-1.64a6.27 6.27 0 01-.59-.42 8.16 8.16 0 01.29-2 .61.61 0 00.58-.24c.18-.29.56-1.24.83-1.61s.12-1-.17-1c0 0-.74 2.3-1.85 2.42a9 9 0 01-5.65-1s1.38 3 3.91 3.14c1.02.18.83 2.35.83 2.35z" class="colord38a6e svgShape" data-name="Fill-166"></path><path fill="#d38a6e" d="M93.66 113.47c.16.15.33.34.5.53 0 0 .16 1 .47 2.4z" class="colord38a6e svgShape" data-name="Fill-167"></path><path fill="#0559ad" d="M91.71 129.13l-4.31 1s-.25-.34-.57-.8a28.41 28.41 0 004.88-1.15z" class="color0559ad svgShape" data-name="Fill-168"></path><path fill="#0559ad" d="M102.44 132a16.79 16.79 0 01-1 1.36 8.77 8.77 0 01-1.14 1.14 5.36 5.36 0 01-1.27.81 6.76 6.76 0 01-1.42.47 2.66 2.66 0 001.53 0 3.53 3.53 0 001.43-.75 5.81 5.81 0 001.16-1.34 6.08 6.08 0 00.71-1.69z" class="color0559ad svgShape" data-name="Fill-169"></path></g><g fill-rule="evenodd" class="color000 svgShape" data-name="woman" fill="#000000"><path fill="#dedfe0" d="M215.5 153.38c0 .51-10 .93-22.39.93s-22.38-.42-22.38-.93 10-.93 22.38-.93 22.39.42 22.39.93z" class="colordedfe0 svgShape" data-name="Fill-111"></path><path fill="#c48472" d="M181.16 87.09v-1.31l-.2 2.29c-.54 2.81-1 5.54-1.43 8a45.4 45.4 0 01.63 4.7c.26 2.87.42 6 .5 7.9v.62c0 .19-.14.49-.22.77a12.78 12.78 0 01-.45 1.32 5.36 5.36 0 01-.82 1.45c.16-2.08-2.9-14.72-2.64-18.64.12-1.75.25-3.5.44-5.23 0-.21 0-.42.06-.63.08-.74.34-2.73.53-4a5.47 5.47 0 003.6 2.76z" class="colorc48472 svgShape" data-name="Fill-123"></path><path fill="#985e58" d="M181.16 86.83l-.18-1.1v2c-.9 1.37-3.23.94-3.81.82l.06-.58c.08-.67.33-2.47.51-3.59.51.78 1.4.69 2.08 1.11.51.32.78 1.25 1.34 1.34z" class="color985e58 svgShape" data-name="Fill-124"></path><path fill="#985e58" d="M179.62 96.05a1 1 0 00-.77-.54 1 1 0 00-.76.54.88.88 0 00.77.7.93.93 0 00.76-.7z" class="color985e58 svgShape" data-name="Fill-125"></path><path fill="#e01f1f" d="M175 118.51c4.06 2.4 8.89.43 8.89.43l.6-7.77v8c3.81 1.36 9.32 0 9.32 0 .26-2 .12-4 .4-5.76a17.11 17.11 0 00-.55-7.88 16.36 16.36 0 01-3.69 1.11 20.21 20.21 0 01-2.69.24 18.88 18.88 0 01-9.74-2s-1.78 7.69-2.54 13.63z" class="colore01f1f svgShape" data-name="Fill-113"></path><path fill="#b80606" d="M194.23 113.45a17.11 17.11 0 00-.55-7.88 16.36 16.36 0 01-3.69 1.11 20.21 20.21 0 01-2.69.24 18.88 18.88 0 01-9.74-2s-.18.77-.45 2c-.13.59 8.45 3.73 12.27 2.42a11 11 0 004.85 4.11z" class="colorb80606 svgShape" data-name="Fill-115"></path><path fill="#6eb3f0" d="M175.3 151a13.39 13.39 0 012.37-.21 26.92 26.92 0 013.2-2.18c2.37 2.06 3.62.2 3.62.2 1.4 1.24.94 4.84.94 4.84h-11.62c.11-2.29.92-2.5 1.49-2.65z" class="color6eb3f0 svgShape" data-name="Fill-116"></path><path fill="#9ccef7" d="M184 152.39a2.72 2.72 0 01.13-.51 2.12 2.12 0 011.31-1.16 5.15 5.15 0 011.68-2.3 1.46 1.46 0 011.62.34c.77.75.67.79 1.12.81.64 0 1-.81 1-.81a5.25 5.25 0 01.51 2.2v2.66H184a4.8 4.8 0 010-.85 2.43 2.43 0 010-.38z" class="color9ccef7 svgShape" data-name="Fill-117"></path><path fill="#c48472" d="M185.16 119.37a105.29 105.29 0 01.73 10.62c-.24 2.61 1.62 18.33 1.62 18.33a1.51 1.51 0 011.25.45c.77.75.66.78 1.11.8a1 1 0 00.81-.51l.14-2.85a43 43 0 01.8-6.91 30.6 30.6 0 000-10.15s.54-4.76 1.21-9.75a19.66 19.66 0 01-7.67-.03z" class="colorc48472 svgShape" data-name="Fill-118"></path><path fill="#985e58" d="M191.85 127.53c.21-1.81.59-4.92 1-8.14a19.23 19.23 0 01-7.7 0c.13 1.28.25 2.59.36 3.84a13.56 13.56 0 013.49.77c1.58.75 2.85 3.53 2.85 3.53z" class="color985e58 svgShape" data-name="Fill-119"></path><path fill="#985e58" d="M175.64 131c.33 1 5.23 17.6 5.23 17.6 1.77 1.55 2.92.89 3.38.46 0 0-1.36-7.17-1.68-11.32a63.64 63.64 0 00-1.39-8.58l1.65-9.87A10.9 10.9 0 01176 119c-.19 4.24-.37 8.24-.37 8.65a12.65 12.65 0 00.01 3.35z" class="color985e58 svgShape" data-name="Fill-120"></path><path fill="#9ccef7" d="M177.56 104.91a18.69 18.69 0 009.74 2 20.21 20.21 0 002.69-.24 17.26 17.26 0 004-1.21c-1.23-1.77-4-14.65-3.17-16.51.36-.76.3.12.54 1.14a6.41 6.41 0 004.64-2.33c-.5-2.72-1-6.45-2.22-9.07-1.1-1.71-4.08-1.93-5.81-2.08-2.94 3-4.51 1.82-4.66-.38a3.81 3.81 0 00-1.24.34 9.22 9.22 0 00-1.92 1.11 7.17 7.17 0 00-1.72 3.21c-.34 1.52-.42 2-.75 3.5 0 0 1.07 1.82 2.09 1.65a7.69 7.69 0 00.51 3.85c-.54 2.11-2.54 13.39-2.72 15.02z" class="color9ccef7 svgShape" data-name="Fill-121"></path><path fill="#6eb3f0" d="M187.3 106.92a20.21 20.21 0 002.69-.24 17.77 17.77 0 004-1.21c-1.23-1.78-4-14.65-3.17-16.51.36-.77.3.12.54 1.14a6.46 6.46 0 004.64-2.34c-.5-2.73-1-6.45-2.22-9.07-1.1-1.71-4.08-1.93-5.81-2.09-1.55 1.57-2.72 2-3.5 1.72 0 0 2.73 11.37.29 11.53-2.84.17 1.7.93 3.22.54.25-.07-1.73.74-1.63 1.65.39 3.96.95 14.88.95 14.88z" class="color6eb3f0 svgShape" data-name="Fill-122"></path><path fill="#c48472" d="M191.6 90.09l.21.73c.62 2.1 1.15 4.14 1.63 6a22.05 22.05 0 00-.71 3.51c-.3 2.14-.48 4.47-.58 5.9v.46c0 .13.16.37.25.58a8.26 8.26 0 00.51 1 4.11 4.11 0 00.94 1.09c-.18-1.55 3.31-11 3-13.93-.13-1.31-.28-2.62-.49-3.91 0-.16-.05-.31-.07-.47-.1-.56-.39-2-.61-3a6.55 6.55 0 01-4.08 2.04z" class="colorc48472 svgShape" data-name="Fill-123"></path><path fill="#985e58" d="M191.6 90.09l.21.73c1.07 1.13 3.84.78 4.53.67 0-.16 0-.31-.07-.47-.1-.56-.39-2-.6-3a6.6 6.6 0 01-4.07 2.07z" class="color985e58 svgShape" data-name="Fill-124"></path><path fill="#985e58" d="M193.44 96.82a1.11 1.11 0 01.84-.42 1.14 1.14 0 01.81.42.9.9 0 01-.83.54 1 1 0 01-.82-.54z" class="color985e58 svgShape" data-name="Fill-125"></path><path fill="#ffffff" d="M183.26 76.24c.15 2.19 1.74 3.34 4.68.37l-.43-.06a4.66 4.66 0 01-2.73 1.13c-1.12-.07-1.52-1.44-1.52-1.44z" class="colorfff svgShape" data-name="Fill-129"></path><path fill="#c48472" d="M182.12 73l.1.1a3.28 3.28 0 01.87 1.51 6.48 6.48 0 01.17 1.58c.05.15.46 1.36 1.51 1.43a4.69 4.69 0 002.74-1.14c0-.17-.08-.36-.1-.47s-.09-.5-.15-.75a2.14 2.14 0 01.82-2.46l.16-.13c1.79-1.55 1.75-5 1.77-5.37l-.5-.19a15.29 15.29 0 01-7.19-4.79c-.17-.21-1.63 1.27-1.85 2.9-.35 2.78-.7 5.64 1.65 7.78z" class="colorc48472 svgShape" data-name="Fill-130"></path><path fill="#985e58" d="M182.3 62.35c.46 1.17 2.58 5.93 7.61 6.65 1.15.42 1.12-1.36 1.12-1.36l-1-.29a5.12 5.12 0 00-.51-.18 15.45 15.45 0 01-7.18-4.8z" class="color985e58 svgShape" data-name="Fill-131"></path><path fill="#82514b" d="M182.54 71c0 .07.25.17.27.17a4.75 4.75 0 001.4.37 3.85 3.85 0 00.68 0 3.35 3.35 0 001.21-.29 1.38 1.38 0 00.24-.14c-1 .4-1.5-.16-2 .07-.46-.29-1.1.15-1.8-.18z" class="color82514b svgShape" data-name="Fill-132"></path><path fill="#ffffff" d="M182.74 71.11a1.92 1.92 0 001.59 1 2.29 2.29 0 001.9-.93 3.9 3.9 0 01-3.49-.07z" class="colorfff svgShape" data-name="Fill-133"></path><path fill="#985e58" d="M182.74 71.11c.54 1.87 2.15 2.48 3.47.09a2.28 2.28 0 01-1.87.9 1.92 1.92 0 01-1.6-.99z" class="color985e58 svgShape" data-name="Fill-134"></path><path fill="#0d2842" d="M186 67a.74.74 0 00-.11.44.72.72 0 00.26.54 1.6 1.6 0 00.49 0 .71.71 0 00.27-.62.72.72 0 00-.18-.44 8.42 8.42 0 011.18.36c.32 0 .47-.37.47-.37a.48.48 0 01-.48.13c.09 0 .21-.19.21-.19a1 1 0 01-.54 0 4.79 4.79 0 00-.89-.27 1.12 1.12 0 00-1.15.76A1 1 0 01186 67z" class="color0d2842 svgShape" data-name="Fill-135"></path><path fill="#0d2842" d="M180.6 66.53s.12.42.45.43.46-.17 1-.21a.8.8 0 00-.18.49.6.6 0 00.17.49 2.4 2.4 0 00.53.12h.06a.83.83 0 00.25-.58.72.72 0 00-.16-.49 1.14 1.14 0 01.73.5 1.19 1.19 0 00-1.1-.9 4 4 0 00-.9.17 1.15 1.15 0 01-.55 0s.1.2.19.22a.51.51 0 01-.49-.24z" class="color0d2842 svgShape" data-name="Fill-136"></path><path fill="#0d2842" d="M183.6 66.08a1.47 1.47 0 00-1.53-1 2.34 2.34 0 00-1.19.5 2.88 2.88 0 011.27-.13c.4.17 1.47 1.01 1.45.63z" class="color0d2842 svgShape" data-name="Fill-137"></path><path fill="#985e58" d="M183.7 69.43a1.63 1.63 0 001.46.07s-.88 1.15-1.46-.07z" class="color985e58 svgShape" data-name="Fill-138"></path><path fill="#985e58" d="M183.78 66.91a1.47 1.47 0 010 1s.53-.34 0-1z" class="color985e58 svgShape" data-name="Fill-139"></path><path fill="#0d2842" d="M188.18 65.89a3 3 0 00-1.25-.28c-.41.09-1.54.8-1.48.43v-.32a.14.14 0 01.06.12 1.5 1.5 0 011.51-.58 2.4 2.4 0 011.16.63z" class="color0d2842 svgShape" data-name="Fill-140"></path><path fill="#0d2842" d="M178.76 70.79a4.85 4.85 0 001.45 6.82 8.65 8.65 0 011.82-1 4.12 4.12 0 011.23-.35 3.8 3.8 0 00-1.14-3.26c-2.35-2.17-2-5-1.62-7.76.22-1.63 1.69-3.11 1.85-2.9a15.53 15.53 0 007.18 4.8 5.12 5.12 0 01.51.18c0 .43 0 4-1.94 5.51a2.13 2.13 0 00-.83 2.46c.1.42.17.84.26 1.26h.37l1.24.17c1.36.13 2.14 2.24 2.41 2.85 2.89 6.55 3.09 3.25 3.09 3.25-.85 0-.48-.61 0-1.55.78-1.43 1.92-3.58-.46-5.2 2.5-1.78 2.91-6.81-.1-8.73-1.41-.9-2-1.61-1.77-2.57 1.15-5.41-6.4-9.21-10-5.71-5.11.27-5.76 8.45-3.55 11.73z" class="color0d2842 svgShape" data-name="Fill-141"></path><path fill="#985e58" d="M189.91 69c1.15.42 1.12-1.36 1.12-1.36l-1-.29z" class="color985e58 svgShape" data-name="Fill-142"></path><path fill="#985e58" d="M185.19 63a6.53 6.53 0 004 2.69 37 37 0 01-4-2.69z" class="color985e58 svgShape" data-name="Fill-143"></path><path fill="#985e58" d="M182.22 73.13a3.23 3.23 0 01.87 1.51 4.86 4.86 0 004.34 1.43c-.05-.25-.1-.5-.16-.75a2.14 2.14 0 01.83-2.46l.15-.13a10.09 10.09 0 01-4.14 1.47 1.1 1.1 0 01-.75-.16 11.09 11.09 0 01-1.14-.91z" class="color985e58 svgShape" data-name="Fill-144"></path><g class="color000 svgShape" data-name="bags-n-such" fill="#000000"><path fill="#52cc99" d="M212.43 142.23h-.11a22.51 22.51 0 01-8.2.84 37.31 37.31 0 01-6.88-1.07.7.7 0 00-.45 0c0-.76.13-2.58.19-2.78a.94.94 0 011.22-.72c1 .15 13.22 2.36 13.62 2.42s.6.55.61 1.31z" class="colorffa700 svgShape color52cc99" data-name="Fill-170"></path><path fill="#52cc99" d="M211.21 142.31a25.34 25.34 0 01-7.06.48 40.19 40.19 0 01-6.74-.93c0-.2 0-.39.07-.42.71-.37 11.79.16 12.1.19s1.28-.05 1.63.68z" class="colorffd900 svgShape color52cc99" data-name="Fill-171"></path><path fill="#9ccef7" d="M197.14 142a.7.7 0 00-.58.1.71.71 0 00-.31.5c-.27 2-.91 6.84-1 7.6-.08 1 .06 2.65 1.08 2.76s14 .57 15 .45a2.19 2.19 0 002-2c0-.91-.23-6.53-.4-8.65a.59.59 0 00-.27-.47.62.62 0 00-.53-.09 23.4 23.4 0 01-8.13.8 38.68 38.68 0 01-6.85-1z" class="color9ccef7 svgShape" data-name="Fill-172"></path><path fill="#6eb3f0" d="M195.28 150c-.08 1 .06 2.8 1.08 2.92s14 .59 15 .47a2.25 2.25 0 002-2.09 48.47 48.47 0 01-11.95.41c-4.97-.71-6.13-1.71-6.13-1.71z" class="color6eb3f0 svgShape" data-name="Fill-173"></path><path fill="#6eb3f0" d="M206.19 144.05c0-2-.27-4.9-1.37-6a1.39 1.39 0 00-1-.45c-2.23 0-2.46 3.52-2.56 6.31a.67.67 0 00-.43.73.68.68 0 00.64.57.67.67 0 00.67-.52.66.66 0 00-.37-.76c.09-2.58.29-5.83 2.05-5.83a1 1 0 01.68.31c1 1 1.19 4.05 1.22 5.64a.67.67 0 10.91.75.65.65 0 00-.4-.75z" class="color6eb3f0 svgShape" data-name="Fill-174"></path><path fill="#1773cf" d="M216.63 147.6l-1.15 6.93s-1.33.91-3.79 0l-1.42-6.95s-.61-.14-.6-.45.91-1.15 3.66-1.15c3.34 0 3.95.69 4 1s-.33.56-.7.62z" class="color1773cf svgShape" data-name="Fill-175"></path><path fill="#0559ad" d="M215.8 154.84s-1.33.91-3.78 0l-1.43-7a44.41 44.41 0 003.19 5.79 4.66 4.66 0 002 1.24z" class="color0559ad svgShape" data-name="Fill-176"></path><path fill="#0559ad" d="M214.74 148.19c-.15.1-.29.26 0 .66s1.87 2.21 1.88 2.67a.62.62 0 00.32-.83c-.26-.54-1.36-2-1.48-2.19s-.41-.5-.72-.31z" class="color0559ad svgShape" data-name="Fill-177"></path><path fill="#004487" d="M216.72 151.31a1.45 1.45 0 00-.1-.41.52.52 0 01-.47.37v.25a1 1 0 00.34-.05 2.4 2.4 0 00.27-.16z" class="color004487 svgShape" data-name="Fill-178"></path><path fill="#0559ad" d="M216.72 147.18c0 .17-1.3.31-2.91.32a7.05 7.05 0 01-2.91-.3 7.21 7.21 0 012.91-.32c1.61-.01 2.91.12 2.91.3z" class="color0559ad svgShape" data-name="Fill-179"></path><path fill="#e01f1f" d="M208.34 150.24l.83 5a3 3 0 002.73 0l1-5s.44-.1.43-.32-.65-.83-2.63-.83c-2.41 0-2.84.5-2.88.73s.3.38.52.42z" class="colore01f1f svgShape" data-name="Fill-180"></path><path fill="#e0f2ff" d="M209.27 150.33c.09.08.18.19 0 .48a9.17 9.17 0 00-1.17 1.95.49.49 0 01-.2-.6 17 17 0 01.93-1.6c.05-.13.24-.38.44-.23z" class="colore0f2ff svgShape" data-name="Fill-181"></path><path fill="#c2e3fc" d="M208.14 153.16a1.14 1.14 0 01.11-.4.52.52 0 00.47.37v.25a1.26 1.26 0 01-.33 0 1.61 1.61 0 01-.25-.22z" class="colorc2e3fc svgShape" data-name="Fill-182"></path><path fill="#b80606" d="M210.44 149.36c1.27 0 2.3.15 2.3.32s-1 .3-2.3.29-2.3-.15-2.3-.32 1.03-.3 2.3-.29z" class="colorb80606 svgShape" data-name="Fill-183"></path></g></g></g></g></g></g></g></g></svg></svg></g></svg>